  0
SECTION
  2
HEADER
  9
$ANGBASE
  50
0.0
  9
$ANGDIR
  70
  1
  9
$MEASUREMENT
  70
0
  0
ENDSEC
  0
SECTION
  2
TABLES
  0
TABLE
  2
LTYPE
  70
4
  0
LTYPE
  5
40F
  2
CONTINUOUS
  70
0
  3
Solid line
  72
65
  73
0
  40
0.0
  0
LTYPE
  5
410
  2
DASHDOT
 70
0
  3
Dash Dot ____ _ ____ _
 72
65
 73
4
 40
2.0
 49
1.25
 49
-0.25
 49
0.25
 49
-0.25
  0
LTYPE
  5
411
  2
DASHED
 70
0
  3
Dashed __ __ __ __ __
 72
65
 73
2
 40
0.75
 49
0.5
 49
-0.25
  0
LTYPE
  5
43B
  2
DOTTED
 70
0
  3
Dotted .  .  .  .
 72
65
 73
2
 40
0.2
 49
0.0
 49
-0.2
  0
ENDTAB
  0
TABLE
  2
STYLE
  70
4
  0
STYLE
  2
KICAD
  70
0
  40
0
  41
1
  42
1
  50
0
  71
0
  3
isocp.shx
  0
STYLE
  2
KICADB
  70
0
  40
0
  41
1
  42
1
  50
0
  71
0
  3
isocp.shx
  0
STYLE
  2
KICADI
  70
0
  40
0
  41
1
  42
1
  50
15
  71
0
  3
isocp.shx
  0
STYLE
  2
KICADBI
  70
0
  40
0
  41
1
  42
1
  50
15
  71
0
  3
isocp.shx
  0
ENDTAB
  0
TABLE
  2
LAYER
  70
30
  0
LAYER
  2
BLACK
  70
0
  62
7
  6
CONTINUOUS
  0
LAYER
  2
GRAY1
  70
0
  62
251
  6
CONTINUOUS
  0
LAYER
  2
GRAY2
  70
0
  62
8
  6
CONTINUOUS
  0
LAYER
  2
GRAY3
  70
0
  62
9
  6
CONTINUOUS
  0
LAYER
  2
WHITE
  70
0
  62
7
  6
CONTINUOUS
  0
LAYER
  2
LYELLOW
  70
0
  62
51
  6
CONTINUOUS
  0
LAYER
  2
BLUE1
  70
0
  62
178
  6
CONTINUOUS
  0
LAYER
  2
GREEN1
  70
0
  62
98
  6
CONTINUOUS
  0
LAYER
  2
CYAN1
  70
0
  62
138
  6
CONTINUOUS
  0
LAYER
  2
RED1
  70
0
  62
18
  6
CONTINUOUS
  0
LAYER
  2
MAGENTA1
  70
0
  62
228
  6
CONTINUOUS
  0
LAYER
  2
BROWN1
  70
0
  62
58
  6
CONTINUOUS
  0
LAYER
  2
BLUE2
  70
0
  62
5
  6
CONTINUOUS
  0
LAYER
  2
GREEN2
  70
0
  62
3
  6
CONTINUOUS
  0
LAYER
  2
CYAN2
  70
0
  62
4
  6
CONTINUOUS
  0
LAYER
  2
RED2
  70
0
  62
1
  6
CONTINUOUS
  0
LAYER
  2
MAGENTA2
  70
0
  62
6
  6
CONTINUOUS
  0
LAYER
  2
BROWN2
  70
0
  62
54
  6
CONTINUOUS
  0
LAYER
  2
BLUE3
  70
0
  62
171
  6
CONTINUOUS
  0
LAYER
  2
GREEN3
  70
0
  62
91
  6
CONTINUOUS
  0
LAYER
  2
CYAN3
  70
0
  62
131
  6
CONTINUOUS
  0
LAYER
  2
RED3
  70
0
  62
11
  6
CONTINUOUS
  0
LAYER
  2
MAGENTA3
  70
0
  62
221
  6
CONTINUOUS
  0
LAYER
  2
YELLOW3
  70
0
  62
2
  6
CONTINUOUS
  0
LAYER
  2
BLUE4
  70
0
  62
5
  6
CONTINUOUS
  0
LAYER
  2
GREEN4
  70
0
  62
3
  6
CONTINUOUS
  0
LAYER
  2
CYAN4
  70
0
  62
4
  6
CONTINUOUS
  0
LAYER
  2
RED4
  70
0
  62
1
  6
CONTINUOUS
  0
LAYER
  2
MAGENTA4
  70
0
  62
6
  6
CONTINUOUS
  0
LAYER
  2
YELLOW4
  70
0
  62
2
  6
CONTINUOUS
  0
ENDTAB
  0
ENDSEC
  0
SECTION
  2
ENTITIES
0
LINE
8
BLACK
6
CONTINUOUS
10
29.428
20
-44.057
11
29.5319
21
-44.0885
0
LINE
8
BLACK
6
CONTINUOUS
10
29.5319
20
-44.0885
11
29.6276
21
-44.1396
0
LINE
8
BLACK
6
CONTINUOUS
10
29.6276
20
-44.1396
11
29.7115
21
-44.2085
0
LINE
8
BLACK
6
CONTINUOUS
10
29.7115
20
-44.2085
11
29.7804
21
-44.2924
0
LINE
8
BLACK
6
CONTINUOUS
10
29.7804
20
-44.2924
11
29.8315
21
-44.3881
0
LINE
8
BLACK
6
CONTINUOUS
10
29.8315
20
-44.3881
11
29.863
21
-44.492
0
LINE
8
BLACK
6
CONTINUOUS
10
29.863
20
-44.492
11
29.871
21
-44.5729
0
LINE
8
BLACK
6
CONTINUOUS
10
29.871
20
-44.5729
11
29.871
21
-45.2271
0
LINE
8
BLACK
6
CONTINUOUS
10
29.871
20
-45.2271
11
29.863
21
-45.308
0
LINE
8
BLACK
6
CONTINUOUS
10
29.863
20
-45.308
11
29.8315
21
-45.4119
0
LINE
8
BLACK
6
CONTINUOUS
10
29.8315
20
-45.4119
11
29.7804
21
-45.5076
0
LINE
8
BLACK
6
CONTINUOUS
10
29.7804
20
-45.5076
11
29.7115
21
-45.5915
0
LINE
8
BLACK
6
CONTINUOUS
10
29.7115
20
-45.5915
11
29.6276
21
-45.6604
0
LINE
8
BLACK
6
CONTINUOUS
10
29.6276
20
-45.6604
11
29.5319
21
-45.7115
0
LINE
8
BLACK
6
CONTINUOUS
10
29.5319
20
-45.7115
11
29.428
21
-45.743
0
LINE
8
BLACK
6
CONTINUOUS
10
29.428
20
-45.743
11
29.32
21
-45.7537
0
LINE
8
BLACK
6
CONTINUOUS
10
29.32
20
-45.7537
11
29.212
21
-45.743
0
LINE
8
BLACK
6
CONTINUOUS
10
29.212
20
-45.743
11
29.1081
21
-45.7115
0
LINE
8
BLACK
6
CONTINUOUS
10
29.1081
20
-45.7115
11
29.0124
21
-45.6604
0
LINE
8
BLACK
6
CONTINUOUS
10
29.0124
20
-45.6604
11
28.9285
21
-45.5915
0
LINE
8
BLACK
6
CONTINUOUS
10
28.9285
20
-45.5915
11
28.8596
21
-45.5076
0
LINE
8
BLACK
6
CONTINUOUS
10
28.8596
20
-45.5076
11
28.8085
21
-45.4119
0
LINE
8
BLACK
6
CONTINUOUS
10
28.8085
20
-45.4119
11
28.777
21
-45.308
0
LINE
8
BLACK
6
CONTINUOUS
10
28.777
20
-45.308
11
28.769
21
-45.2271
0
LINE
8
BLACK
6
CONTINUOUS
10
28.769
20
-45.2271
11
28.769
21
-44.5729
0
LINE
8
BLACK
6
CONTINUOUS
10
28.769
20
-44.5729
11
28.777
21
-44.492
0
LINE
8
BLACK
6
CONTINUOUS
10
28.777
20
-44.492
11
28.8085
21
-44.3881
0
LINE
8
BLACK
6
CONTINUOUS
10
28.8085
20
-44.3881
11
28.8596
21
-44.2924
0
LINE
8
BLACK
6
CONTINUOUS
10
28.8596
20
-44.2924
11
28.9285
21
-44.2085
0
LINE
8
BLACK
6
CONTINUOUS
10
28.9285
20
-44.2085
11
29.0124
21
-44.1396
0
LINE
8
BLACK
6
CONTINUOUS
10
29.0124
20
-44.1396
11
29.1081
21
-44.0885
0
LINE
8
BLACK
6
CONTINUOUS
10
29.1081
20
-44.0885
11
29.212
21
-44.057
0
LINE
8
BLACK
6
CONTINUOUS
10
29.212
20
-44.057
11
29.32
21
-44.0463
0
LINE
8
BLACK
6
CONTINUOUS
10
29.32
20
-44.0463
11
29.428
21
-44.057
0
LINE
8
BLACK
6
CONTINUOUS
10
20.788
20
-44.057
11
20.8919
21
-44.0885
0
LINE
8
BLACK
6
CONTINUOUS
10
20.8919
20
-44.0885
11
20.9876
21
-44.1396
0
LINE
8
BLACK
6
CONTINUOUS
10
20.9876
20
-44.1396
11
21.0715
21
-44.2085
0
LINE
8
BLACK
6
CONTINUOUS
10
21.0715
20
-44.2085
11
21.1404
21
-44.2924
0
LINE
8
BLACK
6
CONTINUOUS
10
21.1404
20
-44.2924
11
21.1915
21
-44.3881
0
LINE
8
BLACK
6
CONTINUOUS
10
21.1915
20
-44.3881
11
21.223
21
-44.492
0
LINE
8
BLACK
6
CONTINUOUS
10
21.223
20
-44.492
11
21.231
21
-44.5729
0
LINE
8
BLACK
6
CONTINUOUS
10
21.231
20
-44.5729
11
21.231
21
-45.2271
0
LINE
8
BLACK
6
CONTINUOUS
10
21.231
20
-45.2271
11
21.223
21
-45.308
0
LINE
8
BLACK
6
CONTINUOUS
10
21.223
20
-45.308
11
21.1915
21
-45.4119
0
LINE
8
BLACK
6
CONTINUOUS
10
21.1915
20
-45.4119
11
21.1404
21
-45.5076
0
LINE
8
BLACK
6
CONTINUOUS
10
21.1404
20
-45.5076
11
21.0715
21
-45.5915
0
LINE
8
BLACK
6
CONTINUOUS
10
21.0715
20
-45.5915
11
20.9876
21
-45.6604
0
LINE
8
BLACK
6
CONTINUOUS
10
20.9876
20
-45.6604
11
20.8919
21
-45.7115
0
LINE
8
BLACK
6
CONTINUOUS
10
20.8919
20
-45.7115
11
20.788
21
-45.743
0
LINE
8
BLACK
6
CONTINUOUS
10
20.788
20
-45.743
11
20.68
21
-45.7537
0
LINE
8
BLACK
6
CONTINUOUS
10
20.68
20
-45.7537
11
20.572
21
-45.743
0
LINE
8
BLACK
6
CONTINUOUS
10
20.572
20
-45.743
11
20.4681
21
-45.7115
0
LINE
8
BLACK
6
CONTINUOUS
10
20.4681
20
-45.7115
11
20.3724
21
-45.6604
0
LINE
8
BLACK
6
CONTINUOUS
10
20.3724
20
-45.6604
11
20.2885
21
-45.5915
0
LINE
8
BLACK
6
CONTINUOUS
10
20.2885
20
-45.5915
11
20.2196
21
-45.5076
0
LINE
8
BLACK
6
CONTINUOUS
10
20.2196
20
-45.5076
11
20.1685
21
-45.4119
0
LINE
8
BLACK
6
CONTINUOUS
10
20.1685
20
-45.4119
11
20.137
21
-45.308
0
LINE
8
BLACK
6
CONTINUOUS
10
20.137
20
-45.308
11
20.129
21
-45.2271
0
LINE
8
BLACK
6
CONTINUOUS
10
20.129
20
-45.2271
11
20.129
21
-44.5729
0
LINE
8
BLACK
6
CONTINUOUS
10
20.129
20
-44.5729
11
20.137
21
-44.492
0
LINE
8
BLACK
6
CONTINUOUS
10
20.137
20
-44.492
11
20.1685
21
-44.3881
0
LINE
8
BLACK
6
CONTINUOUS
10
20.1685
20
-44.3881
11
20.2196
21
-44.2924
0
LINE
8
BLACK
6
CONTINUOUS
10
20.2196
20
-44.2924
11
20.2885
21
-44.2085
0
LINE
8
BLACK
6
CONTINUOUS
10
20.2885
20
-44.2085
11
20.3724
21
-44.1396
0
LINE
8
BLACK
6
CONTINUOUS
10
20.3724
20
-44.1396
11
20.4681
21
-44.0885
0
LINE
8
BLACK
6
CONTINUOUS
10
20.4681
20
-44.0885
11
20.572
21
-44.057
0
LINE
8
BLACK
6
CONTINUOUS
10
20.572
20
-44.057
11
20.68
21
-44.0463
0
LINE
8
BLACK
6
CONTINUOUS
10
20.68
20
-44.0463
11
20.788
21
-44.057
0
LINE
8
BLACK
6
CONTINUOUS
10
46.1316
20
-43.9663
11
46.2136
21
-44.0003
0
LINE
8
BLACK
6
CONTINUOUS
10
46.2136
20
-44.0003
11
46.2136
21
-44.0003
0
LINE
8
BLACK
6
CONTINUOUS
10
46.2136
20
-44.0003
11
46.2136
21
-44.0003
0
LINE
8
BLACK
6
CONTINUOUS
10
46.2136
20
-44.0003
11
46.2875
21
-44.0497
0
LINE
8
BLACK
6
CONTINUOUS
10
46.2875
20
-44.0497
11
46.2875
21
-44.0497
0
LINE
8
BLACK
6
CONTINUOUS
10
46.2875
20
-44.0497
11
46.3503
21
-44.1125
0
LINE
8
BLACK
6
CONTINUOUS
10
46.3503
20
-44.1125
11
46.3503
21
-44.1125
0
LINE
8
BLACK
6
CONTINUOUS
10
46.3503
20
-44.1125
11
46.3503
21
-44.1125
0
LINE
8
BLACK
6
CONTINUOUS
10
46.3503
20
-44.1125
11
46.3997
21
-44.1864
0
LINE
8
BLACK
6
CONTINUOUS
10
46.3997
20
-44.1864
11
46.3997
21
-44.1864
0
LINE
8
BLACK
6
CONTINUOUS
10
46.3997
20
-44.1864
11
46.3997
21
-44.1864
0
LINE
8
BLACK
6
CONTINUOUS
10
46.3997
20
-44.1864
11
46.4337
21
-44.2684
0
LINE
8
BLACK
6
CONTINUOUS
10
46.4337
20
-44.2684
11
46.451
21
-44.3556
0
LINE
8
BLACK
6
CONTINUOUS
10
46.451
20
-44.3556
11
46.451
21
-44.4444
0
LINE
8
BLACK
6
CONTINUOUS
10
46.451
20
-44.4444
11
46.4337
21
-44.5316
0
LINE
8
BLACK
6
CONTINUOUS
10
46.4337
20
-44.5316
11
46.4165
21
-44.5729
0
LINE
8
BLACK
6
CONTINUOUS
10
46.4165
20
-44.5729
11
46.3997
21
-44.6136
0
LINE
8
BLACK
6
CONTINUOUS
10
46.3997
20
-44.6136
11
46.3503
21
-44.6875
0
LINE
8
BLACK
6
CONTINUOUS
10
46.3503
20
-44.6875
11
46.3503
21
-44.6875
0
LINE
8
BLACK
6
CONTINUOUS
10
46.3503
20
-44.6875
11
46.2875
21
-44.7503
0
LINE
8
BLACK
6
CONTINUOUS
10
46.2875
20
-44.7503
11
46.2875
21
-44.7503
0
LINE
8
BLACK
6
CONTINUOUS
10
46.2875
20
-44.7503
11
46.2875
21
-44.7503
0
LINE
8
BLACK
6
CONTINUOUS
10
46.2875
20
-44.7503
11
46.2136
21
-44.7997
0
LINE
8
BLACK
6
CONTINUOUS
10
46.2136
20
-44.7997
11
46.2136
21
-44.7997
0
LINE
8
BLACK
6
CONTINUOUS
10
46.2136
20
-44.7997
11
46.2136
21
-44.7997
0
LINE
8
BLACK
6
CONTINUOUS
10
46.2136
20
-44.7997
11
46.1316
21
-44.8337
0
LINE
8
BLACK
6
CONTINUOUS
10
46.1316
20
-44.8337
11
46.0444
21
-44.851
0
LINE
8
BLACK
6
CONTINUOUS
10
46.0444
20
-44.851
11
45.9556
21
-44.851
0
LINE
8
BLACK
6
CONTINUOUS
10
45.9556
20
-44.851
11
45.8684
21
-44.8337
0
LINE
8
BLACK
6
CONTINUOUS
10
45.8684
20
-44.8337
11
45.7864
21
-44.7997
0
LINE
8
BLACK
6
CONTINUOUS
10
45.7864
20
-44.7997
11
45.7864
21
-44.7997
0
LINE
8
BLACK
6
CONTINUOUS
10
45.7864
20
-44.7997
11
45.7864
21
-44.7997
0
LINE
8
BLACK
6
CONTINUOUS
10
45.7864
20
-44.7997
11
45.7125
21
-44.7503
0
LINE
8
BLACK
6
CONTINUOUS
10
45.7125
20
-44.7503
11
45.7125
21
-44.7503
0
LINE
8
BLACK
6
CONTINUOUS
10
45.7125
20
-44.7503
11
45.7125
21
-44.7503
0
LINE
8
BLACK
6
CONTINUOUS
10
45.7125
20
-44.7503
11
45.6497
21
-44.6875
0
LINE
8
BLACK
6
CONTINUOUS
10
45.6497
20
-44.6875
11
45.6497
21
-44.6875
0
LINE
8
BLACK
6
CONTINUOUS
10
45.6497
20
-44.6875
11
45.6003
21
-44.6136
0
LINE
8
BLACK
6
CONTINUOUS
10
45.6003
20
-44.6136
11
45.5835
21
-44.5729
0
LINE
8
BLACK
6
CONTINUOUS
10
45.5835
20
-44.5729
11
45.5663
21
-44.5316
0
LINE
8
BLACK
6
CONTINUOUS
10
45.5663
20
-44.5316
11
45.549
21
-44.4444
0
LINE
8
BLACK
6
CONTINUOUS
10
45.549
20
-44.4444
11
45.549
21
-44.3556
0
LINE
8
BLACK
6
CONTINUOUS
10
45.549
20
-44.3556
11
45.5663
21
-44.2684
0
LINE
8
BLACK
6
CONTINUOUS
10
45.5663
20
-44.2684
11
45.6003
21
-44.1864
0
LINE
8
BLACK
6
CONTINUOUS
10
45.6003
20
-44.1864
11
45.6003
21
-44.1864
0
LINE
8
BLACK
6
CONTINUOUS
10
45.6003
20
-44.1864
11
45.6003
21
-44.1864
0
LINE
8
BLACK
6
CONTINUOUS
10
45.6003
20
-44.1864
11
45.6497
21
-44.1125
0
LINE
8
BLACK
6
CONTINUOUS
10
45.6497
20
-44.1125
11
45.6497
21
-44.1125
0
LINE
8
BLACK
6
CONTINUOUS
10
45.6497
20
-44.1125
11
45.6497
21
-44.1125
0
LINE
8
BLACK
6
CONTINUOUS
10
45.6497
20
-44.1125
11
45.7125
21
-44.0497
0
LINE
8
BLACK
6
CONTINUOUS
10
45.7125
20
-44.0497
11
45.7125
21
-44.0497
0
LINE
8
BLACK
6
CONTINUOUS
10
45.7125
20
-44.0497
11
45.7864
21
-44.0003
0
LINE
8
BLACK
6
CONTINUOUS
10
45.7864
20
-44.0003
11
45.7864
21
-44.0003
0
LINE
8
BLACK
6
CONTINUOUS
10
45.7864
20
-44.0003
11
45.7864
21
-44.0003
0
LINE
8
BLACK
6
CONTINUOUS
10
45.7864
20
-44.0003
11
45.8684
21
-43.9663
0
LINE
8
BLACK
6
CONTINUOUS
10
45.8684
20
-43.9663
11
45.9556
21
-43.949
0
LINE
8
BLACK
6
CONTINUOUS
10
45.9556
20
-43.949
11
46.0444
21
-43.949
0
LINE
8
BLACK
6
CONTINUOUS
10
46.0444
20
-43.949
11
46.1316
21
-43.9663
0
LINE
8
BLACK
6
CONTINUOUS
10
28.551
20
-39.9642
11
28.5534
21
-39.9886
0
LINE
8
BLACK
6
CONTINUOUS
10
28.5534
20
-39.9886
11
28.5605
21
-40.0121
0
LINE
8
BLACK
6
CONTINUOUS
10
28.5605
20
-40.0121
11
28.5721
21
-40.0337
0
LINE
8
BLACK
6
CONTINUOUS
10
28.5721
20
-40.0337
11
28.5876
21
-40.0526
0
LINE
8
BLACK
6
CONTINUOUS
10
28.5876
20
-40.0526
11
28.6066
21
-40.0682
0
LINE
8
BLACK
6
CONTINUOUS
10
28.6066
20
-40.0682
11
28.6282
21
-40.0797
0
LINE
8
BLACK
6
CONTINUOUS
10
28.6282
20
-40.0797
11
28.6516
21
-40.0868
0
LINE
8
BLACK
6
CONTINUOUS
10
28.6516
20
-40.0868
11
28.676
21
-40.0892
0
LINE
8
BLACK
6
CONTINUOUS
10
28.676
20
-40.0892
11
28.7004
21
-40.0868
0
LINE
8
BLACK
6
CONTINUOUS
10
28.7004
20
-40.0868
11
28.7238
21
-40.0797
0
LINE
8
BLACK
6
CONTINUOUS
10
28.7238
20
-40.0797
11
28.7454
21
-40.0682
0
LINE
8
BLACK
6
CONTINUOUS
10
28.7454
20
-40.0682
11
28.7644
21
-40.0526
0
LINE
8
BLACK
6
CONTINUOUS
10
28.7644
20
-40.0526
11
28.7799
21
-40.0337
0
LINE
8
BLACK
6
CONTINUOUS
10
28.7799
20
-40.0337
11
28.7915
21
-40.0121
0
LINE
8
BLACK
6
CONTINUOUS
10
28.7915
20
-40.0121
11
28.7956
21
-40.0005
0
LINE
8
BLACK
6
CONTINUOUS
10
28.7956
20
-40.0005
11
28.8085
21
-39.9581
0
LINE
8
BLACK
6
CONTINUOUS
10
28.8085
20
-39.9581
11
28.8596
21
-39.8624
0
LINE
8
BLACK
6
CONTINUOUS
10
28.8596
20
-39.8624
11
28.9285
21
-39.7785
0
LINE
8
BLACK
6
CONTINUOUS
10
28.9285
20
-39.7785
11
29.0124
21
-39.7096
0
LINE
8
BLACK
6
CONTINUOUS
10
29.0124
20
-39.7096
11
29.1081
21
-39.6585
0
LINE
8
BLACK
6
CONTINUOUS
10
29.1081
20
-39.6585
11
29.212
21
-39.627
0
LINE
8
BLACK
6
CONTINUOUS
10
29.212
20
-39.627
11
29.32
21
-39.6163
0
LINE
8
BLACK
6
CONTINUOUS
10
29.32
20
-39.6163
11
29.428
21
-39.627
0
LINE
8
BLACK
6
CONTINUOUS
10
29.428
20
-39.627
11
29.5319
21
-39.6585
0
LINE
8
BLACK
6
CONTINUOUS
10
29.5319
20
-39.6585
11
29.6276
21
-39.7096
0
LINE
8
BLACK
6
CONTINUOUS
10
29.6276
20
-39.7096
11
29.7115
21
-39.7785
0
LINE
8
BLACK
6
CONTINUOUS
10
29.7115
20
-39.7785
11
29.7804
21
-39.8624
0
LINE
8
BLACK
6
CONTINUOUS
10
29.7804
20
-39.8624
11
29.8315
21
-39.9581
0
LINE
8
BLACK
6
CONTINUOUS
10
29.8315
20
-39.9581
11
29.863
21
-40.062
0
LINE
8
BLACK
6
CONTINUOUS
10
29.863
20
-40.062
11
29.871
21
-40.1429
0
LINE
8
BLACK
6
CONTINUOUS
10
29.871
20
-40.1429
11
29.871
21
-41.2971
0
LINE
8
BLACK
6
CONTINUOUS
10
29.871
20
-41.2971
11
29.863
21
-41.378
0
LINE
8
BLACK
6
CONTINUOUS
10
29.863
20
-41.378
11
29.8315
21
-41.4819
0
LINE
8
BLACK
6
CONTINUOUS
10
29.8315
20
-41.4819
11
29.7804
21
-41.5776
0
LINE
8
BLACK
6
CONTINUOUS
10
29.7804
20
-41.5776
11
29.7115
21
-41.6615
0
LINE
8
BLACK
6
CONTINUOUS
10
29.7115
20
-41.6615
11
29.6276
21
-41.7304
0
LINE
8
BLACK
6
CONTINUOUS
10
29.6276
20
-41.7304
11
29.5319
21
-41.7815
0
LINE
8
BLACK
6
CONTINUOUS
10
29.5319
20
-41.7815
11
29.428
21
-41.813
0
LINE
8
BLACK
6
CONTINUOUS
10
29.428
20
-41.813
11
29.32
21
-41.8237
0
LINE
8
BLACK
6
CONTINUOUS
10
29.32
20
-41.8237
11
29.212
21
-41.813
0
LINE
8
BLACK
6
CONTINUOUS
10
29.212
20
-41.813
11
29.1081
21
-41.7815
0
LINE
8
BLACK
6
CONTINUOUS
10
29.1081
20
-41.7815
11
29.0124
21
-41.7304
0
LINE
8
BLACK
6
CONTINUOUS
10
29.0124
20
-41.7304
11
28.9285
21
-41.6615
0
LINE
8
BLACK
6
CONTINUOUS
10
28.9285
20
-41.6615
11
28.8596
21
-41.5776
0
LINE
8
BLACK
6
CONTINUOUS
10
28.8596
20
-41.5776
11
28.8085
21
-41.4819
0
LINE
8
BLACK
6
CONTINUOUS
10
28.8085
20
-41.4819
11
28.777
21
-41.378
0
LINE
8
BLACK
6
CONTINUOUS
10
28.777
20
-41.378
11
28.769
21
-41.2971
0
LINE
8
BLACK
6
CONTINUOUS
10
28.769
20
-41.2971
11
28.769
21
-40.806
0
LINE
8
BLACK
6
CONTINUOUS
10
28.769
20
-40.806
11
28.7666
21
-40.7816
0
LINE
8
BLACK
6
CONTINUOUS
10
28.7666
20
-40.7816
11
28.7595
21
-40.7582
0
LINE
8
BLACK
6
CONTINUOUS
10
28.7595
20
-40.7582
11
28.7479
21
-40.7366
0
LINE
8
BLACK
6
CONTINUOUS
10
28.7479
20
-40.7366
11
28.7324
21
-40.7176
0
LINE
8
BLACK
6
CONTINUOUS
10
28.7324
20
-40.7176
11
28.7134
21
-40.7021
0
LINE
8
BLACK
6
CONTINUOUS
10
28.7134
20
-40.7021
11
28.6918
21
-40.6905
0
LINE
8
BLACK
6
CONTINUOUS
10
28.6918
20
-40.6905
11
28.6684
21
-40.6834
0
LINE
8
BLACK
6
CONTINUOUS
10
28.6684
20
-40.6834
11
28.644
21
-40.681
0
LINE
8
BLACK
6
CONTINUOUS
10
28.644
20
-40.681
11
28.1722
21
-40.681
0
LINE
8
BLACK
6
CONTINUOUS
10
28.1722
20
-40.681
11
28.1478
21
-40.6834
0
LINE
8
BLACK
6
CONTINUOUS
10
28.1478
20
-40.6834
11
28.1243
21
-40.6905
0
LINE
8
BLACK
6
CONTINUOUS
10
28.1243
20
-40.6905
11
28.1027
21
-40.7021
0
LINE
8
BLACK
6
CONTINUOUS
10
28.1027
20
-40.7021
11
28.0838
21
-40.7176
0
LINE
8
BLACK
6
CONTINUOUS
10
28.0838
20
-40.7176
11
28.0682
21
-40.7366
0
LINE
8
BLACK
6
CONTINUOUS
10
28.0682
20
-40.7366
11
28.0567
21
-40.7582
0
LINE
8
BLACK
6
CONTINUOUS
10
28.0567
20
-40.7582
11
28.0496
21
-40.7816
0
LINE
8
BLACK
6
CONTINUOUS
10
28.0496
20
-40.7816
11
28.0472
21
-40.806
0
LINE
8
BLACK
6
CONTINUOUS
10
28.0472
20
-40.806
11
28.0496
21
-40.8304
0
LINE
8
BLACK
6
CONTINUOUS
10
28.0496
20
-40.8304
11
28.0567
21
-40.8538
0
LINE
8
BLACK
6
CONTINUOUS
10
28.0567
20
-40.8538
11
28.0682
21
-40.8754
0
LINE
8
BLACK
6
CONTINUOUS
10
28.0682
20
-40.8754
11
28.0838
21
-40.8944
0
LINE
8
BLACK
6
CONTINUOUS
10
28.0838
20
-40.8944
11
28.1027
21
-40.9099
0
LINE
8
BLACK
6
CONTINUOUS
10
28.1027
20
-40.9099
11
28.1297
21
-40.9279
0
LINE
8
BLACK
6
CONTINUOUS
10
28.1297
20
-40.9279
11
28.1821
21
-40.9803
0
LINE
8
BLACK
6
CONTINUOUS
10
28.1821
20
-40.9803
11
28.1821
21
-40.9803
0
LINE
8
BLACK
6
CONTINUOUS
10
28.1821
20
-40.9803
11
28.2232
21
-41.0419
0
LINE
8
BLACK
6
CONTINUOUS
10
28.2232
20
-41.0419
11
28.2515
21
-41.1103
0
LINE
8
BLACK
6
CONTINUOUS
10
28.2515
20
-41.1103
11
28.2516
21
-41.1103
0
LINE
8
BLACK
6
CONTINUOUS
10
28.2516
20
-41.1103
11
28.266
21
-41.183
0
LINE
8
BLACK
6
CONTINUOUS
10
28.266
20
-41.183
11
28.266
21
-41.257
0
LINE
8
BLACK
6
CONTINUOUS
10
28.266
20
-41.257
11
28.258
21
-41.2971
0
LINE
8
BLACK
6
CONTINUOUS
10
28.258
20
-41.2971
11
28.2515
21
-41.3297
0
LINE
8
BLACK
6
CONTINUOUS
10
28.2515
20
-41.3297
11
28.2232
21
-41.3981
0
LINE
8
BLACK
6
CONTINUOUS
10
28.2232
20
-41.3981
11
28.1822
21
-41.4594
0
LINE
8
BLACK
6
CONTINUOUS
10
28.1822
20
-41.4594
11
28.1821
21
-41.4597
0
LINE
8
BLACK
6
CONTINUOUS
10
28.1821
20
-41.4597
11
28.1297
21
-41.5121
0
LINE
8
BLACK
6
CONTINUOUS
10
28.1297
20
-41.5121
11
28.1297
21
-41.5121
0
LINE
8
BLACK
6
CONTINUOUS
10
28.1297
20
-41.5121
11
28.0681
21
-41.5532
0
LINE
8
BLACK
6
CONTINUOUS
10
28.0681
20
-41.5532
11
27.9997
21
-41.5816
0
LINE
8
BLACK
6
CONTINUOUS
10
27.9997
20
-41.5816
11
27.9997
21
-41.5816
0
LINE
8
BLACK
6
CONTINUOUS
10
27.9997
20
-41.5816
11
27.9997
21
-41.5816
0
LINE
8
BLACK
6
CONTINUOUS
10
27.9997
20
-41.5816
11
27.927
21
-41.596
0
LINE
8
BLACK
6
CONTINUOUS
10
27.927
20
-41.596
11
27.853
21
-41.596
0
LINE
8
BLACK
6
CONTINUOUS
10
27.853
20
-41.596
11
27.7803
21
-41.5816
0
LINE
8
BLACK
6
CONTINUOUS
10
27.7803
20
-41.5816
11
27.7803
21
-41.5816
0
LINE
8
BLACK
6
CONTINUOUS
10
27.7803
20
-41.5816
11
27.7803
21
-41.5816
0
LINE
8
BLACK
6
CONTINUOUS
10
27.7803
20
-41.5816
11
27.7119
21
-41.5532
0
LINE
8
BLACK
6
CONTINUOUS
10
27.7119
20
-41.5532
11
27.6503
21
-41.5121
0
LINE
8
BLACK
6
CONTINUOUS
10
27.6503
20
-41.5121
11
27.6503
21
-41.5121
0
LINE
8
BLACK
6
CONTINUOUS
10
27.6503
20
-41.5121
11
27.5979
21
-41.4597
0
LINE
8
BLACK
6
CONTINUOUS
10
27.5979
20
-41.4597
11
27.5978
21
-41.4594
0
LINE
8
BLACK
6
CONTINUOUS
10
27.5978
20
-41.4594
11
27.5568
21
-41.3981
0
LINE
8
BLACK
6
CONTINUOUS
10
27.5568
20
-41.3981
11
27.5284
21
-41.3297
0
LINE
8
BLACK
6
CONTINUOUS
10
27.5284
20
-41.3297
11
27.522
21
-41.2971
0
LINE
8
BLACK
6
CONTINUOUS
10
27.522
20
-41.2971
11
27.514
21
-41.257
0
LINE
8
BLACK
6
CONTINUOUS
10
27.514
20
-41.257
11
27.514
21
-41.183
0
LINE
8
BLACK
6
CONTINUOUS
10
27.514
20
-41.183
11
27.5284
21
-41.1103
0
LINE
8
BLACK
6
CONTINUOUS
10
27.5284
20
-41.1103
11
27.5284
21
-41.1103
0
LINE
8
BLACK
6
CONTINUOUS
10
27.5284
20
-41.1103
11
27.5568
21
-41.0419
0
LINE
8
BLACK
6
CONTINUOUS
10
27.5568
20
-41.0419
11
27.5979
21
-40.9803
0
LINE
8
BLACK
6
CONTINUOUS
10
27.5979
20
-40.9803
11
27.5979
21
-40.9803
0
LINE
8
BLACK
6
CONTINUOUS
10
27.5979
20
-40.9803
11
27.6503
21
-40.9279
0
LINE
8
BLACK
6
CONTINUOUS
10
27.6503
20
-40.9279
11
27.6773
21
-40.9099
0
LINE
8
BLACK
6
CONTINUOUS
10
27.6773
20
-40.9099
11
27.6962
21
-40.8944
0
LINE
8
BLACK
6
CONTINUOUS
10
27.6962
20
-40.8944
11
27.7118
21
-40.8754
0
LINE
8
BLACK
6
CONTINUOUS
10
27.7118
20
-40.8754
11
27.7233
21
-40.8538
0
LINE
8
BLACK
6
CONTINUOUS
10
27.7233
20
-40.8538
11
27.7304
21
-40.8304
0
LINE
8
BLACK
6
CONTINUOUS
10
27.7304
20
-40.8304
11
27.7328
21
-40.806
0
LINE
8
BLACK
6
CONTINUOUS
10
27.7328
20
-40.806
11
27.7304
21
-40.7816
0
LINE
8
BLACK
6
CONTINUOUS
10
27.7304
20
-40.7816
11
27.7233
21
-40.7582
0
LINE
8
BLACK
6
CONTINUOUS
10
27.7233
20
-40.7582
11
27.7118
21
-40.7366
0
LINE
8
BLACK
6
CONTINUOUS
10
27.7118
20
-40.7366
11
27.6962
21
-40.7176
0
LINE
8
BLACK
6
CONTINUOUS
10
27.6962
20
-40.7176
11
27.6773
21
-40.7021
0
LINE
8
BLACK
6
CONTINUOUS
10
27.6773
20
-40.7021
11
27.6557
21
-40.6905
0
LINE
8
BLACK
6
CONTINUOUS
10
27.6557
20
-40.6905
11
27.6322
21
-40.6834
0
LINE
8
BLACK
6
CONTINUOUS
10
27.6322
20
-40.6834
11
27.6078
21
-40.681
0
LINE
8
BLACK
6
CONTINUOUS
10
27.6078
20
-40.681
11
22.3922
21
-40.681
0
LINE
8
BLACK
6
CONTINUOUS
10
22.3922
20
-40.681
11
22.3678
21
-40.6834
0
LINE
8
BLACK
6
CONTINUOUS
10
22.3678
20
-40.6834
11
22.3443
21
-40.6905
0
LINE
8
BLACK
6
CONTINUOUS
10
22.3443
20
-40.6905
11
22.3227
21
-40.7021
0
LINE
8
BLACK
6
CONTINUOUS
10
22.3227
20
-40.7021
11
22.3038
21
-40.7176
0
LINE
8
BLACK
6
CONTINUOUS
10
22.3038
20
-40.7176
11
22.2882
21
-40.7366
0
LINE
8
BLACK
6
CONTINUOUS
10
22.2882
20
-40.7366
11
22.2767
21
-40.7582
0
LINE
8
BLACK
6
CONTINUOUS
10
22.2767
20
-40.7582
11
22.2696
21
-40.7816
0
LINE
8
BLACK
6
CONTINUOUS
10
22.2696
20
-40.7816
11
22.2672
21
-40.806
0
LINE
8
BLACK
6
CONTINUOUS
10
22.2672
20
-40.806
11
22.2696
21
-40.8304
0
LINE
8
BLACK
6
CONTINUOUS
10
22.2696
20
-40.8304
11
22.2767
21
-40.8538
0
LINE
8
BLACK
6
CONTINUOUS
10
22.2767
20
-40.8538
11
22.2882
21
-40.8754
0
LINE
8
BLACK
6
CONTINUOUS
10
22.2882
20
-40.8754
11
22.3038
21
-40.8944
0
LINE
8
BLACK
6
CONTINUOUS
10
22.3038
20
-40.8944
11
22.3227
21
-40.9099
0
LINE
8
BLACK
6
CONTINUOUS
10
22.3227
20
-40.9099
11
22.3497
21
-40.9279
0
LINE
8
BLACK
6
CONTINUOUS
10
22.3497
20
-40.9279
11
22.4021
21
-40.9803
0
LINE
8
BLACK
6
CONTINUOUS
10
22.4021
20
-40.9803
11
22.4021
21
-40.9803
0
LINE
8
BLACK
6
CONTINUOUS
10
22.4021
20
-40.9803
11
22.4432
21
-41.0419
0
LINE
8
BLACK
6
CONTINUOUS
10
22.4432
20
-41.0419
11
22.4716
21
-41.1103
0
LINE
8
BLACK
6
CONTINUOUS
10
22.4716
20
-41.1103
11
22.4716
21
-41.1103
0
LINE
8
BLACK
6
CONTINUOUS
10
22.4716
20
-41.1103
11
22.486
21
-41.183
0
LINE
8
BLACK
6
CONTINUOUS
10
22.486
20
-41.183
11
22.486
21
-41.257
0
LINE
8
BLACK
6
CONTINUOUS
10
22.486
20
-41.257
11
22.478
21
-41.2971
0
LINE
8
BLACK
6
CONTINUOUS
10
22.478
20
-41.2971
11
22.4716
21
-41.3297
0
LINE
8
BLACK
6
CONTINUOUS
10
22.4716
20
-41.3297
11
22.4432
21
-41.3981
0
LINE
8
BLACK
6
CONTINUOUS
10
22.4432
20
-41.3981
11
22.4022
21
-41.4594
0
LINE
8
BLACK
6
CONTINUOUS
10
22.4022
20
-41.4594
11
22.4021
21
-41.4597
0
LINE
8
BLACK
6
CONTINUOUS
10
22.4021
20
-41.4597
11
22.3497
21
-41.5121
0
LINE
8
BLACK
6
CONTINUOUS
10
22.3497
20
-41.5121
11
22.3497
21
-41.5121
0
LINE
8
BLACK
6
CONTINUOUS
10
22.3497
20
-41.5121
11
22.2881
21
-41.5532
0
LINE
8
BLACK
6
CONTINUOUS
10
22.2881
20
-41.5532
11
22.2197
21
-41.5816
0
LINE
8
BLACK
6
CONTINUOUS
10
22.2197
20
-41.5816
11
22.2197
21
-41.5816
0
LINE
8
BLACK
6
CONTINUOUS
10
22.2197
20
-41.5816
11
22.2197
21
-41.5816
0
LINE
8
BLACK
6
CONTINUOUS
10
22.2197
20
-41.5816
11
22.147
21
-41.596
0
LINE
8
BLACK
6
CONTINUOUS
10
22.147
20
-41.596
11
22.073
21
-41.596
0
LINE
8
BLACK
6
CONTINUOUS
10
22.073
20
-41.596
11
22.0003
21
-41.5816
0
LINE
8
BLACK
6
CONTINUOUS
10
22.0003
20
-41.5816
11
22.0003
21
-41.5816
0
LINE
8
BLACK
6
CONTINUOUS
10
22.0003
20
-41.5816
11
22.0003
21
-41.5816
0
LINE
8
BLACK
6
CONTINUOUS
10
22.0003
20
-41.5816
11
21.9319
21
-41.5532
0
LINE
8
BLACK
6
CONTINUOUS
10
21.9319
20
-41.5532
11
21.8703
21
-41.5121
0
LINE
8
BLACK
6
CONTINUOUS
10
21.8703
20
-41.5121
11
21.8703
21
-41.5121
0
LINE
8
BLACK
6
CONTINUOUS
10
21.8703
20
-41.5121
11
21.8179
21
-41.4597
0
LINE
8
BLACK
6
CONTINUOUS
10
21.8179
20
-41.4597
11
21.8178
21
-41.4594
0
LINE
8
BLACK
6
CONTINUOUS
10
21.8178
20
-41.4594
11
21.7768
21
-41.3981
0
LINE
8
BLACK
6
CONTINUOUS
10
21.7768
20
-41.3981
11
21.7484
21
-41.3297
0
LINE
8
BLACK
6
CONTINUOUS
10
21.7484
20
-41.3297
11
21.742
21
-41.2971
0
LINE
8
BLACK
6
CONTINUOUS
10
21.742
20
-41.2971
11
21.734
21
-41.257
0
LINE
8
BLACK
6
CONTINUOUS
10
21.734
20
-41.257
11
21.734
21
-41.183
0
LINE
8
BLACK
6
CONTINUOUS
10
21.734
20
-41.183
11
21.7484
21
-41.1103
0
LINE
8
BLACK
6
CONTINUOUS
10
21.7484
20
-41.1103
11
21.7484
21
-41.1103
0
LINE
8
BLACK
6
CONTINUOUS
10
21.7484
20
-41.1103
11
21.7768
21
-41.0419
0
LINE
8
BLACK
6
CONTINUOUS
10
21.7768
20
-41.0419
11
21.8179
21
-40.9803
0
LINE
8
BLACK
6
CONTINUOUS
10
21.8179
20
-40.9803
11
21.8179
21
-40.9803
0
LINE
8
BLACK
6
CONTINUOUS
10
21.8179
20
-40.9803
11
21.8703
21
-40.9279
0
LINE
8
BLACK
6
CONTINUOUS
10
21.8703
20
-40.9279
11
21.8973
21
-40.9099
0
LINE
8
BLACK
6
CONTINUOUS
10
21.8973
20
-40.9099
11
21.9162
21
-40.8944
0
LINE
8
BLACK
6
CONTINUOUS
10
21.9162
20
-40.8944
11
21.9318
21
-40.8754
0
LINE
8
BLACK
6
CONTINUOUS
10
21.9318
20
-40.8754
11
21.9433
21
-40.8538
0
LINE
8
BLACK
6
CONTINUOUS
10
21.9433
20
-40.8538
11
21.9504
21
-40.8304
0
LINE
8
BLACK
6
CONTINUOUS
10
21.9504
20
-40.8304
11
21.9528
21
-40.806
0
LINE
8
BLACK
6
CONTINUOUS
10
21.9528
20
-40.806
11
21.9504
21
-40.7816
0
LINE
8
BLACK
6
CONTINUOUS
10
21.9504
20
-40.7816
11
21.9433
21
-40.7582
0
LINE
8
BLACK
6
CONTINUOUS
10
21.9433
20
-40.7582
11
21.9318
21
-40.7366
0
LINE
8
BLACK
6
CONTINUOUS
10
21.9318
20
-40.7366
11
21.9162
21
-40.7176
0
LINE
8
BLACK
6
CONTINUOUS
10
21.9162
20
-40.7176
11
21.8973
21
-40.7021
0
LINE
8
BLACK
6
CONTINUOUS
10
21.8973
20
-40.7021
11
21.8757
21
-40.6905
0
LINE
8
BLACK
6
CONTINUOUS
10
21.8757
20
-40.6905
11
21.8522
21
-40.6834
0
LINE
8
BLACK
6
CONTINUOUS
10
21.8522
20
-40.6834
11
21.8278
21
-40.681
0
LINE
8
BLACK
6
CONTINUOUS
10
21.8278
20
-40.681
11
21.356
21
-40.681
0
LINE
8
BLACK
6
CONTINUOUS
10
21.356
20
-40.681
11
21.3316
21
-40.6834
0
LINE
8
BLACK
6
CONTINUOUS
10
21.3316
20
-40.6834
11
21.3082
21
-40.6905
0
LINE
8
BLACK
6
CONTINUOUS
10
21.3082
20
-40.6905
11
21.2866
21
-40.7021
0
LINE
8
BLACK
6
CONTINUOUS
10
21.2866
20
-40.7021
11
21.2676
21
-40.7176
0
LINE
8
BLACK
6
CONTINUOUS
10
21.2676
20
-40.7176
11
21.2521
21
-40.7366
0
LINE
8
BLACK
6
CONTINUOUS
10
21.2521
20
-40.7366
11
21.2405
21
-40.7582
0
LINE
8
BLACK
6
CONTINUOUS
10
21.2405
20
-40.7582
11
21.2334
21
-40.7816
0
LINE
8
BLACK
6
CONTINUOUS
10
21.2334
20
-40.7816
11
21.231
21
-40.806
0
LINE
8
BLACK
6
CONTINUOUS
10
21.231
20
-40.806
11
21.231
21
-41.2971
0
LINE
8
BLACK
6
CONTINUOUS
10
21.231
20
-41.2971
11
21.223
21
-41.378
0
LINE
8
BLACK
6
CONTINUOUS
10
21.223
20
-41.378
11
21.1915
21
-41.4819
0
LINE
8
BLACK
6
CONTINUOUS
10
21.1915
20
-41.4819
11
21.1404
21
-41.5776
0
LINE
8
BLACK
6
CONTINUOUS
10
21.1404
20
-41.5776
11
21.0715
21
-41.6615
0
LINE
8
BLACK
6
CONTINUOUS
10
21.0715
20
-41.6615
11
20.9876
21
-41.7304
0
LINE
8
BLACK
6
CONTINUOUS
10
20.9876
20
-41.7304
11
20.8919
21
-41.7815
0
LINE
8
BLACK
6
CONTINUOUS
10
20.8919
20
-41.7815
11
20.788
21
-41.813
0
LINE
8
BLACK
6
CONTINUOUS
10
20.788
20
-41.813
11
20.68
21
-41.8237
0
LINE
8
BLACK
6
CONTINUOUS
10
20.68
20
-41.8237
11
20.572
21
-41.813
0
LINE
8
BLACK
6
CONTINUOUS
10
20.572
20
-41.813
11
20.4681
21
-41.7815
0
LINE
8
BLACK
6
CONTINUOUS
10
20.4681
20
-41.7815
11
20.3724
21
-41.7304
0
LINE
8
BLACK
6
CONTINUOUS
10
20.3724
20
-41.7304
11
20.2885
21
-41.6615
0
LINE
8
BLACK
6
CONTINUOUS
10
20.2885
20
-41.6615
11
20.2196
21
-41.5776
0
LINE
8
BLACK
6
CONTINUOUS
10
20.2196
20
-41.5776
11
20.1685
21
-41.4819
0
LINE
8
BLACK
6
CONTINUOUS
10
20.1685
20
-41.4819
11
20.137
21
-41.378
0
LINE
8
BLACK
6
CONTINUOUS
10
20.137
20
-41.378
11
20.129
21
-41.2971
0
LINE
8
BLACK
6
CONTINUOUS
10
20.129
20
-41.2971
11
20.129
21
-40.1429
0
LINE
8
BLACK
6
CONTINUOUS
10
20.129
20
-40.1429
11
20.137
21
-40.062
0
LINE
8
BLACK
6
CONTINUOUS
10
20.137
20
-40.062
11
20.1685
21
-39.9581
0
LINE
8
BLACK
6
CONTINUOUS
10
20.1685
20
-39.9581
11
20.2196
21
-39.8624
0
LINE
8
BLACK
6
CONTINUOUS
10
20.2196
20
-39.8624
11
20.2885
21
-39.7785
0
LINE
8
BLACK
6
CONTINUOUS
10
20.2885
20
-39.7785
11
20.3724
21
-39.7096
0
LINE
8
BLACK
6
CONTINUOUS
10
20.3724
20
-39.7096
11
20.4681
21
-39.6585
0
LINE
8
BLACK
6
CONTINUOUS
10
20.4681
20
-39.6585
11
20.572
21
-39.627
0
LINE
8
BLACK
6
CONTINUOUS
10
20.572
20
-39.627
11
20.68
21
-39.6163
0
LINE
8
BLACK
6
CONTINUOUS
10
20.68
20
-39.6163
11
20.788
21
-39.627
0
LINE
8
BLACK
6
CONTINUOUS
10
20.788
20
-39.627
11
20.8919
21
-39.6585
0
LINE
8
BLACK
6
CONTINUOUS
10
20.8919
20
-39.6585
11
20.9876
21
-39.7096
0
LINE
8
BLACK
6
CONTINUOUS
10
20.9876
20
-39.7096
11
21.0715
21
-39.7785
0
LINE
8
BLACK
6
CONTINUOUS
10
21.0715
20
-39.7785
11
21.1404
21
-39.8624
0
LINE
8
BLACK
6
CONTINUOUS
10
21.1404
20
-39.8624
11
21.1915
21
-39.9581
0
LINE
8
BLACK
6
CONTINUOUS
10
21.1915
20
-39.9581
11
21.2044
21
-40.0005
0
LINE
8
BLACK
6
CONTINUOUS
10
21.2044
20
-40.0005
11
21.2138
21
-40.0232
0
LINE
8
BLACK
6
CONTINUOUS
10
21.2138
20
-40.0232
11
21.2274
21
-40.0435
0
LINE
8
BLACK
6
CONTINUOUS
10
21.2274
20
-40.0435
11
21.2447
21
-40.0609
0
LINE
8
BLACK
6
CONTINUOUS
10
21.2447
20
-40.0609
11
21.2651
21
-40.0745
0
LINE
8
BLACK
6
CONTINUOUS
10
21.2651
20
-40.0745
11
21.2877
21
-40.0839
0
LINE
8
BLACK
6
CONTINUOUS
10
21.2877
20
-40.0839
11
21.3117
21
-40.0886
0
LINE
8
BLACK
6
CONTINUOUS
10
21.3117
20
-40.0886
11
21.3363
21
-40.0886
0
LINE
8
BLACK
6
CONTINUOUS
10
21.3363
20
-40.0886
11
21.3603
21
-40.0839
0
LINE
8
BLACK
6
CONTINUOUS
10
21.3603
20
-40.0839
11
21.3829
21
-40.0745
0
LINE
8
BLACK
6
CONTINUOUS
10
21.3829
20
-40.0745
11
21.4033
21
-40.0609
0
LINE
8
BLACK
6
CONTINUOUS
10
21.4033
20
-40.0609
11
21.4206
21
-40.0435
0
LINE
8
BLACK
6
CONTINUOUS
10
21.4206
20
-40.0435
11
21.4342
21
-40.0232
0
LINE
8
BLACK
6
CONTINUOUS
10
21.4342
20
-40.0232
11
21.4436
21
-40.0005
0
LINE
8
BLACK
6
CONTINUOUS
10
21.4436
20
-40.0005
11
21.4484
21
-39.9765
0
LINE
8
BLACK
6
CONTINUOUS
10
21.4484
20
-39.9765
11
21.449
21
-39.9642
0
LINE
8
BLACK
6
CONTINUOUS
10
21.449
20
-39.9642
11
21.449
21
-39.429
0
LINE
8
BLACK
6
CONTINUOUS
10
21.449
20
-39.429
11
28.551
21
-39.429
0
LINE
8
BLACK
6
CONTINUOUS
10
28.551
20
-39.429
11
28.551
21
-39.9642
0
LINE
8
BLACK
6
CONTINUOUS
10
46.1316
20
-36.9663
11
46.2136
21
-37.0003
0
LINE
8
BLACK
6
CONTINUOUS
10
46.2136
20
-37.0003
11
46.2136
21
-37.0003
0
LINE
8
BLACK
6
CONTINUOUS
10
46.2136
20
-37.0003
11
46.2136
21
-37.0003
0
LINE
8
BLACK
6
CONTINUOUS
10
46.2136
20
-37.0003
11
46.2875
21
-37.0497
0
LINE
8
BLACK
6
CONTINUOUS
10
46.2875
20
-37.0497
11
46.2875
21
-37.0497
0
LINE
8
BLACK
6
CONTINUOUS
10
46.2875
20
-37.0497
11
46.3503
21
-37.1125
0
LINE
8
BLACK
6
CONTINUOUS
10
46.3503
20
-37.1125
11
46.3503
21
-37.1125
0
LINE
8
BLACK
6
CONTINUOUS
10
46.3503
20
-37.1125
11
46.3503
21
-37.1125
0
LINE
8
BLACK
6
CONTINUOUS
10
46.3503
20
-37.1125
11
46.3997
21
-37.1864
0
LINE
8
BLACK
6
CONTINUOUS
10
46.3997
20
-37.1864
11
46.3997
21
-37.1864
0
LINE
8
BLACK
6
CONTINUOUS
10
46.3997
20
-37.1864
11
46.3997
21
-37.1864
0
LINE
8
BLACK
6
CONTINUOUS
10
46.3997
20
-37.1864
11
46.4337
21
-37.2684
0
LINE
8
BLACK
6
CONTINUOUS
10
46.4337
20
-37.2684
11
46.451
21
-37.3556
0
LINE
8
BLACK
6
CONTINUOUS
10
46.451
20
-37.3556
11
46.451
21
-37.4444
0
LINE
8
BLACK
6
CONTINUOUS
10
46.451
20
-37.4444
11
46.4337
21
-37.5316
0
LINE
8
BLACK
6
CONTINUOUS
10
46.4337
20
-37.5316
11
46.3997
21
-37.6136
0
LINE
8
BLACK
6
CONTINUOUS
10
46.3997
20
-37.6136
11
46.3997
21
-37.6136
0
LINE
8
BLACK
6
CONTINUOUS
10
46.3997
20
-37.6136
11
46.3503
21
-37.6875
0
LINE
8
BLACK
6
CONTINUOUS
10
46.3503
20
-37.6875
11
46.3503
21
-37.6875
0
LINE
8
BLACK
6
CONTINUOUS
10
46.3503
20
-37.6875
11
46.2875
21
-37.7503
0
LINE
8
BLACK
6
CONTINUOUS
10
46.2875
20
-37.7503
11
46.2875
21
-37.7503
0
LINE
8
BLACK
6
CONTINUOUS
10
46.2875
20
-37.7503
11
46.2875
21
-37.7503
0
LINE
8
BLACK
6
CONTINUOUS
10
46.2875
20
-37.7503
11
46.2136
21
-37.7997
0
LINE
8
BLACK
6
CONTINUOUS
10
46.2136
20
-37.7997
11
46.2136
21
-37.7997
0
LINE
8
BLACK
6
CONTINUOUS
10
46.2136
20
-37.7997
11
46.2136
21
-37.7997
0
LINE
8
BLACK
6
CONTINUOUS
10
46.2136
20
-37.7997
11
46.1316
21
-37.8337
0
LINE
8
BLACK
6
CONTINUOUS
10
46.1316
20
-37.8337
11
46.0444
21
-37.851
0
LINE
8
BLACK
6
CONTINUOUS
10
46.0444
20
-37.851
11
45.9556
21
-37.851
0
LINE
8
BLACK
6
CONTINUOUS
10
45.9556
20
-37.851
11
45.8684
21
-37.8337
0
LINE
8
BLACK
6
CONTINUOUS
10
45.8684
20
-37.8337
11
45.7864
21
-37.7997
0
LINE
8
BLACK
6
CONTINUOUS
10
45.7864
20
-37.7997
11
45.7864
21
-37.7997
0
LINE
8
BLACK
6
CONTINUOUS
10
45.7864
20
-37.7997
11
45.7864
21
-37.7997
0
LINE
8
BLACK
6
CONTINUOUS
10
45.7864
20
-37.7997
11
45.7125
21
-37.7503
0
LINE
8
BLACK
6
CONTINUOUS
10
45.7125
20
-37.7503
11
45.7125
21
-37.7503
0
LINE
8
BLACK
6
CONTINUOUS
10
45.7125
20
-37.7503
11
45.7125
21
-37.7503
0
LINE
8
BLACK
6
CONTINUOUS
10
45.7125
20
-37.7503
11
45.6497
21
-37.6875
0
LINE
8
BLACK
6
CONTINUOUS
10
45.6497
20
-37.6875
11
45.6497
21
-37.6875
0
LINE
8
BLACK
6
CONTINUOUS
10
45.6497
20
-37.6875
11
45.6003
21
-37.6136
0
LINE
8
BLACK
6
CONTINUOUS
10
45.6003
20
-37.6136
11
45.6003
21
-37.6136
0
LINE
8
BLACK
6
CONTINUOUS
10
45.6003
20
-37.6136
11
45.5663
21
-37.5316
0
LINE
8
BLACK
6
CONTINUOUS
10
45.5663
20
-37.5316
11
45.549
21
-37.4444
0
LINE
8
BLACK
6
CONTINUOUS
10
45.549
20
-37.4444
11
45.549
21
-37.3556
0
LINE
8
BLACK
6
CONTINUOUS
10
45.549
20
-37.3556
11
45.5663
21
-37.2684
0
LINE
8
BLACK
6
CONTINUOUS
10
45.5663
20
-37.2684
11
45.6003
21
-37.1864
0
LINE
8
BLACK
6
CONTINUOUS
10
45.6003
20
-37.1864
11
45.6003
21
-37.1864
0
LINE
8
BLACK
6
CONTINUOUS
10
45.6003
20
-37.1864
11
45.6003
21
-37.1864
0
LINE
8
BLACK
6
CONTINUOUS
10
45.6003
20
-37.1864
11
45.6497
21
-37.1125
0
LINE
8
BLACK
6
CONTINUOUS
10
45.6497
20
-37.1125
11
45.6497
21
-37.1125
0
LINE
8
BLACK
6
CONTINUOUS
10
45.6497
20
-37.1125
11
45.6497
21
-37.1125
0
LINE
8
BLACK
6
CONTINUOUS
10
45.6497
20
-37.1125
11
45.7125
21
-37.0497
0
LINE
8
BLACK
6
CONTINUOUS
10
45.7125
20
-37.0497
11
45.7125
21
-37.0497
0
LINE
8
BLACK
6
CONTINUOUS
10
45.7125
20
-37.0497
11
45.7864
21
-37.0003
0
LINE
8
BLACK
6
CONTINUOUS
10
45.7864
20
-37.0003
11
45.7864
21
-37.0003
0
LINE
8
BLACK
6
CONTINUOUS
10
45.7864
20
-37.0003
11
45.7864
21
-37.0003
0
LINE
8
BLACK
6
CONTINUOUS
10
45.7864
20
-37.0003
11
45.8684
21
-36.9663
0
LINE
8
BLACK
6
CONTINUOUS
10
45.8684
20
-36.9663
11
45.9556
21
-36.949
0
LINE
8
BLACK
6
CONTINUOUS
10
45.9556
20
-36.949
11
46.0444
21
-36.949
0
LINE
8
BLACK
6
CONTINUOUS
10
46.0444
20
-36.949
11
46.1316
21
-36.9663
0
LINE
8
BLACK
6
CONTINUOUS
10
51.881
20
-33.301
11
50.279
21
-33.301
0
LINE
8
BLACK
6
CONTINUOUS
10
50.279
20
-33.301
11
50.279
21
-31.699
0
LINE
8
BLACK
6
CONTINUOUS
10
50.279
20
-31.699
11
51.881
21
-31.699
0
LINE
8
BLACK
6
CONTINUOUS
10
51.881
20
-31.699
11
51.881
21
-33.301
0
LINE
8
BLACK
6
CONTINUOUS
10
20.1536
20
-31.7298
11
20.2994
21
-31.7902
0
LINE
8
BLACK
6
CONTINUOUS
10
20.2994
20
-31.7902
11
20.4306
21
-31.8778
0
LINE
8
BLACK
6
CONTINUOUS
10
20.4306
20
-31.8778
11
20.5422
21
-31.9894
0
LINE
8
BLACK
6
CONTINUOUS
10
20.5422
20
-31.9894
11
20.6298
21
-32.1206
0
LINE
8
BLACK
6
CONTINUOUS
10
20.6298
20
-32.1206
11
20.6902
21
-32.2664
0
LINE
8
BLACK
6
CONTINUOUS
10
20.6902
20
-32.2664
11
20.721
21
-32.4211
0
LINE
8
BLACK
6
CONTINUOUS
10
20.721
20
-32.4211
11
20.721
21
-32.5789
0
LINE
8
BLACK
6
CONTINUOUS
10
20.721
20
-32.5789
11
20.6902
21
-32.7336
0
LINE
8
BLACK
6
CONTINUOUS
10
20.6902
20
-32.7336
11
20.6298
21
-32.8794
0
LINE
8
BLACK
6
CONTINUOUS
10
20.6298
20
-32.8794
11
20.5422
21
-33.0106
0
LINE
8
BLACK
6
CONTINUOUS
10
20.5422
20
-33.0106
11
20.4306
21
-33.1222
0
LINE
8
BLACK
6
CONTINUOUS
10
20.4306
20
-33.1222
11
20.2994
21
-33.2098
0
LINE
8
BLACK
6
CONTINUOUS
10
20.2994
20
-33.2098
11
20.1536
21
-33.2702
0
LINE
8
BLACK
6
CONTINUOUS
10
20.1536
20
-33.2702
11
19.9989
21
-33.301
0
LINE
8
BLACK
6
CONTINUOUS
10
19.9989
20
-33.301
11
19.8411
21
-33.301
0
LINE
8
BLACK
6
CONTINUOUS
10
19.8411
20
-33.301
11
19.6864
21
-33.2702
0
LINE
8
BLACK
6
CONTINUOUS
10
19.6864
20
-33.2702
11
19.5406
21
-33.2098
0
LINE
8
BLACK
6
CONTINUOUS
10
19.5406
20
-33.2098
11
19.4094
21
-33.1222
0
LINE
8
BLACK
6
CONTINUOUS
10
19.4094
20
-33.1222
11
19.2978
21
-33.0106
0
LINE
8
BLACK
6
CONTINUOUS
10
19.2978
20
-33.0106
11
19.2102
21
-32.8794
0
LINE
8
BLACK
6
CONTINUOUS
10
19.2102
20
-32.8794
11
19.1498
21
-32.7336
0
LINE
8
BLACK
6
CONTINUOUS
10
19.1498
20
-32.7336
11
19.119
21
-32.5789
0
LINE
8
BLACK
6
CONTINUOUS
10
19.119
20
-32.5789
11
19.119
21
-32.4211
0
LINE
8
BLACK
6
CONTINUOUS
10
19.119
20
-32.4211
11
19.1498
21
-32.2664
0
LINE
8
BLACK
6
CONTINUOUS
10
19.1498
20
-32.2664
11
19.2102
21
-32.1206
0
LINE
8
BLACK
6
CONTINUOUS
10
19.2102
20
-32.1206
11
19.2978
21
-31.9894
0
LINE
8
BLACK
6
CONTINUOUS
10
19.2978
20
-31.9894
11
19.4094
21
-31.8778
0
LINE
8
BLACK
6
CONTINUOUS
10
19.4094
20
-31.8778
11
19.5406
21
-31.7902
0
LINE
8
BLACK
6
CONTINUOUS
10
19.5406
20
-31.7902
11
19.6864
21
-31.7298
0
LINE
8
BLACK
6
CONTINUOUS
10
19.6864
20
-31.7298
11
19.8411
21
-31.699
0
LINE
8
BLACK
6
CONTINUOUS
10
19.8411
20
-31.699
11
19.9989
21
-31.699
0
LINE
8
BLACK
6
CONTINUOUS
10
19.9989
20
-31.699
11
20.1536
21
-31.7298
0
LINE
8
BLACK
6
CONTINUOUS
10
23.3286
20
-31.7298
11
23.4744
21
-31.7902
0
LINE
8
BLACK
6
CONTINUOUS
10
23.4744
20
-31.7902
11
23.6056
21
-31.8778
0
LINE
8
BLACK
6
CONTINUOUS
10
23.6056
20
-31.8778
11
23.7172
21
-31.9894
0
LINE
8
BLACK
6
CONTINUOUS
10
23.7172
20
-31.9894
11
23.8048
21
-32.1206
0
LINE
8
BLACK
6
CONTINUOUS
10
23.8048
20
-32.1206
11
23.8652
21
-32.2664
0
LINE
8
BLACK
6
CONTINUOUS
10
23.8652
20
-32.2664
11
23.896
21
-32.4211
0
LINE
8
BLACK
6
CONTINUOUS
10
23.896
20
-32.4211
11
23.896
21
-32.5789
0
LINE
8
BLACK
6
CONTINUOUS
10
23.896
20
-32.5789
11
23.8652
21
-32.7336
0
LINE
8
BLACK
6
CONTINUOUS
10
23.8652
20
-32.7336
11
23.8048
21
-32.8794
0
LINE
8
BLACK
6
CONTINUOUS
10
23.8048
20
-32.8794
11
23.7172
21
-33.0106
0
LINE
8
BLACK
6
CONTINUOUS
10
23.7172
20
-33.0106
11
23.6056
21
-33.1222
0
LINE
8
BLACK
6
CONTINUOUS
10
23.6056
20
-33.1222
11
23.4744
21
-33.2098
0
LINE
8
BLACK
6
CONTINUOUS
10
23.4744
20
-33.2098
11
23.3286
21
-33.2702
0
LINE
8
BLACK
6
CONTINUOUS
10
23.3286
20
-33.2702
11
23.1739
21
-33.301
0
LINE
8
BLACK
6
CONTINUOUS
10
23.1739
20
-33.301
11
23.0161
21
-33.301
0
LINE
8
BLACK
6
CONTINUOUS
10
23.0161
20
-33.301
11
22.8614
21
-33.2702
0
LINE
8
BLACK
6
CONTINUOUS
10
22.8614
20
-33.2702
11
22.7156
21
-33.2098
0
LINE
8
BLACK
6
CONTINUOUS
10
22.7156
20
-33.2098
11
22.5844
21
-33.1222
0
LINE
8
BLACK
6
CONTINUOUS
10
22.5844
20
-33.1222
11
22.4728
21
-33.0106
0
LINE
8
BLACK
6
CONTINUOUS
10
22.4728
20
-33.0106
11
22.3852
21
-32.8794
0
LINE
8
BLACK
6
CONTINUOUS
10
22.3852
20
-32.8794
11
22.3248
21
-32.7336
0
LINE
8
BLACK
6
CONTINUOUS
10
22.3248
20
-32.7336
11
22.294
21
-32.5789
0
LINE
8
BLACK
6
CONTINUOUS
10
22.294
20
-32.5789
11
22.294
21
-32.4211
0
LINE
8
BLACK
6
CONTINUOUS
10
22.294
20
-32.4211
11
22.3248
21
-32.2664
0
LINE
8
BLACK
6
CONTINUOUS
10
22.3248
20
-32.2664
11
22.3852
21
-32.1206
0
LINE
8
BLACK
6
CONTINUOUS
10
22.3852
20
-32.1206
11
22.4728
21
-31.9894
0
LINE
8
BLACK
6
CONTINUOUS
10
22.4728
20
-31.9894
11
22.5844
21
-31.8778
0
LINE
8
BLACK
6
CONTINUOUS
10
22.5844
20
-31.8778
11
22.7156
21
-31.7902
0
LINE
8
BLACK
6
CONTINUOUS
10
22.7156
20
-31.7902
11
22.8614
21
-31.7298
0
LINE
8
BLACK
6
CONTINUOUS
10
22.8614
20
-31.7298
11
23.0161
21
-31.699
0
LINE
8
BLACK
6
CONTINUOUS
10
23.0161
20
-31.699
11
23.1739
21
-31.699
0
LINE
8
BLACK
6
CONTINUOUS
10
23.1739
20
-31.699
11
23.3286
21
-31.7298
0
LINE
8
BLACK
6
CONTINUOUS
10
27.1386
20
-31.7298
11
27.2844
21
-31.7902
0
LINE
8
BLACK
6
CONTINUOUS
10
27.2844
20
-31.7902
11
27.4156
21
-31.8778
0
LINE
8
BLACK
6
CONTINUOUS
10
27.4156
20
-31.8778
11
27.5272
21
-31.9894
0
LINE
8
BLACK
6
CONTINUOUS
10
27.5272
20
-31.9894
11
27.6148
21
-32.1206
0
LINE
8
BLACK
6
CONTINUOUS
10
27.6148
20
-32.1206
11
27.6752
21
-32.2664
0
LINE
8
BLACK
6
CONTINUOUS
10
27.6752
20
-32.2664
11
27.706
21
-32.4211
0
LINE
8
BLACK
6
CONTINUOUS
10
27.706
20
-32.4211
11
27.706
21
-32.5789
0
LINE
8
BLACK
6
CONTINUOUS
10
27.706
20
-32.5789
11
27.6752
21
-32.7336
0
LINE
8
BLACK
6
CONTINUOUS
10
27.6752
20
-32.7336
11
27.6148
21
-32.8794
0
LINE
8
BLACK
6
CONTINUOUS
10
27.6148
20
-32.8794
11
27.5272
21
-33.0106
0
LINE
8
BLACK
6
CONTINUOUS
10
27.5272
20
-33.0106
11
27.4156
21
-33.1222
0
LINE
8
BLACK
6
CONTINUOUS
10
27.4156
20
-33.1222
11
27.2844
21
-33.2098
0
LINE
8
BLACK
6
CONTINUOUS
10
27.2844
20
-33.2098
11
27.1386
21
-33.2702
0
LINE
8
BLACK
6
CONTINUOUS
10
27.1386
20
-33.2702
11
26.9839
21
-33.301
0
LINE
8
BLACK
6
CONTINUOUS
10
26.9839
20
-33.301
11
26.8261
21
-33.301
0
LINE
8
BLACK
6
CONTINUOUS
10
26.8261
20
-33.301
11
26.6714
21
-33.2702
0
LINE
8
BLACK
6
CONTINUOUS
10
26.6714
20
-33.2702
11
26.5256
21
-33.2098
0
LINE
8
BLACK
6
CONTINUOUS
10
26.5256
20
-33.2098
11
26.3944
21
-33.1222
0
LINE
8
BLACK
6
CONTINUOUS
10
26.3944
20
-33.1222
11
26.2828
21
-33.0106
0
LINE
8
BLACK
6
CONTINUOUS
10
26.2828
20
-33.0106
11
26.1952
21
-32.8794
0
LINE
8
BLACK
6
CONTINUOUS
10
26.1952
20
-32.8794
11
26.1348
21
-32.7336
0
LINE
8
BLACK
6
CONTINUOUS
10
26.1348
20
-32.7336
11
26.104
21
-32.5789
0
LINE
8
BLACK
6
CONTINUOUS
10
26.104
20
-32.5789
11
26.104
21
-32.4211
0
LINE
8
BLACK
6
CONTINUOUS
10
26.104
20
-32.4211
11
26.1348
21
-32.2664
0
LINE
8
BLACK
6
CONTINUOUS
10
26.1348
20
-32.2664
11
26.1952
21
-32.1206
0
LINE
8
BLACK
6
CONTINUOUS
10
26.1952
20
-32.1206
11
26.2828
21
-31.9894
0
LINE
8
BLACK
6
CONTINUOUS
10
26.2828
20
-31.9894
11
26.3944
21
-31.8778
0
LINE
8
BLACK
6
CONTINUOUS
10
26.3944
20
-31.8778
11
26.5256
21
-31.7902
0
LINE
8
BLACK
6
CONTINUOUS
10
26.5256
20
-31.7902
11
26.6714
21
-31.7298
0
LINE
8
BLACK
6
CONTINUOUS
10
26.6714
20
-31.7298
11
26.8261
21
-31.699
0
LINE
8
BLACK
6
CONTINUOUS
10
26.8261
20
-31.699
11
26.9839
21
-31.699
0
LINE
8
BLACK
6
CONTINUOUS
10
26.9839
20
-31.699
11
27.1386
21
-31.7298
0
LINE
8
BLACK
6
CONTINUOUS
10
30.881
20
-33.301
11
29.279
21
-33.301
0
LINE
8
BLACK
6
CONTINUOUS
10
29.279
20
-33.301
11
29.279
21
-31.699
0
LINE
8
BLACK
6
CONTINUOUS
10
29.279
20
-31.699
11
30.881
21
-31.699
0
LINE
8
BLACK
6
CONTINUOUS
10
30.881
20
-31.699
11
30.881
21
-33.301
0
LINE
8
BLACK
6
CONTINUOUS
10
44.3286
20
-31.7298
11
44.4744
21
-31.7902
0
LINE
8
BLACK
6
CONTINUOUS
10
44.4744
20
-31.7902
11
44.6056
21
-31.8778
0
LINE
8
BLACK
6
CONTINUOUS
10
44.6056
20
-31.8778
11
44.7172
21
-31.9894
0
LINE
8
BLACK
6
CONTINUOUS
10
44.7172
20
-31.9894
11
44.8048
21
-32.1206
0
LINE
8
BLACK
6
CONTINUOUS
10
44.8048
20
-32.1206
11
44.8652
21
-32.2664
0
LINE
8
BLACK
6
CONTINUOUS
10
44.8652
20
-32.2664
11
44.896
21
-32.4211
0
LINE
8
BLACK
6
CONTINUOUS
10
44.896
20
-32.4211
11
44.896
21
-32.5789
0
LINE
8
BLACK
6
CONTINUOUS
10
44.896
20
-32.5789
11
44.8652
21
-32.7336
0
LINE
8
BLACK
6
CONTINUOUS
10
44.8652
20
-32.7336
11
44.8048
21
-32.8794
0
LINE
8
BLACK
6
CONTINUOUS
10
44.8048
20
-32.8794
11
44.7172
21
-33.0106
0
LINE
8
BLACK
6
CONTINUOUS
10
44.7172
20
-33.0106
11
44.6056
21
-33.1222
0
LINE
8
BLACK
6
CONTINUOUS
10
44.6056
20
-33.1222
11
44.4744
21
-33.2098
0
LINE
8
BLACK
6
CONTINUOUS
10
44.4744
20
-33.2098
11
44.3286
21
-33.2702
0
LINE
8
BLACK
6
CONTINUOUS
10
44.3286
20
-33.2702
11
44.1739
21
-33.301
0
LINE
8
BLACK
6
CONTINUOUS
10
44.1739
20
-33.301
11
44.0161
21
-33.301
0
LINE
8
BLACK
6
CONTINUOUS
10
44.0161
20
-33.301
11
43.8614
21
-33.2702
0
LINE
8
BLACK
6
CONTINUOUS
10
43.8614
20
-33.2702
11
43.7156
21
-33.2098
0
LINE
8
BLACK
6
CONTINUOUS
10
43.7156
20
-33.2098
11
43.5844
21
-33.1222
0
LINE
8
BLACK
6
CONTINUOUS
10
43.5844
20
-33.1222
11
43.4728
21
-33.0106
0
LINE
8
BLACK
6
CONTINUOUS
10
43.4728
20
-33.0106
11
43.3852
21
-32.8794
0
LINE
8
BLACK
6
CONTINUOUS
10
43.3852
20
-32.8794
11
43.3248
21
-32.7336
0
LINE
8
BLACK
6
CONTINUOUS
10
43.3248
20
-32.7336
11
43.294
21
-32.5789
0
LINE
8
BLACK
6
CONTINUOUS
10
43.294
20
-32.5789
11
43.294
21
-32.4211
0
LINE
8
BLACK
6
CONTINUOUS
10
43.294
20
-32.4211
11
43.3248
21
-32.2664
0
LINE
8
BLACK
6
CONTINUOUS
10
43.3248
20
-32.2664
11
43.3852
21
-32.1206
0
LINE
8
BLACK
6
CONTINUOUS
10
43.3852
20
-32.1206
11
43.4728
21
-31.9894
0
LINE
8
BLACK
6
CONTINUOUS
10
43.4728
20
-31.9894
11
43.5844
21
-31.8778
0
LINE
8
BLACK
6
CONTINUOUS
10
43.5844
20
-31.8778
11
43.7156
21
-31.7902
0
LINE
8
BLACK
6
CONTINUOUS
10
43.7156
20
-31.7902
11
43.8614
21
-31.7298
0
LINE
8
BLACK
6
CONTINUOUS
10
43.8614
20
-31.7298
11
44.0161
21
-31.699
0
LINE
8
BLACK
6
CONTINUOUS
10
44.0161
20
-31.699
11
44.1739
21
-31.699
0
LINE
8
BLACK
6
CONTINUOUS
10
44.1739
20
-31.699
11
44.3286
21
-31.7298
0
LINE
8
BLACK
6
CONTINUOUS
10
48.1386
20
-31.7298
11
48.2844
21
-31.7902
0
LINE
8
BLACK
6
CONTINUOUS
10
48.2844
20
-31.7902
11
48.4156
21
-31.8778
0
LINE
8
BLACK
6
CONTINUOUS
10
48.4156
20
-31.8778
11
48.5272
21
-31.9894
0
LINE
8
BLACK
6
CONTINUOUS
10
48.5272
20
-31.9894
11
48.6148
21
-32.1206
0
LINE
8
BLACK
6
CONTINUOUS
10
48.6148
20
-32.1206
11
48.6752
21
-32.2664
0
LINE
8
BLACK
6
CONTINUOUS
10
48.6752
20
-32.2664
11
48.706
21
-32.4211
0
LINE
8
BLACK
6
CONTINUOUS
10
48.706
20
-32.4211
11
48.706
21
-32.5789
0
LINE
8
BLACK
6
CONTINUOUS
10
48.706
20
-32.5789
11
48.6752
21
-32.7336
0
LINE
8
BLACK
6
CONTINUOUS
10
48.6752
20
-32.7336
11
48.6148
21
-32.8794
0
LINE
8
BLACK
6
CONTINUOUS
10
48.6148
20
-32.8794
11
48.5272
21
-33.0106
0
LINE
8
BLACK
6
CONTINUOUS
10
48.5272
20
-33.0106
11
48.4156
21
-33.1222
0
LINE
8
BLACK
6
CONTINUOUS
10
48.4156
20
-33.1222
11
48.2844
21
-33.2098
0
LINE
8
BLACK
6
CONTINUOUS
10
48.2844
20
-33.2098
11
48.1386
21
-33.2702
0
LINE
8
BLACK
6
CONTINUOUS
10
48.1386
20
-33.2702
11
47.9839
21
-33.301
0
LINE
8
BLACK
6
CONTINUOUS
10
47.9839
20
-33.301
11
47.8261
21
-33.301
0
LINE
8
BLACK
6
CONTINUOUS
10
47.8261
20
-33.301
11
47.6714
21
-33.2702
0
LINE
8
BLACK
6
CONTINUOUS
10
47.6714
20
-33.2702
11
47.5256
21
-33.2098
0
LINE
8
BLACK
6
CONTINUOUS
10
47.5256
20
-33.2098
11
47.3944
21
-33.1222
0
LINE
8
BLACK
6
CONTINUOUS
10
47.3944
20
-33.1222
11
47.2828
21
-33.0106
0
LINE
8
BLACK
6
CONTINUOUS
10
47.2828
20
-33.0106
11
47.1952
21
-32.8794
0
LINE
8
BLACK
6
CONTINUOUS
10
47.1952
20
-32.8794
11
47.1348
21
-32.7336
0
LINE
8
BLACK
6
CONTINUOUS
10
47.1348
20
-32.7336
11
47.104
21
-32.5789
0
LINE
8
BLACK
6
CONTINUOUS
10
47.104
20
-32.5789
11
47.104
21
-32.4211
0
LINE
8
BLACK
6
CONTINUOUS
10
47.104
20
-32.4211
11
47.1348
21
-32.2664
0
LINE
8
BLACK
6
CONTINUOUS
10
47.1348
20
-32.2664
11
47.1952
21
-32.1206
0
LINE
8
BLACK
6
CONTINUOUS
10
47.1952
20
-32.1206
11
47.2828
21
-31.9894
0
LINE
8
BLACK
6
CONTINUOUS
10
47.2828
20
-31.9894
11
47.3944
21
-31.8778
0
LINE
8
BLACK
6
CONTINUOUS
10
47.3944
20
-31.8778
11
47.5256
21
-31.7902
0
LINE
8
BLACK
6
CONTINUOUS
10
47.5256
20
-31.7902
11
47.6714
21
-31.7298
0
LINE
8
BLACK
6
CONTINUOUS
10
47.6714
20
-31.7298
11
47.8261
21
-31.699
0
LINE
8
BLACK
6
CONTINUOUS
10
47.8261
20
-31.699
11
47.9839
21
-31.699
0
LINE
8
BLACK
6
CONTINUOUS
10
47.9839
20
-31.699
11
48.1386
21
-31.7298
0
LINE
8
BLACK
6
CONTINUOUS
10
41.1536
20
-31.7298
11
41.2994
21
-31.7902
0
LINE
8
BLACK
6
CONTINUOUS
10
41.2994
20
-31.7902
11
41.4306
21
-31.8778
0
LINE
8
BLACK
6
CONTINUOUS
10
41.4306
20
-31.8778
11
41.5422
21
-31.9894
0
LINE
8
BLACK
6
CONTINUOUS
10
41.5422
20
-31.9894
11
41.6298
21
-32.1206
0
LINE
8
BLACK
6
CONTINUOUS
10
41.6298
20
-32.1206
11
41.6902
21
-32.2664
0
LINE
8
BLACK
6
CONTINUOUS
10
41.6902
20
-32.2664
11
41.721
21
-32.4211
0
LINE
8
BLACK
6
CONTINUOUS
10
41.721
20
-32.4211
11
41.721
21
-32.5789
0
LINE
8
BLACK
6
CONTINUOUS
10
41.721
20
-32.5789
11
41.6902
21
-32.7336
0
LINE
8
BLACK
6
CONTINUOUS
10
41.6902
20
-32.7336
11
41.6298
21
-32.8794
0
LINE
8
BLACK
6
CONTINUOUS
10
41.6298
20
-32.8794
11
41.5422
21
-33.0106
0
LINE
8
BLACK
6
CONTINUOUS
10
41.5422
20
-33.0106
11
41.4306
21
-33.1222
0
LINE
8
BLACK
6
CONTINUOUS
10
41.4306
20
-33.1222
11
41.2994
21
-33.2098
0
LINE
8
BLACK
6
CONTINUOUS
10
41.2994
20
-33.2098
11
41.1536
21
-33.2702
0
LINE
8
BLACK
6
CONTINUOUS
10
41.1536
20
-33.2702
11
40.9989
21
-33.301
0
LINE
8
BLACK
6
CONTINUOUS
10
40.9989
20
-33.301
11
40.8411
21
-33.301
0
LINE
8
BLACK
6
CONTINUOUS
10
40.8411
20
-33.301
11
40.6864
21
-33.2702
0
LINE
8
BLACK
6
CONTINUOUS
10
40.6864
20
-33.2702
11
40.5406
21
-33.2098
0
LINE
8
BLACK
6
CONTINUOUS
10
40.5406
20
-33.2098
11
40.4094
21
-33.1222
0
LINE
8
BLACK
6
CONTINUOUS
10
40.4094
20
-33.1222
11
40.2978
21
-33.0106
0
LINE
8
BLACK
6
CONTINUOUS
10
40.2978
20
-33.0106
11
40.2102
21
-32.8794
0
LINE
8
BLACK
6
CONTINUOUS
10
40.2102
20
-32.8794
11
40.1498
21
-32.7336
0
LINE
8
BLACK
6
CONTINUOUS
10
40.1498
20
-32.7336
11
40.119
21
-32.5789
0
LINE
8
BLACK
6
CONTINUOUS
10
40.119
20
-32.5789
11
40.119
21
-32.4211
0
LINE
8
BLACK
6
CONTINUOUS
10
40.119
20
-32.4211
11
40.1498
21
-32.2664
0
LINE
8
BLACK
6
CONTINUOUS
10
40.1498
20
-32.2664
11
40.2102
21
-32.1206
0
LINE
8
BLACK
6
CONTINUOUS
10
40.2102
20
-32.1206
11
40.2978
21
-31.9894
0
LINE
8
BLACK
6
CONTINUOUS
10
40.2978
20
-31.9894
11
40.4094
21
-31.8778
0
LINE
8
BLACK
6
CONTINUOUS
10
40.4094
20
-31.8778
11
40.5406
21
-31.7902
0
LINE
8
BLACK
6
CONTINUOUS
10
40.5406
20
-31.7902
11
40.6864
21
-31.7298
0
LINE
8
BLACK
6
CONTINUOUS
10
40.6864
20
-31.7298
11
40.8411
21
-31.699
0
LINE
8
BLACK
6
CONTINUOUS
10
40.8411
20
-31.699
11
40.9989
21
-31.699
0
LINE
8
BLACK
6
CONTINUOUS
10
40.9989
20
-31.699
11
41.1536
21
-31.7298
0
LINE
8
BLACK
6
CONTINUOUS
10
51.3136
20
-27.7298
11
51.4594
21
-27.7902
0
LINE
8
BLACK
6
CONTINUOUS
10
51.4594
20
-27.7902
11
51.5906
21
-27.8778
0
LINE
8
BLACK
6
CONTINUOUS
10
51.5906
20
-27.8778
11
51.7022
21
-27.9894
0
LINE
8
BLACK
6
CONTINUOUS
10
51.7022
20
-27.9894
11
51.7898
21
-28.1206
0
LINE
8
BLACK
6
CONTINUOUS
10
51.7898
20
-28.1206
11
51.8502
21
-28.2664
0
LINE
8
BLACK
6
CONTINUOUS
10
51.8502
20
-28.2664
11
51.881
21
-28.4211
0
LINE
8
BLACK
6
CONTINUOUS
10
51.881
20
-28.4211
11
51.881
21
-28.5789
0
LINE
8
BLACK
6
CONTINUOUS
10
51.881
20
-28.5789
11
51.8502
21
-28.7336
0
LINE
8
BLACK
6
CONTINUOUS
10
51.8502
20
-28.7336
11
51.7898
21
-28.8794
0
LINE
8
BLACK
6
CONTINUOUS
10
51.7898
20
-28.8794
11
51.7022
21
-29.0106
0
LINE
8
BLACK
6
CONTINUOUS
10
51.7022
20
-29.0106
11
51.5906
21
-29.1222
0
LINE
8
BLACK
6
CONTINUOUS
10
51.5906
20
-29.1222
11
51.4594
21
-29.2098
0
LINE
8
BLACK
6
CONTINUOUS
10
51.4594
20
-29.2098
11
51.3136
21
-29.2702
0
LINE
8
BLACK
6
CONTINUOUS
10
51.3136
20
-29.2702
11
51.1589
21
-29.301
0
LINE
8
BLACK
6
CONTINUOUS
10
51.1589
20
-29.301
11
51.0011
21
-29.301
0
LINE
8
BLACK
6
CONTINUOUS
10
51.0011
20
-29.301
11
50.8464
21
-29.2702
0
LINE
8
BLACK
6
CONTINUOUS
10
50.8464
20
-29.2702
11
50.7006
21
-29.2098
0
LINE
8
BLACK
6
CONTINUOUS
10
50.7006
20
-29.2098
11
50.5694
21
-29.1222
0
LINE
8
BLACK
6
CONTINUOUS
10
50.5694
20
-29.1222
11
50.4578
21
-29.0106
0
LINE
8
BLACK
6
CONTINUOUS
10
50.4578
20
-29.0106
11
50.3702
21
-28.8794
0
LINE
8
BLACK
6
CONTINUOUS
10
50.3702
20
-28.8794
11
50.3098
21
-28.7336
0
LINE
8
BLACK
6
CONTINUOUS
10
50.3098
20
-28.7336
11
50.279
21
-28.5789
0
LINE
8
BLACK
6
CONTINUOUS
10
50.279
20
-28.5789
11
50.279
21
-28.4211
0
LINE
8
BLACK
6
CONTINUOUS
10
50.279
20
-28.4211
11
50.3098
21
-28.2664
0
LINE
8
BLACK
6
CONTINUOUS
10
50.3098
20
-28.2664
11
50.3702
21
-28.1206
0
LINE
8
BLACK
6
CONTINUOUS
10
50.3702
20
-28.1206
11
50.4578
21
-27.9894
0
LINE
8
BLACK
6
CONTINUOUS
10
50.4578
20
-27.9894
11
50.5694
21
-27.8778
0
LINE
8
BLACK
6
CONTINUOUS
10
50.5694
20
-27.8778
11
50.7006
21
-27.7902
0
LINE
8
BLACK
6
CONTINUOUS
10
50.7006
20
-27.7902
11
50.8464
21
-27.7298
0
LINE
8
BLACK
6
CONTINUOUS
10
50.8464
20
-27.7298
11
51.0011
21
-27.699
0
LINE
8
BLACK
6
CONTINUOUS
10
51.0011
20
-27.699
11
51.1589
21
-27.699
0
LINE
8
BLACK
6
CONTINUOUS
10
51.1589
20
-27.699
11
51.3136
21
-27.7298
0
LINE
8
BLACK
6
CONTINUOUS
10
20.626
20
-29.301
11
19.024
21
-29.301
0
LINE
8
BLACK
6
CONTINUOUS
10
19.024
20
-29.301
11
19.024
21
-27.699
0
LINE
8
BLACK
6
CONTINUOUS
10
19.024
20
-27.699
11
20.626
21
-27.699
0
LINE
8
BLACK
6
CONTINUOUS
10
20.626
20
-27.699
11
20.626
21
-29.301
0
LINE
8
BLACK
6
CONTINUOUS
10
23.2336
20
-27.7298
11
23.3794
21
-27.7902
0
LINE
8
BLACK
6
CONTINUOUS
10
23.3794
20
-27.7902
11
23.5106
21
-27.8778
0
LINE
8
BLACK
6
CONTINUOUS
10
23.5106
20
-27.8778
11
23.6222
21
-27.9894
0
LINE
8
BLACK
6
CONTINUOUS
10
23.6222
20
-27.9894
11
23.7098
21
-28.1206
0
LINE
8
BLACK
6
CONTINUOUS
10
23.7098
20
-28.1206
11
23.7702
21
-28.2664
0
LINE
8
BLACK
6
CONTINUOUS
10
23.7702
20
-28.2664
11
23.801
21
-28.4211
0
LINE
8
BLACK
6
CONTINUOUS
10
23.801
20
-28.4211
11
23.801
21
-28.5789
0
LINE
8
BLACK
6
CONTINUOUS
10
23.801
20
-28.5789
11
23.7702
21
-28.7336
0
LINE
8
BLACK
6
CONTINUOUS
10
23.7702
20
-28.7336
11
23.7098
21
-28.8794
0
LINE
8
BLACK
6
CONTINUOUS
10
23.7098
20
-28.8794
11
23.6222
21
-29.0106
0
LINE
8
BLACK
6
CONTINUOUS
10
23.6222
20
-29.0106
11
23.5106
21
-29.1222
0
LINE
8
BLACK
6
CONTINUOUS
10
23.5106
20
-29.1222
11
23.3794
21
-29.2098
0
LINE
8
BLACK
6
CONTINUOUS
10
23.3794
20
-29.2098
11
23.2336
21
-29.2702
0
LINE
8
BLACK
6
CONTINUOUS
10
23.2336
20
-29.2702
11
23.0789
21
-29.301
0
LINE
8
BLACK
6
CONTINUOUS
10
23.0789
20
-29.301
11
22.9211
21
-29.301
0
LINE
8
BLACK
6
CONTINUOUS
10
22.9211
20
-29.301
11
22.7664
21
-29.2702
0
LINE
8
BLACK
6
CONTINUOUS
10
22.7664
20
-29.2702
11
22.6206
21
-29.2098
0
LINE
8
BLACK
6
CONTINUOUS
10
22.6206
20
-29.2098
11
22.4894
21
-29.1222
0
LINE
8
BLACK
6
CONTINUOUS
10
22.4894
20
-29.1222
11
22.3778
21
-29.0106
0
LINE
8
BLACK
6
CONTINUOUS
10
22.3778
20
-29.0106
11
22.2902
21
-28.8794
0
LINE
8
BLACK
6
CONTINUOUS
10
22.2902
20
-28.8794
11
22.2298
21
-28.7336
0
LINE
8
BLACK
6
CONTINUOUS
10
22.2298
20
-28.7336
11
22.199
21
-28.5789
0
LINE
8
BLACK
6
CONTINUOUS
10
22.199
20
-28.5789
11
22.199
21
-28.4211
0
LINE
8
BLACK
6
CONTINUOUS
10
22.199
20
-28.4211
11
22.2298
21
-28.2664
0
LINE
8
BLACK
6
CONTINUOUS
10
22.2298
20
-28.2664
11
22.2902
21
-28.1206
0
LINE
8
BLACK
6
CONTINUOUS
10
22.2902
20
-28.1206
11
22.3778
21
-27.9894
0
LINE
8
BLACK
6
CONTINUOUS
10
22.3778
20
-27.9894
11
22.4894
21
-27.8778
0
LINE
8
BLACK
6
CONTINUOUS
10
22.4894
20
-27.8778
11
22.6206
21
-27.7902
0
LINE
8
BLACK
6
CONTINUOUS
10
22.6206
20
-27.7902
11
22.7664
21
-27.7298
0
LINE
8
BLACK
6
CONTINUOUS
10
22.7664
20
-27.7298
11
22.9211
21
-27.699
0
LINE
8
BLACK
6
CONTINUOUS
10
22.9211
20
-27.699
11
23.0789
21
-27.699
0
LINE
8
BLACK
6
CONTINUOUS
10
23.0789
20
-27.699
11
23.2336
21
-27.7298
0
LINE
8
BLACK
6
CONTINUOUS
10
30.2186
20
-27.7298
11
30.3644
21
-27.7902
0
LINE
8
BLACK
6
CONTINUOUS
10
30.3644
20
-27.7902
11
30.4956
21
-27.8778
0
LINE
8
BLACK
6
CONTINUOUS
10
30.4956
20
-27.8778
11
30.6072
21
-27.9894
0
LINE
8
BLACK
6
CONTINUOUS
10
30.6072
20
-27.9894
11
30.6948
21
-28.1206
0
LINE
8
BLACK
6
CONTINUOUS
10
30.6948
20
-28.1206
11
30.7552
21
-28.2664
0
LINE
8
BLACK
6
CONTINUOUS
10
30.7552
20
-28.2664
11
30.786
21
-28.4211
0
LINE
8
BLACK
6
CONTINUOUS
10
30.786
20
-28.4211
11
30.786
21
-28.5789
0
LINE
8
BLACK
6
CONTINUOUS
10
30.786
20
-28.5789
11
30.7552
21
-28.7336
0
LINE
8
BLACK
6
CONTINUOUS
10
30.7552
20
-28.7336
11
30.6948
21
-28.8794
0
LINE
8
BLACK
6
CONTINUOUS
10
30.6948
20
-28.8794
11
30.6072
21
-29.0106
0
LINE
8
BLACK
6
CONTINUOUS
10
30.6072
20
-29.0106
11
30.4956
21
-29.1222
0
LINE
8
BLACK
6
CONTINUOUS
10
30.4956
20
-29.1222
11
30.3644
21
-29.2098
0
LINE
8
BLACK
6
CONTINUOUS
10
30.3644
20
-29.2098
11
30.2186
21
-29.2702
0
LINE
8
BLACK
6
CONTINUOUS
10
30.2186
20
-29.2702
11
30.0639
21
-29.301
0
LINE
8
BLACK
6
CONTINUOUS
10
30.0639
20
-29.301
11
29.9061
21
-29.301
0
LINE
8
BLACK
6
CONTINUOUS
10
29.9061
20
-29.301
11
29.7514
21
-29.2702
0
LINE
8
BLACK
6
CONTINUOUS
10
29.7514
20
-29.2702
11
29.6056
21
-29.2098
0
LINE
8
BLACK
6
CONTINUOUS
10
29.6056
20
-29.2098
11
29.4744
21
-29.1222
0
LINE
8
BLACK
6
CONTINUOUS
10
29.4744
20
-29.1222
11
29.3628
21
-29.0106
0
LINE
8
BLACK
6
CONTINUOUS
10
29.3628
20
-29.0106
11
29.2752
21
-28.8794
0
LINE
8
BLACK
6
CONTINUOUS
10
29.2752
20
-28.8794
11
29.2148
21
-28.7336
0
LINE
8
BLACK
6
CONTINUOUS
10
29.2148
20
-28.7336
11
29.184
21
-28.5789
0
LINE
8
BLACK
6
CONTINUOUS
10
29.184
20
-28.5789
11
29.184
21
-28.4211
0
LINE
8
BLACK
6
CONTINUOUS
10
29.184
20
-28.4211
11
29.2148
21
-28.2664
0
LINE
8
BLACK
6
CONTINUOUS
10
29.2148
20
-28.2664
11
29.2752
21
-28.1206
0
LINE
8
BLACK
6
CONTINUOUS
10
29.2752
20
-28.1206
11
29.3628
21
-27.9894
0
LINE
8
BLACK
6
CONTINUOUS
10
29.3628
20
-27.9894
11
29.4744
21
-27.8778
0
LINE
8
BLACK
6
CONTINUOUS
10
29.4744
20
-27.8778
11
29.6056
21
-27.7902
0
LINE
8
BLACK
6
CONTINUOUS
10
29.6056
20
-27.7902
11
29.7514
21
-27.7298
0
LINE
8
BLACK
6
CONTINUOUS
10
29.7514
20
-27.7298
11
29.9061
21
-27.699
0
LINE
8
BLACK
6
CONTINUOUS
10
29.9061
20
-27.699
11
30.0639
21
-27.699
0
LINE
8
BLACK
6
CONTINUOUS
10
30.0639
20
-27.699
11
30.2186
21
-27.7298
0
LINE
8
BLACK
6
CONTINUOUS
10
41.721
20
-29.301
11
40.119
21
-29.301
0
LINE
8
BLACK
6
CONTINUOUS
10
40.119
20
-29.301
11
40.119
21
-27.699
0
LINE
8
BLACK
6
CONTINUOUS
10
40.119
20
-27.699
11
41.721
21
-27.699
0
LINE
8
BLACK
6
CONTINUOUS
10
41.721
20
-27.699
11
41.721
21
-29.301
0
LINE
8
BLACK
6
CONTINUOUS
10
44.3286
20
-27.7298
11
44.4744
21
-27.7902
0
LINE
8
BLACK
6
CONTINUOUS
10
44.4744
20
-27.7902
11
44.6056
21
-27.8778
0
LINE
8
BLACK
6
CONTINUOUS
10
44.6056
20
-27.8778
11
44.7172
21
-27.9894
0
LINE
8
BLACK
6
CONTINUOUS
10
44.7172
20
-27.9894
11
44.8048
21
-28.1206
0
LINE
8
BLACK
6
CONTINUOUS
10
44.8048
20
-28.1206
11
44.8652
21
-28.2664
0
LINE
8
BLACK
6
CONTINUOUS
10
44.8652
20
-28.2664
11
44.896
21
-28.4211
0
LINE
8
BLACK
6
CONTINUOUS
10
44.896
20
-28.4211
11
44.896
21
-28.5789
0
LINE
8
BLACK
6
CONTINUOUS
10
44.896
20
-28.5789
11
44.8652
21
-28.7336
0
LINE
8
BLACK
6
CONTINUOUS
10
44.8652
20
-28.7336
11
44.8048
21
-28.8794
0
LINE
8
BLACK
6
CONTINUOUS
10
44.8048
20
-28.8794
11
44.7172
21
-29.0106
0
LINE
8
BLACK
6
CONTINUOUS
10
44.7172
20
-29.0106
11
44.6056
21
-29.1222
0
LINE
8
BLACK
6
CONTINUOUS
10
44.6056
20
-29.1222
11
44.4744
21
-29.2098
0
LINE
8
BLACK
6
CONTINUOUS
10
44.4744
20
-29.2098
11
44.3286
21
-29.2702
0
LINE
8
BLACK
6
CONTINUOUS
10
44.3286
20
-29.2702
11
44.1739
21
-29.301
0
LINE
8
BLACK
6
CONTINUOUS
10
44.1739
20
-29.301
11
44.0161
21
-29.301
0
LINE
8
BLACK
6
CONTINUOUS
10
44.0161
20
-29.301
11
43.8614
21
-29.2702
0
LINE
8
BLACK
6
CONTINUOUS
10
43.8614
20
-29.2702
11
43.7156
21
-29.2098
0
LINE
8
BLACK
6
CONTINUOUS
10
43.7156
20
-29.2098
11
43.5844
21
-29.1222
0
LINE
8
BLACK
6
CONTINUOUS
10
43.5844
20
-29.1222
11
43.4728
21
-29.0106
0
LINE
8
BLACK
6
CONTINUOUS
10
43.4728
20
-29.0106
11
43.3852
21
-28.8794
0
LINE
8
BLACK
6
CONTINUOUS
10
43.3852
20
-28.8794
11
43.3248
21
-28.7336
0
LINE
8
BLACK
6
CONTINUOUS
10
43.3248
20
-28.7336
11
43.294
21
-28.5789
0
LINE
8
BLACK
6
CONTINUOUS
10
43.294
20
-28.5789
11
43.294
21
-28.4211
0
LINE
8
BLACK
6
CONTINUOUS
10
43.294
20
-28.4211
11
43.3248
21
-28.2664
0
LINE
8
BLACK
6
CONTINUOUS
10
43.3248
20
-28.2664
11
43.3852
21
-28.1206
0
LINE
8
BLACK
6
CONTINUOUS
10
43.3852
20
-28.1206
11
43.4728
21
-27.9894
0
LINE
8
BLACK
6
CONTINUOUS
10
43.4728
20
-27.9894
11
43.5844
21
-27.8778
0
LINE
8
BLACK
6
CONTINUOUS
10
43.5844
20
-27.8778
11
43.7156
21
-27.7902
0
LINE
8
BLACK
6
CONTINUOUS
10
43.7156
20
-27.7902
11
43.8614
21
-27.7298
0
LINE
8
BLACK
6
CONTINUOUS
10
43.8614
20
-27.7298
11
44.0161
21
-27.699
0
LINE
8
BLACK
6
CONTINUOUS
10
44.0161
20
-27.699
11
44.1739
21
-27.699
0
LINE
8
BLACK
6
CONTINUOUS
10
44.1739
20
-27.699
11
44.3286
21
-27.7298
0
LINE
8
BLACK
6
CONTINUOUS
10
48.1386
20
-27.7298
11
48.2844
21
-27.7902
0
LINE
8
BLACK
6
CONTINUOUS
10
48.2844
20
-27.7902
11
48.4156
21
-27.8778
0
LINE
8
BLACK
6
CONTINUOUS
10
48.4156
20
-27.8778
11
48.5272
21
-27.9894
0
LINE
8
BLACK
6
CONTINUOUS
10
48.5272
20
-27.9894
11
48.6148
21
-28.1206
0
LINE
8
BLACK
6
CONTINUOUS
10
48.6148
20
-28.1206
11
48.6752
21
-28.2664
0
LINE
8
BLACK
6
CONTINUOUS
10
48.6752
20
-28.2664
11
48.706
21
-28.4211
0
LINE
8
BLACK
6
CONTINUOUS
10
48.706
20
-28.4211
11
48.706
21
-28.5789
0
LINE
8
BLACK
6
CONTINUOUS
10
48.706
20
-28.5789
11
48.6752
21
-28.7336
0
LINE
8
BLACK
6
CONTINUOUS
10
48.6752
20
-28.7336
11
48.6148
21
-28.8794
0
LINE
8
BLACK
6
CONTINUOUS
10
48.6148
20
-28.8794
11
48.5272
21
-29.0106
0
LINE
8
BLACK
6
CONTINUOUS
10
48.5272
20
-29.0106
11
48.4156
21
-29.1222
0
LINE
8
BLACK
6
CONTINUOUS
10
48.4156
20
-29.1222
11
48.2844
21
-29.2098
0
LINE
8
BLACK
6
CONTINUOUS
10
48.2844
20
-29.2098
11
48.1386
21
-29.2702
0
LINE
8
BLACK
6
CONTINUOUS
10
48.1386
20
-29.2702
11
47.9839
21
-29.301
0
LINE
8
BLACK
6
CONTINUOUS
10
47.9839
20
-29.301
11
47.8261
21
-29.301
0
LINE
8
BLACK
6
CONTINUOUS
10
47.8261
20
-29.301
11
47.6714
21
-29.2702
0
LINE
8
BLACK
6
CONTINUOUS
10
47.6714
20
-29.2702
11
47.5256
21
-29.2098
0
LINE
8
BLACK
6
CONTINUOUS
10
47.5256
20
-29.2098
11
47.3944
21
-29.1222
0
LINE
8
BLACK
6
CONTINUOUS
10
47.3944
20
-29.1222
11
47.2828
21
-29.0106
0
LINE
8
BLACK
6
CONTINUOUS
10
47.2828
20
-29.0106
11
47.1952
21
-28.8794
0
LINE
8
BLACK
6
CONTINUOUS
10
47.1952
20
-28.8794
11
47.1348
21
-28.7336
0
LINE
8
BLACK
6
CONTINUOUS
10
47.1348
20
-28.7336
11
47.104
21
-28.5789
0
LINE
8
BLACK
6
CONTINUOUS
10
47.104
20
-28.5789
11
47.104
21
-28.4211
0
LINE
8
BLACK
6
CONTINUOUS
10
47.104
20
-28.4211
11
47.1348
21
-28.2664
0
LINE
8
BLACK
6
CONTINUOUS
10
47.1348
20
-28.2664
11
47.1952
21
-28.1206
0
LINE
8
BLACK
6
CONTINUOUS
10
47.1952
20
-28.1206
11
47.2828
21
-27.9894
0
LINE
8
BLACK
6
CONTINUOUS
10
47.2828
20
-27.9894
11
47.3944
21
-27.8778
0
LINE
8
BLACK
6
CONTINUOUS
10
47.3944
20
-27.8778
11
47.5256
21
-27.7902
0
LINE
8
BLACK
6
CONTINUOUS
10
47.5256
20
-27.7902
11
47.6714
21
-27.7298
0
LINE
8
BLACK
6
CONTINUOUS
10
47.6714
20
-27.7298
11
47.8261
21
-27.699
0
LINE
8
BLACK
6
CONTINUOUS
10
47.8261
20
-27.699
11
47.9839
21
-27.699
0
LINE
8
BLACK
6
CONTINUOUS
10
47.9839
20
-27.699
11
48.1386
21
-27.7298
0
LINE
8
BLACK
6
CONTINUOUS
10
27.0436
20
-27.7298
11
27.1894
21
-27.7902
0
LINE
8
BLACK
6
CONTINUOUS
10
27.1894
20
-27.7902
11
27.3206
21
-27.8778
0
LINE
8
BLACK
6
CONTINUOUS
10
27.3206
20
-27.8778
11
27.4322
21
-27.9894
0
LINE
8
BLACK
6
CONTINUOUS
10
27.4322
20
-27.9894
11
27.5198
21
-28.1206
0
LINE
8
BLACK
6
CONTINUOUS
10
27.5198
20
-28.1206
11
27.5802
21
-28.2664
0
LINE
8
BLACK
6
CONTINUOUS
10
27.5802
20
-28.2664
11
27.611
21
-28.4211
0
LINE
8
BLACK
6
CONTINUOUS
10
27.611
20
-28.4211
11
27.611
21
-28.5789
0
LINE
8
BLACK
6
CONTINUOUS
10
27.611
20
-28.5789
11
27.5802
21
-28.7336
0
LINE
8
BLACK
6
CONTINUOUS
10
27.5802
20
-28.7336
11
27.5198
21
-28.8794
0
LINE
8
BLACK
6
CONTINUOUS
10
27.5198
20
-28.8794
11
27.4322
21
-29.0106
0
LINE
8
BLACK
6
CONTINUOUS
10
27.4322
20
-29.0106
11
27.3206
21
-29.1222
0
LINE
8
BLACK
6
CONTINUOUS
10
27.3206
20
-29.1222
11
27.1894
21
-29.2098
0
LINE
8
BLACK
6
CONTINUOUS
10
27.1894
20
-29.2098
11
27.0436
21
-29.2702
0
LINE
8
BLACK
6
CONTINUOUS
10
27.0436
20
-29.2702
11
26.8889
21
-29.301
0
LINE
8
BLACK
6
CONTINUOUS
10
26.8889
20
-29.301
11
26.7311
21
-29.301
0
LINE
8
BLACK
6
CONTINUOUS
10
26.7311
20
-29.301
11
26.5764
21
-29.2702
0
LINE
8
BLACK
6
CONTINUOUS
10
26.5764
20
-29.2702
11
26.4306
21
-29.2098
0
LINE
8
BLACK
6
CONTINUOUS
10
26.4306
20
-29.2098
11
26.2994
21
-29.1222
0
LINE
8
BLACK
6
CONTINUOUS
10
26.2994
20
-29.1222
11
26.1878
21
-29.0106
0
LINE
8
BLACK
6
CONTINUOUS
10
26.1878
20
-29.0106
11
26.1002
21
-28.8794
0
LINE
8
BLACK
6
CONTINUOUS
10
26.1002
20
-28.8794
11
26.0398
21
-28.7336
0
LINE
8
BLACK
6
CONTINUOUS
10
26.0398
20
-28.7336
11
26.009
21
-28.5789
0
LINE
8
BLACK
6
CONTINUOUS
10
26.009
20
-28.5789
11
26.009
21
-28.4211
0
LINE
8
BLACK
6
CONTINUOUS
10
26.009
20
-28.4211
11
26.0398
21
-28.2664
0
LINE
8
BLACK
6
CONTINUOUS
10
26.0398
20
-28.2664
11
26.1002
21
-28.1206
0
LINE
8
BLACK
6
CONTINUOUS
10
26.1002
20
-28.1206
11
26.1878
21
-27.9894
0
LINE
8
BLACK
6
CONTINUOUS
10
26.1878
20
-27.9894
11
26.2994
21
-27.8778
0
LINE
8
BLACK
6
CONTINUOUS
10
26.2994
20
-27.8778
11
26.4306
21
-27.7902
0
LINE
8
BLACK
6
CONTINUOUS
10
26.4306
20
-27.7902
11
26.5764
21
-27.7298
0
LINE
8
BLACK
6
CONTINUOUS
10
26.5764
20
-27.7298
11
26.7311
21
-27.699
0
LINE
8
BLACK
6
CONTINUOUS
10
26.7311
20
-27.699
11
26.8889
21
-27.699
0
LINE
8
BLACK
6
CONTINUOUS
10
26.8889
20
-27.699
11
27.0436
21
-27.7298
0
LINE
8
BLACK
6
CONTINUOUS
10
26.901
20
-21.751
11
23.099
21
-21.751
0
LINE
8
BLACK
6
CONTINUOUS
10
23.099
20
-21.751
11
23.099
21
-20.249
0
LINE
8
BLACK
6
CONTINUOUS
10
23.099
20
-20.249
11
26.901
21
-20.249
0
LINE
8
BLACK
6
CONTINUOUS
10
26.901
20
-20.249
11
26.901
21
-21.751
0
LINE
8
BLACK
6
CONTINUOUS
10
43.5884
20
-18.6055
11
43.6635
21
-18.6283
0
LINE
8
BLACK
6
CONTINUOUS
10
43.6635
20
-18.6283
11
43.6734
21
-18.6313
0
LINE
8
BLACK
6
CONTINUOUS
10
43.6734
20
-18.6313
11
43.7518
21
-18.6732
0
LINE
8
BLACK
6
CONTINUOUS
10
43.7518
20
-18.6732
11
43.8204
21
-18.7296
0
LINE
8
BLACK
6
CONTINUOUS
10
43.8204
20
-18.7296
11
43.8768
21
-18.7982
0
LINE
8
BLACK
6
CONTINUOUS
10
43.8768
20
-18.7982
11
43.9187
21
-18.8766
0
LINE
8
BLACK
6
CONTINUOUS
10
43.9187
20
-18.8766
11
43.9187
21
-18.8766
0
LINE
8
BLACK
6
CONTINUOUS
10
43.9187
20
-18.8766
11
43.9445
21
-18.9616
0
LINE
8
BLACK
6
CONTINUOUS
10
43.9445
20
-18.9616
11
43.9532
21
-19.05
0
LINE
8
BLACK
6
CONTINUOUS
10
43.9532
20
-19.05
11
43.9445
21
-19.1384
0
LINE
8
BLACK
6
CONTINUOUS
10
43.9445
20
-19.1384
11
43.9275
21
-19.1945
0
LINE
8
BLACK
6
CONTINUOUS
10
43.9275
20
-19.1945
11
43.9187
21
-19.2234
0
LINE
8
BLACK
6
CONTINUOUS
10
43.9187
20
-19.2234
11
43.8768
21
-19.3018
0
LINE
8
BLACK
6
CONTINUOUS
10
43.8768
20
-19.3018
11
43.8204
21
-19.3704
0
LINE
8
BLACK
6
CONTINUOUS
10
43.8204
20
-19.3704
11
43.7518
21
-19.4268
0
LINE
8
BLACK
6
CONTINUOUS
10
43.7518
20
-19.4268
11
43.6734
21
-19.4687
0
LINE
8
BLACK
6
CONTINUOUS
10
43.6734
20
-19.4687
11
43.6635
21
-19.4717
0
LINE
8
BLACK
6
CONTINUOUS
10
43.6635
20
-19.4717
11
43.5884
21
-19.4945
0
LINE
8
BLACK
6
CONTINUOUS
10
43.5884
20
-19.4945
11
43.5222
21
-19.501
0
LINE
8
BLACK
6
CONTINUOUS
10
43.5222
20
-19.501
11
43.4778
21
-19.501
0
LINE
8
BLACK
6
CONTINUOUS
10
43.4778
20
-19.501
11
43.4116
21
-19.4945
0
LINE
8
BLACK
6
CONTINUOUS
10
43.4116
20
-19.4945
11
43.3365
21
-19.4717
0
LINE
8
BLACK
6
CONTINUOUS
10
43.3365
20
-19.4717
11
43.3266
21
-19.4687
0
LINE
8
BLACK
6
CONTINUOUS
10
43.3266
20
-19.4687
11
43.2733
21
-19.4402
0
LINE
8
BLACK
6
CONTINUOUS
10
43.2733
20
-19.4402
11
43.2482
21
-19.4268
0
LINE
8
BLACK
6
CONTINUOUS
10
43.2482
20
-19.4268
11
43.2097
21
-19.3952
0
LINE
8
BLACK
6
CONTINUOUS
10
43.2097
20
-19.3952
11
43.1886
21
-19.3778
0
LINE
8
BLACK
6
CONTINUOUS
10
43.1886
20
-19.3778
11
43.1682
21
-19.3642
0
LINE
8
BLACK
6
CONTINUOUS
10
43.1682
20
-19.3642
11
43.1456
21
-19.3549
0
LINE
8
BLACK
6
CONTINUOUS
10
43.1456
20
-19.3549
11
43.1215
21
-19.3501
0
LINE
8
BLACK
6
CONTINUOUS
10
43.1215
20
-19.3501
11
43.097
21
-19.3501
0
LINE
8
BLACK
6
CONTINUOUS
10
43.097
20
-19.3501
11
43.073
21
-19.3549
0
LINE
8
BLACK
6
CONTINUOUS
10
43.073
20
-19.3549
11
43.0504
21
-19.3642
0
LINE
8
BLACK
6
CONTINUOUS
10
43.0504
20
-19.3642
11
43.03
21
-19.3779
0
LINE
8
BLACK
6
CONTINUOUS
10
43.03
20
-19.3779
11
43.0127
21
-19.3952
0
LINE
8
BLACK
6
CONTINUOUS
10
43.0127
20
-19.3952
11
42.999
21
-19.4156
0
LINE
8
BLACK
6
CONTINUOUS
10
42.999
20
-19.4156
11
42.9897
21
-19.4382
0
LINE
8
BLACK
6
CONTINUOUS
10
42.9897
20
-19.4382
11
42.9849
21
-19.4622
0
LINE
8
BLACK
6
CONTINUOUS
10
42.9849
20
-19.4622
11
42.9849
21
-19.4867
0
LINE
8
BLACK
6
CONTINUOUS
10
42.9849
20
-19.4867
11
42.9897
21
-19.5108
0
LINE
8
BLACK
6
CONTINUOUS
10
42.9897
20
-19.5108
11
42.9932
21
-19.5192
0
LINE
8
BLACK
6
CONTINUOUS
10
42.9932
20
-19.5192
11
42.9954
21
-19.5266
0
LINE
8
BLACK
6
CONTINUOUS
10
42.9954
20
-19.5266
11
42.9954
21
-19.5266
0
LINE
8
BLACK
6
CONTINUOUS
10
42.9954
20
-19.5266
11
43.0337
21
-19.653
0
LINE
8
BLACK
6
CONTINUOUS
10
43.0337
20
-19.653
11
43.0398
21
-19.6729
0
LINE
8
BLACK
6
CONTINUOUS
10
43.0398
20
-19.6729
11
43.051
21
-19.7869
0
LINE
8
BLACK
6
CONTINUOUS
10
43.051
20
-19.7869
11
43.051
21
-20.4131
0
LINE
8
BLACK
6
CONTINUOUS
10
43.051
20
-20.4131
11
43.0398
21
-20.5271
0
LINE
8
BLACK
6
CONTINUOUS
10
43.0398
20
-20.5271
11
42.9954
21
-20.6734
0
LINE
8
BLACK
6
CONTINUOUS
10
42.9954
20
-20.6734
11
42.9233
21
-20.8082
0
LINE
8
BLACK
6
CONTINUOUS
10
42.9233
20
-20.8082
11
42.8264
21
-20.9264
0
LINE
8
BLACK
6
CONTINUOUS
10
42.8264
20
-20.9264
11
42.7082
21
-21.0233
0
LINE
8
BLACK
6
CONTINUOUS
10
42.7082
20
-21.0233
11
42.7082
21
-21.0233
0
LINE
8
BLACK
6
CONTINUOUS
10
42.7082
20
-21.0233
11
42.5734
21
-21.0954
0
LINE
8
BLACK
6
CONTINUOUS
10
42.5734
20
-21.0954
11
42.4544
21
-21.1315
0
LINE
8
BLACK
6
CONTINUOUS
10
42.4544
20
-21.1315
11
42.4271
21
-21.1398
0
LINE
8
BLACK
6
CONTINUOUS
10
42.4271
20
-21.1398
11
42.275
21
-21.1548
0
LINE
8
BLACK
6
CONTINUOUS
10
42.275
20
-21.1548
11
42.1229
21
-21.1398
0
LINE
8
BLACK
6
CONTINUOUS
10
42.1229
20
-21.1398
11
42.0956
21
-21.1315
0
LINE
8
BLACK
6
CONTINUOUS
10
42.0956
20
-21.1315
11
41.9766
21
-21.0954
0
LINE
8
BLACK
6
CONTINUOUS
10
41.9766
20
-21.0954
11
41.8418
21
-21.0233
0
LINE
8
BLACK
6
CONTINUOUS
10
41.8418
20
-21.0233
11
41.8418
21
-21.0233
0
LINE
8
BLACK
6
CONTINUOUS
10
41.8418
20
-21.0233
11
41.7236
21
-20.9264
0
LINE
8
BLACK
6
CONTINUOUS
10
41.7236
20
-20.9264
11
41.6267
21
-20.8082
0
LINE
8
BLACK
6
CONTINUOUS
10
41.6267
20
-20.8082
11
41.5546
21
-20.6734
0
LINE
8
BLACK
6
CONTINUOUS
10
41.5546
20
-20.6734
11
41.5102
21
-20.5271
0
LINE
8
BLACK
6
CONTINUOUS
10
41.5102
20
-20.5271
11
41.499
21
-20.4131
0
LINE
8
BLACK
6
CONTINUOUS
10
41.499
20
-20.4131
11
41.499
21
-19.7869
0
LINE
8
BLACK
6
CONTINUOUS
10
41.499
20
-19.7869
11
41.5102
21
-19.6729
0
LINE
8
BLACK
6
CONTINUOUS
10
41.5102
20
-19.6729
11
41.5546
21
-19.5266
0
LINE
8
BLACK
6
CONTINUOUS
10
41.5546
20
-19.5266
11
41.6267
21
-19.3918
0
LINE
8
BLACK
6
CONTINUOUS
10
41.6267
20
-19.3918
11
41.7236
21
-19.2736
0
LINE
8
BLACK
6
CONTINUOUS
10
41.7236
20
-19.2736
11
41.8418
21
-19.1767
0
LINE
8
BLACK
6
CONTINUOUS
10
41.8418
20
-19.1767
11
41.9766
21
-19.1046
0
LINE
8
BLACK
6
CONTINUOUS
10
41.9766
20
-19.1046
11
41.9766
21
-19.1046
0
LINE
8
BLACK
6
CONTINUOUS
10
41.9766
20
-19.1046
11
42.1229
21
-19.0602
0
LINE
8
BLACK
6
CONTINUOUS
10
42.1229
20
-19.0602
11
42.1229
21
-19.0602
0
LINE
8
BLACK
6
CONTINUOUS
10
42.1229
20
-19.0602
11
42.275
21
-19.0452
0
LINE
8
BLACK
6
CONTINUOUS
10
42.275
20
-19.0452
11
42.4271
21
-19.0602
0
LINE
8
BLACK
6
CONTINUOUS
10
42.4271
20
-19.0602
11
42.4271
21
-19.0602
0
LINE
8
BLACK
6
CONTINUOUS
10
42.4271
20
-19.0602
11
42.5734
21
-19.1046
0
LINE
8
BLACK
6
CONTINUOUS
10
42.5734
20
-19.1046
11
42.5734
21
-19.1046
0
LINE
8
BLACK
6
CONTINUOUS
10
42.5734
20
-19.1046
11
42.7082
21
-19.1767
0
LINE
8
BLACK
6
CONTINUOUS
10
42.7082
20
-19.1767
11
42.7891
21
-19.2431
0
LINE
8
BLACK
6
CONTINUOUS
10
42.7891
20
-19.2431
11
42.8264
21
-19.2736
0
LINE
8
BLACK
6
CONTINUOUS
10
42.8264
20
-19.2736
11
42.8264
21
-19.2736
0
LINE
8
BLACK
6
CONTINUOUS
10
42.8264
20
-19.2736
11
42.8563
21
-19.3101
0
LINE
8
BLACK
6
CONTINUOUS
10
42.8563
20
-19.3101
11
42.8736
21
-19.3274
0
LINE
8
BLACK
6
CONTINUOUS
10
42.8736
20
-19.3274
11
42.894
21
-19.341
0
LINE
8
BLACK
6
CONTINUOUS
10
42.894
20
-19.341
11
42.9166
21
-19.3504
0
LINE
8
BLACK
6
CONTINUOUS
10
42.9166
20
-19.3504
11
42.9407
21
-19.3552
0
LINE
8
BLACK
6
CONTINUOUS
10
42.9407
20
-19.3552
11
42.9652
21
-19.3552
0
LINE
8
BLACK
6
CONTINUOUS
10
42.9652
20
-19.3552
11
42.9892
21
-19.3504
0
LINE
8
BLACK
6
CONTINUOUS
10
42.9892
20
-19.3504
11
43.0119
21
-19.341
0
LINE
8
BLACK
6
CONTINUOUS
10
43.0119
20
-19.341
11
43.0322
21
-19.3274
0
LINE
8
BLACK
6
CONTINUOUS
10
43.0322
20
-19.3274
11
43.0496
21
-19.3101
0
LINE
8
BLACK
6
CONTINUOUS
10
43.0496
20
-19.3101
11
43.0632
21
-19.2897
0
LINE
8
BLACK
6
CONTINUOUS
10
43.0632
20
-19.2897
11
43.0725
21
-19.2671
0
LINE
8
BLACK
6
CONTINUOUS
10
43.0725
20
-19.2671
11
43.0773
21
-19.2431
0
LINE
8
BLACK
6
CONTINUOUS
10
43.0773
20
-19.2431
11
43.0773
21
-19.2186
0
LINE
8
BLACK
6
CONTINUOUS
10
43.0773
20
-19.2186
11
43.0725
21
-19.1945
0
LINE
8
BLACK
6
CONTINUOUS
10
43.0725
20
-19.1945
11
43.0662
21
-19.1735
0
LINE
8
BLACK
6
CONTINUOUS
10
43.0662
20
-19.1735
11
43.0555
21
-19.1384
0
LINE
8
BLACK
6
CONTINUOUS
10
43.0555
20
-19.1384
11
43.0468
21
-19.05
0
LINE
8
BLACK
6
CONTINUOUS
10
43.0468
20
-19.05
11
43.0555
21
-18.9616
0
LINE
8
BLACK
6
CONTINUOUS
10
43.0555
20
-18.9616
11
43.0813
21
-18.8766
0
LINE
8
BLACK
6
CONTINUOUS
10
43.0813
20
-18.8766
11
43.0813
21
-18.8766
0
LINE
8
BLACK
6
CONTINUOUS
10
43.0813
20
-18.8766
11
43.1232
21
-18.7982
0
LINE
8
BLACK
6
CONTINUOUS
10
43.1232
20
-18.7982
11
43.1796
21
-18.7296
0
LINE
8
BLACK
6
CONTINUOUS
10
43.1796
20
-18.7296
11
43.2482
21
-18.6732
0
LINE
8
BLACK
6
CONTINUOUS
10
43.2482
20
-18.6732
11
43.3266
21
-18.6313
0
LINE
8
BLACK
6
CONTINUOUS
10
43.3266
20
-18.6313
11
43.3365
21
-18.6283
0
LINE
8
BLACK
6
CONTINUOUS
10
43.3365
20
-18.6283
11
43.4116
21
-18.6055
0
LINE
8
BLACK
6
CONTINUOUS
10
43.4116
20
-18.6055
11
43.4778
21
-18.599
0
LINE
8
BLACK
6
CONTINUOUS
10
43.4778
20
-18.599
11
43.5222
21
-18.599
0
LINE
8
BLACK
6
CONTINUOUS
10
43.5222
20
-18.599
11
43.5884
21
-18.6055
0
LINE
8
BLACK
6
CONTINUOUS
10
48.5884
20
-18.6055
11
48.6635
21
-18.6283
0
LINE
8
BLACK
6
CONTINUOUS
10
48.6635
20
-18.6283
11
48.6734
21
-18.6313
0
LINE
8
BLACK
6
CONTINUOUS
10
48.6734
20
-18.6313
11
48.7518
21
-18.6732
0
LINE
8
BLACK
6
CONTINUOUS
10
48.7518
20
-18.6732
11
48.8204
21
-18.7296
0
LINE
8
BLACK
6
CONTINUOUS
10
48.8204
20
-18.7296
11
48.8768
21
-18.7982
0
LINE
8
BLACK
6
CONTINUOUS
10
48.8768
20
-18.7982
11
48.9187
21
-18.8766
0
LINE
8
BLACK
6
CONTINUOUS
10
48.9187
20
-18.8766
11
48.9187
21
-18.8766
0
LINE
8
BLACK
6
CONTINUOUS
10
48.9187
20
-18.8766
11
48.9445
21
-18.9616
0
LINE
8
BLACK
6
CONTINUOUS
10
48.9445
20
-18.9616
11
48.9532
21
-19.05
0
LINE
8
BLACK
6
CONTINUOUS
10
48.9532
20
-19.05
11
48.9445
21
-19.1384
0
LINE
8
BLACK
6
CONTINUOUS
10
48.9445
20
-19.1384
11
48.9275
21
-19.1945
0
LINE
8
BLACK
6
CONTINUOUS
10
48.9275
20
-19.1945
11
48.9227
21
-19.2186
0
LINE
8
BLACK
6
CONTINUOUS
10
48.9227
20
-19.2186
11
48.9227
21
-19.2431
0
LINE
8
BLACK
6
CONTINUOUS
10
48.9227
20
-19.2431
11
48.9275
21
-19.2671
0
LINE
8
BLACK
6
CONTINUOUS
10
48.9275
20
-19.2671
11
48.9368
21
-19.2897
0
LINE
8
BLACK
6
CONTINUOUS
10
48.9368
20
-19.2897
11
48.9504
21
-19.3101
0
LINE
8
BLACK
6
CONTINUOUS
10
48.9504
20
-19.3101
11
48.9678
21
-19.3274
0
LINE
8
BLACK
6
CONTINUOUS
10
48.9678
20
-19.3274
11
48.9881
21
-19.341
0
LINE
8
BLACK
6
CONTINUOUS
10
48.9881
20
-19.341
11
49.0108
21
-19.3504
0
LINE
8
BLACK
6
CONTINUOUS
10
49.0108
20
-19.3504
11
49.0348
21
-19.3552
0
LINE
8
BLACK
6
CONTINUOUS
10
49.0348
20
-19.3552
11
49.0593
21
-19.3552
0
LINE
8
BLACK
6
CONTINUOUS
10
49.0593
20
-19.3552
11
49.0834
21
-19.3504
0
LINE
8
BLACK
6
CONTINUOUS
10
49.0834
20
-19.3504
11
49.106
21
-19.341
0
LINE
8
BLACK
6
CONTINUOUS
10
49.106
20
-19.341
11
49.1264
21
-19.3274
0
LINE
8
BLACK
6
CONTINUOUS
10
49.1264
20
-19.3274
11
49.1437
21
-19.3101
0
LINE
8
BLACK
6
CONTINUOUS
10
49.1437
20
-19.3101
11
49.1736
21
-19.2736
0
LINE
8
BLACK
6
CONTINUOUS
10
49.1736
20
-19.2736
11
49.1736
21
-19.2736
0
LINE
8
BLACK
6
CONTINUOUS
10
49.1736
20
-19.2736
11
49.2918
21
-19.1767
0
LINE
8
BLACK
6
CONTINUOUS
10
49.2918
20
-19.1767
11
49.4266
21
-19.1046
0
LINE
8
BLACK
6
CONTINUOUS
10
49.4266
20
-19.1046
11
49.4266
21
-19.1046
0
LINE
8
BLACK
6
CONTINUOUS
10
49.4266
20
-19.1046
11
49.5729
21
-19.0602
0
LINE
8
BLACK
6
CONTINUOUS
10
49.5729
20
-19.0602
11
49.5729
21
-19.0602
0
LINE
8
BLACK
6
CONTINUOUS
10
49.5729
20
-19.0602
11
49.725
21
-19.0452
0
LINE
8
BLACK
6
CONTINUOUS
10
49.725
20
-19.0452
11
49.8771
21
-19.0602
0
LINE
8
BLACK
6
CONTINUOUS
10
49.8771
20
-19.0602
11
49.8771
21
-19.0602
0
LINE
8
BLACK
6
CONTINUOUS
10
49.8771
20
-19.0602
11
50.0234
21
-19.1046
0
LINE
8
BLACK
6
CONTINUOUS
10
50.0234
20
-19.1046
11
50.0234
21
-19.1046
0
LINE
8
BLACK
6
CONTINUOUS
10
50.0234
20
-19.1046
11
50.1582
21
-19.1767
0
LINE
8
BLACK
6
CONTINUOUS
10
50.1582
20
-19.1767
11
50.2764
21
-19.2736
0
LINE
8
BLACK
6
CONTINUOUS
10
50.2764
20
-19.2736
11
50.3733
21
-19.3918
0
LINE
8
BLACK
6
CONTINUOUS
10
50.3733
20
-19.3918
11
50.4454
21
-19.5266
0
LINE
8
BLACK
6
CONTINUOUS
10
50.4454
20
-19.5266
11
50.4898
21
-19.6729
0
LINE
8
BLACK
6
CONTINUOUS
10
50.4898
20
-19.6729
11
50.501
21
-19.7869
0
LINE
8
BLACK
6
CONTINUOUS
10
50.501
20
-19.7869
11
50.501
21
-20.4131
0
LINE
8
BLACK
6
CONTINUOUS
10
50.501
20
-20.4131
11
50.4898
21
-20.5271
0
LINE
8
BLACK
6
CONTINUOUS
10
50.4898
20
-20.5271
11
50.4454
21
-20.6734
0
LINE
8
BLACK
6
CONTINUOUS
10
50.4454
20
-20.6734
11
50.3733
21
-20.8082
0
LINE
8
BLACK
6
CONTINUOUS
10
50.3733
20
-20.8082
11
50.2764
21
-20.9264
0
LINE
8
BLACK
6
CONTINUOUS
10
50.2764
20
-20.9264
11
50.1582
21
-21.0233
0
LINE
8
BLACK
6
CONTINUOUS
10
50.1582
20
-21.0233
11
50.1582
21
-21.0233
0
LINE
8
BLACK
6
CONTINUOUS
10
50.1582
20
-21.0233
11
50.0234
21
-21.0954
0
LINE
8
BLACK
6
CONTINUOUS
10
50.0234
20
-21.0954
11
49.9044
21
-21.1315
0
LINE
8
BLACK
6
CONTINUOUS
10
49.9044
20
-21.1315
11
49.8771
21
-21.1398
0
LINE
8
BLACK
6
CONTINUOUS
10
49.8771
20
-21.1398
11
49.725
21
-21.1548
0
LINE
8
BLACK
6
CONTINUOUS
10
49.725
20
-21.1548
11
49.5729
21
-21.1398
0
LINE
8
BLACK
6
CONTINUOUS
10
49.5729
20
-21.1398
11
49.5456
21
-21.1315
0
LINE
8
BLACK
6
CONTINUOUS
10
49.5456
20
-21.1315
11
49.4266
21
-21.0954
0
LINE
8
BLACK
6
CONTINUOUS
10
49.4266
20
-21.0954
11
49.2918
21
-21.0233
0
LINE
8
BLACK
6
CONTINUOUS
10
49.2918
20
-21.0233
11
49.2918
21
-21.0233
0
LINE
8
BLACK
6
CONTINUOUS
10
49.2918
20
-21.0233
11
49.1736
21
-20.9264
0
LINE
8
BLACK
6
CONTINUOUS
10
49.1736
20
-20.9264
11
49.0767
21
-20.8082
0
LINE
8
BLACK
6
CONTINUOUS
10
49.0767
20
-20.8082
11
49.0046
21
-20.6734
0
LINE
8
BLACK
6
CONTINUOUS
10
49.0046
20
-20.6734
11
48.9602
21
-20.5271
0
LINE
8
BLACK
6
CONTINUOUS
10
48.9602
20
-20.5271
11
48.949
21
-20.4131
0
LINE
8
BLACK
6
CONTINUOUS
10
48.949
20
-20.4131
11
48.949
21
-19.7869
0
LINE
8
BLACK
6
CONTINUOUS
10
48.949
20
-19.7869
11
48.9602
21
-19.6729
0
LINE
8
BLACK
6
CONTINUOUS
10
48.9602
20
-19.6729
11
49.0068
21
-19.5192
0
LINE
8
BLACK
6
CONTINUOUS
10
49.0068
20
-19.5192
11
49.0103
21
-19.5108
0
LINE
8
BLACK
6
CONTINUOUS
10
49.0103
20
-19.5108
11
49.0151
21
-19.4867
0
LINE
8
BLACK
6
CONTINUOUS
10
49.0151
20
-19.4867
11
49.0151
21
-19.4622
0
LINE
8
BLACK
6
CONTINUOUS
10
49.0151
20
-19.4622
11
49.0103
21
-19.4382
0
LINE
8
BLACK
6
CONTINUOUS
10
49.0103
20
-19.4382
11
49.001
21
-19.4155
0
LINE
8
BLACK
6
CONTINUOUS
10
49.001
20
-19.4155
11
48.9873
21
-19.3952
0
LINE
8
BLACK
6
CONTINUOUS
10
48.9873
20
-19.3952
11
48.97
21
-19.3778
0
LINE
8
BLACK
6
CONTINUOUS
10
48.97
20
-19.3778
11
48.9496
21
-19.3642
0
LINE
8
BLACK
6
CONTINUOUS
10
48.9496
20
-19.3642
11
48.927
21
-19.3549
0
LINE
8
BLACK
6
CONTINUOUS
10
48.927
20
-19.3549
11
48.903
21
-19.3501
0
LINE
8
BLACK
6
CONTINUOUS
10
48.903
20
-19.3501
11
48.8785
21
-19.3501
0
LINE
8
BLACK
6
CONTINUOUS
10
48.8785
20
-19.3501
11
48.8544
21
-19.3549
0
LINE
8
BLACK
6
CONTINUOUS
10
48.8544
20
-19.3549
11
48.8318
21
-19.3642
0
LINE
8
BLACK
6
CONTINUOUS
10
48.8318
20
-19.3642
11
48.8114
21
-19.3778
0
LINE
8
BLACK
6
CONTINUOUS
10
48.8114
20
-19.3778
11
48.7903
21
-19.3952
0
LINE
8
BLACK
6
CONTINUOUS
10
48.7903
20
-19.3952
11
48.7518
21
-19.4268
0
LINE
8
BLACK
6
CONTINUOUS
10
48.7518
20
-19.4268
11
48.7267
21
-19.4402
0
LINE
8
BLACK
6
CONTINUOUS
10
48.7267
20
-19.4402
11
48.6734
21
-19.4687
0
LINE
8
BLACK
6
CONTINUOUS
10
48.6734
20
-19.4687
11
48.6635
21
-19.4717
0
LINE
8
BLACK
6
CONTINUOUS
10
48.6635
20
-19.4717
11
48.5884
21
-19.4945
0
LINE
8
BLACK
6
CONTINUOUS
10
48.5884
20
-19.4945
11
48.5222
21
-19.501
0
LINE
8
BLACK
6
CONTINUOUS
10
48.5222
20
-19.501
11
48.4778
21
-19.501
0
LINE
8
BLACK
6
CONTINUOUS
10
48.4778
20
-19.501
11
48.4116
21
-19.4945
0
LINE
8
BLACK
6
CONTINUOUS
10
48.4116
20
-19.4945
11
48.3365
21
-19.4717
0
LINE
8
BLACK
6
CONTINUOUS
10
48.3365
20
-19.4717
11
48.3266
21
-19.4687
0
LINE
8
BLACK
6
CONTINUOUS
10
48.3266
20
-19.4687
11
48.2482
21
-19.4268
0
LINE
8
BLACK
6
CONTINUOUS
10
48.2482
20
-19.4268
11
48.1796
21
-19.3704
0
LINE
8
BLACK
6
CONTINUOUS
10
48.1796
20
-19.3704
11
48.1232
21
-19.3018
0
LINE
8
BLACK
6
CONTINUOUS
10
48.1232
20
-19.3018
11
48.0813
21
-19.2234
0
LINE
8
BLACK
6
CONTINUOUS
10
48.0813
20
-19.2234
11
48.0725
21
-19.1945
0
LINE
8
BLACK
6
CONTINUOUS
10
48.0725
20
-19.1945
11
48.0555
21
-19.1384
0
LINE
8
BLACK
6
CONTINUOUS
10
48.0555
20
-19.1384
11
48.0468
21
-19.05
0
LINE
8
BLACK
6
CONTINUOUS
10
48.0468
20
-19.05
11
48.0555
21
-18.9616
0
LINE
8
BLACK
6
CONTINUOUS
10
48.0555
20
-18.9616
11
48.0813
21
-18.8766
0
LINE
8
BLACK
6
CONTINUOUS
10
48.0813
20
-18.8766
11
48.0813
21
-18.8766
0
LINE
8
BLACK
6
CONTINUOUS
10
48.0813
20
-18.8766
11
48.1232
21
-18.7982
0
LINE
8
BLACK
6
CONTINUOUS
10
48.1232
20
-18.7982
11
48.1796
21
-18.7296
0
LINE
8
BLACK
6
CONTINUOUS
10
48.1796
20
-18.7296
11
48.2482
21
-18.6732
0
LINE
8
BLACK
6
CONTINUOUS
10
48.2482
20
-18.6732
11
48.3266
21
-18.6313
0
LINE
8
BLACK
6
CONTINUOUS
10
48.3266
20
-18.6313
11
48.3365
21
-18.6283
0
LINE
8
BLACK
6
CONTINUOUS
10
48.3365
20
-18.6283
11
48.4116
21
-18.6055
0
LINE
8
BLACK
6
CONTINUOUS
10
48.4116
20
-18.6055
11
48.4778
21
-18.599
0
LINE
8
BLACK
6
CONTINUOUS
10
48.4778
20
-18.599
11
48.5222
21
-18.599
0
LINE
8
BLACK
6
CONTINUOUS
10
48.5222
20
-18.599
11
48.5884
21
-18.6055
0
LINE
8
BLACK
6
CONTINUOUS
10
47.576
20
-20.851
11
44.424
21
-20.851
0
LINE
8
BLACK
6
CONTINUOUS
10
44.424
20
-20.851
11
44.424
21
-19.449
0
LINE
8
BLACK
6
CONTINUOUS
10
44.424
20
-19.449
11
47.576
21
-19.449
0
LINE
8
BLACK
6
CONTINUOUS
10
47.576
20
-19.449
11
47.576
21
-20.851
0
LINE
8
BLACK
6
CONTINUOUS
10
21.4874
20
-16.6591
11
21.6196
21
-16.6992
0
LINE
8
BLACK
6
CONTINUOUS
10
21.6196
20
-16.6992
11
21.6196
21
-16.6992
0
LINE
8
BLACK
6
CONTINUOUS
10
21.6196
20
-16.6992
11
21.7413
21
-16.7643
0
LINE
8
BLACK
6
CONTINUOUS
10
21.7413
20
-16.7643
11
21.8481
21
-16.8519
0
LINE
8
BLACK
6
CONTINUOUS
10
21.8481
20
-16.8519
11
21.9357
21
-16.9587
0
LINE
8
BLACK
6
CONTINUOUS
10
21.9357
20
-16.9587
11
22.0008
21
-17.0804
0
LINE
8
BLACK
6
CONTINUOUS
10
22.0008
20
-17.0804
11
22.0008
21
-17.0804
0
LINE
8
BLACK
6
CONTINUOUS
10
22.0008
20
-17.0804
11
22.0409
21
-17.2126
0
LINE
8
BLACK
6
CONTINUOUS
10
22.0409
20
-17.2126
11
22.051
21
-17.3156
0
LINE
8
BLACK
6
CONTINUOUS
10
22.051
20
-17.3156
11
22.051
21
-19.8844
0
LINE
8
BLACK
6
CONTINUOUS
10
22.051
20
-19.8844
11
22.0409
21
-19.9874
0
LINE
8
BLACK
6
CONTINUOUS
10
22.0409
20
-19.9874
11
22.0008
21
-20.1196
0
LINE
8
BLACK
6
CONTINUOUS
10
22.0008
20
-20.1196
11
22.0008
21
-20.1196
0
LINE
8
BLACK
6
CONTINUOUS
10
22.0008
20
-20.1196
11
21.9357
21
-20.2413
0
LINE
8
BLACK
6
CONTINUOUS
10
21.9357
20
-20.2413
11
21.8727
21
-20.3181
0
LINE
8
BLACK
6
CONTINUOUS
10
21.8727
20
-20.3181
11
21.8481
21
-20.3481
0
LINE
8
BLACK
6
CONTINUOUS
10
21.8481
20
-20.3481
11
21.7688
21
-20.4131
0
LINE
8
BLACK
6
CONTINUOUS
10
21.7688
20
-20.4131
11
21.7413
21
-20.4357
0
LINE
8
BLACK
6
CONTINUOUS
10
21.7413
20
-20.4357
11
21.6196
21
-20.5008
0
LINE
8
BLACK
6
CONTINUOUS
10
21.6196
20
-20.5008
11
21.6196
21
-20.5008
0
LINE
8
BLACK
6
CONTINUOUS
10
21.6196
20
-20.5008
11
21.4874
21
-20.5409
0
LINE
8
BLACK
6
CONTINUOUS
10
21.4874
20
-20.5409
11
21.35
21
-20.5544
0
LINE
8
BLACK
6
CONTINUOUS
10
21.35
20
-20.5544
11
21.2126
21
-20.5409
0
LINE
8
BLACK
6
CONTINUOUS
10
21.2126
20
-20.5409
11
21.0804
21
-20.5008
0
LINE
8
BLACK
6
CONTINUOUS
10
21.0804
20
-20.5008
11
21.0804
21
-20.5008
0
LINE
8
BLACK
6
CONTINUOUS
10
21.0804
20
-20.5008
11
20.9587
21
-20.4357
0
LINE
8
BLACK
6
CONTINUOUS
10
20.9587
20
-20.4357
11
20.8819
21
-20.3727
0
LINE
8
BLACK
6
CONTINUOUS
10
20.8819
20
-20.3727
11
20.8519
21
-20.3481
0
LINE
8
BLACK
6
CONTINUOUS
10
20.8519
20
-20.3481
11
20.7643
21
-20.2413
0
LINE
8
BLACK
6
CONTINUOUS
10
20.7643
20
-20.2413
11
20.7643
21
-20.2413
0
LINE
8
BLACK
6
CONTINUOUS
10
20.7643
20
-20.2413
11
20.6992
21
-20.1196
0
LINE
8
BLACK
6
CONTINUOUS
10
20.6992
20
-20.1196
11
20.6992
21
-20.1196
0
LINE
8
BLACK
6
CONTINUOUS
10
20.6992
20
-20.1196
11
20.6591
21
-19.9874
0
LINE
8
BLACK
6
CONTINUOUS
10
20.6591
20
-19.9874
11
20.649
21
-19.8844
0
LINE
8
BLACK
6
CONTINUOUS
10
20.649
20
-19.8844
11
20.649
21
-17.3156
0
LINE
8
BLACK
6
CONTINUOUS
10
20.649
20
-17.3156
11
20.6591
21
-17.2126
0
LINE
8
BLACK
6
CONTINUOUS
10
20.6591
20
-17.2126
11
20.6992
21
-17.0804
0
LINE
8
BLACK
6
CONTINUOUS
10
20.6992
20
-17.0804
11
20.6992
21
-17.0804
0
LINE
8
BLACK
6
CONTINUOUS
10
20.6992
20
-17.0804
11
20.7643
21
-16.9587
0
LINE
8
BLACK
6
CONTINUOUS
10
20.7643
20
-16.9587
11
20.8519
21
-16.8519
0
LINE
8
BLACK
6
CONTINUOUS
10
20.8519
20
-16.8519
11
20.9587
21
-16.7643
0
LINE
8
BLACK
6
CONTINUOUS
10
20.9587
20
-16.7643
11
21.0804
21
-16.6992
0
LINE
8
BLACK
6
CONTINUOUS
10
21.0804
20
-16.6992
11
21.0804
21
-16.6992
0
LINE
8
BLACK
6
CONTINUOUS
10
21.0804
20
-16.6992
11
21.2126
21
-16.6591
0
LINE
8
BLACK
6
CONTINUOUS
10
21.2126
20
-16.6591
11
21.35
21
-16.6456
0
LINE
8
BLACK
6
CONTINUOUS
10
21.35
20
-16.6456
11
21.4874
21
-16.6591
0
LINE
8
BLACK
6
CONTINUOUS
10
28.7874
20
-16.6591
11
28.9196
21
-16.6992
0
LINE
8
BLACK
6
CONTINUOUS
10
28.9196
20
-16.6992
11
28.9196
21
-16.6992
0
LINE
8
BLACK
6
CONTINUOUS
10
28.9196
20
-16.6992
11
29.0413
21
-16.7643
0
LINE
8
BLACK
6
CONTINUOUS
10
29.0413
20
-16.7643
11
29.1481
21
-16.8519
0
LINE
8
BLACK
6
CONTINUOUS
10
29.1481
20
-16.8519
11
29.2357
21
-16.9587
0
LINE
8
BLACK
6
CONTINUOUS
10
29.2357
20
-16.9587
11
29.3008
21
-17.0804
0
LINE
8
BLACK
6
CONTINUOUS
10
29.3008
20
-17.0804
11
29.3008
21
-17.0804
0
LINE
8
BLACK
6
CONTINUOUS
10
29.3008
20
-17.0804
11
29.3409
21
-17.2126
0
LINE
8
BLACK
6
CONTINUOUS
10
29.3409
20
-17.2126
11
29.351
21
-17.3156
0
LINE
8
BLACK
6
CONTINUOUS
10
29.351
20
-17.3156
11
29.351
21
-19.8844
0
LINE
8
BLACK
6
CONTINUOUS
10
29.351
20
-19.8844
11
29.3409
21
-19.9874
0
LINE
8
BLACK
6
CONTINUOUS
10
29.3409
20
-19.9874
11
29.3008
21
-20.1196
0
LINE
8
BLACK
6
CONTINUOUS
10
29.3008
20
-20.1196
11
29.3008
21
-20.1196
0
LINE
8
BLACK
6
CONTINUOUS
10
29.3008
20
-20.1196
11
29.2357
21
-20.2413
0
LINE
8
BLACK
6
CONTINUOUS
10
29.2357
20
-20.2413
11
29.1727
21
-20.3181
0
LINE
8
BLACK
6
CONTINUOUS
10
29.1727
20
-20.3181
11
29.1481
21
-20.3481
0
LINE
8
BLACK
6
CONTINUOUS
10
29.1481
20
-20.3481
11
29.0688
21
-20.4131
0
LINE
8
BLACK
6
CONTINUOUS
10
29.0688
20
-20.4131
11
29.0413
21
-20.4357
0
LINE
8
BLACK
6
CONTINUOUS
10
29.0413
20
-20.4357
11
28.9196
21
-20.5008
0
LINE
8
BLACK
6
CONTINUOUS
10
28.9196
20
-20.5008
11
28.9196
21
-20.5008
0
LINE
8
BLACK
6
CONTINUOUS
10
28.9196
20
-20.5008
11
28.7874
21
-20.5409
0
LINE
8
BLACK
6
CONTINUOUS
10
28.7874
20
-20.5409
11
28.65
21
-20.5544
0
LINE
8
BLACK
6
CONTINUOUS
10
28.65
20
-20.5544
11
28.5126
21
-20.5409
0
LINE
8
BLACK
6
CONTINUOUS
10
28.5126
20
-20.5409
11
28.3804
21
-20.5008
0
LINE
8
BLACK
6
CONTINUOUS
10
28.3804
20
-20.5008
11
28.3804
21
-20.5008
0
LINE
8
BLACK
6
CONTINUOUS
10
28.3804
20
-20.5008
11
28.2587
21
-20.4357
0
LINE
8
BLACK
6
CONTINUOUS
10
28.2587
20
-20.4357
11
28.1819
21
-20.3727
0
LINE
8
BLACK
6
CONTINUOUS
10
28.1819
20
-20.3727
11
28.1519
21
-20.3481
0
LINE
8
BLACK
6
CONTINUOUS
10
28.1519
20
-20.3481
11
28.0643
21
-20.2413
0
LINE
8
BLACK
6
CONTINUOUS
10
28.0643
20
-20.2413
11
28.0643
21
-20.2413
0
LINE
8
BLACK
6
CONTINUOUS
10
28.0643
20
-20.2413
11
27.9992
21
-20.1196
0
LINE
8
BLACK
6
CONTINUOUS
10
27.9992
20
-20.1196
11
27.9992
21
-20.1196
0
LINE
8
BLACK
6
CONTINUOUS
10
27.9992
20
-20.1196
11
27.9591
21
-19.9874
0
LINE
8
BLACK
6
CONTINUOUS
10
27.9591
20
-19.9874
11
27.949
21
-19.8844
0
LINE
8
BLACK
6
CONTINUOUS
10
27.949
20
-19.8844
11
27.949
21
-17.3156
0
LINE
8
BLACK
6
CONTINUOUS
10
27.949
20
-17.3156
11
27.9591
21
-17.2126
0
LINE
8
BLACK
6
CONTINUOUS
10
27.9591
20
-17.2126
11
27.9992
21
-17.0804
0
LINE
8
BLACK
6
CONTINUOUS
10
27.9992
20
-17.0804
11
27.9992
21
-17.0804
0
LINE
8
BLACK
6
CONTINUOUS
10
27.9992
20
-17.0804
11
28.0643
21
-16.9587
0
LINE
8
BLACK
6
CONTINUOUS
10
28.0643
20
-16.9587
11
28.1519
21
-16.8519
0
LINE
8
BLACK
6
CONTINUOUS
10
28.1519
20
-16.8519
11
28.2587
21
-16.7643
0
LINE
8
BLACK
6
CONTINUOUS
10
28.2587
20
-16.7643
11
28.3804
21
-16.6992
0
LINE
8
BLACK
6
CONTINUOUS
10
28.3804
20
-16.6992
11
28.3804
21
-16.6992
0
LINE
8
BLACK
6
CONTINUOUS
10
28.3804
20
-16.6992
11
28.5126
21
-16.6591
0
LINE
8
BLACK
6
CONTINUOUS
10
28.5126
20
-16.6591
11
28.65
21
-16.6456
0
LINE
8
BLACK
6
CONTINUOUS
10
28.65
20
-16.6456
11
28.7874
21
-16.6591
0
LINE
8
BLACK
6
CONTINUOUS
10
42.2477
20
-15.3581
11
42.2477
21
-15.3581
0
LINE
8
BLACK
6
CONTINUOUS
10
42.2477
20
-15.3581
11
42.3657
21
-15.3939
0
LINE
8
BLACK
6
CONTINUOUS
10
42.3657
20
-15.3939
11
42.3657
21
-15.3939
0
LINE
8
BLACK
6
CONTINUOUS
10
42.3657
20
-15.3939
11
42.4745
21
-15.452
0
LINE
8
BLACK
6
CONTINUOUS
10
42.4745
20
-15.452
11
42.5698
21
-15.5302
0
LINE
8
BLACK
6
CONTINUOUS
10
42.5698
20
-15.5302
11
42.648
21
-15.6255
0
LINE
8
BLACK
6
CONTINUOUS
10
42.648
20
-15.6255
11
42.7061
21
-15.7343
0
LINE
8
BLACK
6
CONTINUOUS
10
42.7061
20
-15.7343
11
42.7419
21
-15.8523
0
LINE
8
BLACK
6
CONTINUOUS
10
42.7419
20
-15.8523
11
42.751
21
-15.9443
0
LINE
8
BLACK
6
CONTINUOUS
10
42.751
20
-15.9443
11
42.751
21
-16.6557
0
LINE
8
BLACK
6
CONTINUOUS
10
42.751
20
-16.6557
11
42.7419
21
-16.7477
0
LINE
8
BLACK
6
CONTINUOUS
10
42.7419
20
-16.7477
11
42.7419
21
-16.7477
0
LINE
8
BLACK
6
CONTINUOUS
10
42.7419
20
-16.7477
11
42.7419
21
-16.7477
0
LINE
8
BLACK
6
CONTINUOUS
10
42.7419
20
-16.7477
11
42.7103
21
-16.8519
0
LINE
8
BLACK
6
CONTINUOUS
10
42.7103
20
-16.8519
11
42.7061
21
-16.8657
0
LINE
8
BLACK
6
CONTINUOUS
10
42.7061
20
-16.8657
11
42.648
21
-16.9745
0
LINE
8
BLACK
6
CONTINUOUS
10
42.648
20
-16.9745
11
42.5698
21
-17.0698
0
LINE
8
BLACK
6
CONTINUOUS
10
42.5698
20
-17.0698
11
42.5698
21
-17.0698
0
LINE
8
BLACK
6
CONTINUOUS
10
42.5698
20
-17.0698
11
42.5698
21
-17.0698
0
LINE
8
BLACK
6
CONTINUOUS
10
42.5698
20
-17.0698
11
42.4745
21
-17.148
0
LINE
8
BLACK
6
CONTINUOUS
10
42.4745
20
-17.148
11
42.3657
21
-17.2061
0
LINE
8
BLACK
6
CONTINUOUS
10
42.3657
20
-17.2061
11
42.2697
21
-17.2353
0
LINE
8
BLACK
6
CONTINUOUS
10
42.2697
20
-17.2353
11
42.2477
21
-17.2419
0
LINE
8
BLACK
6
CONTINUOUS
10
42.2477
20
-17.2419
11
42.125
21
-17.254
0
LINE
8
BLACK
6
CONTINUOUS
10
42.125
20
-17.254
11
42.0023
21
-17.2419
0
LINE
8
BLACK
6
CONTINUOUS
10
42.0023
20
-17.2419
11
41.9803
21
-17.2353
0
LINE
8
BLACK
6
CONTINUOUS
10
41.9803
20
-17.2353
11
41.8843
21
-17.2061
0
LINE
8
BLACK
6
CONTINUOUS
10
41.8843
20
-17.2061
11
41.7755
21
-17.148
0
LINE
8
BLACK
6
CONTINUOUS
10
41.7755
20
-17.148
11
41.7755
21
-17.148
0
LINE
8
BLACK
6
CONTINUOUS
10
41.7755
20
-17.148
11
41.6802
21
-17.0698
0
LINE
8
BLACK
6
CONTINUOUS
10
41.6802
20
-17.0698
11
41.6802
21
-17.0698
0
LINE
8
BLACK
6
CONTINUOUS
10
41.6802
20
-17.0698
11
41.6802
21
-17.0698
0
LINE
8
BLACK
6
CONTINUOUS
10
41.6802
20
-17.0698
11
41.602
21
-16.9745
0
LINE
8
BLACK
6
CONTINUOUS
10
41.602
20
-16.9745
11
41.5439
21
-16.8657
0
LINE
8
BLACK
6
CONTINUOUS
10
41.5439
20
-16.8657
11
41.5081
21
-16.7477
0
LINE
8
BLACK
6
CONTINUOUS
10
41.5081
20
-16.7477
11
41.5081
21
-16.7477
0
LINE
8
BLACK
6
CONTINUOUS
10
41.5081
20
-16.7477
11
41.499
21
-16.6557
0
LINE
8
BLACK
6
CONTINUOUS
10
41.499
20
-16.6557
11
41.499
21
-15.9443
0
LINE
8
BLACK
6
CONTINUOUS
10
41.499
20
-15.9443
11
41.5081
21
-15.8523
0
LINE
8
BLACK
6
CONTINUOUS
10
41.5081
20
-15.8523
11
41.5439
21
-15.7343
0
LINE
8
BLACK
6
CONTINUOUS
10
41.5439
20
-15.7343
11
41.5439
21
-15.7343
0
LINE
8
BLACK
6
CONTINUOUS
10
41.5439
20
-15.7343
11
41.602
21
-15.6255
0
LINE
8
BLACK
6
CONTINUOUS
10
41.602
20
-15.6255
11
41.6802
21
-15.5302
0
LINE
8
BLACK
6
CONTINUOUS
10
41.6802
20
-15.5302
11
41.7755
21
-15.452
0
LINE
8
BLACK
6
CONTINUOUS
10
41.7755
20
-15.452
11
41.8843
21
-15.3939
0
LINE
8
BLACK
6
CONTINUOUS
10
41.8843
20
-15.3939
11
41.8843
21
-15.3939
0
LINE
8
BLACK
6
CONTINUOUS
10
41.8843
20
-15.3939
11
42.0023
21
-15.3581
0
LINE
8
BLACK
6
CONTINUOUS
10
42.0023
20
-15.3581
11
42.0023
21
-15.3581
0
LINE
8
BLACK
6
CONTINUOUS
10
42.0023
20
-15.3581
11
42.125
21
-15.346
0
LINE
8
BLACK
6
CONTINUOUS
10
42.125
20
-15.346
11
42.2477
21
-15.3581
0
LINE
8
BLACK
6
CONTINUOUS
10
49.9977
20
-15.3581
11
49.9977
21
-15.3581
0
LINE
8
BLACK
6
CONTINUOUS
10
49.9977
20
-15.3581
11
50.1157
21
-15.3939
0
LINE
8
BLACK
6
CONTINUOUS
10
50.1157
20
-15.3939
11
50.1157
21
-15.3939
0
LINE
8
BLACK
6
CONTINUOUS
10
50.1157
20
-15.3939
11
50.2245
21
-15.452
0
LINE
8
BLACK
6
CONTINUOUS
10
50.2245
20
-15.452
11
50.3198
21
-15.5302
0
LINE
8
BLACK
6
CONTINUOUS
10
50.3198
20
-15.5302
11
50.398
21
-15.6255
0
LINE
8
BLACK
6
CONTINUOUS
10
50.398
20
-15.6255
11
50.4561
21
-15.7343
0
LINE
8
BLACK
6
CONTINUOUS
10
50.4561
20
-15.7343
11
50.4919
21
-15.8523
0
LINE
8
BLACK
6
CONTINUOUS
10
50.4919
20
-15.8523
11
50.501
21
-15.9443
0
LINE
8
BLACK
6
CONTINUOUS
10
50.501
20
-15.9443
11
50.501
21
-16.6557
0
LINE
8
BLACK
6
CONTINUOUS
10
50.501
20
-16.6557
11
50.4919
21
-16.7477
0
LINE
8
BLACK
6
CONTINUOUS
10
50.4919
20
-16.7477
11
50.4919
21
-16.7477
0
LINE
8
BLACK
6
CONTINUOUS
10
50.4919
20
-16.7477
11
50.4919
21
-16.7477
0
LINE
8
BLACK
6
CONTINUOUS
10
50.4919
20
-16.7477
11
50.4603
21
-16.8519
0
LINE
8
BLACK
6
CONTINUOUS
10
50.4603
20
-16.8519
11
50.4561
21
-16.8657
0
LINE
8
BLACK
6
CONTINUOUS
10
50.4561
20
-16.8657
11
50.398
21
-16.9745
0
LINE
8
BLACK
6
CONTINUOUS
10
50.398
20
-16.9745
11
50.3198
21
-17.0698
0
LINE
8
BLACK
6
CONTINUOUS
10
50.3198
20
-17.0698
11
50.3198
21
-17.0698
0
LINE
8
BLACK
6
CONTINUOUS
10
50.3198
20
-17.0698
11
50.3198
21
-17.0698
0
LINE
8
BLACK
6
CONTINUOUS
10
50.3198
20
-17.0698
11
50.2245
21
-17.148
0
LINE
8
BLACK
6
CONTINUOUS
10
50.2245
20
-17.148
11
50.1157
21
-17.2061
0
LINE
8
BLACK
6
CONTINUOUS
10
50.1157
20
-17.2061
11
50.0197
21
-17.2353
0
LINE
8
BLACK
6
CONTINUOUS
10
50.0197
20
-17.2353
11
49.9977
21
-17.2419
0
LINE
8
BLACK
6
CONTINUOUS
10
49.9977
20
-17.2419
11
49.875
21
-17.254
0
LINE
8
BLACK
6
CONTINUOUS
10
49.875
20
-17.254
11
49.7523
21
-17.2419
0
LINE
8
BLACK
6
CONTINUOUS
10
49.7523
20
-17.2419
11
49.7303
21
-17.2353
0
LINE
8
BLACK
6
CONTINUOUS
10
49.7303
20
-17.2353
11
49.6343
21
-17.2061
0
LINE
8
BLACK
6
CONTINUOUS
10
49.6343
20
-17.2061
11
49.5255
21
-17.148
0
LINE
8
BLACK
6
CONTINUOUS
10
49.5255
20
-17.148
11
49.5255
21
-17.148
0
LINE
8
BLACK
6
CONTINUOUS
10
49.5255
20
-17.148
11
49.4302
21
-17.0698
0
LINE
8
BLACK
6
CONTINUOUS
10
49.4302
20
-17.0698
11
49.4302
21
-17.0698
0
LINE
8
BLACK
6
CONTINUOUS
10
49.4302
20
-17.0698
11
49.4302
21
-17.0698
0
LINE
8
BLACK
6
CONTINUOUS
10
49.4302
20
-17.0698
11
49.352
21
-16.9745
0
LINE
8
BLACK
6
CONTINUOUS
10
49.352
20
-16.9745
11
49.2939
21
-16.8657
0
LINE
8
BLACK
6
CONTINUOUS
10
49.2939
20
-16.8657
11
49.2581
21
-16.7477
0
LINE
8
BLACK
6
CONTINUOUS
10
49.2581
20
-16.7477
11
49.2581
21
-16.7477
0
LINE
8
BLACK
6
CONTINUOUS
10
49.2581
20
-16.7477
11
49.249
21
-16.6557
0
LINE
8
BLACK
6
CONTINUOUS
10
49.249
20
-16.6557
11
49.249
21
-15.9443
0
LINE
8
BLACK
6
CONTINUOUS
10
49.249
20
-15.9443
11
49.2581
21
-15.8523
0
LINE
8
BLACK
6
CONTINUOUS
10
49.2581
20
-15.8523
11
49.2939
21
-15.7343
0
LINE
8
BLACK
6
CONTINUOUS
10
49.2939
20
-15.7343
11
49.2939
21
-15.7343
0
LINE
8
BLACK
6
CONTINUOUS
10
49.2939
20
-15.7343
11
49.352
21
-15.6255
0
LINE
8
BLACK
6
CONTINUOUS
10
49.352
20
-15.6255
11
49.4302
21
-15.5302
0
LINE
8
BLACK
6
CONTINUOUS
10
49.4302
20
-15.5302
11
49.5255
21
-15.452
0
LINE
8
BLACK
6
CONTINUOUS
10
49.5255
20
-15.452
11
49.6343
21
-15.3939
0
LINE
8
BLACK
6
CONTINUOUS
10
49.6343
20
-15.3939
11
49.6343
21
-15.3939
0
LINE
8
BLACK
6
CONTINUOUS
10
49.6343
20
-15.3939
11
49.7523
21
-15.3581
0
LINE
8
BLACK
6
CONTINUOUS
10
49.7523
20
-15.3581
11
49.7523
21
-15.3581
0
LINE
8
BLACK
6
CONTINUOUS
10
49.7523
20
-15.3581
11
49.875
21
-15.346
0
LINE
8
BLACK
6
CONTINUOUS
10
49.875
20
-15.346
11
49.9977
21
-15.3581
  0
ENDSEC
  0
EOF
