  0
SECTION
  2
HEADER
  9
$ANGBASE
  50
0.0
  9
$ANGDIR
  70
  1
  9
$MEASUREMENT
  70
0
  0
ENDSEC
  0
SECTION
  2
TABLES
  0
TABLE
  2
LTYPE
  70
4
  0
LTYPE
  5
40F
  2
CONTINUOUS
  70
0
  3
Solid line
  72
65
  73
0
  40
0.0
  0
LTYPE
  5
410
  2
DASHDOT
 70
0
  3
Dash Dot ____ _ ____ _
 72
65
 73
4
 40
2.0
 49
1.25
 49
-0.25
 49
0.25
 49
-0.25
  0
LTYPE
  5
411
  2
DASHED
 70
0
  3
Dashed __ __ __ __ __
 72
65
 73
2
 40
0.75
 49
0.5
 49
-0.25
  0
LTYPE
  5
43B
  2
DOTTED
 70
0
  3
Dotted .  .  .  .
 72
65
 73
2
 40
0.2
 49
0.0
 49
-0.2
  0
ENDTAB
  0
TABLE
  2
STYLE
  70
4
  0
STYLE
  2
KICAD
  70
0
  40
0
  41
1
  42
1
  50
0
  71
0
  3
isocp.shx
  0
STYLE
  2
KICADB
  70
0
  40
0
  41
1
  42
1
  50
0
  71
0
  3
isocp.shx
  0
STYLE
  2
KICADI
  70
0
  40
0
  41
1
  42
1
  50
15
  71
0
  3
isocp.shx
  0
STYLE
  2
KICADBI
  70
0
  40
0
  41
1
  42
1
  50
15
  71
0
  3
isocp.shx
  0
ENDTAB
  0
TABLE
  2
LAYER
  70
30
  0
LAYER
  2
BLACK
  70
0
  62
7
  6
CONTINUOUS
  0
LAYER
  2
GRAY1
  70
0
  62
251
  6
CONTINUOUS
  0
LAYER
  2
GRAY2
  70
0
  62
8
  6
CONTINUOUS
  0
LAYER
  2
GRAY3
  70
0
  62
9
  6
CONTINUOUS
  0
LAYER
  2
WHITE
  70
0
  62
7
  6
CONTINUOUS
  0
LAYER
  2
LYELLOW
  70
0
  62
51
  6
CONTINUOUS
  0
LAYER
  2
BLUE1
  70
0
  62
178
  6
CONTINUOUS
  0
LAYER
  2
GREEN1
  70
0
  62
98
  6
CONTINUOUS
  0
LAYER
  2
CYAN1
  70
0
  62
138
  6
CONTINUOUS
  0
LAYER
  2
RED1
  70
0
  62
18
  6
CONTINUOUS
  0
LAYER
  2
MAGENTA1
  70
0
  62
228
  6
CONTINUOUS
  0
LAYER
  2
BROWN1
  70
0
  62
58
  6
CONTINUOUS
  0
LAYER
  2
BLUE2
  70
0
  62
5
  6
CONTINUOUS
  0
LAYER
  2
GREEN2
  70
0
  62
3
  6
CONTINUOUS
  0
LAYER
  2
CYAN2
  70
0
  62
4
  6
CONTINUOUS
  0
LAYER
  2
RED2
  70
0
  62
1
  6
CONTINUOUS
  0
LAYER
  2
MAGENTA2
  70
0
  62
6
  6
CONTINUOUS
  0
LAYER
  2
BROWN2
  70
0
  62
54
  6
CONTINUOUS
  0
LAYER
  2
BLUE3
  70
0
  62
171
  6
CONTINUOUS
  0
LAYER
  2
GREEN3
  70
0
  62
91
  6
CONTINUOUS
  0
LAYER
  2
CYAN3
  70
0
  62
131
  6
CONTINUOUS
  0
LAYER
  2
RED3
  70
0
  62
11
  6
CONTINUOUS
  0
LAYER
  2
MAGENTA3
  70
0
  62
221
  6
CONTINUOUS
  0
LAYER
  2
YELLOW3
  70
0
  62
2
  6
CONTINUOUS
  0
LAYER
  2
BLUE4
  70
0
  62
5
  6
CONTINUOUS
  0
LAYER
  2
GREEN4
  70
0
  62
3
  6
CONTINUOUS
  0
LAYER
  2
CYAN4
  70
0
  62
4
  6
CONTINUOUS
  0
LAYER
  2
RED4
  70
0
  62
1
  6
CONTINUOUS
  0
LAYER
  2
MAGENTA4
  70
0
  62
6
  6
CONTINUOUS
  0
LAYER
  2
YELLOW4
  70
0
  62
2
  6
CONTINUOUS
  0
ENDTAB
  0
ENDSEC
  0
SECTION
  2
ENTITIES
0
LINE
8
BLACK
6
CONTINUOUS
10
29.5739
20
-44.1603
11
29.7089
21
-44.2736
0
LINE
8
BLACK
6
CONTINUOUS
10
29.7089
20
-44.2736
11
29.7971
21
-44.4264
0
LINE
8
BLACK
6
CONTINUOUS
10
29.7971
20
-44.4264
11
29.82
21
-44.5563
0
LINE
8
BLACK
6
CONTINUOUS
10
29.82
20
-44.5563
11
29.82
21
-45.2437
0
LINE
8
BLACK
6
CONTINUOUS
10
29.82
20
-45.2437
11
29.7971
21
-45.3736
0
LINE
8
BLACK
6
CONTINUOUS
10
29.7971
20
-45.3736
11
29.7089
21
-45.5264
0
LINE
8
BLACK
6
CONTINUOUS
10
29.7089
20
-45.5264
11
29.5739
21
-45.6397
0
LINE
8
BLACK
6
CONTINUOUS
10
29.5739
20
-45.6397
11
29.4082
21
-45.7
0
LINE
8
BLACK
6
CONTINUOUS
10
29.4082
20
-45.7
11
29.2318
21
-45.7
0
LINE
8
BLACK
6
CONTINUOUS
10
29.2318
20
-45.7
11
29.0661
21
-45.6397
0
LINE
8
BLACK
6
CONTINUOUS
10
29.0661
20
-45.6397
11
28.9311
21
-45.5264
0
LINE
8
BLACK
6
CONTINUOUS
10
28.9311
20
-45.5264
11
28.8429
21
-45.3736
0
LINE
8
BLACK
6
CONTINUOUS
10
28.8429
20
-45.3736
11
28.82
21
-45.2437
0
LINE
8
BLACK
6
CONTINUOUS
10
28.82
20
-45.2437
11
28.82
21
-44.5563
0
LINE
8
BLACK
6
CONTINUOUS
10
28.82
20
-44.5563
11
28.8429
21
-44.4264
0
LINE
8
BLACK
6
CONTINUOUS
10
28.8429
20
-44.4264
11
28.9311
21
-44.2736
0
LINE
8
BLACK
6
CONTINUOUS
10
28.9311
20
-44.2736
11
29.0661
21
-44.1603
0
LINE
8
BLACK
6
CONTINUOUS
10
29.0661
20
-44.1603
11
29.2318
21
-44.1
0
LINE
8
BLACK
6
CONTINUOUS
10
29.2318
20
-44.1
11
29.4082
21
-44.1
0
LINE
8
BLACK
6
CONTINUOUS
10
29.4082
20
-44.1
11
29.5739
21
-44.1603
0
LINE
8
BLACK
6
CONTINUOUS
10
20.9339
20
-44.1603
11
21.0689
21
-44.2736
0
LINE
8
BLACK
6
CONTINUOUS
10
21.0689
20
-44.2736
11
21.1571
21
-44.4264
0
LINE
8
BLACK
6
CONTINUOUS
10
21.1571
20
-44.4264
11
21.18
21
-44.5563
0
LINE
8
BLACK
6
CONTINUOUS
10
21.18
20
-44.5563
11
21.18
21
-45.2437
0
LINE
8
BLACK
6
CONTINUOUS
10
21.18
20
-45.2437
11
21.1571
21
-45.3736
0
LINE
8
BLACK
6
CONTINUOUS
10
21.1571
20
-45.3736
11
21.0689
21
-45.5264
0
LINE
8
BLACK
6
CONTINUOUS
10
21.0689
20
-45.5264
11
20.9339
21
-45.6397
0
LINE
8
BLACK
6
CONTINUOUS
10
20.9339
20
-45.6397
11
20.7682
21
-45.7
0
LINE
8
BLACK
6
CONTINUOUS
10
20.7682
20
-45.7
11
20.5918
21
-45.7
0
LINE
8
BLACK
6
CONTINUOUS
10
20.5918
20
-45.7
11
20.4261
21
-45.6397
0
LINE
8
BLACK
6
CONTINUOUS
10
20.4261
20
-45.6397
11
20.2911
21
-45.5264
0
LINE
8
BLACK
6
CONTINUOUS
10
20.2911
20
-45.5264
11
20.2029
21
-45.3736
0
LINE
8
BLACK
6
CONTINUOUS
10
20.2029
20
-45.3736
11
20.18
21
-45.2437
0
LINE
8
BLACK
6
CONTINUOUS
10
20.18
20
-45.2437
11
20.18
21
-44.5563
0
LINE
8
BLACK
6
CONTINUOUS
10
20.18
20
-44.5563
11
20.2029
21
-44.4264
0
LINE
8
BLACK
6
CONTINUOUS
10
20.2029
20
-44.4264
11
20.2911
21
-44.2736
0
LINE
8
BLACK
6
CONTINUOUS
10
20.2911
20
-44.2736
11
20.4261
21
-44.1603
0
LINE
8
BLACK
6
CONTINUOUS
10
20.4261
20
-44.1603
11
20.5918
21
-44.1
0
LINE
8
BLACK
6
CONTINUOUS
10
20.5918
20
-44.1
11
20.7682
21
-44.1
0
LINE
8
BLACK
6
CONTINUOUS
10
20.7682
20
-44.1
11
20.9339
21
-44.1603
0
LINE
8
BLACK
6
CONTINUOUS
10
46.1389
20
-44.0183
11
46.2611
21
-44.0889
0
LINE
8
BLACK
6
CONTINUOUS
10
46.2611
20
-44.0889
11
46.3518
21
-44.1969
0
LINE
8
BLACK
6
CONTINUOUS
10
46.3518
20
-44.1969
11
46.4
21
-44.3295
0
LINE
8
BLACK
6
CONTINUOUS
10
46.4
20
-44.3295
11
46.4
21
-44.4705
0
LINE
8
BLACK
6
CONTINUOUS
10
46.4
20
-44.4705
11
46.3518
21
-44.6031
0
LINE
8
BLACK
6
CONTINUOUS
10
46.3518
20
-44.6031
11
46.2611
21
-44.7111
0
LINE
8
BLACK
6
CONTINUOUS
10
46.2611
20
-44.7111
11
46.1389
21
-44.7817
0
LINE
8
BLACK
6
CONTINUOUS
10
46.1389
20
-44.7817
11
46
21
-44.8062
0
LINE
8
BLACK
6
CONTINUOUS
10
46
20
-44.8062
11
45.8611
21
-44.7817
0
LINE
8
BLACK
6
CONTINUOUS
10
45.8611
20
-44.7817
11
45.7389
21
-44.7111
0
LINE
8
BLACK
6
CONTINUOUS
10
45.7389
20
-44.7111
11
45.6482
21
-44.6031
0
LINE
8
BLACK
6
CONTINUOUS
10
45.6482
20
-44.6031
11
45.6
21
-44.4705
0
LINE
8
BLACK
6
CONTINUOUS
10
45.6
20
-44.4705
11
45.6
21
-44.3295
0
LINE
8
BLACK
6
CONTINUOUS
10
45.6
20
-44.3295
11
45.6482
21
-44.1969
0
LINE
8
BLACK
6
CONTINUOUS
10
45.6482
20
-44.1969
11
45.7389
21
-44.0889
0
LINE
8
BLACK
6
CONTINUOUS
10
45.7389
20
-44.0889
11
45.8611
21
-44.0183
0
LINE
8
BLACK
6
CONTINUOUS
10
45.8611
20
-44.0183
11
46
21
-43.9938
0
LINE
8
BLACK
6
CONTINUOUS
10
46
20
-43.9938
11
46.1389
21
-44.0183
0
LINE
8
BLACK
6
CONTINUOUS
10
51.2368
20
-36.5437
11
51.2315
21
-36.5636
0
LINE
8
BLACK
6
CONTINUOUS
10
51.2315
20
-36.5636
11
51.2279
21
-36.5838
0
LINE
8
BLACK
6
CONTINUOUS
10
51.2279
20
-36.5838
11
51.2244
21
-36.5898
0
LINE
8
BLACK
6
CONTINUOUS
10
51.2244
20
-36.5898
11
51.2226
21
-36.5965
0
LINE
8
BLACK
6
CONTINUOUS
10
51.2226
20
-36.5965
11
51.2109
21
-36.6134
0
LINE
8
BLACK
6
CONTINUOUS
10
51.2109
20
-36.6134
11
51.2006
21
-36.6312
0
LINE
8
BLACK
6
CONTINUOUS
10
51.2006
20
-36.6312
11
51.1848
21
-36.6444
0
LINE
8
BLACK
6
CONTINUOUS
10
51.1848
20
-36.6444
11
44.9244
21
-42.9048
0
LINE
8
BLACK
6
CONTINUOUS
10
44.9244
20
-42.9048
11
44.9112
21
-42.9206
0
LINE
8
BLACK
6
CONTINUOUS
10
44.9112
20
-42.9206
11
44.8933
21
-42.9309
0
LINE
8
BLACK
6
CONTINUOUS
10
44.8933
20
-42.9309
11
44.8765
21
-42.9426
0
LINE
8
BLACK
6
CONTINUOUS
10
44.8765
20
-42.9426
11
44.8698
21
-42.9444
0
LINE
8
BLACK
6
CONTINUOUS
10
44.8698
20
-42.9444
11
44.8638
21
-42.9479
0
LINE
8
BLACK
6
CONTINUOUS
10
44.8638
20
-42.9479
11
44.8436
21
-42.9515
0
LINE
8
BLACK
6
CONTINUOUS
10
44.8436
20
-42.9515
11
44.8237
21
-42.9568
0
LINE
8
BLACK
6
CONTINUOUS
10
44.8237
20
-42.9568
11
44.8032
21
-42.955
0
LINE
8
BLACK
6
CONTINUOUS
10
44.8032
20
-42.955
11
44.5
21
-42.955
0
LINE
8
BLACK
6
CONTINUOUS
10
44.5
20
-42.955
11
44.5
21
-43.07
0
LINE
8
BLACK
6
CONTINUOUS
10
44.5
20
-43.07
11
44.4634
21
-43.2778
0
LINE
8
BLACK
6
CONTINUOUS
10
44.4634
20
-43.2778
11
44.3223
21
-43.5222
0
LINE
8
BLACK
6
CONTINUOUS
10
44.3223
20
-43.5222
11
44.1062
21
-43.7035
0
LINE
8
BLACK
6
CONTINUOUS
10
44.1062
20
-43.7035
11
43.8411
21
-43.8
0
LINE
8
BLACK
6
CONTINUOUS
10
43.8411
20
-43.8
11
43.5589
21
-43.8
0
LINE
8
BLACK
6
CONTINUOUS
10
43.5589
20
-43.8
11
43.2938
21
-43.7035
0
LINE
8
BLACK
6
CONTINUOUS
10
43.2938
20
-43.7035
11
43.0777
21
-43.5222
0
LINE
8
BLACK
6
CONTINUOUS
10
43.0777
20
-43.5222
11
42.9366
21
-43.2778
0
LINE
8
BLACK
6
CONTINUOUS
10
42.9366
20
-43.2778
11
42.9
21
-43.07
0
LINE
8
BLACK
6
CONTINUOUS
10
42.9
20
-43.07
11
42.9
21
-42.53
0
LINE
8
BLACK
6
CONTINUOUS
10
42.9
20
-42.53
11
42.9366
21
-42.3222
0
LINE
8
BLACK
6
CONTINUOUS
10
42.9366
20
-42.3222
11
43.0777
21
-42.0778
0
LINE
8
BLACK
6
CONTINUOUS
10
43.0777
20
-42.0778
11
43.2938
21
-41.8965
0
LINE
8
BLACK
6
CONTINUOUS
10
43.2938
20
-41.8965
11
43.5589
21
-41.8
0
LINE
8
BLACK
6
CONTINUOUS
10
43.5589
20
-41.8
11
43.8411
21
-41.8
0
LINE
8
BLACK
6
CONTINUOUS
10
43.8411
20
-41.8
11
44.1062
21
-41.8965
0
LINE
8
BLACK
6
CONTINUOUS
10
44.1062
20
-41.8965
11
44.3223
21
-42.0778
0
LINE
8
BLACK
6
CONTINUOUS
10
44.3223
20
-42.0778
11
44.4634
21
-42.3222
0
LINE
8
BLACK
6
CONTINUOUS
10
44.4634
20
-42.3222
11
44.5
21
-42.53
0
LINE
8
BLACK
6
CONTINUOUS
10
44.5
20
-42.53
11
44.5
21
-42.645
0
LINE
8
BLACK
6
CONTINUOUS
10
44.5
20
-42.645
11
44.7458
21
-42.645
0
LINE
8
BLACK
6
CONTINUOUS
10
44.7458
20
-42.645
11
50.925
21
-36.4658
0
LINE
8
BLACK
6
CONTINUOUS
10
50.925
20
-36.4658
11
50.925
21
-33.5736
0
LINE
8
BLACK
6
CONTINUOUS
10
50.925
20
-33.5736
11
50.925
21
-33.5736
0
LINE
8
BLACK
6
CONTINUOUS
10
50.925
20
-33.5736
11
50.925
21
-33.25
0
LINE
8
BLACK
6
CONTINUOUS
10
50.925
20
-33.25
11
50.33
21
-33.25
0
LINE
8
BLACK
6
CONTINUOUS
10
50.33
20
-33.25
11
50.33
21
-31.75
0
LINE
8
BLACK
6
CONTINUOUS
10
50.33
20
-31.75
11
51.83
21
-31.75
0
LINE
8
BLACK
6
CONTINUOUS
10
51.83
20
-31.75
11
51.83
21
-33.25
0
LINE
8
BLACK
6
CONTINUOUS
10
51.83
20
-33.25
11
51.235
21
-33.25
0
LINE
8
BLACK
6
CONTINUOUS
10
51.235
20
-33.25
11
51.235
21
-36.5232
0
LINE
8
BLACK
6
CONTINUOUS
10
51.235
20
-36.5232
11
51.2368
21
-36.5437
0
LINE
8
BLACK
6
CONTINUOUS
10
29.5739
20
-39.7303
11
29.7089
21
-39.8436
0
LINE
8
BLACK
6
CONTINUOUS
10
29.7089
20
-39.8436
11
29.7971
21
-39.9964
0
LINE
8
BLACK
6
CONTINUOUS
10
29.7971
20
-39.9964
11
29.82
21
-40.1263
0
LINE
8
BLACK
6
CONTINUOUS
10
29.82
20
-40.1263
11
29.82
21
-41.3137
0
LINE
8
BLACK
6
CONTINUOUS
10
29.82
20
-41.3137
11
29.7971
21
-41.4436
0
LINE
8
BLACK
6
CONTINUOUS
10
29.7971
20
-41.4436
11
29.7089
21
-41.5964
0
LINE
8
BLACK
6
CONTINUOUS
10
29.7089
20
-41.5964
11
29.5739
21
-41.7097
0
LINE
8
BLACK
6
CONTINUOUS
10
29.5739
20
-41.7097
11
29.4082
21
-41.77
0
LINE
8
BLACK
6
CONTINUOUS
10
29.4082
20
-41.77
11
29.2318
21
-41.77
0
LINE
8
BLACK
6
CONTINUOUS
10
29.2318
20
-41.77
11
29.0661
21
-41.7097
0
LINE
8
BLACK
6
CONTINUOUS
10
29.0661
20
-41.7097
11
28.9311
21
-41.5964
0
LINE
8
BLACK
6
CONTINUOUS
10
28.9311
20
-41.5964
11
28.8429
21
-41.4436
0
LINE
8
BLACK
6
CONTINUOUS
10
28.8429
20
-41.4436
11
28.82
21
-41.3137
0
LINE
8
BLACK
6
CONTINUOUS
10
28.82
20
-41.3137
11
28.82
21
-40.1263
0
LINE
8
BLACK
6
CONTINUOUS
10
28.82
20
-40.1263
11
28.8429
21
-39.9964
0
LINE
8
BLACK
6
CONTINUOUS
10
28.8429
20
-39.9964
11
28.9311
21
-39.8436
0
LINE
8
BLACK
6
CONTINUOUS
10
28.9311
20
-39.8436
11
29.0661
21
-39.7303
0
LINE
8
BLACK
6
CONTINUOUS
10
29.0661
20
-39.7303
11
29.2318
21
-39.67
0
LINE
8
BLACK
6
CONTINUOUS
10
29.2318
20
-39.67
11
29.4082
21
-39.67
0
LINE
8
BLACK
6
CONTINUOUS
10
29.4082
20
-39.67
11
29.5739
21
-39.7303
0
LINE
8
BLACK
6
CONTINUOUS
10
20.9339
20
-39.7303
11
21.0689
21
-39.8436
0
LINE
8
BLACK
6
CONTINUOUS
10
21.0689
20
-39.8436
11
21.1571
21
-39.9964
0
LINE
8
BLACK
6
CONTINUOUS
10
21.1571
20
-39.9964
11
21.18
21
-40.1263
0
LINE
8
BLACK
6
CONTINUOUS
10
21.18
20
-40.1263
11
21.18
21
-41.3137
0
LINE
8
BLACK
6
CONTINUOUS
10
21.18
20
-41.3137
11
21.1571
21
-41.4436
0
LINE
8
BLACK
6
CONTINUOUS
10
21.1571
20
-41.4436
11
21.0689
21
-41.5964
0
LINE
8
BLACK
6
CONTINUOUS
10
21.0689
20
-41.5964
11
20.9339
21
-41.7097
0
LINE
8
BLACK
6
CONTINUOUS
10
20.9339
20
-41.7097
11
20.7682
21
-41.77
0
LINE
8
BLACK
6
CONTINUOUS
10
20.7682
20
-41.77
11
20.5918
21
-41.77
0
LINE
8
BLACK
6
CONTINUOUS
10
20.5918
20
-41.77
11
20.4261
21
-41.7097
0
LINE
8
BLACK
6
CONTINUOUS
10
20.4261
20
-41.7097
11
20.2911
21
-41.5964
0
LINE
8
BLACK
6
CONTINUOUS
10
20.2911
20
-41.5964
11
20.2029
21
-41.4436
0
LINE
8
BLACK
6
CONTINUOUS
10
20.2029
20
-41.4436
11
20.18
21
-41.3137
0
LINE
8
BLACK
6
CONTINUOUS
10
20.18
20
-41.3137
11
20.18
21
-40.1263
0
LINE
8
BLACK
6
CONTINUOUS
10
20.18
20
-40.1263
11
20.2029
21
-39.9964
0
LINE
8
BLACK
6
CONTINUOUS
10
20.2029
20
-39.9964
11
20.2911
21
-39.8436
0
LINE
8
BLACK
6
CONTINUOUS
10
20.2911
20
-39.8436
11
20.4261
21
-39.7303
0
LINE
8
BLACK
6
CONTINUOUS
10
20.4261
20
-39.7303
11
20.5918
21
-39.67
0
LINE
8
BLACK
6
CONTINUOUS
10
20.5918
20
-39.67
11
20.7682
21
-39.67
0
LINE
8
BLACK
6
CONTINUOUS
10
20.7682
20
-39.67
11
20.9339
21
-39.7303
0
LINE
8
BLACK
6
CONTINUOUS
10
28.0029
20
-40.9099
11
28.1021
21
-40.9672
0
LINE
8
BLACK
6
CONTINUOUS
10
28.1021
20
-40.9672
11
28.1758
21
-41.055
0
LINE
8
BLACK
6
CONTINUOUS
10
28.1758
20
-41.055
11
28.215
21
-41.1627
0
LINE
8
BLACK
6
CONTINUOUS
10
28.215
20
-41.1627
11
28.215
21
-41.2773
0
LINE
8
BLACK
6
CONTINUOUS
10
28.215
20
-41.2773
11
28.1758
21
-41.385
0
LINE
8
BLACK
6
CONTINUOUS
10
28.1758
20
-41.385
11
28.1021
21
-41.4728
0
LINE
8
BLACK
6
CONTINUOUS
10
28.1021
20
-41.4728
11
28.0029
21
-41.5301
0
LINE
8
BLACK
6
CONTINUOUS
10
28.0029
20
-41.5301
11
27.89
21
-41.55
0
LINE
8
BLACK
6
CONTINUOUS
10
27.89
20
-41.55
11
27.7771
21
-41.5301
0
LINE
8
BLACK
6
CONTINUOUS
10
27.7771
20
-41.5301
11
27.6779
21
-41.4728
0
LINE
8
BLACK
6
CONTINUOUS
10
27.6779
20
-41.4728
11
27.6042
21
-41.385
0
LINE
8
BLACK
6
CONTINUOUS
10
27.6042
20
-41.385
11
27.565
21
-41.2773
0
LINE
8
BLACK
6
CONTINUOUS
10
27.565
20
-41.2773
11
27.565
21
-41.1627
0
LINE
8
BLACK
6
CONTINUOUS
10
27.565
20
-41.1627
11
27.6042
21
-41.055
0
LINE
8
BLACK
6
CONTINUOUS
10
27.6042
20
-41.055
11
27.6779
21
-40.9672
0
LINE
8
BLACK
6
CONTINUOUS
10
27.6779
20
-40.9672
11
27.7771
21
-40.9099
0
LINE
8
BLACK
6
CONTINUOUS
10
27.7771
20
-40.9099
11
27.89
21
-40.89
0
LINE
8
BLACK
6
CONTINUOUS
10
27.89
20
-40.89
11
28.0029
21
-40.9099
0
LINE
8
BLACK
6
CONTINUOUS
10
22.2229
20
-40.9099
11
22.3221
21
-40.9672
0
LINE
8
BLACK
6
CONTINUOUS
10
22.3221
20
-40.9672
11
22.3958
21
-41.055
0
LINE
8
BLACK
6
CONTINUOUS
10
22.3958
20
-41.055
11
22.435
21
-41.1627
0
LINE
8
BLACK
6
CONTINUOUS
10
22.435
20
-41.1627
11
22.435
21
-41.2773
0
LINE
8
BLACK
6
CONTINUOUS
10
22.435
20
-41.2773
11
22.3958
21
-41.385
0
LINE
8
BLACK
6
CONTINUOUS
10
22.3958
20
-41.385
11
22.3221
21
-41.4728
0
LINE
8
BLACK
6
CONTINUOUS
10
22.3221
20
-41.4728
11
22.2229
21
-41.5301
0
LINE
8
BLACK
6
CONTINUOUS
10
22.2229
20
-41.5301
11
22.11
21
-41.55
0
LINE
8
BLACK
6
CONTINUOUS
10
22.11
20
-41.55
11
21.9971
21
-41.5301
0
LINE
8
BLACK
6
CONTINUOUS
10
21.9971
20
-41.5301
11
21.8979
21
-41.4728
0
LINE
8
BLACK
6
CONTINUOUS
10
21.8979
20
-41.4728
11
21.8242
21
-41.385
0
LINE
8
BLACK
6
CONTINUOUS
10
21.8242
20
-41.385
11
21.785
21
-41.2773
0
LINE
8
BLACK
6
CONTINUOUS
10
21.785
20
-41.2773
11
21.785
21
-41.1627
0
LINE
8
BLACK
6
CONTINUOUS
10
21.785
20
-41.1627
11
21.8242
21
-41.055
0
LINE
8
BLACK
6
CONTINUOUS
10
21.8242
20
-41.055
11
21.8979
21
-40.9672
0
LINE
8
BLACK
6
CONTINUOUS
10
21.8979
20
-40.9672
11
21.9971
21
-40.9099
0
LINE
8
BLACK
6
CONTINUOUS
10
21.9971
20
-40.9099
11
22.11
21
-40.89
0
LINE
8
BLACK
6
CONTINUOUS
10
22.11
20
-40.89
11
22.2229
21
-40.9099
0
LINE
8
BLACK
6
CONTINUOUS
10
25.9068
20
-41.0137
11
25.9015
21
-41.0336
0
LINE
8
BLACK
6
CONTINUOUS
10
25.9015
20
-41.0336
11
25.8979
21
-41.0538
0
LINE
8
BLACK
6
CONTINUOUS
10
25.8979
20
-41.0538
11
25.8944
21
-41.0598
0
LINE
8
BLACK
6
CONTINUOUS
10
25.8944
20
-41.0598
11
25.8926
21
-41.0665
0
LINE
8
BLACK
6
CONTINUOUS
10
25.8926
20
-41.0665
11
25.8809
21
-41.0834
0
LINE
8
BLACK
6
CONTINUOUS
10
25.8809
20
-41.0834
11
25.8706
21
-41.1012
0
LINE
8
BLACK
6
CONTINUOUS
10
25.8706
20
-41.1012
11
25.8548
21
-41.1144
0
LINE
8
BLACK
6
CONTINUOUS
10
25.8548
20
-41.1144
11
25.6144
21
-41.3548
0
LINE
8
BLACK
6
CONTINUOUS
10
25.6144
20
-41.3548
11
25.6012
21
-41.3706
0
LINE
8
BLACK
6
CONTINUOUS
10
25.6012
20
-41.3706
11
25.5833
21
-41.3809
0
LINE
8
BLACK
6
CONTINUOUS
10
25.5833
20
-41.3809
11
25.5665
21
-41.3926
0
LINE
8
BLACK
6
CONTINUOUS
10
25.5665
20
-41.3926
11
25.5598
21
-41.3944
0
LINE
8
BLACK
6
CONTINUOUS
10
25.5598
20
-41.3944
11
25.5538
21
-41.3979
0
LINE
8
BLACK
6
CONTINUOUS
10
25.5538
20
-41.3979
11
25.5336
21
-41.4015
0
LINE
8
BLACK
6
CONTINUOUS
10
25.5336
20
-41.4015
11
25.5137
21
-41.4068
0
LINE
8
BLACK
6
CONTINUOUS
10
25.5137
20
-41.4068
11
25.4932
21
-41.405
0
LINE
8
BLACK
6
CONTINUOUS
10
25.4932
20
-41.405
11
25.0068
21
-41.405
0
LINE
8
BLACK
6
CONTINUOUS
10
25.0068
20
-41.405
11
24.9863
21
-41.4068
0
LINE
8
BLACK
6
CONTINUOUS
10
24.9863
20
-41.4068
11
24.9664
21
-41.4015
0
LINE
8
BLACK
6
CONTINUOUS
10
24.9664
20
-41.4015
11
24.9462
21
-41.3979
0
LINE
8
BLACK
6
CONTINUOUS
10
24.9462
20
-41.3979
11
24.9402
21
-41.3944
0
LINE
8
BLACK
6
CONTINUOUS
10
24.9402
20
-41.3944
11
24.9335
21
-41.3926
0
LINE
8
BLACK
6
CONTINUOUS
10
24.9335
20
-41.3926
11
24.9166
21
-41.3809
0
LINE
8
BLACK
6
CONTINUOUS
10
24.9166
20
-41.3809
11
24.8988
21
-41.3706
0
LINE
8
BLACK
6
CONTINUOUS
10
24.8988
20
-41.3706
11
24.8856
21
-41.3548
0
LINE
8
BLACK
6
CONTINUOUS
10
24.8856
20
-41.3548
11
24.6452
21
-41.1144
0
LINE
8
BLACK
6
CONTINUOUS
10
24.6452
20
-41.1144
11
24.6294
21
-41.1012
0
LINE
8
BLACK
6
CONTINUOUS
10
24.6294
20
-41.1012
11
24.6191
21
-41.0834
0
LINE
8
BLACK
6
CONTINUOUS
10
24.6191
20
-41.0834
11
24.6074
21
-41.0665
0
LINE
8
BLACK
6
CONTINUOUS
10
24.6074
20
-41.0665
11
24.6056
21
-41.0598
0
LINE
8
BLACK
6
CONTINUOUS
10
24.6056
20
-41.0598
11
24.6021
21
-41.0538
0
LINE
8
BLACK
6
CONTINUOUS
10
24.6021
20
-41.0538
11
24.5985
21
-41.0336
0
LINE
8
BLACK
6
CONTINUOUS
10
24.5985
20
-41.0336
11
24.5932
21
-41.0137
0
LINE
8
BLACK
6
CONTINUOUS
10
24.5932
20
-41.0137
11
24.595
21
-40.9932
0
LINE
8
BLACK
6
CONTINUOUS
10
24.595
20
-40.9932
11
24.595
21
-40.0414
0
LINE
8
BLACK
6
CONTINUOUS
10
24.595
20
-40.0414
11
24.6
21
-40.0131
0
LINE
8
BLACK
6
CONTINUOUS
10
24.6
20
-40.0131
11
24.6
21
-39.48
0
LINE
8
BLACK
6
CONTINUOUS
10
24.6
20
-39.48
11
24.9
21
-39.48
0
LINE
8
BLACK
6
CONTINUOUS
10
24.9
20
-39.48
11
24.9
21
-40.0131
0
LINE
8
BLACK
6
CONTINUOUS
10
24.9
20
-40.0131
11
24.905
21
-40.0414
0
LINE
8
BLACK
6
CONTINUOUS
10
24.905
20
-40.0414
11
24.905
21
-40.9358
0
LINE
8
BLACK
6
CONTINUOUS
10
24.905
20
-40.9358
11
25.0642
21
-41.095
0
LINE
8
BLACK
6
CONTINUOUS
10
25.0642
20
-41.095
11
25.4358
21
-41.095
0
LINE
8
BLACK
6
CONTINUOUS
10
25.4358
20
-41.095
11
25.595
21
-40.9358
0
LINE
8
BLACK
6
CONTINUOUS
10
25.595
20
-40.9358
11
25.595
21
-40.0686
0
LINE
8
BLACK
6
CONTINUOUS
10
25.595
20
-40.0686
11
25.595
21
-40.0686
0
LINE
8
BLACK
6
CONTINUOUS
10
25.595
20
-40.0686
11
25.595
21
-39.1836
0
LINE
8
BLACK
6
CONTINUOUS
10
25.595
20
-39.1836
11
25.595
21
-39.1836
0
LINE
8
BLACK
6
CONTINUOUS
10
25.595
20
-39.1836
11
25.595
21
-36.3724
0
LINE
8
BLACK
6
CONTINUOUS
10
25.595
20
-36.3724
11
25.4889
21
-36.3111
0
LINE
8
BLACK
6
CONTINUOUS
10
25.4889
20
-36.3111
11
25.3982
21
-36.2031
0
LINE
8
BLACK
6
CONTINUOUS
10
25.3982
20
-36.2031
11
25.35
21
-36.0705
0
LINE
8
BLACK
6
CONTINUOUS
10
25.35
20
-36.0705
11
25.35
21
-35.9295
0
LINE
8
BLACK
6
CONTINUOUS
10
25.35
20
-35.9295
11
25.3982
21
-35.7969
0
LINE
8
BLACK
6
CONTINUOUS
10
25.3982
20
-35.7969
11
25.4889
21
-35.6889
0
LINE
8
BLACK
6
CONTINUOUS
10
25.4889
20
-35.6889
11
25.6111
21
-35.6183
0
LINE
8
BLACK
6
CONTINUOUS
10
25.6111
20
-35.6183
11
25.75
21
-35.5938
0
LINE
8
BLACK
6
CONTINUOUS
10
25.75
20
-35.5938
11
25.8889
21
-35.6183
0
LINE
8
BLACK
6
CONTINUOUS
10
25.8889
20
-35.6183
11
26.0111
21
-35.6889
0
LINE
8
BLACK
6
CONTINUOUS
10
26.0111
20
-35.6889
11
26.1018
21
-35.7969
0
LINE
8
BLACK
6
CONTINUOUS
10
26.1018
20
-35.7969
11
26.15
21
-35.9295
0
LINE
8
BLACK
6
CONTINUOUS
10
26.15
20
-35.9295
11
26.15
21
-36.0705
0
LINE
8
BLACK
6
CONTINUOUS
10
26.15
20
-36.0705
11
26.1018
21
-36.2031
0
LINE
8
BLACK
6
CONTINUOUS
10
26.1018
20
-36.2031
11
26.0111
21
-36.3111
0
LINE
8
BLACK
6
CONTINUOUS
10
26.0111
20
-36.3111
11
25.905
21
-36.3724
0
LINE
8
BLACK
6
CONTINUOUS
10
25.905
20
-36.3724
11
25.905
21
-40.9932
0
LINE
8
BLACK
6
CONTINUOUS
10
25.905
20
-40.9932
11
25.9068
21
-41.0137
0
LINE
8
BLACK
6
CONTINUOUS
10
41.1805
20
-31.7844
11
41.4095
21
-31.9166
0
LINE
8
BLACK
6
CONTINUOUS
10
41.4095
20
-31.9166
11
41.5795
21
-32.1192
0
LINE
8
BLACK
6
CONTINUOUS
10
41.5795
20
-32.1192
11
41.67
21
-32.3678
0
LINE
8
BLACK
6
CONTINUOUS
10
41.67
20
-32.3678
11
41.67
21
-32.6322
0
LINE
8
BLACK
6
CONTINUOUS
10
41.67
20
-32.6322
11
41.5795
21
-32.8808
0
LINE
8
BLACK
6
CONTINUOUS
10
41.5795
20
-32.8808
11
41.4095
21
-33.0834
0
LINE
8
BLACK
6
CONTINUOUS
10
41.4095
20
-33.0834
11
41.1805
21
-33.2156
0
LINE
8
BLACK
6
CONTINUOUS
10
41.1805
20
-33.2156
11
41.075
21
-33.2342
0
LINE
8
BLACK
6
CONTINUOUS
10
41.075
20
-33.2342
11
41.075
21
-38.0658
0
LINE
8
BLACK
6
CONTINUOUS
10
41.075
20
-38.0658
11
42.6542
21
-39.645
0
LINE
8
BLACK
6
CONTINUOUS
10
42.6542
20
-39.645
11
42.9
21
-39.645
0
LINE
8
BLACK
6
CONTINUOUS
10
42.9
20
-39.645
11
42.9
21
-39.53
0
LINE
8
BLACK
6
CONTINUOUS
10
42.9
20
-39.53
11
42.9366
21
-39.3222
0
LINE
8
BLACK
6
CONTINUOUS
10
42.9366
20
-39.3222
11
43.0777
21
-39.0778
0
LINE
8
BLACK
6
CONTINUOUS
10
43.0777
20
-39.0778
11
43.2938
21
-38.8965
0
LINE
8
BLACK
6
CONTINUOUS
10
43.2938
20
-38.8965
11
43.5589
21
-38.8
0
LINE
8
BLACK
6
CONTINUOUS
10
43.5589
20
-38.8
11
43.8411
21
-38.8
0
LINE
8
BLACK
6
CONTINUOUS
10
43.8411
20
-38.8
11
44.1062
21
-38.8965
0
LINE
8
BLACK
6
CONTINUOUS
10
44.1062
20
-38.8965
11
44.3223
21
-39.0778
0
LINE
8
BLACK
6
CONTINUOUS
10
44.3223
20
-39.0778
11
44.4634
21
-39.3222
0
LINE
8
BLACK
6
CONTINUOUS
10
44.4634
20
-39.3222
11
44.5
21
-39.53
0
LINE
8
BLACK
6
CONTINUOUS
10
44.5
20
-39.53
11
44.5
21
-40.07
0
LINE
8
BLACK
6
CONTINUOUS
10
44.5
20
-40.07
11
44.4634
21
-40.2778
0
LINE
8
BLACK
6
CONTINUOUS
10
44.4634
20
-40.2778
11
44.3223
21
-40.5222
0
LINE
8
BLACK
6
CONTINUOUS
10
44.3223
20
-40.5222
11
44.1062
21
-40.7035
0
LINE
8
BLACK
6
CONTINUOUS
10
44.1062
20
-40.7035
11
43.8411
21
-40.8
0
LINE
8
BLACK
6
CONTINUOUS
10
43.8411
20
-40.8
11
43.5589
21
-40.8
0
LINE
8
BLACK
6
CONTINUOUS
10
43.5589
20
-40.8
11
43.2938
21
-40.7035
0
LINE
8
BLACK
6
CONTINUOUS
10
43.2938
20
-40.7035
11
43.0777
21
-40.5222
0
LINE
8
BLACK
6
CONTINUOUS
10
43.0777
20
-40.5222
11
42.9366
21
-40.2778
0
LINE
8
BLACK
6
CONTINUOUS
10
42.9366
20
-40.2778
11
42.9
21
-40.07
0
LINE
8
BLACK
6
CONTINUOUS
10
42.9
20
-40.07
11
42.9
21
-39.955
0
LINE
8
BLACK
6
CONTINUOUS
10
42.9
20
-39.955
11
42.5968
21
-39.955
0
LINE
8
BLACK
6
CONTINUOUS
10
42.5968
20
-39.955
11
42.5763
21
-39.9568
0
LINE
8
BLACK
6
CONTINUOUS
10
42.5763
20
-39.9568
11
42.5564
21
-39.9515
0
LINE
8
BLACK
6
CONTINUOUS
10
42.5564
20
-39.9515
11
42.5362
21
-39.9479
0
LINE
8
BLACK
6
CONTINUOUS
10
42.5362
20
-39.9479
11
42.5302
21
-39.9444
0
LINE
8
BLACK
6
CONTINUOUS
10
42.5302
20
-39.9444
11
42.5235
21
-39.9426
0
LINE
8
BLACK
6
CONTINUOUS
10
42.5235
20
-39.9426
11
42.5066
21
-39.9309
0
LINE
8
BLACK
6
CONTINUOUS
10
42.5066
20
-39.9309
11
42.4888
21
-39.9206
0
LINE
8
BLACK
6
CONTINUOUS
10
42.4888
20
-39.9206
11
42.4756
21
-39.9048
0
LINE
8
BLACK
6
CONTINUOUS
10
42.4756
20
-39.9048
11
40.8152
21
-38.2444
0
LINE
8
BLACK
6
CONTINUOUS
10
40.8152
20
-38.2444
11
40.7994
21
-38.2312
0
LINE
8
BLACK
6
CONTINUOUS
10
40.7994
20
-38.2312
11
40.7891
21
-38.2134
0
LINE
8
BLACK
6
CONTINUOUS
10
40.7891
20
-38.2134
11
40.7774
21
-38.1965
0
LINE
8
BLACK
6
CONTINUOUS
10
40.7774
20
-38.1965
11
40.7756
21
-38.1898
0
LINE
8
BLACK
6
CONTINUOUS
10
40.7756
20
-38.1898
11
40.7721
21
-38.1838
0
LINE
8
BLACK
6
CONTINUOUS
10
40.7721
20
-38.1838
11
40.7685
21
-38.1636
0
LINE
8
BLACK
6
CONTINUOUS
10
40.7685
20
-38.1636
11
40.7632
21
-38.1437
0
LINE
8
BLACK
6
CONTINUOUS
10
40.7632
20
-38.1437
11
40.765
21
-38.1232
0
LINE
8
BLACK
6
CONTINUOUS
10
40.765
20
-38.1232
11
40.765
21
-33.2342
0
LINE
8
BLACK
6
CONTINUOUS
10
40.765
20
-33.2342
11
40.6595
21
-33.2156
0
LINE
8
BLACK
6
CONTINUOUS
10
40.6595
20
-33.2156
11
40.4305
21
-33.0834
0
LINE
8
BLACK
6
CONTINUOUS
10
40.4305
20
-33.0834
11
40.2605
21
-32.8808
0
LINE
8
BLACK
6
CONTINUOUS
10
40.2605
20
-32.8808
11
40.17
21
-32.6322
0
LINE
8
BLACK
6
CONTINUOUS
10
40.17
20
-32.6322
11
40.17
21
-32.3678
0
LINE
8
BLACK
6
CONTINUOUS
10
40.17
20
-32.3678
11
40.2605
21
-32.1192
0
LINE
8
BLACK
6
CONTINUOUS
10
40.2605
20
-32.1192
11
40.4305
21
-31.9166
0
LINE
8
BLACK
6
CONTINUOUS
10
40.4305
20
-31.9166
11
40.6595
21
-31.7844
0
LINE
8
BLACK
6
CONTINUOUS
10
40.6595
20
-31.7844
11
40.92
21
-31.7384
0
LINE
8
BLACK
6
CONTINUOUS
10
40.92
20
-31.7384
11
41.1805
21
-31.7844
0
LINE
8
BLACK
6
CONTINUOUS
10
26.4
20
-40.63
11
26.1
21
-40.63
0
LINE
8
BLACK
6
CONTINUOUS
10
26.1
20
-40.63
11
26.1
21
-39.48
0
LINE
8
BLACK
6
CONTINUOUS
10
26.1
20
-39.48
11
26.4
21
-39.48
0
LINE
8
BLACK
6
CONTINUOUS
10
26.4
20
-39.48
11
26.4
21
-40.63
0
LINE
8
BLACK
6
CONTINUOUS
10
24.4796
20
-38.345
11
24.4863
21
-38.3432
0
LINE
8
BLACK
6
CONTINUOUS
10
24.4863
20
-38.3432
11
24.5068
21
-38.345
0
LINE
8
BLACK
6
CONTINUOUS
10
24.5068
20
-38.345
11
24.9932
21
-38.345
0
LINE
8
BLACK
6
CONTINUOUS
10
24.9932
20
-38.345
11
25.0137
21
-38.3432
0
LINE
8
BLACK
6
CONTINUOUS
10
25.0137
20
-38.3432
11
25.0336
21
-38.3485
0
LINE
8
BLACK
6
CONTINUOUS
10
25.0336
20
-38.3485
11
25.0538
21
-38.3521
0
LINE
8
BLACK
6
CONTINUOUS
10
25.0538
20
-38.3521
11
25.0598
21
-38.3556
0
LINE
8
BLACK
6
CONTINUOUS
10
25.0598
20
-38.3556
11
25.0665
21
-38.3574
0
LINE
8
BLACK
6
CONTINUOUS
10
25.0665
20
-38.3574
11
25.0833
21
-38.3691
0
LINE
8
BLACK
6
CONTINUOUS
10
25.0833
20
-38.3691
11
25.1012
21
-38.3794
0
LINE
8
BLACK
6
CONTINUOUS
10
25.1012
20
-38.3794
11
25.1144
21
-38.3952
0
LINE
8
BLACK
6
CONTINUOUS
10
25.1144
20
-38.3952
11
25.3548
21
-38.6356
0
LINE
8
BLACK
6
CONTINUOUS
10
25.3548
20
-38.6356
11
25.3706
21
-38.6488
0
LINE
8
BLACK
6
CONTINUOUS
10
25.3706
20
-38.6488
11
25.3809
21
-38.6666
0
LINE
8
BLACK
6
CONTINUOUS
10
25.3809
20
-38.6666
11
25.3926
21
-38.6835
0
LINE
8
BLACK
6
CONTINUOUS
10
25.3926
20
-38.6835
11
25.3944
21
-38.6902
0
LINE
8
BLACK
6
CONTINUOUS
10
25.3944
20
-38.6902
11
25.3979
21
-38.6962
0
LINE
8
BLACK
6
CONTINUOUS
10
25.3979
20
-38.6962
11
25.4015
21
-38.7164
0
LINE
8
BLACK
6
CONTINUOUS
10
25.4015
20
-38.7164
11
25.4068
21
-38.7363
0
LINE
8
BLACK
6
CONTINUOUS
10
25.4068
20
-38.7363
11
25.405
21
-38.7568
0
LINE
8
BLACK
6
CONTINUOUS
10
25.405
20
-38.7568
11
25.405
21
-40.0686
0
LINE
8
BLACK
6
CONTINUOUS
10
25.405
20
-40.0686
11
25.4
21
-40.0969
0
LINE
8
BLACK
6
CONTINUOUS
10
25.4
20
-40.0969
11
25.4
21
-40.63
0
LINE
8
BLACK
6
CONTINUOUS
10
25.4
20
-40.63
11
25.1
21
-40.63
0
LINE
8
BLACK
6
CONTINUOUS
10
25.1
20
-40.63
11
25.1
21
-40.0969
0
LINE
8
BLACK
6
CONTINUOUS
10
25.1
20
-40.0969
11
25.095
21
-40.0686
0
LINE
8
BLACK
6
CONTINUOUS
10
25.095
20
-40.0686
11
25.095
21
-39.2364
0
LINE
8
BLACK
6
CONTINUOUS
10
25.095
20
-39.2364
11
25.095
21
-39.2364
0
LINE
8
BLACK
6
CONTINUOUS
10
25.095
20
-39.2364
11
25.095
21
-38.8142
0
LINE
8
BLACK
6
CONTINUOUS
10
25.095
20
-38.8142
11
24.9358
21
-38.655
0
LINE
8
BLACK
6
CONTINUOUS
10
24.9358
20
-38.655
11
24.5642
21
-38.655
0
LINE
8
BLACK
6
CONTINUOUS
10
24.5642
20
-38.655
11
24.405
21
-38.8142
0
LINE
8
BLACK
6
CONTINUOUS
10
24.405
20
-38.8142
11
24.405
21
-40.0686
0
LINE
8
BLACK
6
CONTINUOUS
10
24.405
20
-40.0686
11
24.4
21
-40.0969
0
LINE
8
BLACK
6
CONTINUOUS
10
24.4
20
-40.0969
11
24.4
21
-40.63
0
LINE
8
BLACK
6
CONTINUOUS
10
24.4
20
-40.63
11
24.1
21
-40.63
0
LINE
8
BLACK
6
CONTINUOUS
10
24.1
20
-40.63
11
24.1
21
-40.0969
0
LINE
8
BLACK
6
CONTINUOUS
10
24.1
20
-40.0969
11
24.095
21
-40.0686
0
LINE
8
BLACK
6
CONTINUOUS
10
24.095
20
-40.0686
11
24.095
21
-38.7636
0
LINE
8
BLACK
6
CONTINUOUS
10
24.095
20
-38.7636
11
24.095
21
-38.7636
0
LINE
8
BLACK
6
CONTINUOUS
10
24.095
20
-38.7636
11
24.095
21
-38.7568
0
LINE
8
BLACK
6
CONTINUOUS
10
24.095
20
-38.7568
11
24.0932
21
-38.7363
0
LINE
8
BLACK
6
CONTINUOUS
10
24.0932
20
-38.7363
11
24.095
21
-38.7296
0
LINE
8
BLACK
6
CONTINUOUS
10
24.095
20
-38.7296
11
24.095
21
-38.5273
0
LINE
8
BLACK
6
CONTINUOUS
10
24.095
20
-38.5273
11
24.095
21
-38.5273
0
LINE
8
BLACK
6
CONTINUOUS
10
24.095
20
-38.5273
11
24.095
21
-38.4727
0
LINE
8
BLACK
6
CONTINUOUS
10
24.095
20
-38.4727
11
24.095
21
-38.2636
0
LINE
8
BLACK
6
CONTINUOUS
10
24.095
20
-38.2636
11
24.095
21
-38.2636
0
LINE
8
BLACK
6
CONTINUOUS
10
24.095
20
-38.2636
11
24.095
21
-35.1618
0
LINE
8
BLACK
6
CONTINUOUS
10
24.095
20
-35.1618
11
24.0932
21
-35.1413
0
LINE
8
BLACK
6
CONTINUOUS
10
24.0932
20
-35.1413
11
24.0985
21
-35.1214
0
LINE
8
BLACK
6
CONTINUOUS
10
24.0985
20
-35.1214
11
24.1021
21
-35.1012
0
LINE
8
BLACK
6
CONTINUOUS
10
24.1021
20
-35.1012
11
24.1056
21
-35.0952
0
LINE
8
BLACK
6
CONTINUOUS
10
24.1056
20
-35.0952
11
24.1074
21
-35.0885
0
LINE
8
BLACK
6
CONTINUOUS
10
24.1074
20
-35.0885
11
24.1191
21
-35.0716
0
LINE
8
BLACK
6
CONTINUOUS
10
24.1191
20
-35.0716
11
24.1294
21
-35.0538
0
LINE
8
BLACK
6
CONTINUOUS
10
24.1294
20
-35.0538
11
24.1452
21
-35.0406
0
LINE
8
BLACK
6
CONTINUOUS
10
24.1452
20
-35.0406
11
26.2726
21
-32.9132
0
LINE
8
BLACK
6
CONTINUOUS
10
26.2726
20
-32.9132
11
26.2455
21
-32.8808
0
LINE
8
BLACK
6
CONTINUOUS
10
26.2455
20
-32.8808
11
26.155
21
-32.6322
0
LINE
8
BLACK
6
CONTINUOUS
10
26.155
20
-32.6322
11
26.155
21
-32.3678
0
LINE
8
BLACK
6
CONTINUOUS
10
26.155
20
-32.3678
11
26.2455
21
-32.1192
0
LINE
8
BLACK
6
CONTINUOUS
10
26.2455
20
-32.1192
11
26.4155
21
-31.9166
0
LINE
8
BLACK
6
CONTINUOUS
10
26.4155
20
-31.9166
11
26.6445
21
-31.7844
0
LINE
8
BLACK
6
CONTINUOUS
10
26.6445
20
-31.7844
11
26.905
21
-31.7384
0
LINE
8
BLACK
6
CONTINUOUS
10
26.905
20
-31.7384
11
27.1655
21
-31.7844
0
LINE
8
BLACK
6
CONTINUOUS
10
27.1655
20
-31.7844
11
27.3945
21
-31.9166
0
LINE
8
BLACK
6
CONTINUOUS
10
27.3945
20
-31.9166
11
27.5645
21
-32.1192
0
LINE
8
BLACK
6
CONTINUOUS
10
27.5645
20
-32.1192
11
27.655
21
-32.3678
0
LINE
8
BLACK
6
CONTINUOUS
10
27.655
20
-32.3678
11
27.655
21
-32.6322
0
LINE
8
BLACK
6
CONTINUOUS
10
27.655
20
-32.6322
11
27.5645
21
-32.8808
0
LINE
8
BLACK
6
CONTINUOUS
10
27.5645
20
-32.8808
11
27.3945
21
-33.0834
0
LINE
8
BLACK
6
CONTINUOUS
10
27.3945
20
-33.0834
11
27.1655
21
-33.2156
0
LINE
8
BLACK
6
CONTINUOUS
10
27.1655
20
-33.2156
11
26.905
21
-33.2616
0
LINE
8
BLACK
6
CONTINUOUS
10
26.905
20
-33.2616
11
26.6445
21
-33.2156
0
LINE
8
BLACK
6
CONTINUOUS
10
26.6445
20
-33.2156
11
26.4949
21
-33.1293
0
LINE
8
BLACK
6
CONTINUOUS
10
26.4949
20
-33.1293
11
24.405
21
-35.2192
0
LINE
8
BLACK
6
CONTINUOUS
10
24.405
20
-35.2192
11
24.405
21
-38.345
0
LINE
8
BLACK
6
CONTINUOUS
10
24.405
20
-38.345
11
24.4796
21
-38.345
0
LINE
8
BLACK
6
CONTINUOUS
10
26.9
20
-40.63
11
26.6
21
-40.63
0
LINE
8
BLACK
6
CONTINUOUS
10
26.6
20
-40.63
11
26.6
21
-39.48
0
LINE
8
BLACK
6
CONTINUOUS
10
26.6
20
-39.48
11
26.9
21
-39.48
0
LINE
8
BLACK
6
CONTINUOUS
10
26.9
20
-39.48
11
26.9
21
-40.63
0
LINE
8
BLACK
6
CONTINUOUS
10
20.1805
20
-31.7844
11
20.4095
21
-31.9166
0
LINE
8
BLACK
6
CONTINUOUS
10
20.4095
20
-31.9166
11
20.5795
21
-32.1192
0
LINE
8
BLACK
6
CONTINUOUS
10
20.5795
20
-32.1192
11
20.67
21
-32.3678
0
LINE
8
BLACK
6
CONTINUOUS
10
20.67
20
-32.3678
11
20.67
21
-32.6322
0
LINE
8
BLACK
6
CONTINUOUS
10
20.67
20
-32.6322
11
20.5795
21
-32.8808
0
LINE
8
BLACK
6
CONTINUOUS
10
20.5795
20
-32.8808
11
20.5524
21
-32.9132
0
LINE
8
BLACK
6
CONTINUOUS
10
20.5524
20
-32.9132
11
21.9048
21
-34.2656
0
LINE
8
BLACK
6
CONTINUOUS
10
21.9048
20
-34.2656
11
21.9206
21
-34.2788
0
LINE
8
BLACK
6
CONTINUOUS
10
21.9206
20
-34.2788
11
21.9309
21
-34.2966
0
LINE
8
BLACK
6
CONTINUOUS
10
21.9309
20
-34.2966
11
21.9426
21
-34.3135
0
LINE
8
BLACK
6
CONTINUOUS
10
21.9426
20
-34.3135
11
21.9444
21
-34.3202
0
LINE
8
BLACK
6
CONTINUOUS
10
21.9444
20
-34.3202
11
21.9479
21
-34.3262
0
LINE
8
BLACK
6
CONTINUOUS
10
21.9479
20
-34.3262
11
21.9515
21
-34.3464
0
LINE
8
BLACK
6
CONTINUOUS
10
21.9515
20
-34.3464
11
21.9568
21
-34.3663
0
LINE
8
BLACK
6
CONTINUOUS
10
21.9568
20
-34.3663
11
21.955
21
-34.3868
0
LINE
8
BLACK
6
CONTINUOUS
10
21.955
20
-34.3868
11
21.955
21
-39.48
0
LINE
8
BLACK
6
CONTINUOUS
10
21.955
20
-39.48
11
22.1
21
-39.48
0
LINE
8
BLACK
6
CONTINUOUS
10
22.1
20
-39.48
11
22.1
21
-40.63
0
LINE
8
BLACK
6
CONTINUOUS
10
22.1
20
-40.63
11
21.5
21
-40.63
0
LINE
8
BLACK
6
CONTINUOUS
10
21.5
20
-40.63
11
21.5
21
-39.48
0
LINE
8
BLACK
6
CONTINUOUS
10
21.5
20
-39.48
11
21.645
21
-39.48
0
LINE
8
BLACK
6
CONTINUOUS
10
21.645
20
-39.48
11
21.645
21
-34.4442
0
LINE
8
BLACK
6
CONTINUOUS
10
21.645
20
-34.4442
11
20.3301
21
-33.1293
0
LINE
8
BLACK
6
CONTINUOUS
10
20.3301
20
-33.1293
11
20.1805
21
-33.2156
0
LINE
8
BLACK
6
CONTINUOUS
10
20.1805
20
-33.2156
11
19.92
21
-33.2616
0
LINE
8
BLACK
6
CONTINUOUS
10
19.92
20
-33.2616
11
19.6595
21
-33.2156
0
LINE
8
BLACK
6
CONTINUOUS
10
19.6595
20
-33.2156
11
19.4305
21
-33.0834
0
LINE
8
BLACK
6
CONTINUOUS
10
19.4305
20
-33.0834
11
19.2605
21
-32.8808
0
LINE
8
BLACK
6
CONTINUOUS
10
19.2605
20
-32.8808
11
19.17
21
-32.6322
0
LINE
8
BLACK
6
CONTINUOUS
10
19.17
20
-32.6322
11
19.17
21
-32.3678
0
LINE
8
BLACK
6
CONTINUOUS
10
19.17
20
-32.3678
11
19.2605
21
-32.1192
0
LINE
8
BLACK
6
CONTINUOUS
10
19.2605
20
-32.1192
11
19.4305
21
-31.9166
0
LINE
8
BLACK
6
CONTINUOUS
10
19.4305
20
-31.9166
11
19.6595
21
-31.7844
0
LINE
8
BLACK
6
CONTINUOUS
10
19.6595
20
-31.7844
11
19.92
21
-31.7384
0
LINE
8
BLACK
6
CONTINUOUS
10
19.92
20
-31.7384
11
20.1805
21
-31.7844
0
LINE
8
BLACK
6
CONTINUOUS
10
23.4
20
-40.63
11
23.1
21
-40.63
0
LINE
8
BLACK
6
CONTINUOUS
10
23.1
20
-40.63
11
23.1
21
-39.48
0
LINE
8
BLACK
6
CONTINUOUS
10
23.1
20
-39.48
11
23.4
21
-39.48
0
LINE
8
BLACK
6
CONTINUOUS
10
23.4
20
-39.48
11
23.4
21
-40.63
0
LINE
8
BLACK
6
CONTINUOUS
10
23.9
20
-40.63
11
23.6
21
-40.63
0
LINE
8
BLACK
6
CONTINUOUS
10
23.6
20
-40.63
11
23.6
21
-39.48
0
LINE
8
BLACK
6
CONTINUOUS
10
23.6
20
-39.48
11
23.9
21
-39.48
0
LINE
8
BLACK
6
CONTINUOUS
10
23.9
20
-39.48
11
23.9
21
-40.63
0
LINE
8
BLACK
6
CONTINUOUS
10
22.9
20
-40.63
11
22.3
21
-40.63
0
LINE
8
BLACK
6
CONTINUOUS
10
22.3
20
-40.63
11
22.3
21
-39.48
0
LINE
8
BLACK
6
CONTINUOUS
10
22.3
20
-39.48
11
22.9
21
-39.48
0
LINE
8
BLACK
6
CONTINUOUS
10
22.9
20
-39.48
11
22.9
21
-40.63
0
LINE
8
BLACK
6
CONTINUOUS
10
30.83
20
-33.25
11
30.235
21
-33.25
0
LINE
8
BLACK
6
CONTINUOUS
10
30.235
20
-33.25
11
30.235
21
-34.4132
0
LINE
8
BLACK
6
CONTINUOUS
10
30.235
20
-34.4132
11
30.2368
21
-34.4337
0
LINE
8
BLACK
6
CONTINUOUS
10
30.2368
20
-34.4337
11
30.2315
21
-34.4536
0
LINE
8
BLACK
6
CONTINUOUS
10
30.2315
20
-34.4536
11
30.2279
21
-34.4738
0
LINE
8
BLACK
6
CONTINUOUS
10
30.2279
20
-34.4738
11
30.2244
21
-34.4798
0
LINE
8
BLACK
6
CONTINUOUS
10
30.2244
20
-34.4798
11
30.2226
21
-34.4865
0
LINE
8
BLACK
6
CONTINUOUS
10
30.2226
20
-34.4865
11
30.2109
21
-34.5034
0
LINE
8
BLACK
6
CONTINUOUS
10
30.2109
20
-34.5034
11
30.2006
21
-34.5212
0
LINE
8
BLACK
6
CONTINUOUS
10
30.2006
20
-34.5212
11
30.1848
21
-34.5344
0
LINE
8
BLACK
6
CONTINUOUS
10
30.1848
20
-34.5344
11
27.555
21
-37.1642
0
LINE
8
BLACK
6
CONTINUOUS
10
27.555
20
-37.1642
11
27.555
21
-39.48
0
LINE
8
BLACK
6
CONTINUOUS
10
27.555
20
-39.48
11
27.7
21
-39.48
0
LINE
8
BLACK
6
CONTINUOUS
10
27.7
20
-39.48
11
27.7
21
-40.63
0
LINE
8
BLACK
6
CONTINUOUS
10
27.7
20
-40.63
11
27.1
21
-40.63
0
LINE
8
BLACK
6
CONTINUOUS
10
27.1
20
-40.63
11
27.1
21
-39.48
0
LINE
8
BLACK
6
CONTINUOUS
10
27.1
20
-39.48
11
27.245
21
-39.48
0
LINE
8
BLACK
6
CONTINUOUS
10
27.245
20
-39.48
11
27.245
21
-37.1068
0
LINE
8
BLACK
6
CONTINUOUS
10
27.245
20
-37.1068
11
27.2432
21
-37.0863
0
LINE
8
BLACK
6
CONTINUOUS
10
27.2432
20
-37.0863
11
27.2485
21
-37.0664
0
LINE
8
BLACK
6
CONTINUOUS
10
27.2485
20
-37.0664
11
27.2521
21
-37.0462
0
LINE
8
BLACK
6
CONTINUOUS
10
27.2521
20
-37.0462
11
27.2556
21
-37.0402
0
LINE
8
BLACK
6
CONTINUOUS
10
27.2556
20
-37.0402
11
27.2574
21
-37.0335
0
LINE
8
BLACK
6
CONTINUOUS
10
27.2574
20
-37.0335
11
27.2691
21
-37.0166
0
LINE
8
BLACK
6
CONTINUOUS
10
27.2691
20
-37.0166
11
27.2794
21
-36.9988
0
LINE
8
BLACK
6
CONTINUOUS
10
27.2794
20
-36.9988
11
27.2952
21
-36.9856
0
LINE
8
BLACK
6
CONTINUOUS
10
27.2952
20
-36.9856
11
29.925
21
-34.3558
0
LINE
8
BLACK
6
CONTINUOUS
10
29.925
20
-34.3558
11
29.925
21
-33.25
0
LINE
8
BLACK
6
CONTINUOUS
10
29.925
20
-33.25
11
29.33
21
-33.25
0
LINE
8
BLACK
6
CONTINUOUS
10
29.33
20
-33.25
11
29.33
21
-31.75
0
LINE
8
BLACK
6
CONTINUOUS
10
29.33
20
-31.75
11
30.83
21
-31.75
0
LINE
8
BLACK
6
CONTINUOUS
10
30.83
20
-31.75
11
30.83
21
-33.25
0
LINE
8
BLACK
6
CONTINUOUS
10
28.5
20
-40.63
11
27.9
21
-40.63
0
LINE
8
BLACK
6
CONTINUOUS
10
27.9
20
-40.63
11
27.9
21
-39.48
0
LINE
8
BLACK
6
CONTINUOUS
10
27.9
20
-39.48
11
28.5
21
-39.48
0
LINE
8
BLACK
6
CONTINUOUS
10
28.5
20
-39.48
11
28.5
21
-40.63
0
LINE
8
BLACK
6
CONTINUOUS
10
46.1389
20
-37.0183
11
46.2611
21
-37.0889
0
LINE
8
BLACK
6
CONTINUOUS
10
46.2611
20
-37.0889
11
46.3518
21
-37.1969
0
LINE
8
BLACK
6
CONTINUOUS
10
46.3518
20
-37.1969
11
46.4
21
-37.3295
0
LINE
8
BLACK
6
CONTINUOUS
10
46.4
20
-37.3295
11
46.4
21
-37.4705
0
LINE
8
BLACK
6
CONTINUOUS
10
46.4
20
-37.4705
11
46.3518
21
-37.6031
0
LINE
8
BLACK
6
CONTINUOUS
10
46.3518
20
-37.6031
11
46.2611
21
-37.7111
0
LINE
8
BLACK
6
CONTINUOUS
10
46.2611
20
-37.7111
11
46.1389
21
-37.7817
0
LINE
8
BLACK
6
CONTINUOUS
10
46.1389
20
-37.7817
11
46
21
-37.8062
0
LINE
8
BLACK
6
CONTINUOUS
10
46
20
-37.8062
11
45.8611
21
-37.7817
0
LINE
8
BLACK
6
CONTINUOUS
10
45.8611
20
-37.7817
11
45.7389
21
-37.7111
0
LINE
8
BLACK
6
CONTINUOUS
10
45.7389
20
-37.7111
11
45.6482
21
-37.6031
0
LINE
8
BLACK
6
CONTINUOUS
10
45.6482
20
-37.6031
11
45.6
21
-37.4705
0
LINE
8
BLACK
6
CONTINUOUS
10
45.6
20
-37.4705
11
45.6
21
-37.3295
0
LINE
8
BLACK
6
CONTINUOUS
10
45.6
20
-37.3295
11
45.6482
21
-37.1969
0
LINE
8
BLACK
6
CONTINUOUS
10
45.6482
20
-37.1969
11
45.7389
21
-37.0889
0
LINE
8
BLACK
6
CONTINUOUS
10
45.7389
20
-37.0889
11
45.8611
21
-37.0183
0
LINE
8
BLACK
6
CONTINUOUS
10
45.8611
20
-37.0183
11
46
21
-36.9938
0
LINE
8
BLACK
6
CONTINUOUS
10
46
20
-36.9938
11
46.1389
21
-37.0183
0
LINE
8
BLACK
6
CONTINUOUS
10
44.3555
20
-31.7844
11
44.5845
21
-31.9166
0
LINE
8
BLACK
6
CONTINUOUS
10
44.5845
20
-31.9166
11
44.7545
21
-32.1192
0
LINE
8
BLACK
6
CONTINUOUS
10
44.7545
20
-32.1192
11
44.845
21
-32.3678
0
LINE
8
BLACK
6
CONTINUOUS
10
44.845
20
-32.3678
11
44.845
21
-32.6322
0
LINE
8
BLACK
6
CONTINUOUS
10
44.845
20
-32.6322
11
44.7545
21
-32.8808
0
LINE
8
BLACK
6
CONTINUOUS
10
44.7545
20
-32.8808
11
44.5845
21
-33.0834
0
LINE
8
BLACK
6
CONTINUOUS
10
44.5845
20
-33.0834
11
44.3555
21
-33.2156
0
LINE
8
BLACK
6
CONTINUOUS
10
44.3555
20
-33.2156
11
44.095
21
-33.2616
0
LINE
8
BLACK
6
CONTINUOUS
10
44.095
20
-33.2616
11
43.855
21
-33.2193
0
LINE
8
BLACK
6
CONTINUOUS
10
43.855
20
-33.2193
11
43.855
21
-34.8051
0
LINE
8
BLACK
6
CONTINUOUS
10
43.855
20
-34.8051
11
44.1062
21
-34.8965
0
LINE
8
BLACK
6
CONTINUOUS
10
44.1062
20
-34.8965
11
44.3223
21
-35.0778
0
LINE
8
BLACK
6
CONTINUOUS
10
44.3223
20
-35.0778
11
44.4634
21
-35.3222
0
LINE
8
BLACK
6
CONTINUOUS
10
44.4634
20
-35.3222
11
44.5
21
-35.53
0
LINE
8
BLACK
6
CONTINUOUS
10
44.5
20
-35.53
11
44.5
21
-36.07
0
LINE
8
BLACK
6
CONTINUOUS
10
44.5
20
-36.07
11
44.4634
21
-36.2778
0
LINE
8
BLACK
6
CONTINUOUS
10
44.4634
20
-36.2778
11
44.3223
21
-36.5222
0
LINE
8
BLACK
6
CONTINUOUS
10
44.3223
20
-36.5222
11
44.1062
21
-36.7035
0
LINE
8
BLACK
6
CONTINUOUS
10
44.1062
20
-36.7035
11
43.8411
21
-36.8
0
LINE
8
BLACK
6
CONTINUOUS
10
43.8411
20
-36.8
11
43.5589
21
-36.8
0
LINE
8
BLACK
6
CONTINUOUS
10
43.5589
20
-36.8
11
43.2938
21
-36.7035
0
LINE
8
BLACK
6
CONTINUOUS
10
43.2938
20
-36.7035
11
43.0777
21
-36.5222
0
LINE
8
BLACK
6
CONTINUOUS
10
43.0777
20
-36.5222
11
42.9366
21
-36.2778
0
LINE
8
BLACK
6
CONTINUOUS
10
42.9366
20
-36.2778
11
42.9
21
-36.07
0
LINE
8
BLACK
6
CONTINUOUS
10
42.9
20
-36.07
11
42.9
21
-35.53
0
LINE
8
BLACK
6
CONTINUOUS
10
42.9
20
-35.53
11
42.9366
21
-35.3222
0
LINE
8
BLACK
6
CONTINUOUS
10
42.9366
20
-35.3222
11
43.0777
21
-35.0778
0
LINE
8
BLACK
6
CONTINUOUS
10
43.0777
20
-35.0778
11
43.2938
21
-34.8965
0
LINE
8
BLACK
6
CONTINUOUS
10
43.2938
20
-34.8965
11
43.545
21
-34.8051
0
LINE
8
BLACK
6
CONTINUOUS
10
43.545
20
-34.8051
11
43.545
21
-33.0113
0
LINE
8
BLACK
6
CONTINUOUS
10
43.545
20
-33.0113
11
43.4355
21
-32.8808
0
LINE
8
BLACK
6
CONTINUOUS
10
43.4355
20
-32.8808
11
43.345
21
-32.6322
0
LINE
8
BLACK
6
CONTINUOUS
10
43.345
20
-32.6322
11
43.345
21
-32.3678
0
LINE
8
BLACK
6
CONTINUOUS
10
43.345
20
-32.3678
11
43.4355
21
-32.1192
0
LINE
8
BLACK
6
CONTINUOUS
10
43.4355
20
-32.1192
11
43.6055
21
-31.9166
0
LINE
8
BLACK
6
CONTINUOUS
10
43.6055
20
-31.9166
11
43.8345
21
-31.7844
0
LINE
8
BLACK
6
CONTINUOUS
10
43.8345
20
-31.7844
11
44.095
21
-31.7384
0
LINE
8
BLACK
6
CONTINUOUS
10
44.095
20
-31.7384
11
44.3555
21
-31.7844
0
LINE
8
BLACK
6
CONTINUOUS
10
48.1655
20
-31.7844
11
48.3945
21
-31.9166
0
LINE
8
BLACK
6
CONTINUOUS
10
48.3945
20
-31.9166
11
48.5645
21
-32.1192
0
LINE
8
BLACK
6
CONTINUOUS
10
48.5645
20
-32.1192
11
48.655
21
-32.3678
0
LINE
8
BLACK
6
CONTINUOUS
10
48.655
20
-32.3678
11
48.655
21
-32.6322
0
LINE
8
BLACK
6
CONTINUOUS
10
48.655
20
-32.6322
11
48.5645
21
-32.8808
0
LINE
8
BLACK
6
CONTINUOUS
10
48.5645
20
-32.8808
11
48.455
21
-33.0113
0
LINE
8
BLACK
6
CONTINUOUS
10
48.455
20
-33.0113
11
48.455
21
-33.7051
0
LINE
8
BLACK
6
CONTINUOUS
10
48.455
20
-33.7051
11
48.7062
21
-33.7965
0
LINE
8
BLACK
6
CONTINUOUS
10
48.7062
20
-33.7965
11
48.9223
21
-33.9778
0
LINE
8
BLACK
6
CONTINUOUS
10
48.9223
20
-33.9778
11
49.0634
21
-34.2222
0
LINE
8
BLACK
6
CONTINUOUS
10
49.0634
20
-34.2222
11
49.1
21
-34.43
0
LINE
8
BLACK
6
CONTINUOUS
10
49.1
20
-34.43
11
49.1
21
-34.97
0
LINE
8
BLACK
6
CONTINUOUS
10
49.1
20
-34.97
11
49.0634
21
-35.1778
0
LINE
8
BLACK
6
CONTINUOUS
10
49.0634
20
-35.1778
11
48.9223
21
-35.4222
0
LINE
8
BLACK
6
CONTINUOUS
10
48.9223
20
-35.4222
11
48.7062
21
-35.6035
0
LINE
8
BLACK
6
CONTINUOUS
10
48.7062
20
-35.6035
11
48.4411
21
-35.7
0
LINE
8
BLACK
6
CONTINUOUS
10
48.4411
20
-35.7
11
48.1589
21
-35.7
0
LINE
8
BLACK
6
CONTINUOUS
10
48.1589
20
-35.7
11
47.8938
21
-35.6035
0
LINE
8
BLACK
6
CONTINUOUS
10
47.8938
20
-35.6035
11
47.6777
21
-35.4222
0
LINE
8
BLACK
6
CONTINUOUS
10
47.6777
20
-35.4222
11
47.5366
21
-35.1778
0
LINE
8
BLACK
6
CONTINUOUS
10
47.5366
20
-35.1778
11
47.5
21
-34.97
0
LINE
8
BLACK
6
CONTINUOUS
10
47.5
20
-34.97
11
47.5
21
-34.43
0
LINE
8
BLACK
6
CONTINUOUS
10
47.5
20
-34.43
11
47.5366
21
-34.2222
0
LINE
8
BLACK
6
CONTINUOUS
10
47.5366
20
-34.2222
11
47.6777
21
-33.9778
0
LINE
8
BLACK
6
CONTINUOUS
10
47.6777
20
-33.9778
11
47.8938
21
-33.7965
0
LINE
8
BLACK
6
CONTINUOUS
10
47.8938
20
-33.7965
11
48.145
21
-33.7051
0
LINE
8
BLACK
6
CONTINUOUS
10
48.145
20
-33.7051
11
48.145
21
-33.2193
0
LINE
8
BLACK
6
CONTINUOUS
10
48.145
20
-33.2193
11
47.905
21
-33.2616
0
LINE
8
BLACK
6
CONTINUOUS
10
47.905
20
-33.2616
11
47.6445
21
-33.2156
0
LINE
8
BLACK
6
CONTINUOUS
10
47.6445
20
-33.2156
11
47.4155
21
-33.0834
0
LINE
8
BLACK
6
CONTINUOUS
10
47.4155
20
-33.0834
11
47.2455
21
-32.8808
0
LINE
8
BLACK
6
CONTINUOUS
10
47.2455
20
-32.8808
11
47.155
21
-32.6322
0
LINE
8
BLACK
6
CONTINUOUS
10
47.155
20
-32.6322
11
47.155
21
-32.3678
0
LINE
8
BLACK
6
CONTINUOUS
10
47.155
20
-32.3678
11
47.2455
21
-32.1192
0
LINE
8
BLACK
6
CONTINUOUS
10
47.2455
20
-32.1192
11
47.4155
21
-31.9166
0
LINE
8
BLACK
6
CONTINUOUS
10
47.4155
20
-31.9166
11
47.6445
21
-31.7844
0
LINE
8
BLACK
6
CONTINUOUS
10
47.6445
20
-31.7844
11
47.905
21
-31.7384
0
LINE
8
BLACK
6
CONTINUOUS
10
47.905
20
-31.7384
11
48.1655
21
-31.7844
0
LINE
8
BLACK
6
CONTINUOUS
10
23.3555
20
-31.7844
11
23.5845
21
-31.9166
0
LINE
8
BLACK
6
CONTINUOUS
10
23.5845
20
-31.9166
11
23.7545
21
-32.1192
0
LINE
8
BLACK
6
CONTINUOUS
10
23.7545
20
-32.1192
11
23.845
21
-32.3678
0
LINE
8
BLACK
6
CONTINUOUS
10
23.845
20
-32.3678
11
23.845
21
-32.6322
0
LINE
8
BLACK
6
CONTINUOUS
10
23.845
20
-32.6322
11
23.7545
21
-32.8808
0
LINE
8
BLACK
6
CONTINUOUS
10
23.7545
20
-32.8808
11
23.5845
21
-33.0834
0
LINE
8
BLACK
6
CONTINUOUS
10
23.5845
20
-33.0834
11
23.3555
21
-33.2156
0
LINE
8
BLACK
6
CONTINUOUS
10
23.3555
20
-33.2156
11
23.095
21
-33.2616
0
LINE
8
BLACK
6
CONTINUOUS
10
23.095
20
-33.2616
11
22.8345
21
-33.2156
0
LINE
8
BLACK
6
CONTINUOUS
10
22.8345
20
-33.2156
11
22.6055
21
-33.0834
0
LINE
8
BLACK
6
CONTINUOUS
10
22.6055
20
-33.0834
11
22.4355
21
-32.8808
0
LINE
8
BLACK
6
CONTINUOUS
10
22.4355
20
-32.8808
11
22.345
21
-32.6322
0
LINE
8
BLACK
6
CONTINUOUS
10
22.345
20
-32.6322
11
22.345
21
-32.3678
0
LINE
8
BLACK
6
CONTINUOUS
10
22.345
20
-32.3678
11
22.4355
21
-32.1192
0
LINE
8
BLACK
6
CONTINUOUS
10
22.4355
20
-32.1192
11
22.6055
21
-31.9166
0
LINE
8
BLACK
6
CONTINUOUS
10
22.6055
20
-31.9166
11
22.8345
21
-31.7844
0
LINE
8
BLACK
6
CONTINUOUS
10
22.8345
20
-31.7844
11
23.095
21
-31.7384
0
LINE
8
BLACK
6
CONTINUOUS
10
23.095
20
-31.7384
11
23.3555
21
-31.7844
0
LINE
8
BLACK
6
CONTINUOUS
10
26.85
20
-21.4808
11
30.1048
21
-24.7356
0
LINE
8
BLACK
6
CONTINUOUS
10
30.1048
20
-24.7356
11
30.1206
21
-24.7488
0
LINE
8
BLACK
6
CONTINUOUS
10
30.1206
20
-24.7488
11
30.1309
21
-24.7666
0
LINE
8
BLACK
6
CONTINUOUS
10
30.1309
20
-24.7666
11
30.1426
21
-24.7835
0
LINE
8
BLACK
6
CONTINUOUS
10
30.1426
20
-24.7835
11
30.1444
21
-24.7902
0
LINE
8
BLACK
6
CONTINUOUS
10
30.1444
20
-24.7902
11
30.1479
21
-24.7962
0
LINE
8
BLACK
6
CONTINUOUS
10
30.1479
20
-24.7962
11
30.1515
21
-24.8164
0
LINE
8
BLACK
6
CONTINUOUS
10
30.1515
20
-24.8164
11
30.1568
21
-24.8363
0
LINE
8
BLACK
6
CONTINUOUS
10
30.1568
20
-24.8363
11
30.155
21
-24.8568
0
LINE
8
BLACK
6
CONTINUOUS
10
30.155
20
-24.8568
11
30.155
21
-27.4176
0
LINE
8
BLACK
6
CONTINUOUS
10
30.155
20
-27.4176
11
30.1568
21
-27.4381
0
LINE
8
BLACK
6
CONTINUOUS
10
30.1568
20
-27.4381
11
30.1515
21
-27.4579
0
LINE
8
BLACK
6
CONTINUOUS
10
30.1515
20
-27.4579
11
30.1479
21
-27.4782
0
LINE
8
BLACK
6
CONTINUOUS
10
30.1479
20
-27.4782
11
30.1444
21
-27.4842
0
LINE
8
BLACK
6
CONTINUOUS
10
30.1444
20
-27.4842
11
30.1426
21
-27.4909
0
LINE
8
BLACK
6
CONTINUOUS
10
30.1426
20
-27.4909
11
30.14
21
-27.4946
0
LINE
8
BLACK
6
CONTINUOUS
10
30.14
20
-27.4946
11
30.14
21
-27.7658
0
LINE
8
BLACK
6
CONTINUOUS
10
30.14
20
-27.7658
11
30.2455
21
-27.7844
0
LINE
8
BLACK
6
CONTINUOUS
10
30.2455
20
-27.7844
11
30.4745
21
-27.9166
0
LINE
8
BLACK
6
CONTINUOUS
10
30.4745
20
-27.9166
11
30.6445
21
-28.1192
0
LINE
8
BLACK
6
CONTINUOUS
10
30.6445
20
-28.1192
11
30.735
21
-28.3678
0
LINE
8
BLACK
6
CONTINUOUS
10
30.735
20
-28.3678
11
30.735
21
-28.6322
0
LINE
8
BLACK
6
CONTINUOUS
10
30.735
20
-28.6322
11
30.6445
21
-28.8808
0
LINE
8
BLACK
6
CONTINUOUS
10
30.6445
20
-28.8808
11
30.4745
21
-29.0834
0
LINE
8
BLACK
6
CONTINUOUS
10
30.4745
20
-29.0834
11
30.2455
21
-29.2156
0
LINE
8
BLACK
6
CONTINUOUS
10
30.2455
20
-29.2156
11
29.985
21
-29.2616
0
LINE
8
BLACK
6
CONTINUOUS
10
29.985
20
-29.2616
11
29.7245
21
-29.2156
0
LINE
8
BLACK
6
CONTINUOUS
10
29.7245
20
-29.2156
11
29.4955
21
-29.0834
0
LINE
8
BLACK
6
CONTINUOUS
10
29.4955
20
-29.0834
11
29.3255
21
-28.8808
0
LINE
8
BLACK
6
CONTINUOUS
10
29.3255
20
-28.8808
11
29.235
21
-28.6322
0
LINE
8
BLACK
6
CONTINUOUS
10
29.235
20
-28.6322
11
29.235
21
-28.3678
0
LINE
8
BLACK
6
CONTINUOUS
10
29.235
20
-28.3678
11
29.3255
21
-28.1192
0
LINE
8
BLACK
6
CONTINUOUS
10
29.3255
20
-28.1192
11
29.4955
21
-27.9166
0
LINE
8
BLACK
6
CONTINUOUS
10
29.4955
20
-27.9166
11
29.7245
21
-27.7844
0
LINE
8
BLACK
6
CONTINUOUS
10
29.7245
20
-27.7844
11
29.83
21
-27.7658
0
LINE
8
BLACK
6
CONTINUOUS
10
29.83
20
-27.7658
11
29.83
21
-27.4461
0
LINE
8
BLACK
6
CONTINUOUS
10
29.83
20
-27.4461
11
29.8282
21
-27.4256
0
LINE
8
BLACK
6
CONTINUOUS
10
29.8282
20
-27.4256
11
29.8335
21
-27.4058
0
LINE
8
BLACK
6
CONTINUOUS
10
29.8335
20
-27.4058
11
29.8371
21
-27.3855
0
LINE
8
BLACK
6
CONTINUOUS
10
29.8371
20
-27.3855
11
29.8406
21
-27.3795
0
LINE
8
BLACK
6
CONTINUOUS
10
29.8406
20
-27.3795
11
29.8424
21
-27.3728
0
LINE
8
BLACK
6
CONTINUOUS
10
29.8424
20
-27.3728
11
29.845
21
-27.369
0
LINE
8
BLACK
6
CONTINUOUS
10
29.845
20
-27.369
11
29.845
21
-24.9142
0
LINE
8
BLACK
6
CONTINUOUS
10
29.845
20
-24.9142
11
26.6308
21
-21.7
0
LINE
8
BLACK
6
CONTINUOUS
10
26.6308
20
-21.7
11
26.35
21
-21.7
0
LINE
8
BLACK
6
CONTINUOUS
10
26.35
20
-21.7
11
26.35
21
-20.3
0
LINE
8
BLACK
6
CONTINUOUS
10
26.35
20
-20.3
11
26.85
21
-20.3
0
LINE
8
BLACK
6
CONTINUOUS
10
26.85
20
-20.3
11
26.85
21
-21.4808
0
LINE
8
BLACK
6
CONTINUOUS
10
25.25
20
-21.7
11
25.155
21
-21.7
0
LINE
8
BLACK
6
CONTINUOUS
10
25.155
20
-21.7
11
25.155
21
-26.6258
0
LINE
8
BLACK
6
CONTINUOUS
10
25.155
20
-26.6258
11
26.3999
21
-27.8707
0
LINE
8
BLACK
6
CONTINUOUS
10
26.3999
20
-27.8707
11
26.5495
21
-27.7844
0
LINE
8
BLACK
6
CONTINUOUS
10
26.5495
20
-27.7844
11
26.81
21
-27.7384
0
LINE
8
BLACK
6
CONTINUOUS
10
26.81
20
-27.7384
11
27.0705
21
-27.7844
0
LINE
8
BLACK
6
CONTINUOUS
10
27.0705
20
-27.7844
11
27.2995
21
-27.9166
0
LINE
8
BLACK
6
CONTINUOUS
10
27.2995
20
-27.9166
11
27.4695
21
-28.1192
0
LINE
8
BLACK
6
CONTINUOUS
10
27.4695
20
-28.1192
11
27.56
21
-28.3678
0
LINE
8
BLACK
6
CONTINUOUS
10
27.56
20
-28.3678
11
27.56
21
-28.6322
0
LINE
8
BLACK
6
CONTINUOUS
10
27.56
20
-28.6322
11
27.4695
21
-28.8808
0
LINE
8
BLACK
6
CONTINUOUS
10
27.4695
20
-28.8808
11
27.2995
21
-29.0834
0
LINE
8
BLACK
6
CONTINUOUS
10
27.2995
20
-29.0834
11
27.0705
21
-29.2156
0
LINE
8
BLACK
6
CONTINUOUS
10
27.0705
20
-29.2156
11
26.81
21
-29.2616
0
LINE
8
BLACK
6
CONTINUOUS
10
26.81
20
-29.2616
11
26.5495
21
-29.2156
0
LINE
8
BLACK
6
CONTINUOUS
10
26.5495
20
-29.2156
11
26.3205
21
-29.0834
0
LINE
8
BLACK
6
CONTINUOUS
10
26.3205
20
-29.0834
11
26.1505
21
-28.8808
0
LINE
8
BLACK
6
CONTINUOUS
10
26.1505
20
-28.8808
11
26.06
21
-28.6322
0
LINE
8
BLACK
6
CONTINUOUS
10
26.06
20
-28.6322
11
26.06
21
-28.3678
0
LINE
8
BLACK
6
CONTINUOUS
10
26.06
20
-28.3678
11
26.1505
21
-28.1192
0
LINE
8
BLACK
6
CONTINUOUS
10
26.1505
20
-28.1192
11
26.1776
21
-28.0868
0
LINE
8
BLACK
6
CONTINUOUS
10
26.1776
20
-28.0868
11
24.8952
21
-26.8044
0
LINE
8
BLACK
6
CONTINUOUS
10
24.8952
20
-26.8044
11
24.8794
21
-26.7912
0
LINE
8
BLACK
6
CONTINUOUS
10
24.8794
20
-26.7912
11
24.8691
21
-26.7734
0
LINE
8
BLACK
6
CONTINUOUS
10
24.8691
20
-26.7734
11
24.8574
21
-26.7565
0
LINE
8
BLACK
6
CONTINUOUS
10
24.8574
20
-26.7565
11
24.8556
21
-26.7498
0
LINE
8
BLACK
6
CONTINUOUS
10
24.8556
20
-26.7498
11
24.8521
21
-26.7438
0
LINE
8
BLACK
6
CONTINUOUS
10
24.8521
20
-26.7438
11
24.8485
21
-26.7236
0
LINE
8
BLACK
6
CONTINUOUS
10
24.8485
20
-26.7236
11
24.8432
21
-26.7037
0
LINE
8
BLACK
6
CONTINUOUS
10
24.8432
20
-26.7037
11
24.845
21
-26.6832
0
LINE
8
BLACK
6
CONTINUOUS
10
24.845
20
-26.6832
11
24.845
21
-21.7
0
LINE
8
BLACK
6
CONTINUOUS
10
24.845
20
-21.7
11
24.75
21
-21.7
0
LINE
8
BLACK
6
CONTINUOUS
10
24.75
20
-21.7
11
24.75
21
-20.3
0
LINE
8
BLACK
6
CONTINUOUS
10
24.75
20
-20.3
11
25.25
21
-20.3
0
LINE
8
BLACK
6
CONTINUOUS
10
25.25
20
-20.3
11
25.25
21
-21.7
0
LINE
8
BLACK
6
CONTINUOUS
10
24.45
20
-21.7
11
24.355
21
-21.7
0
LINE
8
BLACK
6
CONTINUOUS
10
24.355
20
-21.7
11
24.355
21
-27.2932
0
LINE
8
BLACK
6
CONTINUOUS
10
24.355
20
-27.2932
11
24.3568
21
-27.3137
0
LINE
8
BLACK
6
CONTINUOUS
10
24.3568
20
-27.3137
11
24.3515
21
-27.3336
0
LINE
8
BLACK
6
CONTINUOUS
10
24.3515
20
-27.3336
11
24.3479
21
-27.3538
0
LINE
8
BLACK
6
CONTINUOUS
10
24.3479
20
-27.3538
11
24.3444
21
-27.3598
0
LINE
8
BLACK
6
CONTINUOUS
10
24.3444
20
-27.3598
11
24.3426
21
-27.3665
0
LINE
8
BLACK
6
CONTINUOUS
10
24.3426
20
-27.3665
11
24.3309
21
-27.3834
0
LINE
8
BLACK
6
CONTINUOUS
10
24.3309
20
-27.3834
11
24.3206
21
-27.4012
0
LINE
8
BLACK
6
CONTINUOUS
10
24.3206
20
-27.4012
11
24.3048
21
-27.4144
0
LINE
8
BLACK
6
CONTINUOUS
10
24.3048
20
-27.4144
11
23.6324
21
-28.0868
0
LINE
8
BLACK
6
CONTINUOUS
10
23.6324
20
-28.0868
11
23.6595
21
-28.1192
0
LINE
8
BLACK
6
CONTINUOUS
10
23.6595
20
-28.1192
11
23.75
21
-28.3678
0
LINE
8
BLACK
6
CONTINUOUS
10
23.75
20
-28.3678
11
23.75
21
-28.6322
0
LINE
8
BLACK
6
CONTINUOUS
10
23.75
20
-28.6322
11
23.6595
21
-28.8808
0
LINE
8
BLACK
6
CONTINUOUS
10
23.6595
20
-28.8808
11
23.4895
21
-29.0834
0
LINE
8
BLACK
6
CONTINUOUS
10
23.4895
20
-29.0834
11
23.2605
21
-29.2156
0
LINE
8
BLACK
6
CONTINUOUS
10
23.2605
20
-29.2156
11
23
21
-29.2616
0
LINE
8
BLACK
6
CONTINUOUS
10
23
20
-29.2616
11
22.7395
21
-29.2156
0
LINE
8
BLACK
6
CONTINUOUS
10
22.7395
20
-29.2156
11
22.5105
21
-29.0834
0
LINE
8
BLACK
6
CONTINUOUS
10
22.5105
20
-29.0834
11
22.3405
21
-28.8808
0
LINE
8
BLACK
6
CONTINUOUS
10
22.3405
20
-28.8808
11
22.25
21
-28.6322
0
LINE
8
BLACK
6
CONTINUOUS
10
22.25
20
-28.6322
11
22.25
21
-28.3678
0
LINE
8
BLACK
6
CONTINUOUS
10
22.25
20
-28.3678
11
22.3405
21
-28.1192
0
LINE
8
BLACK
6
CONTINUOUS
10
22.3405
20
-28.1192
11
22.5105
21
-27.9166
0
LINE
8
BLACK
6
CONTINUOUS
10
22.5105
20
-27.9166
11
22.7395
21
-27.7844
0
LINE
8
BLACK
6
CONTINUOUS
10
22.7395
20
-27.7844
11
23
21
-27.7384
0
LINE
8
BLACK
6
CONTINUOUS
10
23
20
-27.7384
11
23.2605
21
-27.7844
0
LINE
8
BLACK
6
CONTINUOUS
10
23.2605
20
-27.7844
11
23.4101
21
-27.8707
0
LINE
8
BLACK
6
CONTINUOUS
10
23.4101
20
-27.8707
11
24.045
21
-27.2358
0
LINE
8
BLACK
6
CONTINUOUS
10
24.045
20
-27.2358
11
24.045
21
-21.7
0
LINE
8
BLACK
6
CONTINUOUS
10
24.045
20
-21.7
11
23.95
21
-21.7
0
LINE
8
BLACK
6
CONTINUOUS
10
23.95
20
-21.7
11
23.95
21
-20.3
0
LINE
8
BLACK
6
CONTINUOUS
10
23.95
20
-20.3
11
24.45
21
-20.3
0
LINE
8
BLACK
6
CONTINUOUS
10
24.45
20
-20.3
11
24.45
21
-21.7
0
LINE
8
BLACK
6
CONTINUOUS
10
47.525
20
-20.8
11
47.455
21
-20.8
0
LINE
8
BLACK
6
CONTINUOUS
10
47.455
20
-20.8
11
47.455
21
-22.2358
0
LINE
8
BLACK
6
CONTINUOUS
10
47.455
20
-22.2358
11
51.1848
21
-25.9656
0
LINE
8
BLACK
6
CONTINUOUS
10
51.1848
20
-25.9656
11
51.2006
21
-25.9788
0
LINE
8
BLACK
6
CONTINUOUS
10
51.2006
20
-25.9788
11
51.2109
21
-25.9966
0
LINE
8
BLACK
6
CONTINUOUS
10
51.2109
20
-25.9966
11
51.2226
21
-26.0135
0
LINE
8
BLACK
6
CONTINUOUS
10
51.2226
20
-26.0135
11
51.2244
21
-26.0202
0
LINE
8
BLACK
6
CONTINUOUS
10
51.2244
20
-26.0202
11
51.2279
21
-26.0262
0
LINE
8
BLACK
6
CONTINUOUS
10
51.2279
20
-26.0262
11
51.2315
21
-26.0464
0
LINE
8
BLACK
6
CONTINUOUS
10
51.2315
20
-26.0464
11
51.2368
21
-26.0663
0
LINE
8
BLACK
6
CONTINUOUS
10
51.2368
20
-26.0663
11
51.235
21
-26.0868
0
LINE
8
BLACK
6
CONTINUOUS
10
51.235
20
-26.0868
11
51.235
21
-27.7658
0
LINE
8
BLACK
6
CONTINUOUS
10
51.235
20
-27.7658
11
51.3405
21
-27.7844
0
LINE
8
BLACK
6
CONTINUOUS
10
51.3405
20
-27.7844
11
51.5695
21
-27.9166
0
LINE
8
BLACK
6
CONTINUOUS
10
51.5695
20
-27.9166
11
51.7395
21
-28.1192
0
LINE
8
BLACK
6
CONTINUOUS
10
51.7395
20
-28.1192
11
51.83
21
-28.3678
0
LINE
8
BLACK
6
CONTINUOUS
10
51.83
20
-28.3678
11
51.83
21
-28.6322
0
LINE
8
BLACK
6
CONTINUOUS
10
51.83
20
-28.6322
11
51.7395
21
-28.8808
0
LINE
8
BLACK
6
CONTINUOUS
10
51.7395
20
-28.8808
11
51.5695
21
-29.0834
0
LINE
8
BLACK
6
CONTINUOUS
10
51.5695
20
-29.0834
11
51.3405
21
-29.2156
0
LINE
8
BLACK
6
CONTINUOUS
10
51.3405
20
-29.2156
11
51.08
21
-29.2616
0
LINE
8
BLACK
6
CONTINUOUS
10
51.08
20
-29.2616
11
50.8195
21
-29.2156
0
LINE
8
BLACK
6
CONTINUOUS
10
50.8195
20
-29.2156
11
50.5905
21
-29.0834
0
LINE
8
BLACK
6
CONTINUOUS
10
50.5905
20
-29.0834
11
50.4205
21
-28.8808
0
LINE
8
BLACK
6
CONTINUOUS
10
50.4205
20
-28.8808
11
50.33
21
-28.6322
0
LINE
8
BLACK
6
CONTINUOUS
10
50.33
20
-28.6322
11
50.33
21
-28.3678
0
LINE
8
BLACK
6
CONTINUOUS
10
50.33
20
-28.3678
11
50.4205
21
-28.1192
0
LINE
8
BLACK
6
CONTINUOUS
10
50.4205
20
-28.1192
11
50.5905
21
-27.9166
0
LINE
8
BLACK
6
CONTINUOUS
10
50.5905
20
-27.9166
11
50.8195
21
-27.7844
0
LINE
8
BLACK
6
CONTINUOUS
10
50.8195
20
-27.7844
11
50.925
21
-27.7658
0
LINE
8
BLACK
6
CONTINUOUS
10
50.925
20
-27.7658
11
50.925
21
-26.1442
0
LINE
8
BLACK
6
CONTINUOUS
10
50.925
20
-26.1442
11
47.1952
21
-22.4144
0
LINE
8
BLACK
6
CONTINUOUS
10
47.1952
20
-22.4144
11
47.1794
21
-22.4012
0
LINE
8
BLACK
6
CONTINUOUS
10
47.1794
20
-22.4012
11
47.1691
21
-22.3834
0
LINE
8
BLACK
6
CONTINUOUS
10
47.1691
20
-22.3834
11
47.1574
21
-22.3665
0
LINE
8
BLACK
6
CONTINUOUS
10
47.1574
20
-22.3665
11
47.1556
21
-22.3598
0
LINE
8
BLACK
6
CONTINUOUS
10
47.1556
20
-22.3598
11
47.1521
21
-22.3538
0
LINE
8
BLACK
6
CONTINUOUS
10
47.1521
20
-22.3538
11
47.1485
21
-22.3336
0
LINE
8
BLACK
6
CONTINUOUS
10
47.1485
20
-22.3336
11
47.1432
21
-22.3137
0
LINE
8
BLACK
6
CONTINUOUS
10
47.1432
20
-22.3137
11
47.145
21
-22.2932
0
LINE
8
BLACK
6
CONTINUOUS
10
47.145
20
-22.2932
11
47.145
21
-20.8
0
LINE
8
BLACK
6
CONTINUOUS
10
47.145
20
-20.8
11
47.075
21
-20.8
0
LINE
8
BLACK
6
CONTINUOUS
10
47.075
20
-20.8
11
47.075
21
-19.5
0
LINE
8
BLACK
6
CONTINUOUS
10
47.075
20
-19.5
11
47.525
21
-19.5
0
LINE
8
BLACK
6
CONTINUOUS
10
47.525
20
-19.5
11
47.525
21
-20.8
0
LINE
8
BLACK
6
CONTINUOUS
10
46.225
20
-20.8
11
46.155
21
-20.8
0
LINE
8
BLACK
6
CONTINUOUS
10
46.155
20
-20.8
11
46.155
21
-26.5308
0
LINE
8
BLACK
6
CONTINUOUS
10
46.155
20
-26.5308
11
47.4949
21
-27.8707
0
LINE
8
BLACK
6
CONTINUOUS
10
47.4949
20
-27.8707
11
47.6445
21
-27.7844
0
LINE
8
BLACK
6
CONTINUOUS
10
47.6445
20
-27.7844
11
47.905
21
-27.7384
0
LINE
8
BLACK
6
CONTINUOUS
10
47.905
20
-27.7384
11
48.1655
21
-27.7844
0
LINE
8
BLACK
6
CONTINUOUS
10
48.1655
20
-27.7844
11
48.3945
21
-27.9166
0
LINE
8
BLACK
6
CONTINUOUS
10
48.3945
20
-27.9166
11
48.5645
21
-28.1192
0
LINE
8
BLACK
6
CONTINUOUS
10
48.5645
20
-28.1192
11
48.655
21
-28.3678
0
LINE
8
BLACK
6
CONTINUOUS
10
48.655
20
-28.3678
11
48.655
21
-28.6322
0
LINE
8
BLACK
6
CONTINUOUS
10
48.655
20
-28.6322
11
48.5645
21
-28.8808
0
LINE
8
BLACK
6
CONTINUOUS
10
48.5645
20
-28.8808
11
48.3945
21
-29.0834
0
LINE
8
BLACK
6
CONTINUOUS
10
48.3945
20
-29.0834
11
48.1655
21
-29.2156
0
LINE
8
BLACK
6
CONTINUOUS
10
48.1655
20
-29.2156
11
47.905
21
-29.2616
0
LINE
8
BLACK
6
CONTINUOUS
10
47.905
20
-29.2616
11
47.6445
21
-29.2156
0
LINE
8
BLACK
6
CONTINUOUS
10
47.6445
20
-29.2156
11
47.4155
21
-29.0834
0
LINE
8
BLACK
6
CONTINUOUS
10
47.4155
20
-29.0834
11
47.2455
21
-28.8808
0
LINE
8
BLACK
6
CONTINUOUS
10
47.2455
20
-28.8808
11
47.155
21
-28.6322
0
LINE
8
BLACK
6
CONTINUOUS
10
47.155
20
-28.6322
11
47.155
21
-28.3678
0
LINE
8
BLACK
6
CONTINUOUS
10
47.155
20
-28.3678
11
47.2455
21
-28.1192
0
LINE
8
BLACK
6
CONTINUOUS
10
47.2455
20
-28.1192
11
47.2726
21
-28.0868
0
LINE
8
BLACK
6
CONTINUOUS
10
47.2726
20
-28.0868
11
45.8952
21
-26.7094
0
LINE
8
BLACK
6
CONTINUOUS
10
45.8952
20
-26.7094
11
45.8794
21
-26.6962
0
LINE
8
BLACK
6
CONTINUOUS
10
45.8794
20
-26.6962
11
45.8691
21
-26.6784
0
LINE
8
BLACK
6
CONTINUOUS
10
45.8691
20
-26.6784
11
45.8574
21
-26.6615
0
LINE
8
BLACK
6
CONTINUOUS
10
45.8574
20
-26.6615
11
45.8556
21
-26.6548
0
LINE
8
BLACK
6
CONTINUOUS
10
45.8556
20
-26.6548
11
45.8521
21
-26.6488
0
LINE
8
BLACK
6
CONTINUOUS
10
45.8521
20
-26.6488
11
45.8485
21
-26.6286
0
LINE
8
BLACK
6
CONTINUOUS
10
45.8485
20
-26.6286
11
45.8432
21
-26.6087
0
LINE
8
BLACK
6
CONTINUOUS
10
45.8432
20
-26.6087
11
45.845
21
-26.5882
0
LINE
8
BLACK
6
CONTINUOUS
10
45.845
20
-26.5882
11
45.845
21
-20.8
0
LINE
8
BLACK
6
CONTINUOUS
10
45.845
20
-20.8
11
45.775
21
-20.8
0
LINE
8
BLACK
6
CONTINUOUS
10
45.775
20
-20.8
11
45.775
21
-19.5
0
LINE
8
BLACK
6
CONTINUOUS
10
45.775
20
-19.5
11
46.225
21
-19.5
0
LINE
8
BLACK
6
CONTINUOUS
10
46.225
20
-19.5
11
46.225
21
-20.8
0
LINE
8
BLACK
6
CONTINUOUS
10
45.575
20
-20.8
11
45.505
21
-20.8
0
LINE
8
BLACK
6
CONTINUOUS
10
45.505
20
-20.8
11
45.505
21
-27.2382
0
LINE
8
BLACK
6
CONTINUOUS
10
45.505
20
-27.2382
11
45.5068
21
-27.2587
0
LINE
8
BLACK
6
CONTINUOUS
10
45.5068
20
-27.2587
11
45.5015
21
-27.2786
0
LINE
8
BLACK
6
CONTINUOUS
10
45.5015
20
-27.2786
11
45.4979
21
-27.2988
0
LINE
8
BLACK
6
CONTINUOUS
10
45.4979
20
-27.2988
11
45.4944
21
-27.3048
0
LINE
8
BLACK
6
CONTINUOUS
10
45.4944
20
-27.3048
11
45.4926
21
-27.3115
0
LINE
8
BLACK
6
CONTINUOUS
10
45.4926
20
-27.3115
11
45.4809
21
-27.3284
0
LINE
8
BLACK
6
CONTINUOUS
10
45.4809
20
-27.3284
11
45.4706
21
-27.3462
0
LINE
8
BLACK
6
CONTINUOUS
10
45.4706
20
-27.3462
11
45.4548
21
-27.3594
0
LINE
8
BLACK
6
CONTINUOUS
10
45.4548
20
-27.3594
11
44.7274
21
-28.0868
0
LINE
8
BLACK
6
CONTINUOUS
10
44.7274
20
-28.0868
11
44.7545
21
-28.1192
0
LINE
8
BLACK
6
CONTINUOUS
10
44.7545
20
-28.1192
11
44.845
21
-28.3678
0
LINE
8
BLACK
6
CONTINUOUS
10
44.845
20
-28.3678
11
44.845
21
-28.6322
0
LINE
8
BLACK
6
CONTINUOUS
10
44.845
20
-28.6322
11
44.7545
21
-28.8808
0
LINE
8
BLACK
6
CONTINUOUS
10
44.7545
20
-28.8808
11
44.5845
21
-29.0834
0
LINE
8
BLACK
6
CONTINUOUS
10
44.5845
20
-29.0834
11
44.3555
21
-29.2156
0
LINE
8
BLACK
6
CONTINUOUS
10
44.3555
20
-29.2156
11
44.095
21
-29.2616
0
LINE
8
BLACK
6
CONTINUOUS
10
44.095
20
-29.2616
11
43.8345
21
-29.2156
0
LINE
8
BLACK
6
CONTINUOUS
10
43.8345
20
-29.2156
11
43.6055
21
-29.0834
0
LINE
8
BLACK
6
CONTINUOUS
10
43.6055
20
-29.0834
11
43.4355
21
-28.8808
0
LINE
8
BLACK
6
CONTINUOUS
10
43.4355
20
-28.8808
11
43.345
21
-28.6322
0
LINE
8
BLACK
6
CONTINUOUS
10
43.345
20
-28.6322
11
43.345
21
-28.3678
0
LINE
8
BLACK
6
CONTINUOUS
10
43.345
20
-28.3678
11
43.4355
21
-28.1192
0
LINE
8
BLACK
6
CONTINUOUS
10
43.4355
20
-28.1192
11
43.6055
21
-27.9166
0
LINE
8
BLACK
6
CONTINUOUS
10
43.6055
20
-27.9166
11
43.8345
21
-27.7844
0
LINE
8
BLACK
6
CONTINUOUS
10
43.8345
20
-27.7844
11
44.095
21
-27.7384
0
LINE
8
BLACK
6
CONTINUOUS
10
44.095
20
-27.7384
11
44.3555
21
-27.7844
0
LINE
8
BLACK
6
CONTINUOUS
10
44.3555
20
-27.7844
11
44.5051
21
-27.8707
0
LINE
8
BLACK
6
CONTINUOUS
10
44.5051
20
-27.8707
11
45.195
21
-27.1808
0
LINE
8
BLACK
6
CONTINUOUS
10
45.195
20
-27.1808
11
45.195
21
-20.8
0
LINE
8
BLACK
6
CONTINUOUS
10
45.195
20
-20.8
11
45.125
21
-20.8
0
LINE
8
BLACK
6
CONTINUOUS
10
45.125
20
-20.8
11
45.125
21
-19.5
0
LINE
8
BLACK
6
CONTINUOUS
10
45.125
20
-19.5
11
45.575
21
-19.5
0
LINE
8
BLACK
6
CONTINUOUS
10
45.575
20
-19.5
11
45.575
21
-20.8
0
LINE
8
BLACK
6
CONTINUOUS
10
44.925
20
-20.8
11
44.855
21
-20.8
0
LINE
8
BLACK
6
CONTINUOUS
10
44.855
20
-20.8
11
44.855
21
-22.2932
0
LINE
8
BLACK
6
CONTINUOUS
10
44.855
20
-22.2932
11
44.8568
21
-22.3137
0
LINE
8
BLACK
6
CONTINUOUS
10
44.8568
20
-22.3137
11
44.8515
21
-22.3336
0
LINE
8
BLACK
6
CONTINUOUS
10
44.8515
20
-22.3336
11
44.8479
21
-22.3538
0
LINE
8
BLACK
6
CONTINUOUS
10
44.8479
20
-22.3538
11
44.8444
21
-22.3598
0
LINE
8
BLACK
6
CONTINUOUS
10
44.8444
20
-22.3598
11
44.8426
21
-22.3665
0
LINE
8
BLACK
6
CONTINUOUS
10
44.8426
20
-22.3665
11
44.8309
21
-22.3834
0
LINE
8
BLACK
6
CONTINUOUS
10
44.8309
20
-22.3834
11
44.8206
21
-22.4012
0
LINE
8
BLACK
6
CONTINUOUS
10
44.8206
20
-22.4012
11
44.8048
21
-22.4144
0
LINE
8
BLACK
6
CONTINUOUS
10
44.8048
20
-22.4144
11
41.075
21
-26.1442
0
LINE
8
BLACK
6
CONTINUOUS
10
41.075
20
-26.1442
11
41.075
21
-27.75
0
LINE
8
BLACK
6
CONTINUOUS
10
41.075
20
-27.75
11
41.67
21
-27.75
0
LINE
8
BLACK
6
CONTINUOUS
10
41.67
20
-27.75
11
41.67
21
-29.25
0
LINE
8
BLACK
6
CONTINUOUS
10
41.67
20
-29.25
11
40.17
21
-29.25
0
LINE
8
BLACK
6
CONTINUOUS
10
40.17
20
-29.25
11
40.17
21
-27.75
0
LINE
8
BLACK
6
CONTINUOUS
10
40.17
20
-27.75
11
40.765
21
-27.75
0
LINE
8
BLACK
6
CONTINUOUS
10
40.765
20
-27.75
11
40.765
21
-26.0868
0
LINE
8
BLACK
6
CONTINUOUS
10
40.765
20
-26.0868
11
40.7632
21
-26.0663
0
LINE
8
BLACK
6
CONTINUOUS
10
40.7632
20
-26.0663
11
40.7685
21
-26.0464
0
LINE
8
BLACK
6
CONTINUOUS
10
40.7685
20
-26.0464
11
40.7721
21
-26.0262
0
LINE
8
BLACK
6
CONTINUOUS
10
40.7721
20
-26.0262
11
40.7756
21
-26.0202
0
LINE
8
BLACK
6
CONTINUOUS
10
40.7756
20
-26.0202
11
40.7774
21
-26.0135
0
LINE
8
BLACK
6
CONTINUOUS
10
40.7774
20
-26.0135
11
40.7891
21
-25.9966
0
LINE
8
BLACK
6
CONTINUOUS
10
40.7891
20
-25.9966
11
40.7994
21
-25.9788
0
LINE
8
BLACK
6
CONTINUOUS
10
40.7994
20
-25.9788
11
40.8152
21
-25.9656
0
LINE
8
BLACK
6
CONTINUOUS
10
40.8152
20
-25.9656
11
44.545
21
-22.2358
0
LINE
8
BLACK
6
CONTINUOUS
10
44.545
20
-22.2358
11
44.545
21
-20.8
0
LINE
8
BLACK
6
CONTINUOUS
10
44.545
20
-20.8
11
44.475
21
-20.8
0
LINE
8
BLACK
6
CONTINUOUS
10
44.475
20
-20.8
11
44.475
21
-19.5
0
LINE
8
BLACK
6
CONTINUOUS
10
44.475
20
-19.5
11
44.925
21
-19.5
0
LINE
8
BLACK
6
CONTINUOUS
10
44.925
20
-19.5
11
44.925
21
-20.8
0
LINE
8
BLACK
6
CONTINUOUS
10
23.65
20
-21.7
11
23.3692
21
-21.7
0
LINE
8
BLACK
6
CONTINUOUS
10
23.3692
20
-21.7
11
19.98
21
-25.0892
0
LINE
8
BLACK
6
CONTINUOUS
10
19.98
20
-25.0892
11
19.98
21
-27.75
0
LINE
8
BLACK
6
CONTINUOUS
10
19.98
20
-27.75
11
20.575
21
-27.75
0
LINE
8
BLACK
6
CONTINUOUS
10
20.575
20
-27.75
11
20.575
21
-29.25
0
LINE
8
BLACK
6
CONTINUOUS
10
20.575
20
-29.25
11
19.075
21
-29.25
0
LINE
8
BLACK
6
CONTINUOUS
10
19.075
20
-29.25
11
19.075
21
-27.75
0
LINE
8
BLACK
6
CONTINUOUS
10
19.075
20
-27.75
11
19.67
21
-27.75
0
LINE
8
BLACK
6
CONTINUOUS
10
19.67
20
-27.75
11
19.67
21
-25.0318
0
LINE
8
BLACK
6
CONTINUOUS
10
19.67
20
-25.0318
11
19.6682
21
-25.0113
0
LINE
8
BLACK
6
CONTINUOUS
10
19.6682
20
-25.0113
11
19.6735
21
-24.9914
0
LINE
8
BLACK
6
CONTINUOUS
10
19.6735
20
-24.9914
11
19.6771
21
-24.9712
0
LINE
8
BLACK
6
CONTINUOUS
10
19.6771
20
-24.9712
11
19.6806
21
-24.9652
0
LINE
8
BLACK
6
CONTINUOUS
10
19.6806
20
-24.9652
11
19.6824
21
-24.9585
0
LINE
8
BLACK
6
CONTINUOUS
10
19.6824
20
-24.9585
11
19.6941
21
-24.9416
0
LINE
8
BLACK
6
CONTINUOUS
10
19.6941
20
-24.9416
11
19.7044
21
-24.9238
0
LINE
8
BLACK
6
CONTINUOUS
10
19.7044
20
-24.9238
11
19.7202
21
-24.9106
0
LINE
8
BLACK
6
CONTINUOUS
10
19.7202
20
-24.9106
11
23.15
21
-21.4808
0
LINE
8
BLACK
6
CONTINUOUS
10
23.15
20
-21.4808
11
23.15
21
-20.3
0
LINE
8
BLACK
6
CONTINUOUS
10
23.15
20
-20.3
11
23.65
21
-20.3
0
LINE
8
BLACK
6
CONTINUOUS
10
23.65
20
-20.3
11
23.65
21
-21.7
0
LINE
8
BLACK
6
CONTINUOUS
10
26.05
20
-21.7
11
25.55
21
-21.7
0
LINE
8
BLACK
6
CONTINUOUS
10
25.55
20
-21.7
11
25.55
21
-20.3
0
LINE
8
BLACK
6
CONTINUOUS
10
25.55
20
-20.3
11
26.05
21
-20.3
0
LINE
8
BLACK
6
CONTINUOUS
10
26.05
20
-20.3
11
26.05
21
-21.7
0
LINE
8
BLACK
6
CONTINUOUS
10
42.6431
20
-19.1874
11
42.8389
21
-19.3518
0
LINE
8
BLACK
6
CONTINUOUS
10
42.8389
20
-19.3518
11
42.9668
21
-19.5732
0
LINE
8
BLACK
6
CONTINUOUS
10
42.9668
20
-19.5732
11
43
21
-19.7616
0
LINE
8
BLACK
6
CONTINUOUS
10
43
20
-19.7616
11
43
21
-20.4384
0
LINE
8
BLACK
6
CONTINUOUS
10
43
20
-20.4384
11
42.9668
21
-20.6268
0
LINE
8
BLACK
6
CONTINUOUS
10
42.9668
20
-20.6268
11
42.8389
21
-20.8482
0
LINE
8
BLACK
6
CONTINUOUS
10
42.8389
20
-20.8482
11
42.6431
21
-21.0126
0
LINE
8
BLACK
6
CONTINUOUS
10
42.6431
20
-21.0126
11
42.4028
21
-21.1
0
LINE
8
BLACK
6
CONTINUOUS
10
42.4028
20
-21.1
11
42.1472
21
-21.1
0
LINE
8
BLACK
6
CONTINUOUS
10
42.1472
20
-21.1
11
41.9069
21
-21.0126
0
LINE
8
BLACK
6
CONTINUOUS
10
41.9069
20
-21.0126
11
41.7111
21
-20.8482
0
LINE
8
BLACK
6
CONTINUOUS
10
41.7111
20
-20.8482
11
41.5832
21
-20.6268
0
LINE
8
BLACK
6
CONTINUOUS
10
41.5832
20
-20.6268
11
41.55
21
-20.4384
0
LINE
8
BLACK
6
CONTINUOUS
10
41.55
20
-20.4384
11
41.55
21
-19.7616
0
LINE
8
BLACK
6
CONTINUOUS
10
41.55
20
-19.7616
11
41.5832
21
-19.5732
0
LINE
8
BLACK
6
CONTINUOUS
10
41.5832
20
-19.5732
11
41.7111
21
-19.3518
0
LINE
8
BLACK
6
CONTINUOUS
10
41.7111
20
-19.3518
11
41.9069
21
-19.1874
0
LINE
8
BLACK
6
CONTINUOUS
10
41.9069
20
-19.1874
11
42.1472
21
-19.1
0
LINE
8
BLACK
6
CONTINUOUS
10
42.1472
20
-19.1
11
42.4028
21
-19.1
0
LINE
8
BLACK
6
CONTINUOUS
10
42.4028
20
-19.1
11
42.6431
21
-19.1874
0
LINE
8
BLACK
6
CONTINUOUS
10
50.0931
20
-19.1874
11
50.2889
21
-19.3518
0
LINE
8
BLACK
6
CONTINUOUS
10
50.2889
20
-19.3518
11
50.4168
21
-19.5732
0
LINE
8
BLACK
6
CONTINUOUS
10
50.4168
20
-19.5732
11
50.45
21
-19.7616
0
LINE
8
BLACK
6
CONTINUOUS
10
50.45
20
-19.7616
11
50.45
21
-20.4384
0
LINE
8
BLACK
6
CONTINUOUS
10
50.45
20
-20.4384
11
50.4168
21
-20.6268
0
LINE
8
BLACK
6
CONTINUOUS
10
50.4168
20
-20.6268
11
50.2889
21
-20.8482
0
LINE
8
BLACK
6
CONTINUOUS
10
50.2889
20
-20.8482
11
50.0931
21
-21.0126
0
LINE
8
BLACK
6
CONTINUOUS
10
50.0931
20
-21.0126
11
49.8528
21
-21.1
0
LINE
8
BLACK
6
CONTINUOUS
10
49.8528
20
-21.1
11
49.5972
21
-21.1
0
LINE
8
BLACK
6
CONTINUOUS
10
49.5972
20
-21.1
11
49.3569
21
-21.0126
0
LINE
8
BLACK
6
CONTINUOUS
10
49.3569
20
-21.0126
11
49.161
21
-20.8482
0
LINE
8
BLACK
6
CONTINUOUS
10
49.161
20
-20.8482
11
49.0332
21
-20.6268
0
LINE
8
BLACK
6
CONTINUOUS
10
49.0332
20
-20.6268
11
49
21
-20.4384
0
LINE
8
BLACK
6
CONTINUOUS
10
49
20
-20.4384
11
49
21
-19.7616
0
LINE
8
BLACK
6
CONTINUOUS
10
49
20
-19.7616
11
49.0332
21
-19.5732
0
LINE
8
BLACK
6
CONTINUOUS
10
49.0332
20
-19.5732
11
49.1611
21
-19.3518
0
LINE
8
BLACK
6
CONTINUOUS
10
49.1611
20
-19.3518
11
49.3569
21
-19.1874
0
LINE
8
BLACK
6
CONTINUOUS
10
49.3569
20
-19.1874
11
49.5972
21
-19.1
0
LINE
8
BLACK
6
CONTINUOUS
10
49.5972
20
-19.1
11
49.8528
21
-19.1
0
LINE
8
BLACK
6
CONTINUOUS
10
49.8528
20
-19.1
11
50.0931
21
-19.1874
0
LINE
8
BLACK
6
CONTINUOUS
10
46.875
20
-20.8
11
46.425
21
-20.8
0
LINE
8
BLACK
6
CONTINUOUS
10
46.425
20
-20.8
11
46.425
21
-19.5
0
LINE
8
BLACK
6
CONTINUOUS
10
46.425
20
-19.5
11
46.875
21
-19.5
0
LINE
8
BLACK
6
CONTINUOUS
10
46.875
20
-19.5
11
46.875
21
-20.8
0
LINE
8
BLACK
6
CONTINUOUS
10
28.98
20
-16.7784
11
29.1556
21
-16.9257
0
LINE
8
BLACK
6
CONTINUOUS
10
29.1556
20
-16.9257
11
29.2702
21
-17.1243
0
LINE
8
BLACK
6
CONTINUOUS
10
29.2702
20
-17.1243
11
29.3
21
-17.2931
0
LINE
8
BLACK
6
CONTINUOUS
10
29.3
20
-17.2931
11
29.3
21
-19.9069
0
LINE
8
BLACK
6
CONTINUOUS
10
29.3
20
-19.9069
11
29.2702
21
-20.0757
0
LINE
8
BLACK
6
CONTINUOUS
10
29.2702
20
-20.0757
11
29.1556
21
-20.2743
0
LINE
8
BLACK
6
CONTINUOUS
10
29.1556
20
-20.2743
11
28.98
21
-20.4216
0
LINE
8
BLACK
6
CONTINUOUS
10
28.98
20
-20.4216
11
28.7646
21
-20.5
0
LINE
8
BLACK
6
CONTINUOUS
10
28.7646
20
-20.5
11
28.5354
21
-20.5
0
LINE
8
BLACK
6
CONTINUOUS
10
28.5354
20
-20.5
11
28.32
21
-20.4216
0
LINE
8
BLACK
6
CONTINUOUS
10
28.32
20
-20.4216
11
28.1444
21
-20.2743
0
LINE
8
BLACK
6
CONTINUOUS
10
28.1444
20
-20.2743
11
28.0298
21
-20.0757
0
LINE
8
BLACK
6
CONTINUOUS
10
28.0298
20
-20.0757
11
28
21
-19.9069
0
LINE
8
BLACK
6
CONTINUOUS
10
28
20
-19.9069
11
28
21
-17.2931
0
LINE
8
BLACK
6
CONTINUOUS
10
28
20
-17.2931
11
28.0298
21
-17.1243
0
LINE
8
BLACK
6
CONTINUOUS
10
28.0298
20
-17.1243
11
28.1444
21
-16.9257
0
LINE
8
BLACK
6
CONTINUOUS
10
28.1444
20
-16.9257
11
28.32
21
-16.7784
0
LINE
8
BLACK
6
CONTINUOUS
10
28.32
20
-16.7784
11
28.5354
21
-16.7
0
LINE
8
BLACK
6
CONTINUOUS
10
28.5354
20
-16.7
11
28.7646
21
-16.7
0
LINE
8
BLACK
6
CONTINUOUS
10
28.7646
20
-16.7
11
28.98
21
-16.7784
0
LINE
8
BLACK
6
CONTINUOUS
10
21.68
20
-16.7784
11
21.8556
21
-16.9257
0
LINE
8
BLACK
6
CONTINUOUS
10
21.8556
20
-16.9257
11
21.9702
21
-17.1243
0
LINE
8
BLACK
6
CONTINUOUS
10
21.9702
20
-17.1243
11
22
21
-17.2931
0
LINE
8
BLACK
6
CONTINUOUS
10
22
20
-17.2931
11
22
21
-19.9069
0
LINE
8
BLACK
6
CONTINUOUS
10
22
20
-19.9069
11
21.9702
21
-20.0757
0
LINE
8
BLACK
6
CONTINUOUS
10
21.9702
20
-20.0757
11
21.8556
21
-20.2743
0
LINE
8
BLACK
6
CONTINUOUS
10
21.8556
20
-20.2743
11
21.68
21
-20.4216
0
LINE
8
BLACK
6
CONTINUOUS
10
21.68
20
-20.4216
11
21.4646
21
-20.5
0
LINE
8
BLACK
6
CONTINUOUS
10
21.4646
20
-20.5
11
21.2354
21
-20.5
0
LINE
8
BLACK
6
CONTINUOUS
10
21.2354
20
-20.5
11
21.02
21
-20.4216
0
LINE
8
BLACK
6
CONTINUOUS
10
21.02
20
-20.4216
11
20.8444
21
-20.2743
0
LINE
8
BLACK
6
CONTINUOUS
10
20.8444
20
-20.2743
11
20.7298
21
-20.0757
0
LINE
8
BLACK
6
CONTINUOUS
10
20.7298
20
-20.0757
11
20.7
21
-19.9069
0
LINE
8
BLACK
6
CONTINUOUS
10
20.7
20
-19.9069
11
20.7
21
-17.2931
0
LINE
8
BLACK
6
CONTINUOUS
10
20.7
20
-17.2931
11
20.7298
21
-17.1243
0
LINE
8
BLACK
6
CONTINUOUS
10
20.7298
20
-17.1243
11
20.8444
21
-16.9257
0
LINE
8
BLACK
6
CONTINUOUS
10
20.8444
20
-16.9257
11
21.02
21
-16.7784
0
LINE
8
BLACK
6
CONTINUOUS
10
21.02
20
-16.7784
11
21.2354
21
-16.7
0
LINE
8
BLACK
6
CONTINUOUS
10
21.2354
20
-16.7
11
21.4646
21
-16.7
0
LINE
8
BLACK
6
CONTINUOUS
10
21.4646
20
-16.7
11
21.68
21
-16.7784
0
LINE
8
BLACK
6
CONTINUOUS
10
43.6389
20
-18.6683
11
43.7611
21
-18.7389
0
LINE
8
BLACK
6
CONTINUOUS
10
43.7611
20
-18.7389
11
43.8518
21
-18.8469
0
LINE
8
BLACK
6
CONTINUOUS
10
43.8518
20
-18.8469
11
43.9
21
-18.9795
0
LINE
8
BLACK
6
CONTINUOUS
10
43.9
20
-18.9795
11
43.9
21
-19.1205
0
LINE
8
BLACK
6
CONTINUOUS
10
43.9
20
-19.1205
11
43.8518
21
-19.2531
0
LINE
8
BLACK
6
CONTINUOUS
10
43.8518
20
-19.2531
11
43.7611
21
-19.3611
0
LINE
8
BLACK
6
CONTINUOUS
10
43.7611
20
-19.3611
11
43.6389
21
-19.4317
0
LINE
8
BLACK
6
CONTINUOUS
10
43.6389
20
-19.4317
11
43.535
21
-19.45
0
LINE
8
BLACK
6
CONTINUOUS
10
43.535
20
-19.45
11
43.465
21
-19.45
0
LINE
8
BLACK
6
CONTINUOUS
10
43.465
20
-19.45
11
43.3611
21
-19.4317
0
LINE
8
BLACK
6
CONTINUOUS
10
43.3611
20
-19.4317
11
43.2389
21
-19.3611
0
LINE
8
BLACK
6
CONTINUOUS
10
43.2389
20
-19.3611
11
43.1482
21
-19.2531
0
LINE
8
BLACK
6
CONTINUOUS
10
43.1482
20
-19.2531
11
43.1
21
-19.1205
0
LINE
8
BLACK
6
CONTINUOUS
10
43.1
20
-19.1205
11
43.1
21
-18.9795
0
LINE
8
BLACK
6
CONTINUOUS
10
43.1
20
-18.9795
11
43.1482
21
-18.8469
0
LINE
8
BLACK
6
CONTINUOUS
10
43.1482
20
-18.8469
11
43.2389
21
-18.7389
0
LINE
8
BLACK
6
CONTINUOUS
10
43.2389
20
-18.7389
11
43.3611
21
-18.6683
0
LINE
8
BLACK
6
CONTINUOUS
10
43.3611
20
-18.6683
11
43.465
21
-18.65
0
LINE
8
BLACK
6
CONTINUOUS
10
43.465
20
-18.65
11
43.535
21
-18.65
0
LINE
8
BLACK
6
CONTINUOUS
10
43.535
20
-18.65
11
43.6389
21
-18.6683
0
LINE
8
BLACK
6
CONTINUOUS
10
48.6389
20
-18.6683
11
48.7611
21
-18.7389
0
LINE
8
BLACK
6
CONTINUOUS
10
48.7611
20
-18.7389
11
48.8518
21
-18.8469
0
LINE
8
BLACK
6
CONTINUOUS
10
48.8518
20
-18.8469
11
48.9
21
-18.9795
0
LINE
8
BLACK
6
CONTINUOUS
10
48.9
20
-18.9795
11
48.9
21
-19.1205
0
LINE
8
BLACK
6
CONTINUOUS
10
48.9
20
-19.1205
11
48.8518
21
-19.2531
0
LINE
8
BLACK
6
CONTINUOUS
10
48.8518
20
-19.2531
11
48.7611
21
-19.3611
0
LINE
8
BLACK
6
CONTINUOUS
10
48.7611
20
-19.3611
11
48.6389
21
-19.4317
0
LINE
8
BLACK
6
CONTINUOUS
10
48.6389
20
-19.4317
11
48.535
21
-19.45
0
LINE
8
BLACK
6
CONTINUOUS
10
48.535
20
-19.45
11
48.465
21
-19.45
0
LINE
8
BLACK
6
CONTINUOUS
10
48.465
20
-19.45
11
48.3611
21
-19.4317
0
LINE
8
BLACK
6
CONTINUOUS
10
48.3611
20
-19.4317
11
48.2389
21
-19.3611
0
LINE
8
BLACK
6
CONTINUOUS
10
48.2389
20
-19.3611
11
48.1482
21
-19.2531
0
LINE
8
BLACK
6
CONTINUOUS
10
48.1482
20
-19.2531
11
48.1
21
-19.1205
0
LINE
8
BLACK
6
CONTINUOUS
10
48.1
20
-19.1205
11
48.1
21
-18.9795
0
LINE
8
BLACK
6
CONTINUOUS
10
48.1
20
-18.9795
11
48.1482
21
-18.8469
0
LINE
8
BLACK
6
CONTINUOUS
10
48.1482
20
-18.8469
11
48.2389
21
-18.7389
0
LINE
8
BLACK
6
CONTINUOUS
10
48.2389
20
-18.7389
11
48.3611
21
-18.6683
0
LINE
8
BLACK
6
CONTINUOUS
10
48.3611
20
-18.6683
11
48.465
21
-18.65
0
LINE
8
BLACK
6
CONTINUOUS
10
48.465
20
-18.65
11
48.535
21
-18.65
0
LINE
8
BLACK
6
CONTINUOUS
10
48.535
20
-18.65
11
48.6389
21
-18.6683
0
LINE
8
BLACK
6
CONTINUOUS
10
42.4169
20
-15.4694
11
42.5723
21
-15.5997
0
LINE
8
BLACK
6
CONTINUOUS
10
42.5723
20
-15.5997
11
42.6737
21
-15.7753
0
LINE
8
BLACK
6
CONTINUOUS
10
42.6737
20
-15.7753
11
42.7
21
-15.9247
0
LINE
8
BLACK
6
CONTINUOUS
10
42.7
20
-15.9247
11
42.7
21
-16.6753
0
LINE
8
BLACK
6
CONTINUOUS
10
42.7
20
-16.6753
11
42.6737
21
-16.8247
0
LINE
8
BLACK
6
CONTINUOUS
10
42.6737
20
-16.8247
11
42.5723
21
-17.0003
0
LINE
8
BLACK
6
CONTINUOUS
10
42.5723
20
-17.0003
11
42.4169
21
-17.1306
0
LINE
8
BLACK
6
CONTINUOUS
10
42.4169
20
-17.1306
11
42.2264
21
-17.2
0
LINE
8
BLACK
6
CONTINUOUS
10
42.2264
20
-17.2
11
42.0236
21
-17.2
0
LINE
8
BLACK
6
CONTINUOUS
10
42.0236
20
-17.2
11
41.8331
21
-17.1306
0
LINE
8
BLACK
6
CONTINUOUS
10
41.8331
20
-17.1306
11
41.6777
21
-17.0003
0
LINE
8
BLACK
6
CONTINUOUS
10
41.6777
20
-17.0003
11
41.5763
21
-16.8247
0
LINE
8
BLACK
6
CONTINUOUS
10
41.5763
20
-16.8247
11
41.55
21
-16.6753
0
LINE
8
BLACK
6
CONTINUOUS
10
41.55
20
-16.6753
11
41.55
21
-15.9247
0
LINE
8
BLACK
6
CONTINUOUS
10
41.55
20
-15.9247
11
41.5763
21
-15.7753
0
LINE
8
BLACK
6
CONTINUOUS
10
41.5763
20
-15.7753
11
41.6777
21
-15.5997
0
LINE
8
BLACK
6
CONTINUOUS
10
41.6777
20
-15.5997
11
41.8331
21
-15.4694
0
LINE
8
BLACK
6
CONTINUOUS
10
41.8331
20
-15.4694
11
42.0236
21
-15.4
0
LINE
8
BLACK
6
CONTINUOUS
10
42.0236
20
-15.4
11
42.2264
21
-15.4
0
LINE
8
BLACK
6
CONTINUOUS
10
42.2264
20
-15.4
11
42.4169
21
-15.4694
0
LINE
8
BLACK
6
CONTINUOUS
10
50.1669
20
-15.4694
11
50.3223
21
-15.5997
0
LINE
8
BLACK
6
CONTINUOUS
10
50.3223
20
-15.5997
11
50.4237
21
-15.7753
0
LINE
8
BLACK
6
CONTINUOUS
10
50.4237
20
-15.7753
11
50.45
21
-15.9247
0
LINE
8
BLACK
6
CONTINUOUS
10
50.45
20
-15.9247
11
50.45
21
-16.6753
0
LINE
8
BLACK
6
CONTINUOUS
10
50.45
20
-16.6753
11
50.4237
21
-16.8247
0
LINE
8
BLACK
6
CONTINUOUS
10
50.4237
20
-16.8247
11
50.3223
21
-17.0003
0
LINE
8
BLACK
6
CONTINUOUS
10
50.3223
20
-17.0003
11
50.1669
21
-17.1306
0
LINE
8
BLACK
6
CONTINUOUS
10
50.1669
20
-17.1306
11
49.9764
21
-17.2
0
LINE
8
BLACK
6
CONTINUOUS
10
49.9764
20
-17.2
11
49.7736
21
-17.2
0
LINE
8
BLACK
6
CONTINUOUS
10
49.7736
20
-17.2
11
49.5831
21
-17.1306
0
LINE
8
BLACK
6
CONTINUOUS
10
49.5831
20
-17.1306
11
49.4277
21
-17.0003
0
LINE
8
BLACK
6
CONTINUOUS
10
49.4277
20
-17.0003
11
49.3263
21
-16.8247
0
LINE
8
BLACK
6
CONTINUOUS
10
49.3263
20
-16.8247
11
49.3
21
-16.6753
0
LINE
8
BLACK
6
CONTINUOUS
10
49.3
20
-16.6753
11
49.3
21
-15.9247
0
LINE
8
BLACK
6
CONTINUOUS
10
49.3
20
-15.9247
11
49.3263
21
-15.7753
0
LINE
8
BLACK
6
CONTINUOUS
10
49.3263
20
-15.7753
11
49.4277
21
-15.5997
0
LINE
8
BLACK
6
CONTINUOUS
10
49.4277
20
-15.5997
11
49.5831
21
-15.4694
0
LINE
8
BLACK
6
CONTINUOUS
10
49.5831
20
-15.4694
11
49.7736
21
-15.4
0
LINE
8
BLACK
6
CONTINUOUS
10
49.7736
20
-15.4
11
49.9764
21
-15.4
0
LINE
8
BLACK
6
CONTINUOUS
10
49.9764
20
-15.4
11
50.1669
21
-15.4694
0
CIRCLE
8
BLACK
10
25.75
20
-36
40
0.2
  0
ENDSEC
  0
EOF
