  0
SECTION
  2
HEADER
  9
$ANGBASE
  50
0.0
  9
$ANGDIR
  70
  1
  9
$MEASUREMENT
  70
0
  0
ENDSEC
  0
SECTION
  2
TABLES
  0
TABLE
  2
LTYPE
  70
4
  0
LTYPE
  5
40F
  2
CONTINUOUS
  70
0
  3
Solid line
  72
65
  73
0
  40
0.0
  0
LTYPE
  5
410
  2
DASHDOT
 70
0
  3
Dash Dot ____ _ ____ _
 72
65
 73
4
 40
2.0
 49
1.25
 49
-0.25
 49
0.25
 49
-0.25
  0
LTYPE
  5
411
  2
DASHED
 70
0
  3
Dashed __ __ __ __ __
 72
65
 73
2
 40
0.75
 49
0.5
 49
-0.25
  0
LTYPE
  5
43B
  2
DOTTED
 70
0
  3
Dotted .  .  .  .
 72
65
 73
2
 40
0.2
 49
0.0
 49
-0.2
  0
ENDTAB
  0
TABLE
  2
STYLE
  70
4
  0
STYLE
  2
KICAD
  70
0
  40
0
  41
1
  42
1
  50
0
  71
0
  3
isocp.shx
  0
STYLE
  2
KICADB
  70
0
  40
0
  41
1
  42
1
  50
0
  71
0
  3
isocp.shx
  0
STYLE
  2
KICADI
  70
0
  40
0
  41
1
  42
1
  50
15
  71
0
  3
isocp.shx
  0
STYLE
  2
KICADBI
  70
0
  40
0
  41
1
  42
1
  50
15
  71
0
  3
isocp.shx
  0
ENDTAB
  0
TABLE
  2
LAYER
  70
30
  0
LAYER
  2
BLACK
  70
0
  62
7
  6
CONTINUOUS
  0
LAYER
  2
GRAY1
  70
0
  62
251
  6
CONTINUOUS
  0
LAYER
  2
GRAY2
  70
0
  62
8
  6
CONTINUOUS
  0
LAYER
  2
GRAY3
  70
0
  62
9
  6
CONTINUOUS
  0
LAYER
  2
WHITE
  70
0
  62
7
  6
CONTINUOUS
  0
LAYER
  2
LYELLOW
  70
0
  62
51
  6
CONTINUOUS
  0
LAYER
  2
BLUE1
  70
0
  62
178
  6
CONTINUOUS
  0
LAYER
  2
GREEN1
  70
0
  62
98
  6
CONTINUOUS
  0
LAYER
  2
CYAN1
  70
0
  62
138
  6
CONTINUOUS
  0
LAYER
  2
RED1
  70
0
  62
18
  6
CONTINUOUS
  0
LAYER
  2
MAGENTA1
  70
0
  62
228
  6
CONTINUOUS
  0
LAYER
  2
BROWN1
  70
0
  62
58
  6
CONTINUOUS
  0
LAYER
  2
BLUE2
  70
0
  62
5
  6
CONTINUOUS
  0
LAYER
  2
GREEN2
  70
0
  62
3
  6
CONTINUOUS
  0
LAYER
  2
CYAN2
  70
0
  62
4
  6
CONTINUOUS
  0
LAYER
  2
RED2
  70
0
  62
1
  6
CONTINUOUS
  0
LAYER
  2
MAGENTA2
  70
0
  62
6
  6
CONTINUOUS
  0
LAYER
  2
BROWN2
  70
0
  62
54
  6
CONTINUOUS
  0
LAYER
  2
BLUE3
  70
0
  62
171
  6
CONTINUOUS
  0
LAYER
  2
GREEN3
  70
0
  62
91
  6
CONTINUOUS
  0
LAYER
  2
CYAN3
  70
0
  62
131
  6
CONTINUOUS
  0
LAYER
  2
RED3
  70
0
  62
11
  6
CONTINUOUS
  0
LAYER
  2
MAGENTA3
  70
0
  62
221
  6
CONTINUOUS
  0
LAYER
  2
YELLOW3
  70
0
  62
2
  6
CONTINUOUS
  0
LAYER
  2
BLUE4
  70
0
  62
5
  6
CONTINUOUS
  0
LAYER
  2
GREEN4
  70
0
  62
3
  6
CONTINUOUS
  0
LAYER
  2
CYAN4
  70
0
  62
4
  6
CONTINUOUS
  0
LAYER
  2
RED4
  70
0
  62
1
  6
CONTINUOUS
  0
LAYER
  2
MAGENTA4
  70
0
  62
6
  6
CONTINUOUS
  0
LAYER
  2
YELLOW4
  70
0
  62
2
  6
CONTINUOUS
  0
ENDTAB
  0
ENDSEC
  0
SECTION
  2
ENTITIES
0
LINE
8
BLACK
6
CONTINUOUS
10
35.925
20
-29.425
11
35.925
21
-29.0066
0
LINE
8
BLACK
6
CONTINUOUS
10
35.925
20
-29.0066
11
35.925
21
-29.0066
0
LINE
8
BLACK
6
CONTINUOUS
10
35.925
20
-29.0066
11
35.925
21
-14.9934
0
LINE
8
BLACK
6
CONTINUOUS
10
35.925
20
-14.9934
11
35.925
21
-14.9868
0
LINE
8
BLACK
6
CONTINUOUS
10
35.925
20
-14.9868
11
35.9273
21
-14.9805
0
LINE
8
BLACK
6
CONTINUOUS
10
35.9273
20
-14.9805
11
35.9284
21
-14.974
0
LINE
8
BLACK
6
CONTINUOUS
10
35.9284
20
-14.974
11
35.9318
21
-14.9682
0
LINE
8
BLACK
6
CONTINUOUS
10
35.9318
20
-14.9682
11
35.934
21
-14.9619
0
LINE
8
BLACK
6
CONTINUOUS
10
35.934
20
-14.9619
11
35.9383
21
-14.9568
0
LINE
8
BLACK
6
CONTINUOUS
10
35.9383
20
-14.9568
11
35.9417
21
-14.951
0
LINE
8
BLACK
6
CONTINUOUS
10
35.9417
20
-14.951
11
35.9468
21
-14.9468
0
LINE
8
BLACK
6
CONTINUOUS
10
35.9468
20
-14.9468
11
35.951
21
-14.9417
0
LINE
8
BLACK
6
CONTINUOUS
10
35.951
20
-14.9417
11
35.9568
21
-14.9383
0
LINE
8
BLACK
6
CONTINUOUS
10
35.9568
20
-14.9383
11
35.9619
21
-14.934
0
LINE
8
BLACK
6
CONTINUOUS
10
35.9619
20
-14.934
11
35.9682
21
-14.9318
0
LINE
8
BLACK
6
CONTINUOUS
10
35.9682
20
-14.9318
11
35.974
21
-14.9284
0
LINE
8
BLACK
6
CONTINUOUS
10
35.974
20
-14.9284
11
35.9805
21
-14.9273
0
LINE
8
BLACK
6
CONTINUOUS
10
35.9805
20
-14.9273
11
35.9868
21
-14.925
0
LINE
8
BLACK
6
CONTINUOUS
10
35.9868
20
-14.925
11
35.9934
21
-14.925
0
LINE
8
BLACK
6
CONTINUOUS
10
35.9934
20
-14.925
11
35.9934
21
-14.925
0
LINE
8
BLACK
6
CONTINUOUS
10
35.9934
20
-14.925
11
56.0066
21
-14.925
0
LINE
8
BLACK
6
CONTINUOUS
10
56.0066
20
-14.925
11
56.0066
21
-14.925
0
LINE
8
BLACK
6
CONTINUOUS
10
56.0066
20
-14.925
11
56.0132
21
-14.925
0
LINE
8
BLACK
6
CONTINUOUS
10
56.0132
20
-14.925
11
56.0195
21
-14.9273
0
LINE
8
BLACK
6
CONTINUOUS
10
56.0195
20
-14.9273
11
56.026
21
-14.9284
0
LINE
8
BLACK
6
CONTINUOUS
10
56.026
20
-14.9284
11
56.0318
21
-14.9318
0
LINE
8
BLACK
6
CONTINUOUS
10
56.0318
20
-14.9318
11
56.0381
21
-14.934
0
LINE
8
BLACK
6
CONTINUOUS
10
56.0381
20
-14.934
11
56.0432
21
-14.9383
0
LINE
8
BLACK
6
CONTINUOUS
10
56.0432
20
-14.9383
11
56.049
21
-14.9417
0
LINE
8
BLACK
6
CONTINUOUS
10
56.049
20
-14.9417
11
56.0532
21
-14.9468
0
LINE
8
BLACK
6
CONTINUOUS
10
56.0532
20
-14.9468
11
56.0583
21
-14.951
0
LINE
8
BLACK
6
CONTINUOUS
10
56.0583
20
-14.951
11
56.0617
21
-14.9568
0
LINE
8
BLACK
6
CONTINUOUS
10
56.0617
20
-14.9568
11
56.066
21
-14.9619
0
LINE
8
BLACK
6
CONTINUOUS
10
56.066
20
-14.9619
11
56.0682
21
-14.9682
0
LINE
8
BLACK
6
CONTINUOUS
10
56.0682
20
-14.9682
11
56.0716
21
-14.974
0
LINE
8
BLACK
6
CONTINUOUS
10
56.0716
20
-14.974
11
56.0727
21
-14.9805
0
LINE
8
BLACK
6
CONTINUOUS
10
56.0727
20
-14.9805
11
56.075
21
-14.9868
0
LINE
8
BLACK
6
CONTINUOUS
10
56.075
20
-14.9868
11
56.075
21
-14.9934
0
LINE
8
BLACK
6
CONTINUOUS
10
56.075
20
-14.9934
11
56.075
21
-14.9934
0
LINE
8
BLACK
6
CONTINUOUS
10
56.075
20
-14.9934
11
56.075
21
-30.0066
0
LINE
8
BLACK
6
CONTINUOUS
10
56.075
20
-30.0066
11
56.075
21
-30.0066
0
LINE
8
BLACK
6
CONTINUOUS
10
56.075
20
-30.0066
11
56.075
21
-30.0132
0
LINE
8
BLACK
6
CONTINUOUS
10
56.075
20
-30.0132
11
56.0727
21
-30.0195
0
LINE
8
BLACK
6
CONTINUOUS
10
56.0727
20
-30.0195
11
56.0716
21
-30.026
0
LINE
8
BLACK
6
CONTINUOUS
10
56.0716
20
-30.026
11
56.0682
21
-30.0318
0
LINE
8
BLACK
6
CONTINUOUS
10
56.0682
20
-30.0318
11
56.066
21
-30.0381
0
LINE
8
BLACK
6
CONTINUOUS
10
56.066
20
-30.0381
11
56.0617
21
-30.0432
0
LINE
8
BLACK
6
CONTINUOUS
10
56.0617
20
-30.0432
11
56.0583
21
-30.049
0
LINE
8
BLACK
6
CONTINUOUS
10
56.0583
20
-30.049
11
56.0532
21
-30.0532
0
LINE
8
BLACK
6
CONTINUOUS
10
56.0532
20
-30.0532
11
56.049
21
-30.0583
0
LINE
8
BLACK
6
CONTINUOUS
10
56.049
20
-30.0583
11
56.0432
21
-30.0617
0
LINE
8
BLACK
6
CONTINUOUS
10
56.0432
20
-30.0617
11
56.0381
21
-30.066
0
LINE
8
BLACK
6
CONTINUOUS
10
56.0381
20
-30.066
11
56.0318
21
-30.0682
0
LINE
8
BLACK
6
CONTINUOUS
10
56.0318
20
-30.0682
11
56.026
21
-30.0716
0
LINE
8
BLACK
6
CONTINUOUS
10
56.026
20
-30.0716
11
56.0195
21
-30.0727
0
LINE
8
BLACK
6
CONTINUOUS
10
56.0195
20
-30.0727
11
56.0132
21
-30.075
0
LINE
8
BLACK
6
CONTINUOUS
10
56.0132
20
-30.075
11
56.0066
21
-30.075
0
LINE
8
BLACK
6
CONTINUOUS
10
56.0066
20
-30.075
11
56.0066
21
-30.075
0
LINE
8
BLACK
6
CONTINUOUS
10
56.0066
20
-30.075
11
36.075
21
-30.075
0
LINE
8
BLACK
6
CONTINUOUS
10
36.075
20
-30.075
11
36.075
21
-30.925
0
LINE
8
BLACK
6
CONTINUOUS
10
36.075
20
-30.925
11
56.0066
21
-30.925
0
LINE
8
BLACK
6
CONTINUOUS
10
56.0066
20
-30.925
11
56.0066
21
-30.925
0
LINE
8
BLACK
6
CONTINUOUS
10
56.0066
20
-30.925
11
56.0132
21
-30.925
0
LINE
8
BLACK
6
CONTINUOUS
10
56.0132
20
-30.925
11
56.0195
21
-30.9273
0
LINE
8
BLACK
6
CONTINUOUS
10
56.0195
20
-30.9273
11
56.026
21
-30.9284
0
LINE
8
BLACK
6
CONTINUOUS
10
56.026
20
-30.9284
11
56.0318
21
-30.9318
0
LINE
8
BLACK
6
CONTINUOUS
10
56.0318
20
-30.9318
11
56.0381
21
-30.934
0
LINE
8
BLACK
6
CONTINUOUS
10
56.0381
20
-30.934
11
56.0432
21
-30.9383
0
LINE
8
BLACK
6
CONTINUOUS
10
56.0432
20
-30.9383
11
56.049
21
-30.9417
0
LINE
8
BLACK
6
CONTINUOUS
10
56.049
20
-30.9417
11
56.0532
21
-30.9468
0
LINE
8
BLACK
6
CONTINUOUS
10
56.0532
20
-30.9468
11
56.0583
21
-30.951
0
LINE
8
BLACK
6
CONTINUOUS
10
56.0583
20
-30.951
11
56.0617
21
-30.9568
0
LINE
8
BLACK
6
CONTINUOUS
10
56.0617
20
-30.9568
11
56.066
21
-30.9619
0
LINE
8
BLACK
6
CONTINUOUS
10
56.066
20
-30.9619
11
56.0682
21
-30.9682
0
LINE
8
BLACK
6
CONTINUOUS
10
56.0682
20
-30.9682
11
56.0716
21
-30.974
0
LINE
8
BLACK
6
CONTINUOUS
10
56.0716
20
-30.974
11
56.0727
21
-30.9805
0
LINE
8
BLACK
6
CONTINUOUS
10
56.0727
20
-30.9805
11
56.075
21
-30.9868
0
LINE
8
BLACK
6
CONTINUOUS
10
56.075
20
-30.9868
11
56.075
21
-30.9934
0
LINE
8
BLACK
6
CONTINUOUS
10
56.075
20
-30.9934
11
56.075
21
-30.9934
0
LINE
8
BLACK
6
CONTINUOUS
10
56.075
20
-30.9934
11
56.075
21
-46.0066
0
LINE
8
BLACK
6
CONTINUOUS
10
56.075
20
-46.0066
11
56.075
21
-46.0066
0
LINE
8
BLACK
6
CONTINUOUS
10
56.075
20
-46.0066
11
56.075
21
-46.0132
0
LINE
8
BLACK
6
CONTINUOUS
10
56.075
20
-46.0132
11
56.0727
21
-46.0195
0
LINE
8
BLACK
6
CONTINUOUS
10
56.0727
20
-46.0195
11
56.0716
21
-46.026
0
LINE
8
BLACK
6
CONTINUOUS
10
56.0716
20
-46.026
11
56.0682
21
-46.0318
0
LINE
8
BLACK
6
CONTINUOUS
10
56.0682
20
-46.0318
11
56.066
21
-46.0381
0
LINE
8
BLACK
6
CONTINUOUS
10
56.066
20
-46.0381
11
56.0617
21
-46.0432
0
LINE
8
BLACK
6
CONTINUOUS
10
56.0617
20
-46.0432
11
56.0583
21
-46.049
0
LINE
8
BLACK
6
CONTINUOUS
10
56.0583
20
-46.049
11
56.0532
21
-46.0532
0
LINE
8
BLACK
6
CONTINUOUS
10
56.0532
20
-46.0532
11
56.049
21
-46.0583
0
LINE
8
BLACK
6
CONTINUOUS
10
56.049
20
-46.0583
11
56.0432
21
-46.0617
0
LINE
8
BLACK
6
CONTINUOUS
10
56.0432
20
-46.0617
11
56.0381
21
-46.066
0
LINE
8
BLACK
6
CONTINUOUS
10
56.0381
20
-46.066
11
56.0318
21
-46.0682
0
LINE
8
BLACK
6
CONTINUOUS
10
56.0318
20
-46.0682
11
56.026
21
-46.0716
0
LINE
8
BLACK
6
CONTINUOUS
10
56.026
20
-46.0716
11
56.0195
21
-46.0727
0
LINE
8
BLACK
6
CONTINUOUS
10
56.0195
20
-46.0727
11
56.0132
21
-46.075
0
LINE
8
BLACK
6
CONTINUOUS
10
56.0132
20
-46.075
11
56.0066
21
-46.075
0
LINE
8
BLACK
6
CONTINUOUS
10
56.0066
20
-46.075
11
56.0066
21
-46.075
0
LINE
8
BLACK
6
CONTINUOUS
10
56.0066
20
-46.075
11
35.9934
21
-46.075
0
LINE
8
BLACK
6
CONTINUOUS
10
35.9934
20
-46.075
11
35.9934
21
-46.075
0
LINE
8
BLACK
6
CONTINUOUS
10
35.9934
20
-46.075
11
35.9868
21
-46.075
0
LINE
8
BLACK
6
CONTINUOUS
10
35.9868
20
-46.075
11
35.9805
21
-46.0727
0
LINE
8
BLACK
6
CONTINUOUS
10
35.9805
20
-46.0727
11
35.974
21
-46.0716
0
LINE
8
BLACK
6
CONTINUOUS
10
35.974
20
-46.0716
11
35.9682
21
-46.0682
0
LINE
8
BLACK
6
CONTINUOUS
10
35.9682
20
-46.0682
11
35.9619
21
-46.066
0
LINE
8
BLACK
6
CONTINUOUS
10
35.9619
20
-46.066
11
35.9568
21
-46.0617
0
LINE
8
BLACK
6
CONTINUOUS
10
35.9568
20
-46.0617
11
35.951
21
-46.0583
0
LINE
8
BLACK
6
CONTINUOUS
10
35.951
20
-46.0583
11
35.9468
21
-46.0532
0
LINE
8
BLACK
6
CONTINUOUS
10
35.9468
20
-46.0532
11
35.9417
21
-46.049
0
LINE
8
BLACK
6
CONTINUOUS
10
35.9417
20
-46.049
11
35.9383
21
-46.0432
0
LINE
8
BLACK
6
CONTINUOUS
10
35.9383
20
-46.0432
11
35.934
21
-46.0381
0
LINE
8
BLACK
6
CONTINUOUS
10
35.934
20
-46.0381
11
35.9318
21
-46.0318
0
LINE
8
BLACK
6
CONTINUOUS
10
35.9318
20
-46.0318
11
35.9284
21
-46.026
0
LINE
8
BLACK
6
CONTINUOUS
10
35.9284
20
-46.026
11
35.9273
21
-46.0195
0
LINE
8
BLACK
6
CONTINUOUS
10
35.9273
20
-46.0195
11
35.925
21
-46.0132
0
LINE
8
BLACK
6
CONTINUOUS
10
35.925
20
-46.0132
11
35.925
21
-45.9868
0
LINE
8
BLACK
6
CONTINUOUS
10
35.925
20
-45.9868
11
35.925
21
-31.9934
0
LINE
8
BLACK
6
CONTINUOUS
10
35.925
20
-31.9934
11
35.925
21
-31.9934
0
LINE
8
BLACK
6
CONTINUOUS
10
35.925
20
-31.9934
11
35.925
21
-31.575
0
LINE
8
BLACK
6
CONTINUOUS
10
35.925
20
-31.575
11
35.075
21
-31.575
0
LINE
8
BLACK
6
CONTINUOUS
10
35.075
20
-31.575
11
35.075
21
-46.0066
0
LINE
8
BLACK
6
CONTINUOUS
10
35.075
20
-46.0066
11
35.075
21
-46.0066
0
LINE
8
BLACK
6
CONTINUOUS
10
35.075
20
-46.0066
11
35.075
21
-46.0132
0
LINE
8
BLACK
6
CONTINUOUS
10
35.075
20
-46.0132
11
35.0727
21
-46.0195
0
LINE
8
BLACK
6
CONTINUOUS
10
35.0727
20
-46.0195
11
35.0716
21
-46.026
0
LINE
8
BLACK
6
CONTINUOUS
10
35.0716
20
-46.026
11
35.0682
21
-46.0318
0
LINE
8
BLACK
6
CONTINUOUS
10
35.0682
20
-46.0318
11
35.066
21
-46.0381
0
LINE
8
BLACK
6
CONTINUOUS
10
35.066
20
-46.0381
11
35.0617
21
-46.0432
0
LINE
8
BLACK
6
CONTINUOUS
10
35.0617
20
-46.0432
11
35.0583
21
-46.049
0
LINE
8
BLACK
6
CONTINUOUS
10
35.0583
20
-46.049
11
35.0532
21
-46.0532
0
LINE
8
BLACK
6
CONTINUOUS
10
35.0532
20
-46.0532
11
35.049
21
-46.0583
0
LINE
8
BLACK
6
CONTINUOUS
10
35.049
20
-46.0583
11
35.0432
21
-46.0617
0
LINE
8
BLACK
6
CONTINUOUS
10
35.0432
20
-46.0617
11
35.0381
21
-46.066
0
LINE
8
BLACK
6
CONTINUOUS
10
35.0381
20
-46.066
11
35.0318
21
-46.0682
0
LINE
8
BLACK
6
CONTINUOUS
10
35.0318
20
-46.0682
11
35.026
21
-46.0716
0
LINE
8
BLACK
6
CONTINUOUS
10
35.026
20
-46.0716
11
35.0195
21
-46.0727
0
LINE
8
BLACK
6
CONTINUOUS
10
35.0195
20
-46.0727
11
35.0132
21
-46.075
0
LINE
8
BLACK
6
CONTINUOUS
10
35.0132
20
-46.075
11
35.0066
21
-46.075
0
LINE
8
BLACK
6
CONTINUOUS
10
35.0066
20
-46.075
11
35.0066
21
-46.075
0
LINE
8
BLACK
6
CONTINUOUS
10
35.0066
20
-46.075
11
14.9934
21
-46.075
0
LINE
8
BLACK
6
CONTINUOUS
10
14.9934
20
-46.075
11
14.9934
21
-46.075
0
LINE
8
BLACK
6
CONTINUOUS
10
14.9934
20
-46.075
11
14.9868
21
-46.075
0
LINE
8
BLACK
6
CONTINUOUS
10
14.9868
20
-46.075
11
14.9805
21
-46.0727
0
LINE
8
BLACK
6
CONTINUOUS
10
14.9805
20
-46.0727
11
14.974
21
-46.0716
0
LINE
8
BLACK
6
CONTINUOUS
10
14.974
20
-46.0716
11
14.9682
21
-46.0682
0
LINE
8
BLACK
6
CONTINUOUS
10
14.9682
20
-46.0682
11
14.9619
21
-46.066
0
LINE
8
BLACK
6
CONTINUOUS
10
14.9619
20
-46.066
11
14.9568
21
-46.0617
0
LINE
8
BLACK
6
CONTINUOUS
10
14.9568
20
-46.0617
11
14.951
21
-46.0583
0
LINE
8
BLACK
6
CONTINUOUS
10
14.951
20
-46.0583
11
14.9468
21
-46.0532
0
LINE
8
BLACK
6
CONTINUOUS
10
14.9468
20
-46.0532
11
14.9417
21
-46.049
0
LINE
8
BLACK
6
CONTINUOUS
10
14.9417
20
-46.049
11
14.9383
21
-46.0432
0
LINE
8
BLACK
6
CONTINUOUS
10
14.9383
20
-46.0432
11
14.934
21
-46.0381
0
LINE
8
BLACK
6
CONTINUOUS
10
14.934
20
-46.0381
11
14.9318
21
-46.0318
0
LINE
8
BLACK
6
CONTINUOUS
10
14.9318
20
-46.0318
11
14.9284
21
-46.026
0
LINE
8
BLACK
6
CONTINUOUS
10
14.9284
20
-46.026
11
14.9273
21
-46.0195
0
LINE
8
BLACK
6
CONTINUOUS
10
14.9273
20
-46.0195
11
14.925
21
-46.0132
0
LINE
8
BLACK
6
CONTINUOUS
10
14.925
20
-46.0132
11
14.925
21
-46.0066
0
LINE
8
BLACK
6
CONTINUOUS
10
14.925
20
-46.0066
11
14.925
21
-46.0066
0
LINE
8
BLACK
6
CONTINUOUS
10
14.925
20
-46.0066
11
14.925
21
-30.9934
0
LINE
8
BLACK
6
CONTINUOUS
10
14.925
20
-30.9934
11
14.925
21
-30.9868
0
LINE
8
BLACK
6
CONTINUOUS
10
14.925
20
-30.9868
11
14.9273
21
-30.9805
0
LINE
8
BLACK
6
CONTINUOUS
10
14.9273
20
-30.9805
11
14.9284
21
-30.974
0
LINE
8
BLACK
6
CONTINUOUS
10
14.9284
20
-30.974
11
14.9318
21
-30.9682
0
LINE
8
BLACK
6
CONTINUOUS
10
14.9318
20
-30.9682
11
14.934
21
-30.9619
0
LINE
8
BLACK
6
CONTINUOUS
10
14.934
20
-30.9619
11
14.9383
21
-30.9568
0
LINE
8
BLACK
6
CONTINUOUS
10
14.9383
20
-30.9568
11
14.9417
21
-30.951
0
LINE
8
BLACK
6
CONTINUOUS
10
14.9417
20
-30.951
11
14.9468
21
-30.9468
0
LINE
8
BLACK
6
CONTINUOUS
10
14.9468
20
-30.9468
11
14.951
21
-30.9417
0
LINE
8
BLACK
6
CONTINUOUS
10
14.951
20
-30.9417
11
14.9568
21
-30.9383
0
LINE
8
BLACK
6
CONTINUOUS
10
14.9568
20
-30.9383
11
14.9619
21
-30.934
0
LINE
8
BLACK
6
CONTINUOUS
10
14.9619
20
-30.934
11
14.9682
21
-30.9318
0
LINE
8
BLACK
6
CONTINUOUS
10
14.9682
20
-30.9318
11
14.974
21
-30.9284
0
LINE
8
BLACK
6
CONTINUOUS
10
14.974
20
-30.9284
11
14.9805
21
-30.9273
0
LINE
8
BLACK
6
CONTINUOUS
10
14.9805
20
-30.9273
11
14.9868
21
-30.925
0
LINE
8
BLACK
6
CONTINUOUS
10
14.9868
20
-30.925
11
14.9934
21
-30.925
0
LINE
8
BLACK
6
CONTINUOUS
10
14.9934
20
-30.925
11
14.9934
21
-30.925
0
LINE
8
BLACK
6
CONTINUOUS
10
14.9934
20
-30.925
11
34.925
21
-30.925
0
LINE
8
BLACK
6
CONTINUOUS
10
34.925
20
-30.925
11
34.925
21
-30.075
0
LINE
8
BLACK
6
CONTINUOUS
10
34.925
20
-30.075
11
14.9934
21
-30.075
0
LINE
8
BLACK
6
CONTINUOUS
10
14.9934
20
-30.075
11
14.9934
21
-30.075
0
LINE
8
BLACK
6
CONTINUOUS
10
14.9934
20
-30.075
11
14.9868
21
-30.075
0
LINE
8
BLACK
6
CONTINUOUS
10
14.9868
20
-30.075
11
14.9805
21
-30.0727
0
LINE
8
BLACK
6
CONTINUOUS
10
14.9805
20
-30.0727
11
14.974
21
-30.0716
0
LINE
8
BLACK
6
CONTINUOUS
10
14.974
20
-30.0716
11
14.9682
21
-30.0682
0
LINE
8
BLACK
6
CONTINUOUS
10
14.9682
20
-30.0682
11
14.9619
21
-30.066
0
LINE
8
BLACK
6
CONTINUOUS
10
14.9619
20
-30.066
11
14.9568
21
-30.0617
0
LINE
8
BLACK
6
CONTINUOUS
10
14.9568
20
-30.0617
11
14.951
21
-30.0583
0
LINE
8
BLACK
6
CONTINUOUS
10
14.951
20
-30.0583
11
14.9468
21
-30.0532
0
LINE
8
BLACK
6
CONTINUOUS
10
14.9468
20
-30.0532
11
14.9417
21
-30.049
0
LINE
8
BLACK
6
CONTINUOUS
10
14.9417
20
-30.049
11
14.9383
21
-30.0432
0
LINE
8
BLACK
6
CONTINUOUS
10
14.9383
20
-30.0432
11
14.934
21
-30.0381
0
LINE
8
BLACK
6
CONTINUOUS
10
14.934
20
-30.0381
11
14.9318
21
-30.0318
0
LINE
8
BLACK
6
CONTINUOUS
10
14.9318
20
-30.0318
11
14.9284
21
-30.026
0
LINE
8
BLACK
6
CONTINUOUS
10
14.9284
20
-30.026
11
14.9273
21
-30.0195
0
LINE
8
BLACK
6
CONTINUOUS
10
14.9273
20
-30.0195
11
14.925
21
-30.0132
0
LINE
8
BLACK
6
CONTINUOUS
10
14.925
20
-30.0132
11
14.925
21
-30.0066
0
LINE
8
BLACK
6
CONTINUOUS
10
14.925
20
-30.0066
11
14.925
21
-30.0066
0
LINE
8
BLACK
6
CONTINUOUS
10
14.925
20
-30.0066
11
14.925
21
-14.9934
0
LINE
8
BLACK
6
CONTINUOUS
10
14.925
20
-14.9934
11
14.925
21
-14.9868
0
LINE
8
BLACK
6
CONTINUOUS
10
14.925
20
-14.9868
11
14.9273
21
-14.9805
0
LINE
8
BLACK
6
CONTINUOUS
10
14.9273
20
-14.9805
11
14.9284
21
-14.974
0
LINE
8
BLACK
6
CONTINUOUS
10
14.9284
20
-14.974
11
14.9318
21
-14.9682
0
LINE
8
BLACK
6
CONTINUOUS
10
14.9318
20
-14.9682
11
14.934
21
-14.9619
0
LINE
8
BLACK
6
CONTINUOUS
10
14.934
20
-14.9619
11
14.9383
21
-14.9568
0
LINE
8
BLACK
6
CONTINUOUS
10
14.9383
20
-14.9568
11
14.9417
21
-14.951
0
LINE
8
BLACK
6
CONTINUOUS
10
14.9417
20
-14.951
11
14.9468
21
-14.9468
0
LINE
8
BLACK
6
CONTINUOUS
10
14.9468
20
-14.9468
11
14.951
21
-14.9417
0
LINE
8
BLACK
6
CONTINUOUS
10
14.951
20
-14.9417
11
14.9568
21
-14.9383
0
LINE
8
BLACK
6
CONTINUOUS
10
14.9568
20
-14.9383
11
14.9619
21
-14.934
0
LINE
8
BLACK
6
CONTINUOUS
10
14.9619
20
-14.934
11
14.9682
21
-14.9318
0
LINE
8
BLACK
6
CONTINUOUS
10
14.9682
20
-14.9318
11
14.974
21
-14.9284
0
LINE
8
BLACK
6
CONTINUOUS
10
14.974
20
-14.9284
11
14.9805
21
-14.9273
0
LINE
8
BLACK
6
CONTINUOUS
10
14.9805
20
-14.9273
11
14.9868
21
-14.925
0
LINE
8
BLACK
6
CONTINUOUS
10
14.9868
20
-14.925
11
14.9934
21
-14.925
0
LINE
8
BLACK
6
CONTINUOUS
10
14.9934
20
-14.925
11
14.9934
21
-14.925
0
LINE
8
BLACK
6
CONTINUOUS
10
14.9934
20
-14.925
11
35.0066
21
-14.925
0
LINE
8
BLACK
6
CONTINUOUS
10
35.0066
20
-14.925
11
35.0066
21
-14.925
0
LINE
8
BLACK
6
CONTINUOUS
10
35.0066
20
-14.925
11
35.0132
21
-14.925
0
LINE
8
BLACK
6
CONTINUOUS
10
35.0132
20
-14.925
11
35.0195
21
-14.9273
0
LINE
8
BLACK
6
CONTINUOUS
10
35.0195
20
-14.9273
11
35.026
21
-14.9284
0
LINE
8
BLACK
6
CONTINUOUS
10
35.026
20
-14.9284
11
35.0318
21
-14.9318
0
LINE
8
BLACK
6
CONTINUOUS
10
35.0318
20
-14.9318
11
35.0381
21
-14.934
0
LINE
8
BLACK
6
CONTINUOUS
10
35.0381
20
-14.934
11
35.0432
21
-14.9383
0
LINE
8
BLACK
6
CONTINUOUS
10
35.0432
20
-14.9383
11
35.049
21
-14.9417
0
LINE
8
BLACK
6
CONTINUOUS
10
35.049
20
-14.9417
11
35.0532
21
-14.9468
0
LINE
8
BLACK
6
CONTINUOUS
10
35.0532
20
-14.9468
11
35.0583
21
-14.951
0
LINE
8
BLACK
6
CONTINUOUS
10
35.0583
20
-14.951
11
35.0617
21
-14.9568
0
LINE
8
BLACK
6
CONTINUOUS
10
35.0617
20
-14.9568
11
35.066
21
-14.9619
0
LINE
8
BLACK
6
CONTINUOUS
10
35.066
20
-14.9619
11
35.0682
21
-14.9682
0
LINE
8
BLACK
6
CONTINUOUS
10
35.0682
20
-14.9682
11
35.0716
21
-14.974
0
LINE
8
BLACK
6
CONTINUOUS
10
35.0716
20
-14.974
11
35.0727
21
-14.9805
0
LINE
8
BLACK
6
CONTINUOUS
10
35.0727
20
-14.9805
11
35.075
21
-14.9868
0
LINE
8
BLACK
6
CONTINUOUS
10
35.075
20
-14.9868
11
35.075
21
-14.9934
0
LINE
8
BLACK
6
CONTINUOUS
10
35.075
20
-14.9934
11
35.075
21
-14.9934
0
LINE
8
BLACK
6
CONTINUOUS
10
35.075
20
-14.9934
11
35.075
21
-29.425
0
LINE
8
BLACK
6
CONTINUOUS
10
35.075
20
-29.425
11
35.925
21
-29.425
0
LINE
8
BLACK
6
CONTINUOUS
10
36.075
20
-29.5066
11
36.075
21
-29.5132
0
LINE
8
BLACK
6
CONTINUOUS
10
36.075
20
-29.5132
11
36.0727
21
-29.5195
0
LINE
8
BLACK
6
CONTINUOUS
10
36.0727
20
-29.5195
11
36.0716
21
-29.526
0
LINE
8
BLACK
6
CONTINUOUS
10
36.0716
20
-29.526
11
36.0682
21
-29.5318
0
LINE
8
BLACK
6
CONTINUOUS
10
36.0682
20
-29.5318
11
36.066
21
-29.5381
0
LINE
8
BLACK
6
CONTINUOUS
10
36.066
20
-29.5381
11
36.0617
21
-29.5432
0
LINE
8
BLACK
6
CONTINUOUS
10
36.0617
20
-29.5432
11
36.0583
21
-29.549
0
LINE
8
BLACK
6
CONTINUOUS
10
36.0583
20
-29.549
11
36.0532
21
-29.5532
0
LINE
8
BLACK
6
CONTINUOUS
10
36.0532
20
-29.5532
11
36.049
21
-29.5583
0
LINE
8
BLACK
6
CONTINUOUS
10
36.049
20
-29.5583
11
36.0432
21
-29.5617
0
LINE
8
BLACK
6
CONTINUOUS
10
36.0432
20
-29.5617
11
36.0381
21
-29.566
0
LINE
8
BLACK
6
CONTINUOUS
10
36.0381
20
-29.566
11
36.0318
21
-29.5682
0
LINE
8
BLACK
6
CONTINUOUS
10
36.0318
20
-29.5682
11
36.026
21
-29.5716
0
LINE
8
BLACK
6
CONTINUOUS
10
36.026
20
-29.5716
11
36.0195
21
-29.5727
0
LINE
8
BLACK
6
CONTINUOUS
10
36.0195
20
-29.5727
11
36.0132
21
-29.575
0
LINE
8
BLACK
6
CONTINUOUS
10
36.0132
20
-29.575
11
36.0066
21
-29.575
0
LINE
8
BLACK
6
CONTINUOUS
10
36.0066
20
-29.575
11
36.0066
21
-29.575
0
LINE
8
BLACK
6
CONTINUOUS
10
36.0066
20
-29.575
11
34.9934
21
-29.575
0
LINE
8
BLACK
6
CONTINUOUS
10
34.9934
20
-29.575
11
34.9934
21
-29.575
0
LINE
8
BLACK
6
CONTINUOUS
10
34.9934
20
-29.575
11
34.9868
21
-29.575
0
LINE
8
BLACK
6
CONTINUOUS
10
34.9868
20
-29.575
11
34.9805
21
-29.5727
0
LINE
8
BLACK
6
CONTINUOUS
10
34.9805
20
-29.5727
11
34.974
21
-29.5716
0
LINE
8
BLACK
6
CONTINUOUS
10
34.974
20
-29.5716
11
34.9682
21
-29.5682
0
LINE
8
BLACK
6
CONTINUOUS
10
34.9682
20
-29.5682
11
34.9619
21
-29.566
0
LINE
8
BLACK
6
CONTINUOUS
10
34.9619
20
-29.566
11
34.9568
21
-29.5617
0
LINE
8
BLACK
6
CONTINUOUS
10
34.9568
20
-29.5617
11
34.951
21
-29.5583
0
LINE
8
BLACK
6
CONTINUOUS
10
34.951
20
-29.5583
11
34.9468
21
-29.5532
0
LINE
8
BLACK
6
CONTINUOUS
10
34.9468
20
-29.5532
11
34.9417
21
-29.549
0
LINE
8
BLACK
6
CONTINUOUS
10
34.9417
20
-29.549
11
34.9383
21
-29.5432
0
LINE
8
BLACK
6
CONTINUOUS
10
34.9383
20
-29.5432
11
34.934
21
-29.5381
0
LINE
8
BLACK
6
CONTINUOUS
10
34.934
20
-29.5381
11
34.9318
21
-29.5318
0
LINE
8
BLACK
6
CONTINUOUS
10
34.9318
20
-29.5318
11
34.9284
21
-29.526
0
LINE
8
BLACK
6
CONTINUOUS
10
34.9284
20
-29.526
11
34.9273
21
-29.5195
0
LINE
8
BLACK
6
CONTINUOUS
10
34.9273
20
-29.5195
11
34.925
21
-29.5132
0
LINE
8
BLACK
6
CONTINUOUS
10
34.925
20
-29.5132
11
34.925
21
-29.4868
0
LINE
8
BLACK
6
CONTINUOUS
10
34.925
20
-29.4868
11
34.925
21
-28.9934
0
LINE
8
BLACK
6
CONTINUOUS
10
34.925
20
-28.9934
11
34.925
21
-28.9934
0
LINE
8
BLACK
6
CONTINUOUS
10
34.925
20
-28.9934
11
34.925
21
-15.075
0
LINE
8
BLACK
6
CONTINUOUS
10
34.925
20
-15.075
11
15.075
21
-15.075
0
LINE
8
BLACK
6
CONTINUOUS
10
15.075
20
-15.075
11
15.075
21
-29.925
0
LINE
8
BLACK
6
CONTINUOUS
10
15.075
20
-29.925
11
35.0066
21
-29.925
0
LINE
8
BLACK
6
CONTINUOUS
10
35.0066
20
-29.925
11
35.0066
21
-29.925
0
LINE
8
BLACK
6
CONTINUOUS
10
35.0066
20
-29.925
11
35.0132
21
-29.925
0
LINE
8
BLACK
6
CONTINUOUS
10
35.0132
20
-29.925
11
35.0195
21
-29.9273
0
LINE
8
BLACK
6
CONTINUOUS
10
35.0195
20
-29.9273
11
35.026
21
-29.9284
0
LINE
8
BLACK
6
CONTINUOUS
10
35.026
20
-29.9284
11
35.0318
21
-29.9318
0
LINE
8
BLACK
6
CONTINUOUS
10
35.0318
20
-29.9318
11
35.0381
21
-29.934
0
LINE
8
BLACK
6
CONTINUOUS
10
35.0381
20
-29.934
11
35.0432
21
-29.9383
0
LINE
8
BLACK
6
CONTINUOUS
10
35.0432
20
-29.9383
11
35.049
21
-29.9417
0
LINE
8
BLACK
6
CONTINUOUS
10
35.049
20
-29.9417
11
35.0532
21
-29.9468
0
LINE
8
BLACK
6
CONTINUOUS
10
35.0532
20
-29.9468
11
35.0583
21
-29.951
0
LINE
8
BLACK
6
CONTINUOUS
10
35.0583
20
-29.951
11
35.0617
21
-29.9568
0
LINE
8
BLACK
6
CONTINUOUS
10
35.0617
20
-29.9568
11
35.066
21
-29.9619
0
LINE
8
BLACK
6
CONTINUOUS
10
35.066
20
-29.9619
11
35.0682
21
-29.9682
0
LINE
8
BLACK
6
CONTINUOUS
10
35.0682
20
-29.9682
11
35.0716
21
-29.974
0
LINE
8
BLACK
6
CONTINUOUS
10
35.0716
20
-29.974
11
35.0727
21
-29.9805
0
LINE
8
BLACK
6
CONTINUOUS
10
35.0727
20
-29.9805
11
35.075
21
-29.9868
0
LINE
8
BLACK
6
CONTINUOUS
10
35.075
20
-29.9868
11
35.075
21
-29.9934
0
LINE
8
BLACK
6
CONTINUOUS
10
35.075
20
-29.9934
11
35.075
21
-29.9934
0
LINE
8
BLACK
6
CONTINUOUS
10
35.075
20
-29.9934
11
35.075
21
-31.0066
0
LINE
8
BLACK
6
CONTINUOUS
10
35.075
20
-31.0066
11
35.075
21
-31.0066
0
LINE
8
BLACK
6
CONTINUOUS
10
35.075
20
-31.0066
11
35.075
21
-31.0132
0
LINE
8
BLACK
6
CONTINUOUS
10
35.075
20
-31.0132
11
35.0727
21
-31.0195
0
LINE
8
BLACK
6
CONTINUOUS
10
35.0727
20
-31.0195
11
35.0716
21
-31.026
0
LINE
8
BLACK
6
CONTINUOUS
10
35.0716
20
-31.026
11
35.0682
21
-31.0318
0
LINE
8
BLACK
6
CONTINUOUS
10
35.0682
20
-31.0318
11
35.066
21
-31.0381
0
LINE
8
BLACK
6
CONTINUOUS
10
35.066
20
-31.0381
11
35.0617
21
-31.0432
0
LINE
8
BLACK
6
CONTINUOUS
10
35.0617
20
-31.0432
11
35.0583
21
-31.049
0
LINE
8
BLACK
6
CONTINUOUS
10
35.0583
20
-31.049
11
35.0532
21
-31.0532
0
LINE
8
BLACK
6
CONTINUOUS
10
35.0532
20
-31.0532
11
35.049
21
-31.0583
0
LINE
8
BLACK
6
CONTINUOUS
10
35.049
20
-31.0583
11
35.0432
21
-31.0617
0
LINE
8
BLACK
6
CONTINUOUS
10
35.0432
20
-31.0617
11
35.0381
21
-31.066
0
LINE
8
BLACK
6
CONTINUOUS
10
35.0381
20
-31.066
11
35.0318
21
-31.0682
0
LINE
8
BLACK
6
CONTINUOUS
10
35.0318
20
-31.0682
11
35.026
21
-31.0716
0
LINE
8
BLACK
6
CONTINUOUS
10
35.026
20
-31.0716
11
35.0195
21
-31.0727
0
LINE
8
BLACK
6
CONTINUOUS
10
35.0195
20
-31.0727
11
35.0132
21
-31.075
0
LINE
8
BLACK
6
CONTINUOUS
10
35.0132
20
-31.075
11
35.0066
21
-31.075
0
LINE
8
BLACK
6
CONTINUOUS
10
35.0066
20
-31.075
11
35.0066
21
-31.075
0
LINE
8
BLACK
6
CONTINUOUS
10
35.0066
20
-31.075
11
15.075
21
-31.075
0
LINE
8
BLACK
6
CONTINUOUS
10
15.075
20
-31.075
11
15.075
21
-45.925
0
LINE
8
BLACK
6
CONTINUOUS
10
15.075
20
-45.925
11
34.925
21
-45.925
0
LINE
8
BLACK
6
CONTINUOUS
10
34.925
20
-45.925
11
34.925
21
-31.9934
0
LINE
8
BLACK
6
CONTINUOUS
10
34.925
20
-31.9934
11
34.925
21
-31.9934
0
LINE
8
BLACK
6
CONTINUOUS
10
34.925
20
-31.9934
11
34.925
21
-31.4934
0
LINE
8
BLACK
6
CONTINUOUS
10
34.925
20
-31.4934
11
34.925
21
-31.4868
0
LINE
8
BLACK
6
CONTINUOUS
10
34.925
20
-31.4868
11
34.9273
21
-31.4805
0
LINE
8
BLACK
6
CONTINUOUS
10
34.9273
20
-31.4805
11
34.9284
21
-31.474
0
LINE
8
BLACK
6
CONTINUOUS
10
34.9284
20
-31.474
11
34.9318
21
-31.4682
0
LINE
8
BLACK
6
CONTINUOUS
10
34.9318
20
-31.4682
11
34.934
21
-31.4619
0
LINE
8
BLACK
6
CONTINUOUS
10
34.934
20
-31.4619
11
34.9383
21
-31.4568
0
LINE
8
BLACK
6
CONTINUOUS
10
34.9383
20
-31.4568
11
34.9417
21
-31.451
0
LINE
8
BLACK
6
CONTINUOUS
10
34.9417
20
-31.451
11
34.9468
21
-31.4468
0
LINE
8
BLACK
6
CONTINUOUS
10
34.9468
20
-31.4468
11
34.951
21
-31.4417
0
LINE
8
BLACK
6
CONTINUOUS
10
34.951
20
-31.4417
11
34.9568
21
-31.4383
0
LINE
8
BLACK
6
CONTINUOUS
10
34.9568
20
-31.4383
11
34.9619
21
-31.434
0
LINE
8
BLACK
6
CONTINUOUS
10
34.9619
20
-31.434
11
34.9682
21
-31.4318
0
LINE
8
BLACK
6
CONTINUOUS
10
34.9682
20
-31.4318
11
34.974
21
-31.4284
0
LINE
8
BLACK
6
CONTINUOUS
10
34.974
20
-31.4284
11
34.9805
21
-31.4273
0
LINE
8
BLACK
6
CONTINUOUS
10
34.9805
20
-31.4273
11
34.9868
21
-31.425
0
LINE
8
BLACK
6
CONTINUOUS
10
34.9868
20
-31.425
11
34.9934
21
-31.425
0
LINE
8
BLACK
6
CONTINUOUS
10
34.9934
20
-31.425
11
34.9934
21
-31.425
0
LINE
8
BLACK
6
CONTINUOUS
10
34.9934
20
-31.425
11
36.0066
21
-31.425
0
LINE
8
BLACK
6
CONTINUOUS
10
36.0066
20
-31.425
11
36.0066
21
-31.425
0
LINE
8
BLACK
6
CONTINUOUS
10
36.0066
20
-31.425
11
36.0132
21
-31.425
0
LINE
8
BLACK
6
CONTINUOUS
10
36.0132
20
-31.425
11
36.0195
21
-31.4273
0
LINE
8
BLACK
6
CONTINUOUS
10
36.0195
20
-31.4273
11
36.026
21
-31.4284
0
LINE
8
BLACK
6
CONTINUOUS
10
36.026
20
-31.4284
11
36.0318
21
-31.4318
0
LINE
8
BLACK
6
CONTINUOUS
10
36.0318
20
-31.4318
11
36.0381
21
-31.434
0
LINE
8
BLACK
6
CONTINUOUS
10
36.0381
20
-31.434
11
36.0432
21
-31.4383
0
LINE
8
BLACK
6
CONTINUOUS
10
36.0432
20
-31.4383
11
36.049
21
-31.4417
0
LINE
8
BLACK
6
CONTINUOUS
10
36.049
20
-31.4417
11
36.0532
21
-31.4468
0
LINE
8
BLACK
6
CONTINUOUS
10
36.0532
20
-31.4468
11
36.0583
21
-31.451
0
LINE
8
BLACK
6
CONTINUOUS
10
36.0583
20
-31.451
11
36.0617
21
-31.4568
0
LINE
8
BLACK
6
CONTINUOUS
10
36.0617
20
-31.4568
11
36.066
21
-31.4619
0
LINE
8
BLACK
6
CONTINUOUS
10
36.066
20
-31.4619
11
36.0682
21
-31.4682
0
LINE
8
BLACK
6
CONTINUOUS
10
36.0682
20
-31.4682
11
36.0716
21
-31.474
0
LINE
8
BLACK
6
CONTINUOUS
10
36.0716
20
-31.474
11
36.0727
21
-31.4805
0
LINE
8
BLACK
6
CONTINUOUS
10
36.0727
20
-31.4805
11
36.075
21
-31.4868
0
LINE
8
BLACK
6
CONTINUOUS
10
36.075
20
-31.4868
11
36.075
21
-31.4934
0
LINE
8
BLACK
6
CONTINUOUS
10
36.075
20
-31.4934
11
36.075
21
-31.4934
0
LINE
8
BLACK
6
CONTINUOUS
10
36.075
20
-31.4934
11
36.075
21
-45.925
0
LINE
8
BLACK
6
CONTINUOUS
10
36.075
20
-45.925
11
55.925
21
-45.925
0
LINE
8
BLACK
6
CONTINUOUS
10
55.925
20
-45.925
11
55.925
21
-31.075
0
LINE
8
BLACK
6
CONTINUOUS
10
55.925
20
-31.075
11
35.9934
21
-31.075
0
LINE
8
BLACK
6
CONTINUOUS
10
35.9934
20
-31.075
11
35.9934
21
-31.075
0
LINE
8
BLACK
6
CONTINUOUS
10
35.9934
20
-31.075
11
35.9868
21
-31.075
0
LINE
8
BLACK
6
CONTINUOUS
10
35.9868
20
-31.075
11
35.9805
21
-31.0727
0
LINE
8
BLACK
6
CONTINUOUS
10
35.9805
20
-31.0727
11
35.974
21
-31.0716
0
LINE
8
BLACK
6
CONTINUOUS
10
35.974
20
-31.0716
11
35.9682
21
-31.0682
0
LINE
8
BLACK
6
CONTINUOUS
10
35.9682
20
-31.0682
11
35.9619
21
-31.066
0
LINE
8
BLACK
6
CONTINUOUS
10
35.9619
20
-31.066
11
35.9568
21
-31.0617
0
LINE
8
BLACK
6
CONTINUOUS
10
35.9568
20
-31.0617
11
35.951
21
-31.0583
0
LINE
8
BLACK
6
CONTINUOUS
10
35.951
20
-31.0583
11
35.9468
21
-31.0532
0
LINE
8
BLACK
6
CONTINUOUS
10
35.9468
20
-31.0532
11
35.9417
21
-31.049
0
LINE
8
BLACK
6
CONTINUOUS
10
35.9417
20
-31.049
11
35.9383
21
-31.0432
0
LINE
8
BLACK
6
CONTINUOUS
10
35.9383
20
-31.0432
11
35.934
21
-31.0381
0
LINE
8
BLACK
6
CONTINUOUS
10
35.934
20
-31.0381
11
35.9318
21
-31.0318
0
LINE
8
BLACK
6
CONTINUOUS
10
35.9318
20
-31.0318
11
35.9284
21
-31.026
0
LINE
8
BLACK
6
CONTINUOUS
10
35.9284
20
-31.026
11
35.9273
21
-31.0195
0
LINE
8
BLACK
6
CONTINUOUS
10
35.9273
20
-31.0195
11
35.925
21
-31.0132
0
LINE
8
BLACK
6
CONTINUOUS
10
35.925
20
-31.0132
11
35.925
21
-30.9868
0
LINE
8
BLACK
6
CONTINUOUS
10
35.925
20
-30.9868
11
35.925
21
-29.9934
0
LINE
8
BLACK
6
CONTINUOUS
10
35.925
20
-29.9934
11
35.925
21
-29.9934
0
LINE
8
BLACK
6
CONTINUOUS
10
35.925
20
-29.9934
11
35.925
21
-29.9868
0
LINE
8
BLACK
6
CONTINUOUS
10
35.925
20
-29.9868
11
35.9273
21
-29.9805
0
LINE
8
BLACK
6
CONTINUOUS
10
35.9273
20
-29.9805
11
35.9284
21
-29.974
0
LINE
8
BLACK
6
CONTINUOUS
10
35.9284
20
-29.974
11
35.9318
21
-29.9682
0
LINE
8
BLACK
6
CONTINUOUS
10
35.9318
20
-29.9682
11
35.934
21
-29.9619
0
LINE
8
BLACK
6
CONTINUOUS
10
35.934
20
-29.9619
11
35.9383
21
-29.9568
0
LINE
8
BLACK
6
CONTINUOUS
10
35.9383
20
-29.9568
11
35.9417
21
-29.951
0
LINE
8
BLACK
6
CONTINUOUS
10
35.9417
20
-29.951
11
35.9468
21
-29.9468
0
LINE
8
BLACK
6
CONTINUOUS
10
35.9468
20
-29.9468
11
35.951
21
-29.9417
0
LINE
8
BLACK
6
CONTINUOUS
10
35.951
20
-29.9417
11
35.9568
21
-29.9383
0
LINE
8
BLACK
6
CONTINUOUS
10
35.9568
20
-29.9383
11
35.9619
21
-29.934
0
LINE
8
BLACK
6
CONTINUOUS
10
35.9619
20
-29.934
11
35.9682
21
-29.9318
0
LINE
8
BLACK
6
CONTINUOUS
10
35.9682
20
-29.9318
11
35.974
21
-29.9284
0
LINE
8
BLACK
6
CONTINUOUS
10
35.974
20
-29.9284
11
35.9805
21
-29.9273
0
LINE
8
BLACK
6
CONTINUOUS
10
35.9805
20
-29.9273
11
35.9868
21
-29.925
0
LINE
8
BLACK
6
CONTINUOUS
10
35.9868
20
-29.925
11
35.9934
21
-29.925
0
LINE
8
BLACK
6
CONTINUOUS
10
35.9934
20
-29.925
11
35.9934
21
-29.925
0
LINE
8
BLACK
6
CONTINUOUS
10
35.9934
20
-29.925
11
55.925
21
-29.925
0
LINE
8
BLACK
6
CONTINUOUS
10
55.925
20
-29.925
11
55.925
21
-15.075
0
LINE
8
BLACK
6
CONTINUOUS
10
55.925
20
-15.075
11
36.075
21
-15.075
0
LINE
8
BLACK
6
CONTINUOUS
10
36.075
20
-15.075
11
36.075
21
-29.5066
0
LINE
8
BLACK
6
CONTINUOUS
10
36.075
20
-29.5066
11
36.075
21
-29.5066
0
LINE
8
BLACK
6
CONTINUOUS
10
33.3388
20
-39.2039
11
33.0475
21
-39.4483
0
LINE
8
BLACK
6
CONTINUOUS
10
33.0475
20
-39.4483
11
32.6901
21
-39.5784
0
LINE
8
BLACK
6
CONTINUOUS
10
32.6901
20
-39.5784
11
32.3099
21
-39.5784
0
LINE
8
BLACK
6
CONTINUOUS
10
32.3099
20
-39.5784
11
31.9525
21
-39.4483
0
LINE
8
BLACK
6
CONTINUOUS
10
31.9525
20
-39.4483
11
31.6612
21
-39.2039
0
LINE
8
BLACK
6
CONTINUOUS
10
31.6612
20
-39.2039
11
31.471
21
-38.8745
0
LINE
8
BLACK
6
CONTINUOUS
10
31.471
20
-38.8745
11
31.405
21
-38.5
0
LINE
8
BLACK
6
CONTINUOUS
10
31.405
20
-38.5
11
31.471
21
-38.1255
0
LINE
8
BLACK
6
CONTINUOUS
10
31.471
20
-38.1255
11
31.6612
21
-37.7961
0
LINE
8
BLACK
6
CONTINUOUS
10
31.6612
20
-37.7961
11
31.9525
21
-37.5517
0
LINE
8
BLACK
6
CONTINUOUS
10
31.9525
20
-37.5517
11
32.3099
21
-37.4216
0
LINE
8
BLACK
6
CONTINUOUS
10
32.3099
20
-37.4216
11
32.6901
21
-37.4216
0
LINE
8
BLACK
6
CONTINUOUS
10
32.6901
20
-37.4216
11
33.0475
21
-37.5517
0
LINE
8
BLACK
6
CONTINUOUS
10
33.0475
20
-37.5517
11
33.3388
21
-37.7961
0
LINE
8
BLACK
6
CONTINUOUS
10
33.3388
20
-37.7961
11
33.529
21
-38.1255
0
LINE
8
BLACK
6
CONTINUOUS
10
33.529
20
-38.1255
11
33.595
21
-38.5
0
LINE
8
BLACK
6
CONTINUOUS
10
33.595
20
-38.5
11
33.529
21
-38.8745
0
LINE
8
BLACK
6
CONTINUOUS
10
33.529
20
-38.8745
11
33.3388
21
-39.2039
0
LINE
8
BLACK
6
CONTINUOUS
10
33.2086
20
-37.9054
11
32.9625
21
-37.6989
0
LINE
8
BLACK
6
CONTINUOUS
10
32.9625
20
-37.6989
11
32.6606
21
-37.5891
0
LINE
8
BLACK
6
CONTINUOUS
10
32.6606
20
-37.5891
11
32.3394
21
-37.5891
0
LINE
8
BLACK
6
CONTINUOUS
10
32.3394
20
-37.5891
11
32.0375
21
-37.6989
0
LINE
8
BLACK
6
CONTINUOUS
10
32.0375
20
-37.6989
11
31.7914
21
-37.9054
0
LINE
8
BLACK
6
CONTINUOUS
10
31.7914
20
-37.9054
11
31.6308
21
-38.1836
0
LINE
8
BLACK
6
CONTINUOUS
10
31.6308
20
-38.1836
11
31.575
21
-38.5
0
LINE
8
BLACK
6
CONTINUOUS
10
31.575
20
-38.5
11
31.6308
21
-38.8164
0
LINE
8
BLACK
6
CONTINUOUS
10
31.6308
20
-38.8164
11
31.7914
21
-39.0946
0
LINE
8
BLACK
6
CONTINUOUS
10
31.7914
20
-39.0946
11
32.0375
21
-39.3011
0
LINE
8
BLACK
6
CONTINUOUS
10
32.0375
20
-39.3011
11
32.3394
21
-39.4109
0
LINE
8
BLACK
6
CONTINUOUS
10
32.3394
20
-39.4109
11
32.6606
21
-39.4109
0
LINE
8
BLACK
6
CONTINUOUS
10
32.6606
20
-39.4109
11
32.9625
21
-39.3011
0
LINE
8
BLACK
6
CONTINUOUS
10
32.9625
20
-39.3011
11
33.2086
21
-39.0946
0
LINE
8
BLACK
6
CONTINUOUS
10
33.2086
20
-39.0946
11
33.3692
21
-38.8164
0
LINE
8
BLACK
6
CONTINUOUS
10
33.3692
20
-38.8164
11
33.425
21
-38.5
0
LINE
8
BLACK
6
CONTINUOUS
10
33.425
20
-38.5
11
33.3692
21
-38.1836
0
LINE
8
BLACK
6
CONTINUOUS
10
33.3692
20
-38.1836
11
33.2086
21
-37.9054
0
LINE
8
BLACK
6
CONTINUOUS
10
39.3388
20
-39.2039
11
39.0475
21
-39.4483
0
LINE
8
BLACK
6
CONTINUOUS
10
39.0475
20
-39.4483
11
38.6901
21
-39.5784
0
LINE
8
BLACK
6
CONTINUOUS
10
38.6901
20
-39.5784
11
38.3099
21
-39.5784
0
LINE
8
BLACK
6
CONTINUOUS
10
38.3099
20
-39.5784
11
37.9525
21
-39.4483
0
LINE
8
BLACK
6
CONTINUOUS
10
37.9525
20
-39.4483
11
37.6612
21
-39.2039
0
LINE
8
BLACK
6
CONTINUOUS
10
37.6612
20
-39.2039
11
37.471
21
-38.8745
0
LINE
8
BLACK
6
CONTINUOUS
10
37.471
20
-38.8745
11
37.405
21
-38.5
0
LINE
8
BLACK
6
CONTINUOUS
10
37.405
20
-38.5
11
37.471
21
-38.1255
0
LINE
8
BLACK
6
CONTINUOUS
10
37.471
20
-38.1255
11
37.6612
21
-37.7961
0
LINE
8
BLACK
6
CONTINUOUS
10
37.6612
20
-37.7961
11
37.9525
21
-37.5517
0
LINE
8
BLACK
6
CONTINUOUS
10
37.9525
20
-37.5517
11
38.3099
21
-37.4216
0
LINE
8
BLACK
6
CONTINUOUS
10
38.3099
20
-37.4216
11
38.6901
21
-37.4216
0
LINE
8
BLACK
6
CONTINUOUS
10
38.6901
20
-37.4216
11
39.0475
21
-37.5517
0
LINE
8
BLACK
6
CONTINUOUS
10
39.0475
20
-37.5517
11
39.3388
21
-37.7961
0
LINE
8
BLACK
6
CONTINUOUS
10
39.3388
20
-37.7961
11
39.529
21
-38.1255
0
LINE
8
BLACK
6
CONTINUOUS
10
39.529
20
-38.1255
11
39.595
21
-38.5
0
LINE
8
BLACK
6
CONTINUOUS
10
39.595
20
-38.5
11
39.529
21
-38.8745
0
LINE
8
BLACK
6
CONTINUOUS
10
39.529
20
-38.8745
11
39.3388
21
-39.2039
0
LINE
8
BLACK
6
CONTINUOUS
10
39.2086
20
-37.9054
11
38.9625
21
-37.6989
0
LINE
8
BLACK
6
CONTINUOUS
10
38.9625
20
-37.6989
11
38.6606
21
-37.5891
0
LINE
8
BLACK
6
CONTINUOUS
10
38.6606
20
-37.5891
11
38.3394
21
-37.5891
0
LINE
8
BLACK
6
CONTINUOUS
10
38.3394
20
-37.5891
11
38.0375
21
-37.6989
0
LINE
8
BLACK
6
CONTINUOUS
10
38.0375
20
-37.6989
11
37.7914
21
-37.9054
0
LINE
8
BLACK
6
CONTINUOUS
10
37.7914
20
-37.9054
11
37.6308
21
-38.1836
0
LINE
8
BLACK
6
CONTINUOUS
10
37.6308
20
-38.1836
11
37.575
21
-38.5
0
LINE
8
BLACK
6
CONTINUOUS
10
37.575
20
-38.5
11
37.6308
21
-38.8164
0
LINE
8
BLACK
6
CONTINUOUS
10
37.6308
20
-38.8164
11
37.7914
21
-39.0946
0
LINE
8
BLACK
6
CONTINUOUS
10
37.7914
20
-39.0946
11
38.0375
21
-39.3011
0
LINE
8
BLACK
6
CONTINUOUS
10
38.0375
20
-39.3011
11
38.3394
21
-39.4109
0
LINE
8
BLACK
6
CONTINUOUS
10
38.3394
20
-39.4109
11
38.6606
21
-39.4109
0
LINE
8
BLACK
6
CONTINUOUS
10
38.6606
20
-39.4109
11
38.9625
21
-39.3011
0
LINE
8
BLACK
6
CONTINUOUS
10
38.9625
20
-39.3011
11
39.2086
21
-39.0946
0
LINE
8
BLACK
6
CONTINUOUS
10
39.2086
20
-39.0946
11
39.3692
21
-38.8164
0
LINE
8
BLACK
6
CONTINUOUS
10
39.3692
20
-38.8164
11
39.425
21
-38.5
0
LINE
8
BLACK
6
CONTINUOUS
10
39.425
20
-38.5
11
39.3692
21
-38.1836
0
LINE
8
BLACK
6
CONTINUOUS
10
39.3692
20
-38.1836
11
39.2086
21
-37.9054
0
LINE
8
BLACK
6
CONTINUOUS
10
18.3388
20
-39.2039
11
18.0475
21
-39.4483
0
LINE
8
BLACK
6
CONTINUOUS
10
18.0475
20
-39.4483
11
17.6901
21
-39.5784
0
LINE
8
BLACK
6
CONTINUOUS
10
17.6901
20
-39.5784
11
17.3099
21
-39.5784
0
LINE
8
BLACK
6
CONTINUOUS
10
17.3099
20
-39.5784
11
16.9525
21
-39.4483
0
LINE
8
BLACK
6
CONTINUOUS
10
16.9525
20
-39.4483
11
16.6612
21
-39.2039
0
LINE
8
BLACK
6
CONTINUOUS
10
16.6612
20
-39.2039
11
16.471
21
-38.8745
0
LINE
8
BLACK
6
CONTINUOUS
10
16.471
20
-38.8745
11
16.405
21
-38.5
0
LINE
8
BLACK
6
CONTINUOUS
10
16.405
20
-38.5
11
16.471
21
-38.1255
0
LINE
8
BLACK
6
CONTINUOUS
10
16.471
20
-38.1255
11
16.6612
21
-37.7961
0
LINE
8
BLACK
6
CONTINUOUS
10
16.6612
20
-37.7961
11
16.9525
21
-37.5517
0
LINE
8
BLACK
6
CONTINUOUS
10
16.9525
20
-37.5517
11
17.3099
21
-37.4216
0
LINE
8
BLACK
6
CONTINUOUS
10
17.3099
20
-37.4216
11
17.6901
21
-37.4216
0
LINE
8
BLACK
6
CONTINUOUS
10
17.6901
20
-37.4216
11
18.0475
21
-37.5517
0
LINE
8
BLACK
6
CONTINUOUS
10
18.0475
20
-37.5517
11
18.3388
21
-37.7961
0
LINE
8
BLACK
6
CONTINUOUS
10
18.3388
20
-37.7961
11
18.529
21
-38.1255
0
LINE
8
BLACK
6
CONTINUOUS
10
18.529
20
-38.1255
11
18.595
21
-38.5
0
LINE
8
BLACK
6
CONTINUOUS
10
18.595
20
-38.5
11
18.529
21
-38.8745
0
LINE
8
BLACK
6
CONTINUOUS
10
18.529
20
-38.8745
11
18.3388
21
-39.2039
0
LINE
8
BLACK
6
CONTINUOUS
10
18.2086
20
-37.9054
11
17.9625
21
-37.6989
0
LINE
8
BLACK
6
CONTINUOUS
10
17.9625
20
-37.6989
11
17.6606
21
-37.5891
0
LINE
8
BLACK
6
CONTINUOUS
10
17.6606
20
-37.5891
11
17.3394
21
-37.5891
0
LINE
8
BLACK
6
CONTINUOUS
10
17.3394
20
-37.5891
11
17.0375
21
-37.6989
0
LINE
8
BLACK
6
CONTINUOUS
10
17.0375
20
-37.6989
11
16.7914
21
-37.9054
0
LINE
8
BLACK
6
CONTINUOUS
10
16.7914
20
-37.9054
11
16.6308
21
-38.1836
0
LINE
8
BLACK
6
CONTINUOUS
10
16.6308
20
-38.1836
11
16.575
21
-38.5
0
LINE
8
BLACK
6
CONTINUOUS
10
16.575
20
-38.5
11
16.6308
21
-38.8164
0
LINE
8
BLACK
6
CONTINUOUS
10
16.6308
20
-38.8164
11
16.7914
21
-39.0946
0
LINE
8
BLACK
6
CONTINUOUS
10
16.7914
20
-39.0946
11
17.0375
21
-39.3011
0
LINE
8
BLACK
6
CONTINUOUS
10
17.0375
20
-39.3011
11
17.3394
21
-39.4109
0
LINE
8
BLACK
6
CONTINUOUS
10
17.3394
20
-39.4109
11
17.6606
21
-39.4109
0
LINE
8
BLACK
6
CONTINUOUS
10
17.6606
20
-39.4109
11
17.9625
21
-39.3011
0
LINE
8
BLACK
6
CONTINUOUS
10
17.9625
20
-39.3011
11
18.2086
21
-39.0946
0
LINE
8
BLACK
6
CONTINUOUS
10
18.2086
20
-39.0946
11
18.3692
21
-38.8164
0
LINE
8
BLACK
6
CONTINUOUS
10
18.3692
20
-38.8164
11
18.425
21
-38.5
0
LINE
8
BLACK
6
CONTINUOUS
10
18.425
20
-38.5
11
18.3692
21
-38.1836
0
LINE
8
BLACK
6
CONTINUOUS
10
18.3692
20
-38.1836
11
18.2086
21
-37.9054
0
LINE
8
BLACK
6
CONTINUOUS
10
54.3388
20
-39.2039
11
54.0475
21
-39.4483
0
LINE
8
BLACK
6
CONTINUOUS
10
54.0475
20
-39.4483
11
53.6901
21
-39.5784
0
LINE
8
BLACK
6
CONTINUOUS
10
53.6901
20
-39.5784
11
53.3099
21
-39.5784
0
LINE
8
BLACK
6
CONTINUOUS
10
53.3099
20
-39.5784
11
52.9525
21
-39.4483
0
LINE
8
BLACK
6
CONTINUOUS
10
52.9525
20
-39.4483
11
52.6612
21
-39.2039
0
LINE
8
BLACK
6
CONTINUOUS
10
52.6612
20
-39.2039
11
52.471
21
-38.8745
0
LINE
8
BLACK
6
CONTINUOUS
10
52.471
20
-38.8745
11
52.405
21
-38.5
0
LINE
8
BLACK
6
CONTINUOUS
10
52.405
20
-38.5
11
52.471
21
-38.1255
0
LINE
8
BLACK
6
CONTINUOUS
10
52.471
20
-38.1255
11
52.6612
21
-37.7961
0
LINE
8
BLACK
6
CONTINUOUS
10
52.6612
20
-37.7961
11
52.9525
21
-37.5517
0
LINE
8
BLACK
6
CONTINUOUS
10
52.9525
20
-37.5517
11
53.3099
21
-37.4216
0
LINE
8
BLACK
6
CONTINUOUS
10
53.3099
20
-37.4216
11
53.6901
21
-37.4216
0
LINE
8
BLACK
6
CONTINUOUS
10
53.6901
20
-37.4216
11
54.0475
21
-37.5517
0
LINE
8
BLACK
6
CONTINUOUS
10
54.0475
20
-37.5517
11
54.3388
21
-37.7961
0
LINE
8
BLACK
6
CONTINUOUS
10
54.3388
20
-37.7961
11
54.529
21
-38.1255
0
LINE
8
BLACK
6
CONTINUOUS
10
54.529
20
-38.1255
11
54.595
21
-38.5
0
LINE
8
BLACK
6
CONTINUOUS
10
54.595
20
-38.5
11
54.529
21
-38.8745
0
LINE
8
BLACK
6
CONTINUOUS
10
54.529
20
-38.8745
11
54.3388
21
-39.2039
0
LINE
8
BLACK
6
CONTINUOUS
10
54.2086
20
-37.9054
11
53.9625
21
-37.6989
0
LINE
8
BLACK
6
CONTINUOUS
10
53.9625
20
-37.6989
11
53.6606
21
-37.5891
0
LINE
8
BLACK
6
CONTINUOUS
10
53.6606
20
-37.5891
11
53.3394
21
-37.5891
0
LINE
8
BLACK
6
CONTINUOUS
10
53.3394
20
-37.5891
11
53.0375
21
-37.6989
0
LINE
8
BLACK
6
CONTINUOUS
10
53.0375
20
-37.6989
11
52.7914
21
-37.9054
0
LINE
8
BLACK
6
CONTINUOUS
10
52.7914
20
-37.9054
11
52.6308
21
-38.1836
0
LINE
8
BLACK
6
CONTINUOUS
10
52.6308
20
-38.1836
11
52.575
21
-38.5
0
LINE
8
BLACK
6
CONTINUOUS
10
52.575
20
-38.5
11
52.6308
21
-38.8164
0
LINE
8
BLACK
6
CONTINUOUS
10
52.6308
20
-38.8164
11
52.7914
21
-39.0946
0
LINE
8
BLACK
6
CONTINUOUS
10
52.7914
20
-39.0946
11
53.0375
21
-39.3011
0
LINE
8
BLACK
6
CONTINUOUS
10
53.0375
20
-39.3011
11
53.3394
21
-39.4109
0
LINE
8
BLACK
6
CONTINUOUS
10
53.3394
20
-39.4109
11
53.6606
21
-39.4109
0
LINE
8
BLACK
6
CONTINUOUS
10
53.6606
20
-39.4109
11
53.9625
21
-39.3011
0
LINE
8
BLACK
6
CONTINUOUS
10
53.9625
20
-39.3011
11
54.2086
21
-39.0946
0
LINE
8
BLACK
6
CONTINUOUS
10
54.2086
20
-39.0946
11
54.3692
21
-38.8164
0
LINE
8
BLACK
6
CONTINUOUS
10
54.3692
20
-38.8164
11
54.425
21
-38.5
0
LINE
8
BLACK
6
CONTINUOUS
10
54.425
20
-38.5
11
54.3692
21
-38.1836
0
LINE
8
BLACK
6
CONTINUOUS
10
54.3692
20
-38.1836
11
54.2086
21
-37.9054
0
LINE
8
BLACK
6
CONTINUOUS
10
39.3388
20
-23.2039
11
39.0475
21
-23.4483
0
LINE
8
BLACK
6
CONTINUOUS
10
39.0475
20
-23.4483
11
38.6901
21
-23.5784
0
LINE
8
BLACK
6
CONTINUOUS
10
38.6901
20
-23.5784
11
38.3099
21
-23.5784
0
LINE
8
BLACK
6
CONTINUOUS
10
38.3099
20
-23.5784
11
37.9525
21
-23.4483
0
LINE
8
BLACK
6
CONTINUOUS
10
37.9525
20
-23.4483
11
37.6612
21
-23.2039
0
LINE
8
BLACK
6
CONTINUOUS
10
37.6612
20
-23.2039
11
37.471
21
-22.8745
0
LINE
8
BLACK
6
CONTINUOUS
10
37.471
20
-22.8745
11
37.405
21
-22.5
0
LINE
8
BLACK
6
CONTINUOUS
10
37.405
20
-22.5
11
37.471
21
-22.1255
0
LINE
8
BLACK
6
CONTINUOUS
10
37.471
20
-22.1255
11
37.6612
21
-21.7961
0
LINE
8
BLACK
6
CONTINUOUS
10
37.6612
20
-21.7961
11
37.9525
21
-21.5517
0
LINE
8
BLACK
6
CONTINUOUS
10
37.9525
20
-21.5517
11
38.3099
21
-21.4216
0
LINE
8
BLACK
6
CONTINUOUS
10
38.3099
20
-21.4216
11
38.6901
21
-21.4216
0
LINE
8
BLACK
6
CONTINUOUS
10
38.6901
20
-21.4216
11
39.0475
21
-21.5517
0
LINE
8
BLACK
6
CONTINUOUS
10
39.0475
20
-21.5517
11
39.3388
21
-21.7961
0
LINE
8
BLACK
6
CONTINUOUS
10
39.3388
20
-21.7961
11
39.529
21
-22.1255
0
LINE
8
BLACK
6
CONTINUOUS
10
39.529
20
-22.1255
11
39.595
21
-22.5
0
LINE
8
BLACK
6
CONTINUOUS
10
39.595
20
-22.5
11
39.529
21
-22.8745
0
LINE
8
BLACK
6
CONTINUOUS
10
39.529
20
-22.8745
11
39.3388
21
-23.2039
0
LINE
8
BLACK
6
CONTINUOUS
10
39.2086
20
-21.9054
11
38.9625
21
-21.6989
0
LINE
8
BLACK
6
CONTINUOUS
10
38.9625
20
-21.6989
11
38.6606
21
-21.5891
0
LINE
8
BLACK
6
CONTINUOUS
10
38.6606
20
-21.5891
11
38.3394
21
-21.5891
0
LINE
8
BLACK
6
CONTINUOUS
10
38.3394
20
-21.5891
11
38.0375
21
-21.6989
0
LINE
8
BLACK
6
CONTINUOUS
10
38.0375
20
-21.6989
11
37.7914
21
-21.9054
0
LINE
8
BLACK
6
CONTINUOUS
10
37.7914
20
-21.9054
11
37.6308
21
-22.1836
0
LINE
8
BLACK
6
CONTINUOUS
10
37.6308
20
-22.1836
11
37.575
21
-22.5
0
LINE
8
BLACK
6
CONTINUOUS
10
37.575
20
-22.5
11
37.6308
21
-22.8164
0
LINE
8
BLACK
6
CONTINUOUS
10
37.6308
20
-22.8164
11
37.7914
21
-23.0946
0
LINE
8
BLACK
6
CONTINUOUS
10
37.7914
20
-23.0946
11
38.0375
21
-23.3011
0
LINE
8
BLACK
6
CONTINUOUS
10
38.0375
20
-23.3011
11
38.3394
21
-23.4109
0
LINE
8
BLACK
6
CONTINUOUS
10
38.3394
20
-23.4109
11
38.6606
21
-23.4109
0
LINE
8
BLACK
6
CONTINUOUS
10
38.6606
20
-23.4109
11
38.9625
21
-23.3011
0
LINE
8
BLACK
6
CONTINUOUS
10
38.9625
20
-23.3011
11
39.2086
21
-23.0946
0
LINE
8
BLACK
6
CONTINUOUS
10
39.2086
20
-23.0946
11
39.3692
21
-22.8164
0
LINE
8
BLACK
6
CONTINUOUS
10
39.3692
20
-22.8164
11
39.425
21
-22.5
0
LINE
8
BLACK
6
CONTINUOUS
10
39.425
20
-22.5
11
39.3692
21
-22.1836
0
LINE
8
BLACK
6
CONTINUOUS
10
39.3692
20
-22.1836
11
39.2086
21
-21.9054
0
LINE
8
BLACK
6
CONTINUOUS
10
33.3388
20
-23.2039
11
33.0475
21
-23.4483
0
LINE
8
BLACK
6
CONTINUOUS
10
33.0475
20
-23.4483
11
32.6901
21
-23.5784
0
LINE
8
BLACK
6
CONTINUOUS
10
32.6901
20
-23.5784
11
32.3099
21
-23.5784
0
LINE
8
BLACK
6
CONTINUOUS
10
32.3099
20
-23.5784
11
31.9525
21
-23.4483
0
LINE
8
BLACK
6
CONTINUOUS
10
31.9525
20
-23.4483
11
31.6612
21
-23.2039
0
LINE
8
BLACK
6
CONTINUOUS
10
31.6612
20
-23.2039
11
31.471
21
-22.8745
0
LINE
8
BLACK
6
CONTINUOUS
10
31.471
20
-22.8745
11
31.405
21
-22.5
0
LINE
8
BLACK
6
CONTINUOUS
10
31.405
20
-22.5
11
31.471
21
-22.1255
0
LINE
8
BLACK
6
CONTINUOUS
10
31.471
20
-22.1255
11
31.6612
21
-21.7961
0
LINE
8
BLACK
6
CONTINUOUS
10
31.6612
20
-21.7961
11
31.9525
21
-21.5517
0
LINE
8
BLACK
6
CONTINUOUS
10
31.9525
20
-21.5517
11
32.3099
21
-21.4216
0
LINE
8
BLACK
6
CONTINUOUS
10
32.3099
20
-21.4216
11
32.6901
21
-21.4216
0
LINE
8
BLACK
6
CONTINUOUS
10
32.6901
20
-21.4216
11
33.0475
21
-21.5517
0
LINE
8
BLACK
6
CONTINUOUS
10
33.0475
20
-21.5517
11
33.3388
21
-21.7961
0
LINE
8
BLACK
6
CONTINUOUS
10
33.3388
20
-21.7961
11
33.529
21
-22.1255
0
LINE
8
BLACK
6
CONTINUOUS
10
33.529
20
-22.1255
11
33.595
21
-22.5
0
LINE
8
BLACK
6
CONTINUOUS
10
33.595
20
-22.5
11
33.529
21
-22.8745
0
LINE
8
BLACK
6
CONTINUOUS
10
33.529
20
-22.8745
11
33.3388
21
-23.2039
0
LINE
8
BLACK
6
CONTINUOUS
10
33.2086
20
-21.9054
11
32.9625
21
-21.6989
0
LINE
8
BLACK
6
CONTINUOUS
10
32.9625
20
-21.6989
11
32.6606
21
-21.5891
0
LINE
8
BLACK
6
CONTINUOUS
10
32.6606
20
-21.5891
11
32.3394
21
-21.5891
0
LINE
8
BLACK
6
CONTINUOUS
10
32.3394
20
-21.5891
11
32.0375
21
-21.6989
0
LINE
8
BLACK
6
CONTINUOUS
10
32.0375
20
-21.6989
11
31.7914
21
-21.9054
0
LINE
8
BLACK
6
CONTINUOUS
10
31.7914
20
-21.9054
11
31.6308
21
-22.1836
0
LINE
8
BLACK
6
CONTINUOUS
10
31.6308
20
-22.1836
11
31.575
21
-22.5
0
LINE
8
BLACK
6
CONTINUOUS
10
31.575
20
-22.5
11
31.6308
21
-22.8164
0
LINE
8
BLACK
6
CONTINUOUS
10
31.6308
20
-22.8164
11
31.7914
21
-23.0946
0
LINE
8
BLACK
6
CONTINUOUS
10
31.7914
20
-23.0946
11
32.0375
21
-23.3011
0
LINE
8
BLACK
6
CONTINUOUS
10
32.0375
20
-23.3011
11
32.3394
21
-23.4109
0
LINE
8
BLACK
6
CONTINUOUS
10
32.3394
20
-23.4109
11
32.6606
21
-23.4109
0
LINE
8
BLACK
6
CONTINUOUS
10
32.6606
20
-23.4109
11
32.9625
21
-23.3011
0
LINE
8
BLACK
6
CONTINUOUS
10
32.9625
20
-23.3011
11
33.2086
21
-23.0946
0
LINE
8
BLACK
6
CONTINUOUS
10
33.2086
20
-23.0946
11
33.3692
21
-22.8164
0
LINE
8
BLACK
6
CONTINUOUS
10
33.3692
20
-22.8164
11
33.425
21
-22.5
0
LINE
8
BLACK
6
CONTINUOUS
10
33.425
20
-22.5
11
33.3692
21
-22.1836
0
LINE
8
BLACK
6
CONTINUOUS
10
33.3692
20
-22.1836
11
33.2086
21
-21.9054
0
LINE
8
BLACK
6
CONTINUOUS
10
54.3388
20
-23.2039
11
54.0475
21
-23.4483
0
LINE
8
BLACK
6
CONTINUOUS
10
54.0475
20
-23.4483
11
53.6901
21
-23.5784
0
LINE
8
BLACK
6
CONTINUOUS
10
53.6901
20
-23.5784
11
53.3099
21
-23.5784
0
LINE
8
BLACK
6
CONTINUOUS
10
53.3099
20
-23.5784
11
52.9525
21
-23.4483
0
LINE
8
BLACK
6
CONTINUOUS
10
52.9525
20
-23.4483
11
52.6612
21
-23.2039
0
LINE
8
BLACK
6
CONTINUOUS
10
52.6612
20
-23.2039
11
52.471
21
-22.8745
0
LINE
8
BLACK
6
CONTINUOUS
10
52.471
20
-22.8745
11
52.405
21
-22.5
0
LINE
8
BLACK
6
CONTINUOUS
10
52.405
20
-22.5
11
52.471
21
-22.1255
0
LINE
8
BLACK
6
CONTINUOUS
10
52.471
20
-22.1255
11
52.6612
21
-21.7961
0
LINE
8
BLACK
6
CONTINUOUS
10
52.6612
20
-21.7961
11
52.9525
21
-21.5517
0
LINE
8
BLACK
6
CONTINUOUS
10
52.9525
20
-21.5517
11
53.3099
21
-21.4216
0
LINE
8
BLACK
6
CONTINUOUS
10
53.3099
20
-21.4216
11
53.6901
21
-21.4216
0
LINE
8
BLACK
6
CONTINUOUS
10
53.6901
20
-21.4216
11
54.0475
21
-21.5517
0
LINE
8
BLACK
6
CONTINUOUS
10
54.0475
20
-21.5517
11
54.3388
21
-21.7961
0
LINE
8
BLACK
6
CONTINUOUS
10
54.3388
20
-21.7961
11
54.529
21
-22.1255
0
LINE
8
BLACK
6
CONTINUOUS
10
54.529
20
-22.1255
11
54.595
21
-22.5
0
LINE
8
BLACK
6
CONTINUOUS
10
54.595
20
-22.5
11
54.529
21
-22.8745
0
LINE
8
BLACK
6
CONTINUOUS
10
54.529
20
-22.8745
11
54.3388
21
-23.2039
0
LINE
8
BLACK
6
CONTINUOUS
10
54.2086
20
-21.9054
11
53.9625
21
-21.6989
0
LINE
8
BLACK
6
CONTINUOUS
10
53.9625
20
-21.6989
11
53.6606
21
-21.5891
0
LINE
8
BLACK
6
CONTINUOUS
10
53.6606
20
-21.5891
11
53.3394
21
-21.5891
0
LINE
8
BLACK
6
CONTINUOUS
10
53.3394
20
-21.5891
11
53.0375
21
-21.6989
0
LINE
8
BLACK
6
CONTINUOUS
10
53.0375
20
-21.6989
11
52.7914
21
-21.9054
0
LINE
8
BLACK
6
CONTINUOUS
10
52.7914
20
-21.9054
11
52.6308
21
-22.1836
0
LINE
8
BLACK
6
CONTINUOUS
10
52.6308
20
-22.1836
11
52.575
21
-22.5
0
LINE
8
BLACK
6
CONTINUOUS
10
52.575
20
-22.5
11
52.6308
21
-22.8164
0
LINE
8
BLACK
6
CONTINUOUS
10
52.6308
20
-22.8164
11
52.7914
21
-23.0946
0
LINE
8
BLACK
6
CONTINUOUS
10
52.7914
20
-23.0946
11
53.0375
21
-23.3011
0
LINE
8
BLACK
6
CONTINUOUS
10
53.0375
20
-23.3011
11
53.3394
21
-23.4109
0
LINE
8
BLACK
6
CONTINUOUS
10
53.3394
20
-23.4109
11
53.6606
21
-23.4109
0
LINE
8
BLACK
6
CONTINUOUS
10
53.6606
20
-23.4109
11
53.9625
21
-23.3011
0
LINE
8
BLACK
6
CONTINUOUS
10
53.9625
20
-23.3011
11
54.2086
21
-23.0946
0
LINE
8
BLACK
6
CONTINUOUS
10
54.2086
20
-23.0946
11
54.3692
21
-22.8164
0
LINE
8
BLACK
6
CONTINUOUS
10
54.3692
20
-22.8164
11
54.425
21
-22.5
0
LINE
8
BLACK
6
CONTINUOUS
10
54.425
20
-22.5
11
54.3692
21
-22.1836
0
LINE
8
BLACK
6
CONTINUOUS
10
54.3692
20
-22.1836
11
54.2086
21
-21.9054
0
LINE
8
BLACK
6
CONTINUOUS
10
18.3388
20
-23.2039
11
18.0475
21
-23.4483
0
LINE
8
BLACK
6
CONTINUOUS
10
18.0475
20
-23.4483
11
17.6901
21
-23.5784
0
LINE
8
BLACK
6
CONTINUOUS
10
17.6901
20
-23.5784
11
17.3099
21
-23.5784
0
LINE
8
BLACK
6
CONTINUOUS
10
17.3099
20
-23.5784
11
16.9525
21
-23.4483
0
LINE
8
BLACK
6
CONTINUOUS
10
16.9525
20
-23.4483
11
16.6612
21
-23.2039
0
LINE
8
BLACK
6
CONTINUOUS
10
16.6612
20
-23.2039
11
16.471
21
-22.8745
0
LINE
8
BLACK
6
CONTINUOUS
10
16.471
20
-22.8745
11
16.405
21
-22.5
0
LINE
8
BLACK
6
CONTINUOUS
10
16.405
20
-22.5
11
16.471
21
-22.1255
0
LINE
8
BLACK
6
CONTINUOUS
10
16.471
20
-22.1255
11
16.6612
21
-21.7961
0
LINE
8
BLACK
6
CONTINUOUS
10
16.6612
20
-21.7961
11
16.9525
21
-21.5517
0
LINE
8
BLACK
6
CONTINUOUS
10
16.9525
20
-21.5517
11
17.3099
21
-21.4216
0
LINE
8
BLACK
6
CONTINUOUS
10
17.3099
20
-21.4216
11
17.6901
21
-21.4216
0
LINE
8
BLACK
6
CONTINUOUS
10
17.6901
20
-21.4216
11
18.0475
21
-21.5517
0
LINE
8
BLACK
6
CONTINUOUS
10
18.0475
20
-21.5517
11
18.3388
21
-21.7961
0
LINE
8
BLACK
6
CONTINUOUS
10
18.3388
20
-21.7961
11
18.529
21
-22.1255
0
LINE
8
BLACK
6
CONTINUOUS
10
18.529
20
-22.1255
11
18.595
21
-22.5
0
LINE
8
BLACK
6
CONTINUOUS
10
18.595
20
-22.5
11
18.529
21
-22.8745
0
LINE
8
BLACK
6
CONTINUOUS
10
18.529
20
-22.8745
11
18.3388
21
-23.2039
0
LINE
8
BLACK
6
CONTINUOUS
10
18.2086
20
-21.9054
11
17.9625
21
-21.6989
0
LINE
8
BLACK
6
CONTINUOUS
10
17.9625
20
-21.6989
11
17.6606
21
-21.5891
0
LINE
8
BLACK
6
CONTINUOUS
10
17.6606
20
-21.5891
11
17.3394
21
-21.5891
0
LINE
8
BLACK
6
CONTINUOUS
10
17.3394
20
-21.5891
11
17.0375
21
-21.6989
0
LINE
8
BLACK
6
CONTINUOUS
10
17.0375
20
-21.6989
11
16.7914
21
-21.9054
0
LINE
8
BLACK
6
CONTINUOUS
10
16.7914
20
-21.9054
11
16.6308
21
-22.1836
0
LINE
8
BLACK
6
CONTINUOUS
10
16.6308
20
-22.1836
11
16.575
21
-22.5
0
LINE
8
BLACK
6
CONTINUOUS
10
16.575
20
-22.5
11
16.6308
21
-22.8164
0
LINE
8
BLACK
6
CONTINUOUS
10
16.6308
20
-22.8164
11
16.7914
21
-23.0946
0
LINE
8
BLACK
6
CONTINUOUS
10
16.7914
20
-23.0946
11
17.0375
21
-23.3011
0
LINE
8
BLACK
6
CONTINUOUS
10
17.0375
20
-23.3011
11
17.3394
21
-23.4109
0
LINE
8
BLACK
6
CONTINUOUS
10
17.3394
20
-23.4109
11
17.6606
21
-23.4109
0
LINE
8
BLACK
6
CONTINUOUS
10
17.6606
20
-23.4109
11
17.9625
21
-23.3011
0
LINE
8
BLACK
6
CONTINUOUS
10
17.9625
20
-23.3011
11
18.2086
21
-23.0946
0
LINE
8
BLACK
6
CONTINUOUS
10
18.2086
20
-23.0946
11
18.3692
21
-22.8164
0
LINE
8
BLACK
6
CONTINUOUS
10
18.3692
20
-22.8164
11
18.425
21
-22.5
0
LINE
8
BLACK
6
CONTINUOUS
10
18.425
20
-22.5
11
18.3692
21
-22.1836
0
LINE
8
BLACK
6
CONTINUOUS
10
18.3692
20
-22.1836
11
18.2086
21
-21.9054
  0
ENDSEC
  0
EOF
