  0
SECTION
  2
HEADER
  9
$ANGBASE
  50
0.0
  9
$ANGDIR
  70
  1
  9
$MEASUREMENT
  70
0
  0
ENDSEC
  0
SECTION
  2
TABLES
  0
TABLE
  2
LTYPE
  70
4
  0
LTYPE
  5
40F
  2
CONTINUOUS
  70
0
  3
Solid line
  72
65
  73
0
  40
0.0
  0
LTYPE
  5
410
  2
DASHDOT
 70
0
  3
Dash Dot ____ _ ____ _
 72
65
 73
4
 40
2.0
 49
1.25
 49
-0.25
 49
0.25
 49
-0.25
  0
LTYPE
  5
411
  2
DASHED
 70
0
  3
Dashed __ __ __ __ __
 72
65
 73
2
 40
0.75
 49
0.5
 49
-0.25
  0
LTYPE
  5
43B
  2
DOTTED
 70
0
  3
Dotted .  .  .  .
 72
65
 73
2
 40
0.2
 49
0.0
 49
-0.2
  0
ENDTAB
  0
TABLE
  2
STYLE
  70
4
  0
STYLE
  2
KICAD
  70
0
  40
0
  41
1
  42
1
  50
0
  71
0
  3
isocp.shx
  0
STYLE
  2
KICADB
  70
0
  40
0
  41
1
  42
1
  50
0
  71
0
  3
isocp.shx
  0
STYLE
  2
KICADI
  70
0
  40
0
  41
1
  42
1
  50
15
  71
0
  3
isocp.shx
  0
STYLE
  2
KICADBI
  70
0
  40
0
  41
1
  42
1
  50
15
  71
0
  3
isocp.shx
  0
ENDTAB
  0
TABLE
  2
LAYER
  70
30
  0
LAYER
  2
BLACK
  70
0
  62
7
  6
CONTINUOUS
  0
LAYER
  2
GRAY1
  70
0
  62
251
  6
CONTINUOUS
  0
LAYER
  2
GRAY2
  70
0
  62
8
  6
CONTINUOUS
  0
LAYER
  2
GRAY3
  70
0
  62
9
  6
CONTINUOUS
  0
LAYER
  2
WHITE
  70
0
  62
7
  6
CONTINUOUS
  0
LAYER
  2
LYELLOW
  70
0
  62
51
  6
CONTINUOUS
  0
LAYER
  2
BLUE1
  70
0
  62
178
  6
CONTINUOUS
  0
LAYER
  2
GREEN1
  70
0
  62
98
  6
CONTINUOUS
  0
LAYER
  2
CYAN1
  70
0
  62
138
  6
CONTINUOUS
  0
LAYER
  2
RED1
  70
0
  62
18
  6
CONTINUOUS
  0
LAYER
  2
MAGENTA1
  70
0
  62
228
  6
CONTINUOUS
  0
LAYER
  2
BROWN1
  70
0
  62
58
  6
CONTINUOUS
  0
LAYER
  2
BLUE2
  70
0
  62
5
  6
CONTINUOUS
  0
LAYER
  2
GREEN2
  70
0
  62
3
  6
CONTINUOUS
  0
LAYER
  2
CYAN2
  70
0
  62
4
  6
CONTINUOUS
  0
LAYER
  2
RED2
  70
0
  62
1
  6
CONTINUOUS
  0
LAYER
  2
MAGENTA2
  70
0
  62
6
  6
CONTINUOUS
  0
LAYER
  2
BROWN2
  70
0
  62
54
  6
CONTINUOUS
  0
LAYER
  2
BLUE3
  70
0
  62
171
  6
CONTINUOUS
  0
LAYER
  2
GREEN3
  70
0
  62
91
  6
CONTINUOUS
  0
LAYER
  2
CYAN3
  70
0
  62
131
  6
CONTINUOUS
  0
LAYER
  2
RED3
  70
0
  62
11
  6
CONTINUOUS
  0
LAYER
  2
MAGENTA3
  70
0
  62
221
  6
CONTINUOUS
  0
LAYER
  2
YELLOW3
  70
0
  62
2
  6
CONTINUOUS
  0
LAYER
  2
BLUE4
  70
0
  62
5
  6
CONTINUOUS
  0
LAYER
  2
GREEN4
  70
0
  62
3
  6
CONTINUOUS
  0
LAYER
  2
CYAN4
  70
0
  62
4
  6
CONTINUOUS
  0
LAYER
  2
RED4
  70
0
  62
1
  6
CONTINUOUS
  0
LAYER
  2
MAGENTA4
  70
0
  62
6
  6
CONTINUOUS
  0
LAYER
  2
YELLOW4
  70
0
  62
2
  6
CONTINUOUS
  0
ENDTAB
  0
ENDSEC
  0
SECTION
  2
ENTITIES
0
LINE
8
BLACK
6
CONTINUOUS
10
23.4
20
-40.63
11
23.1
21
-40.63
0
LINE
8
BLACK
6
CONTINUOUS
10
23.1
20
-40.63
11
23.1
21
-39.48
0
LINE
8
BLACK
6
CONTINUOUS
10
23.1
20
-39.48
11
23.4
21
-39.48
0
LINE
8
BLACK
6
CONTINUOUS
10
23.4
20
-39.48
11
23.4
21
-40.63
0
LINE
8
BLACK
6
CONTINUOUS
10
24.9
20
-40.63
11
24.6
21
-40.63
0
LINE
8
BLACK
6
CONTINUOUS
10
24.6
20
-40.63
11
24.6
21
-39.48
0
LINE
8
BLACK
6
CONTINUOUS
10
24.6
20
-39.48
11
24.9
21
-39.48
0
LINE
8
BLACK
6
CONTINUOUS
10
24.9
20
-39.48
11
24.9
21
-40.63
0
LINE
8
BLACK
6
CONTINUOUS
10
28.5
20
-40.63
11
27.9
21
-40.63
0
LINE
8
BLACK
6
CONTINUOUS
10
27.9
20
-40.63
11
27.9
21
-39.48
0
LINE
8
BLACK
6
CONTINUOUS
10
27.9
20
-39.48
11
28.5
21
-39.48
0
LINE
8
BLACK
6
CONTINUOUS
10
28.5
20
-39.48
11
28.5
21
-40.63
0
LINE
8
BLACK
6
CONTINUOUS
10
27.7
20
-40.63
11
27.1
21
-40.63
0
LINE
8
BLACK
6
CONTINUOUS
10
27.1
20
-40.63
11
27.1
21
-39.48
0
LINE
8
BLACK
6
CONTINUOUS
10
27.1
20
-39.48
11
27.7
21
-39.48
0
LINE
8
BLACK
6
CONTINUOUS
10
27.7
20
-39.48
11
27.7
21
-40.63
0
LINE
8
BLACK
6
CONTINUOUS
10
22.9
20
-40.63
11
22.3
21
-40.63
0
LINE
8
BLACK
6
CONTINUOUS
10
22.3
20
-40.63
11
22.3
21
-39.48
0
LINE
8
BLACK
6
CONTINUOUS
10
22.3
20
-39.48
11
22.9
21
-39.48
0
LINE
8
BLACK
6
CONTINUOUS
10
22.9
20
-39.48
11
22.9
21
-40.63
0
LINE
8
BLACK
6
CONTINUOUS
10
22.1
20
-40.63
11
21.5
21
-40.63
0
LINE
8
BLACK
6
CONTINUOUS
10
21.5
20
-40.63
11
21.5
21
-39.48
0
LINE
8
BLACK
6
CONTINUOUS
10
21.5
20
-39.48
11
22.1
21
-39.48
0
LINE
8
BLACK
6
CONTINUOUS
10
22.1
20
-39.48
11
22.1
21
-40.63
0
LINE
8
BLACK
6
CONTINUOUS
10
25.4
20
-40.63
11
25.1
21
-40.63
0
LINE
8
BLACK
6
CONTINUOUS
10
25.1
20
-40.63
11
25.1
21
-39.48
0
LINE
8
BLACK
6
CONTINUOUS
10
25.1
20
-39.48
11
25.4
21
-39.48
0
LINE
8
BLACK
6
CONTINUOUS
10
25.4
20
-39.48
11
25.4
21
-40.63
0
LINE
8
BLACK
6
CONTINUOUS
10
25.9
20
-40.63
11
25.6
21
-40.63
0
LINE
8
BLACK
6
CONTINUOUS
10
25.6
20
-40.63
11
25.6
21
-39.48
0
LINE
8
BLACK
6
CONTINUOUS
10
25.6
20
-39.48
11
25.9
21
-39.48
0
LINE
8
BLACK
6
CONTINUOUS
10
25.9
20
-39.48
11
25.9
21
-40.63
0
LINE
8
BLACK
6
CONTINUOUS
10
26.4
20
-40.63
11
26.1
21
-40.63
0
LINE
8
BLACK
6
CONTINUOUS
10
26.1
20
-40.63
11
26.1
21
-39.48
0
LINE
8
BLACK
6
CONTINUOUS
10
26.1
20
-39.48
11
26.4
21
-39.48
0
LINE
8
BLACK
6
CONTINUOUS
10
26.4
20
-39.48
11
26.4
21
-40.63
0
LINE
8
BLACK
6
CONTINUOUS
10
26.9
20
-40.63
11
26.6
21
-40.63
0
LINE
8
BLACK
6
CONTINUOUS
10
26.6
20
-40.63
11
26.6
21
-39.48
0
LINE
8
BLACK
6
CONTINUOUS
10
26.6
20
-39.48
11
26.9
21
-39.48
0
LINE
8
BLACK
6
CONTINUOUS
10
26.9
20
-39.48
11
26.9
21
-40.63
0
LINE
8
BLACK
6
CONTINUOUS
10
24.4
20
-40.63
11
24.1
21
-40.63
0
LINE
8
BLACK
6
CONTINUOUS
10
24.1
20
-40.63
11
24.1
21
-39.48
0
LINE
8
BLACK
6
CONTINUOUS
10
24.1
20
-39.48
11
24.4
21
-39.48
0
LINE
8
BLACK
6
CONTINUOUS
10
24.4
20
-39.48
11
24.4
21
-40.63
0
LINE
8
BLACK
6
CONTINUOUS
10
23.9
20
-40.63
11
23.6
21
-40.63
0
LINE
8
BLACK
6
CONTINUOUS
10
23.6
20
-40.63
11
23.6
21
-39.48
0
LINE
8
BLACK
6
CONTINUOUS
10
23.6
20
-39.48
11
23.9
21
-39.48
0
LINE
8
BLACK
6
CONTINUOUS
10
23.9
20
-39.48
11
23.9
21
-40.63
0
LINE
8
BLACK
6
CONTINUOUS
10
26.85
20
-21.7
11
26.35
21
-21.7
0
LINE
8
BLACK
6
CONTINUOUS
10
26.35
20
-21.7
11
26.35
21
-20.3
0
LINE
8
BLACK
6
CONTINUOUS
10
26.35
20
-20.3
11
26.85
21
-20.3
0
LINE
8
BLACK
6
CONTINUOUS
10
26.85
20
-20.3
11
26.85
21
-21.7
0
LINE
8
BLACK
6
CONTINUOUS
10
26.05
20
-21.7
11
25.55
21
-21.7
0
LINE
8
BLACK
6
CONTINUOUS
10
25.55
20
-21.7
11
25.55
21
-20.3
0
LINE
8
BLACK
6
CONTINUOUS
10
25.55
20
-20.3
11
26.05
21
-20.3
0
LINE
8
BLACK
6
CONTINUOUS
10
26.05
20
-20.3
11
26.05
21
-21.7
0
LINE
8
BLACK
6
CONTINUOUS
10
25.25
20
-21.7
11
24.75
21
-21.7
0
LINE
8
BLACK
6
CONTINUOUS
10
24.75
20
-21.7
11
24.75
21
-20.3
0
LINE
8
BLACK
6
CONTINUOUS
10
24.75
20
-20.3
11
25.25
21
-20.3
0
LINE
8
BLACK
6
CONTINUOUS
10
25.25
20
-20.3
11
25.25
21
-21.7
0
LINE
8
BLACK
6
CONTINUOUS
10
24.45
20
-21.7
11
23.95
21
-21.7
0
LINE
8
BLACK
6
CONTINUOUS
10
23.95
20
-21.7
11
23.95
21
-20.3
0
LINE
8
BLACK
6
CONTINUOUS
10
23.95
20
-20.3
11
24.45
21
-20.3
0
LINE
8
BLACK
6
CONTINUOUS
10
24.45
20
-20.3
11
24.45
21
-21.7
0
LINE
8
BLACK
6
CONTINUOUS
10
23.65
20
-21.7
11
23.15
21
-21.7
0
LINE
8
BLACK
6
CONTINUOUS
10
23.15
20
-21.7
11
23.15
21
-20.3
0
LINE
8
BLACK
6
CONTINUOUS
10
23.15
20
-20.3
11
23.65
21
-20.3
0
LINE
8
BLACK
6
CONTINUOUS
10
23.65
20
-20.3
11
23.65
21
-21.7
0
LINE
8
BLACK
6
CONTINUOUS
10
47.525
20
-20.8
11
47.075
21
-20.8
0
LINE
8
BLACK
6
CONTINUOUS
10
47.075
20
-20.8
11
47.075
21
-19.5
0
LINE
8
BLACK
6
CONTINUOUS
10
47.075
20
-19.5
11
47.525
21
-19.5
0
LINE
8
BLACK
6
CONTINUOUS
10
47.525
20
-19.5
11
47.525
21
-20.8
0
LINE
8
BLACK
6
CONTINUOUS
10
44.925
20
-20.8
11
44.475
21
-20.8
0
LINE
8
BLACK
6
CONTINUOUS
10
44.475
20
-20.8
11
44.475
21
-19.5
0
LINE
8
BLACK
6
CONTINUOUS
10
44.475
20
-19.5
11
44.925
21
-19.5
0
LINE
8
BLACK
6
CONTINUOUS
10
44.925
20
-19.5
11
44.925
21
-20.8
0
LINE
8
BLACK
6
CONTINUOUS
10
45.575
20
-20.8
11
45.125
21
-20.8
0
LINE
8
BLACK
6
CONTINUOUS
10
45.125
20
-20.8
11
45.125
21
-19.5
0
LINE
8
BLACK
6
CONTINUOUS
10
45.125
20
-19.5
11
45.575
21
-19.5
0
LINE
8
BLACK
6
CONTINUOUS
10
45.575
20
-19.5
11
45.575
21
-20.8
0
LINE
8
BLACK
6
CONTINUOUS
10
46.225
20
-20.8
11
45.775
21
-20.8
0
LINE
8
BLACK
6
CONTINUOUS
10
45.775
20
-20.8
11
45.775
21
-19.5
0
LINE
8
BLACK
6
CONTINUOUS
10
45.775
20
-19.5
11
46.225
21
-19.5
0
LINE
8
BLACK
6
CONTINUOUS
10
46.225
20
-19.5
11
46.225
21
-20.8
0
LINE
8
BLACK
6
CONTINUOUS
10
46.875
20
-20.8
11
46.425
21
-20.8
0
LINE
8
BLACK
6
CONTINUOUS
10
46.425
20
-20.8
11
46.425
21
-19.5
0
LINE
8
BLACK
6
CONTINUOUS
10
46.425
20
-19.5
11
46.875
21
-19.5
0
LINE
8
BLACK
6
CONTINUOUS
10
46.875
20
-19.5
11
46.875
21
-20.8
0
LINE
8
BLACK
6
CONTINUOUS
10
28.98
20
-16.7784
11
29.1556
21
-16.9257
0
LINE
8
BLACK
6
CONTINUOUS
10
29.1556
20
-16.9257
11
29.2702
21
-17.1243
0
LINE
8
BLACK
6
CONTINUOUS
10
29.2702
20
-17.1243
11
29.3
21
-17.2931
0
LINE
8
BLACK
6
CONTINUOUS
10
29.3
20
-17.2931
11
29.3
21
-19.9069
0
LINE
8
BLACK
6
CONTINUOUS
10
29.3
20
-19.9069
11
29.2702
21
-20.0757
0
LINE
8
BLACK
6
CONTINUOUS
10
29.2702
20
-20.0757
11
29.1556
21
-20.2743
0
LINE
8
BLACK
6
CONTINUOUS
10
29.1556
20
-20.2743
11
28.98
21
-20.4216
0
LINE
8
BLACK
6
CONTINUOUS
10
28.98
20
-20.4216
11
28.7646
21
-20.5
0
LINE
8
BLACK
6
CONTINUOUS
10
28.7646
20
-20.5
11
28.5354
21
-20.5
0
LINE
8
BLACK
6
CONTINUOUS
10
28.5354
20
-20.5
11
28.32
21
-20.4216
0
LINE
8
BLACK
6
CONTINUOUS
10
28.32
20
-20.4216
11
28.1444
21
-20.2743
0
LINE
8
BLACK
6
CONTINUOUS
10
28.1444
20
-20.2743
11
28.0298
21
-20.0757
0
LINE
8
BLACK
6
CONTINUOUS
10
28.0298
20
-20.0757
11
28
21
-19.9069
0
LINE
8
BLACK
6
CONTINUOUS
10
28
20
-19.9069
11
28
21
-17.2931
0
LINE
8
BLACK
6
CONTINUOUS
10
28
20
-17.2931
11
28.0298
21
-17.1243
0
LINE
8
BLACK
6
CONTINUOUS
10
28.0298
20
-17.1243
11
28.1444
21
-16.9257
0
LINE
8
BLACK
6
CONTINUOUS
10
28.1444
20
-16.9257
11
28.32
21
-16.7784
0
LINE
8
BLACK
6
CONTINUOUS
10
28.32
20
-16.7784
11
28.5354
21
-16.7
0
LINE
8
BLACK
6
CONTINUOUS
10
28.5354
20
-16.7
11
28.7646
21
-16.7
0
LINE
8
BLACK
6
CONTINUOUS
10
28.7646
20
-16.7
11
28.98
21
-16.7784
0
LINE
8
BLACK
6
CONTINUOUS
10
21.68
20
-16.7784
11
21.8556
21
-16.9257
0
LINE
8
BLACK
6
CONTINUOUS
10
21.8556
20
-16.9257
11
21.9702
21
-17.1243
0
LINE
8
BLACK
6
CONTINUOUS
10
21.9702
20
-17.1243
11
22
21
-17.2931
0
LINE
8
BLACK
6
CONTINUOUS
10
22
20
-17.2931
11
22
21
-19.9069
0
LINE
8
BLACK
6
CONTINUOUS
10
22
20
-19.9069
11
21.9702
21
-20.0757
0
LINE
8
BLACK
6
CONTINUOUS
10
21.9702
20
-20.0757
11
21.8556
21
-20.2743
0
LINE
8
BLACK
6
CONTINUOUS
10
21.8556
20
-20.2743
11
21.68
21
-20.4216
0
LINE
8
BLACK
6
CONTINUOUS
10
21.68
20
-20.4216
11
21.4646
21
-20.5
0
LINE
8
BLACK
6
CONTINUOUS
10
21.4646
20
-20.5
11
21.2354
21
-20.5
0
LINE
8
BLACK
6
CONTINUOUS
10
21.2354
20
-20.5
11
21.02
21
-20.4216
0
LINE
8
BLACK
6
CONTINUOUS
10
21.02
20
-20.4216
11
20.8444
21
-20.2743
0
LINE
8
BLACK
6
CONTINUOUS
10
20.8444
20
-20.2743
11
20.7298
21
-20.0757
0
LINE
8
BLACK
6
CONTINUOUS
10
20.7298
20
-20.0757
11
20.7
21
-19.9069
0
LINE
8
BLACK
6
CONTINUOUS
10
20.7
20
-19.9069
11
20.7
21
-17.2931
0
LINE
8
BLACK
6
CONTINUOUS
10
20.7
20
-17.2931
11
20.7298
21
-17.1243
0
LINE
8
BLACK
6
CONTINUOUS
10
20.7298
20
-17.1243
11
20.8444
21
-16.9257
0
LINE
8
BLACK
6
CONTINUOUS
10
20.8444
20
-16.9257
11
21.02
21
-16.7784
0
LINE
8
BLACK
6
CONTINUOUS
10
21.02
20
-16.7784
11
21.2354
21
-16.7
0
LINE
8
BLACK
6
CONTINUOUS
10
21.2354
20
-16.7
11
21.4646
21
-16.7
0
LINE
8
BLACK
6
CONTINUOUS
10
21.4646
20
-16.7
11
21.68
21
-16.7784
  0
ENDSEC
  0
EOF
