G04 #@! TF.GenerationSoftware,KiCad,Pcbnew,(5.0.2)-1*
G04 #@! TF.CreationDate,2019-03-04T21:41:52+07:00*
G04 #@! TF.ProjectId,adapter,61646170-7465-4722-9e6b-696361645f70,rev?*
G04 #@! TF.SameCoordinates,Original*
G04 #@! TF.FileFunction,Legend,Top*
G04 #@! TF.FilePolarity,Positive*
%FSLAX46Y46*%
G04 Gerber Fmt 4.6, Leading zero omitted, Abs format (unit mm)*
G04 Created by KiCad (PCBNEW (5.0.2)-1) date 3/4/2019 9:41:52 PM*
%MOMM*%
%LPD*%
G01*
G04 APERTURE LIST*
%ADD10C,0.300000*%
%ADD11C,0.150000*%
%ADD12C,0.200000*%
%ADD13C,0.203200*%
G04 APERTURE END LIST*
D10*
X53200000Y-35407142D02*
X52800000Y-34207142D01*
X52400000Y-35407142D01*
X51314285Y-34321428D02*
X51371428Y-34264285D01*
X51542857Y-34207142D01*
X51657142Y-34207142D01*
X51828571Y-34264285D01*
X51942857Y-34378571D01*
X52000000Y-34492857D01*
X52057142Y-34721428D01*
X52057142Y-34892857D01*
X52000000Y-35121428D01*
X51942857Y-35235714D01*
X51828571Y-35350000D01*
X51657142Y-35407142D01*
X51542857Y-35407142D01*
X51371428Y-35350000D01*
X51314285Y-35292857D01*
X50114285Y-34321428D02*
X50171428Y-34264285D01*
X50342857Y-34207142D01*
X50457142Y-34207142D01*
X50628571Y-34264285D01*
X50742857Y-34378571D01*
X50800000Y-34492857D01*
X50857142Y-34721428D01*
X50857142Y-34892857D01*
X50800000Y-35121428D01*
X50742857Y-35235714D01*
X50628571Y-35350000D01*
X50457142Y-35407142D01*
X50342857Y-35407142D01*
X50171428Y-35350000D01*
X50114285Y-35292857D01*
X46857142Y-34664285D02*
X45942857Y-34664285D01*
X45371428Y-34664285D02*
X44457142Y-34664285D01*
X44914285Y-34207142D02*
X44914285Y-35121428D01*
X41428571Y-35350000D02*
X41542857Y-35407142D01*
X41714285Y-35407142D01*
X41885714Y-35350000D01*
X42000000Y-35235714D01*
X42057142Y-35121428D01*
X42114285Y-34892857D01*
X42114285Y-34721428D01*
X42057142Y-34492857D01*
X42000000Y-34378571D01*
X41885714Y-34264285D01*
X41714285Y-34207142D01*
X41600000Y-34207142D01*
X41428571Y-34264285D01*
X41371428Y-34321428D01*
X41371428Y-34721428D01*
X41600000Y-34721428D01*
X40857142Y-34207142D02*
X40857142Y-35407142D01*
X40171428Y-34207142D01*
X40171428Y-35407142D01*
X39600000Y-34207142D02*
X39600000Y-35407142D01*
X39314285Y-35407142D01*
X39142857Y-35350000D01*
X39028571Y-35235714D01*
X38971428Y-35121428D01*
X38914285Y-34892857D01*
X38914285Y-34721428D01*
X38971428Y-34492857D01*
X39028571Y-34378571D01*
X39142857Y-34264285D01*
X39314285Y-34207142D01*
X39600000Y-34207142D01*
X32485714Y-35407142D02*
X32085714Y-34207142D01*
X31685714Y-35407142D01*
X30600000Y-34321428D02*
X30657142Y-34264285D01*
X30828571Y-34207142D01*
X30942857Y-34207142D01*
X31114285Y-34264285D01*
X31228571Y-34378571D01*
X31285714Y-34492857D01*
X31342857Y-34721428D01*
X31342857Y-34892857D01*
X31285714Y-35121428D01*
X31228571Y-35235714D01*
X31114285Y-35350000D01*
X30942857Y-35407142D01*
X30828571Y-35407142D01*
X30657142Y-35350000D01*
X30600000Y-35292857D01*
X29400000Y-34321428D02*
X29457142Y-34264285D01*
X29628571Y-34207142D01*
X29742857Y-34207142D01*
X29914285Y-34264285D01*
X30028571Y-34378571D01*
X30085714Y-34492857D01*
X30142857Y-34721428D01*
X30142857Y-34892857D01*
X30085714Y-35121428D01*
X30028571Y-35235714D01*
X29914285Y-35350000D01*
X29742857Y-35407142D01*
X29628571Y-35407142D01*
X29457142Y-35350000D01*
X29400000Y-35292857D01*
X27971428Y-34207142D02*
X27971428Y-35407142D01*
X27685714Y-35407142D01*
X27514285Y-35350000D01*
X27400000Y-35235714D01*
X27342857Y-35121428D01*
X27285714Y-34892857D01*
X27285714Y-34721428D01*
X27342857Y-34492857D01*
X27400000Y-34378571D01*
X27514285Y-34264285D01*
X27685714Y-34207142D01*
X27971428Y-34207142D01*
X26771428Y-34664285D02*
X25857142Y-34664285D01*
X24371428Y-34207142D02*
X24371428Y-35407142D01*
X24085714Y-35407142D01*
X23914285Y-35350000D01*
X23800000Y-35235714D01*
X23742857Y-35121428D01*
X23685714Y-34892857D01*
X23685714Y-34721428D01*
X23742857Y-34492857D01*
X23800000Y-34378571D01*
X23914285Y-34264285D01*
X24085714Y-34207142D01*
X24371428Y-34207142D01*
X23171428Y-34664285D02*
X22257142Y-34664285D01*
X22714285Y-34207142D02*
X22714285Y-35121428D01*
X20142857Y-35350000D02*
X20257142Y-35407142D01*
X20428571Y-35407142D01*
X20600000Y-35350000D01*
X20714285Y-35235714D01*
X20771428Y-35121428D01*
X20828571Y-34892857D01*
X20828571Y-34721428D01*
X20771428Y-34492857D01*
X20714285Y-34378571D01*
X20600000Y-34264285D01*
X20428571Y-34207142D01*
X20314285Y-34207142D01*
X20142857Y-34264285D01*
X20085714Y-34321428D01*
X20085714Y-34721428D01*
X20314285Y-34721428D01*
X19571428Y-34207142D02*
X19571428Y-35407142D01*
X18885714Y-34207142D01*
X18885714Y-35407142D01*
X18314285Y-34207142D02*
X18314285Y-35407142D01*
X18028571Y-35407142D01*
X17857142Y-35350000D01*
X17742857Y-35235714D01*
X17685714Y-35121428D01*
X17628571Y-34892857D01*
X17628571Y-34721428D01*
X17685714Y-34492857D01*
X17742857Y-34378571D01*
X17857142Y-34264285D01*
X18028571Y-34207142D01*
X18314285Y-34207142D01*
X38514285Y-25592857D02*
X38914285Y-26792857D01*
X39314285Y-25592857D01*
X40400000Y-26678571D02*
X40342857Y-26735714D01*
X40171428Y-26792857D01*
X40057142Y-26792857D01*
X39885714Y-26735714D01*
X39771428Y-26621428D01*
X39714285Y-26507142D01*
X39657142Y-26278571D01*
X39657142Y-26107142D01*
X39714285Y-25878571D01*
X39771428Y-25764285D01*
X39885714Y-25650000D01*
X40057142Y-25592857D01*
X40171428Y-25592857D01*
X40342857Y-25650000D01*
X40400000Y-25707142D01*
X41600000Y-26678571D02*
X41542857Y-26735714D01*
X41371428Y-26792857D01*
X41257142Y-26792857D01*
X41085714Y-26735714D01*
X40971428Y-26621428D01*
X40914285Y-26507142D01*
X40857142Y-26278571D01*
X40857142Y-26107142D01*
X40914285Y-25878571D01*
X40971428Y-25764285D01*
X41085714Y-25650000D01*
X41257142Y-25592857D01*
X41371428Y-25592857D01*
X41542857Y-25650000D01*
X41600000Y-25707142D01*
X43028571Y-26792857D02*
X43028571Y-25592857D01*
X43314285Y-25592857D01*
X43485714Y-25650000D01*
X43600000Y-25764285D01*
X43657142Y-25878571D01*
X43714285Y-26107142D01*
X43714285Y-26278571D01*
X43657142Y-26507142D01*
X43600000Y-26621428D01*
X43485714Y-26735714D01*
X43314285Y-26792857D01*
X43028571Y-26792857D01*
X44228571Y-26335714D02*
X45142857Y-26335714D01*
X46628571Y-26792857D02*
X46628571Y-25592857D01*
X46914285Y-25592857D01*
X47085714Y-25650000D01*
X47200000Y-25764285D01*
X47257142Y-25878571D01*
X47314285Y-26107142D01*
X47314285Y-26278571D01*
X47257142Y-26507142D01*
X47200000Y-26621428D01*
X47085714Y-26735714D01*
X46914285Y-26792857D01*
X46628571Y-26792857D01*
X47828571Y-26335714D02*
X48742857Y-26335714D01*
X48285714Y-26792857D02*
X48285714Y-25878571D01*
X50857142Y-25650000D02*
X50742857Y-25592857D01*
X50571428Y-25592857D01*
X50400000Y-25650000D01*
X50285714Y-25764285D01*
X50228571Y-25878571D01*
X50171428Y-26107142D01*
X50171428Y-26278571D01*
X50228571Y-26507142D01*
X50285714Y-26621428D01*
X50400000Y-26735714D01*
X50571428Y-26792857D01*
X50685714Y-26792857D01*
X50857142Y-26735714D01*
X50914285Y-26678571D01*
X50914285Y-26278571D01*
X50685714Y-26278571D01*
X51428571Y-26792857D02*
X51428571Y-25592857D01*
X52114285Y-26792857D01*
X52114285Y-25592857D01*
X52685714Y-26792857D02*
X52685714Y-25592857D01*
X52971428Y-25592857D01*
X53142857Y-25650000D01*
X53257142Y-25764285D01*
X53314285Y-25878571D01*
X53371428Y-26107142D01*
X53371428Y-26278571D01*
X53314285Y-26507142D01*
X53257142Y-26621428D01*
X53142857Y-26735714D01*
X52971428Y-26792857D01*
X52685714Y-26792857D01*
X17264285Y-25592857D02*
X17664285Y-26792857D01*
X18064285Y-25592857D01*
X19150000Y-26678571D02*
X19092857Y-26735714D01*
X18921428Y-26792857D01*
X18807142Y-26792857D01*
X18635714Y-26735714D01*
X18521428Y-26621428D01*
X18464285Y-26507142D01*
X18407142Y-26278571D01*
X18407142Y-26107142D01*
X18464285Y-25878571D01*
X18521428Y-25764285D01*
X18635714Y-25650000D01*
X18807142Y-25592857D01*
X18921428Y-25592857D01*
X19092857Y-25650000D01*
X19150000Y-25707142D01*
X20350000Y-26678571D02*
X20292857Y-26735714D01*
X20121428Y-26792857D01*
X20007142Y-26792857D01*
X19835714Y-26735714D01*
X19721428Y-26621428D01*
X19664285Y-26507142D01*
X19607142Y-26278571D01*
X19607142Y-26107142D01*
X19664285Y-25878571D01*
X19721428Y-25764285D01*
X19835714Y-25650000D01*
X20007142Y-25592857D01*
X20121428Y-25592857D01*
X20292857Y-25650000D01*
X20350000Y-25707142D01*
X21778571Y-26792857D02*
X21778571Y-25592857D01*
X22064285Y-25592857D01*
X22235714Y-25650000D01*
X22350000Y-25764285D01*
X22407142Y-25878571D01*
X22464285Y-26107142D01*
X22464285Y-26278571D01*
X22407142Y-26507142D01*
X22350000Y-26621428D01*
X22235714Y-26735714D01*
X22064285Y-26792857D01*
X21778571Y-26792857D01*
X22978571Y-26335714D02*
X23892857Y-26335714D01*
X25378571Y-26792857D02*
X25378571Y-25592857D01*
X25664285Y-25592857D01*
X25835714Y-25650000D01*
X25950000Y-25764285D01*
X26007142Y-25878571D01*
X26064285Y-26107142D01*
X26064285Y-26278571D01*
X26007142Y-26507142D01*
X25950000Y-26621428D01*
X25835714Y-26735714D01*
X25664285Y-26792857D01*
X25378571Y-26792857D01*
X26578571Y-26335714D02*
X27492857Y-26335714D01*
X27035714Y-26792857D02*
X27035714Y-25878571D01*
X29607142Y-25650000D02*
X29492857Y-25592857D01*
X29321428Y-25592857D01*
X29150000Y-25650000D01*
X29035714Y-25764285D01*
X28978571Y-25878571D01*
X28921428Y-26107142D01*
X28921428Y-26278571D01*
X28978571Y-26507142D01*
X29035714Y-26621428D01*
X29150000Y-26735714D01*
X29321428Y-26792857D01*
X29435714Y-26792857D01*
X29607142Y-26735714D01*
X29664285Y-26678571D01*
X29664285Y-26278571D01*
X29435714Y-26278571D01*
X30178571Y-26792857D02*
X30178571Y-25592857D01*
X30864285Y-26792857D01*
X30864285Y-25592857D01*
X31435714Y-26792857D02*
X31435714Y-25592857D01*
X31721428Y-25592857D01*
X31892857Y-25650000D01*
X32007142Y-25764285D01*
X32064285Y-25878571D01*
X32121428Y-26107142D01*
X32121428Y-26278571D01*
X32064285Y-26507142D01*
X32007142Y-26621428D01*
X31892857Y-26735714D01*
X31721428Y-26792857D01*
X31435714Y-26792857D01*
D11*
G04 #@! TO.C,Micro USB*
X50150000Y-18900000D02*
X50150000Y-17500000D01*
X50150000Y-15100000D02*
X50150000Y-14950000D01*
X50150000Y-14950000D02*
X49850000Y-14950000D01*
X49850000Y-14950000D02*
X49850000Y-14500000D01*
X42150000Y-14500000D02*
X42150000Y-14950000D01*
X42150000Y-14950000D02*
X41850000Y-14950000D01*
X41850000Y-14950000D02*
X41850000Y-15100000D01*
X41850000Y-17500000D02*
X41850000Y-18900000D01*
X47075000Y-21075000D02*
X47800000Y-21075000D01*
X47800000Y-21075000D02*
X47800000Y-20650000D01*
X47800000Y-20650000D02*
X48800000Y-20650000D01*
X44200000Y-20650000D02*
X43200000Y-20650000D01*
D12*
G04 #@! TO.C,Mini USB*
X28850000Y-21400000D02*
X21150000Y-21400000D01*
X28850000Y-21400000D02*
X28850000Y-14900000D01*
X21150000Y-21400000D02*
X21150000Y-14900000D01*
D11*
G04 #@! TO.C,*
X42950000Y-46000000D02*
X49050000Y-46000000D01*
X42950000Y-33900000D02*
X49050000Y-33900000D01*
X42950000Y-46000000D02*
X42950000Y-33900000D01*
X49050000Y-46000000D02*
X49050000Y-33900000D01*
X43200000Y-46000000D02*
X43200000Y-48000000D01*
X48800000Y-46000000D02*
X48800000Y-48000000D01*
X43200000Y-48000000D02*
X48800000Y-48000000D01*
G04 #@! TO.C,Micro USB*
X42357142Y-23452380D02*
X42357142Y-22452380D01*
X42690476Y-23166666D01*
X43023809Y-22452380D01*
X43023809Y-23452380D01*
X43500000Y-23452380D02*
X43500000Y-22785714D01*
X43500000Y-22452380D02*
X43452380Y-22500000D01*
X43500000Y-22547619D01*
X43547619Y-22500000D01*
X43500000Y-22452380D01*
X43500000Y-22547619D01*
X44404761Y-23404761D02*
X44309523Y-23452380D01*
X44119047Y-23452380D01*
X44023809Y-23404761D01*
X43976190Y-23357142D01*
X43928571Y-23261904D01*
X43928571Y-22976190D01*
X43976190Y-22880952D01*
X44023809Y-22833333D01*
X44119047Y-22785714D01*
X44309523Y-22785714D01*
X44404761Y-22833333D01*
X44833333Y-23452380D02*
X44833333Y-22785714D01*
X44833333Y-22976190D02*
X44880952Y-22880952D01*
X44928571Y-22833333D01*
X45023809Y-22785714D01*
X45119047Y-22785714D01*
X45595238Y-23452380D02*
X45500000Y-23404761D01*
X45452380Y-23357142D01*
X45404761Y-23261904D01*
X45404761Y-22976190D01*
X45452380Y-22880952D01*
X45500000Y-22833333D01*
X45595238Y-22785714D01*
X45738095Y-22785714D01*
X45833333Y-22833333D01*
X45880952Y-22880952D01*
X45928571Y-22976190D01*
X45928571Y-23261904D01*
X45880952Y-23357142D01*
X45833333Y-23404761D01*
X45738095Y-23452380D01*
X45595238Y-23452380D01*
X47119047Y-22452380D02*
X47119047Y-23261904D01*
X47166666Y-23357142D01*
X47214285Y-23404761D01*
X47309523Y-23452380D01*
X47500000Y-23452380D01*
X47595238Y-23404761D01*
X47642857Y-23357142D01*
X47690476Y-23261904D01*
X47690476Y-22452380D01*
X48119047Y-23404761D02*
X48261904Y-23452380D01*
X48500000Y-23452380D01*
X48595238Y-23404761D01*
X48642857Y-23357142D01*
X48690476Y-23261904D01*
X48690476Y-23166666D01*
X48642857Y-23071428D01*
X48595238Y-23023809D01*
X48500000Y-22976190D01*
X48309523Y-22928571D01*
X48214285Y-22880952D01*
X48166666Y-22833333D01*
X48119047Y-22738095D01*
X48119047Y-22642857D01*
X48166666Y-22547619D01*
X48214285Y-22500000D01*
X48309523Y-22452380D01*
X48547619Y-22452380D01*
X48690476Y-22500000D01*
X49452380Y-22928571D02*
X49595238Y-22976190D01*
X49642857Y-23023809D01*
X49690476Y-23119047D01*
X49690476Y-23261904D01*
X49642857Y-23357142D01*
X49595238Y-23404761D01*
X49500000Y-23452380D01*
X49119047Y-23452380D01*
X49119047Y-22452380D01*
X49452380Y-22452380D01*
X49547619Y-22500000D01*
X49595238Y-22547619D01*
X49642857Y-22642857D01*
X49642857Y-22738095D01*
X49595238Y-22833333D01*
X49547619Y-22880952D01*
X49452380Y-22928571D01*
X49119047Y-22928571D01*
G04 #@! TO.C,Mini USB*
D13*
X22445485Y-23867695D02*
X22445485Y-23054895D01*
X22716419Y-23635466D01*
X22987352Y-23054895D01*
X22987352Y-23867695D01*
X23374400Y-23867695D02*
X23374400Y-23325828D01*
X23374400Y-23054895D02*
X23335695Y-23093600D01*
X23374400Y-23132304D01*
X23413104Y-23093600D01*
X23374400Y-23054895D01*
X23374400Y-23132304D01*
X23761447Y-23325828D02*
X23761447Y-23867695D01*
X23761447Y-23403238D02*
X23800152Y-23364533D01*
X23877561Y-23325828D01*
X23993676Y-23325828D01*
X24071085Y-23364533D01*
X24109790Y-23441942D01*
X24109790Y-23867695D01*
X24496838Y-23867695D02*
X24496838Y-23325828D01*
X24496838Y-23054895D02*
X24458133Y-23093600D01*
X24496838Y-23132304D01*
X24535542Y-23093600D01*
X24496838Y-23054895D01*
X24496838Y-23132304D01*
X25503161Y-23054895D02*
X25503161Y-23712876D01*
X25541866Y-23790285D01*
X25580571Y-23828990D01*
X25657980Y-23867695D01*
X25812800Y-23867695D01*
X25890209Y-23828990D01*
X25928914Y-23790285D01*
X25967619Y-23712876D01*
X25967619Y-23054895D01*
X26315961Y-23828990D02*
X26432076Y-23867695D01*
X26625600Y-23867695D01*
X26703009Y-23828990D01*
X26741714Y-23790285D01*
X26780419Y-23712876D01*
X26780419Y-23635466D01*
X26741714Y-23558057D01*
X26703009Y-23519352D01*
X26625600Y-23480647D01*
X26470780Y-23441942D01*
X26393371Y-23403238D01*
X26354666Y-23364533D01*
X26315961Y-23287123D01*
X26315961Y-23209714D01*
X26354666Y-23132304D01*
X26393371Y-23093600D01*
X26470780Y-23054895D01*
X26664304Y-23054895D01*
X26780419Y-23093600D01*
X27399695Y-23441942D02*
X27515809Y-23480647D01*
X27554514Y-23519352D01*
X27593219Y-23596761D01*
X27593219Y-23712876D01*
X27554514Y-23790285D01*
X27515809Y-23828990D01*
X27438400Y-23867695D01*
X27128761Y-23867695D01*
X27128761Y-23054895D01*
X27399695Y-23054895D01*
X27477104Y-23093600D01*
X27515809Y-23132304D01*
X27554514Y-23209714D01*
X27554514Y-23287123D01*
X27515809Y-23364533D01*
X27477104Y-23403238D01*
X27399695Y-23441942D01*
X27128761Y-23441942D01*
G04 #@! TO.C,*
D11*
X20833333Y-36952380D02*
X20833333Y-37761904D01*
X20880952Y-37857142D01*
X20928571Y-37904761D01*
X21023809Y-37952380D01*
X21214285Y-37952380D01*
X21309523Y-37904761D01*
X21357142Y-37857142D01*
X21404761Y-37761904D01*
X21404761Y-36952380D01*
X21833333Y-37904761D02*
X21976190Y-37952380D01*
X22214285Y-37952380D01*
X22309523Y-37904761D01*
X22357142Y-37857142D01*
X22404761Y-37761904D01*
X22404761Y-37666666D01*
X22357142Y-37571428D01*
X22309523Y-37523809D01*
X22214285Y-37476190D01*
X22023809Y-37428571D01*
X21928571Y-37380952D01*
X21880952Y-37333333D01*
X21833333Y-37238095D01*
X21833333Y-37142857D01*
X21880952Y-37047619D01*
X21928571Y-37000000D01*
X22023809Y-36952380D01*
X22261904Y-36952380D01*
X22404761Y-37000000D01*
X23166666Y-37428571D02*
X23309523Y-37476190D01*
X23357142Y-37523809D01*
X23404761Y-37619047D01*
X23404761Y-37761904D01*
X23357142Y-37857142D01*
X23309523Y-37904761D01*
X23214285Y-37952380D01*
X22833333Y-37952380D01*
X22833333Y-36952380D01*
X23166666Y-36952380D01*
X23261904Y-37000000D01*
X23309523Y-37047619D01*
X23357142Y-37142857D01*
X23357142Y-37238095D01*
X23309523Y-37333333D01*
X23261904Y-37380952D01*
X23166666Y-37428571D01*
X22833333Y-37428571D01*
X24452380Y-36952380D02*
X25023809Y-36952380D01*
X24738095Y-37952380D02*
X24738095Y-36952380D01*
X25261904Y-37285714D02*
X25500000Y-37952380D01*
X25738095Y-37285714D02*
X25500000Y-37952380D01*
X25404761Y-38190476D01*
X25357142Y-38238095D01*
X25261904Y-38285714D01*
X26119047Y-37285714D02*
X26119047Y-38285714D01*
X26119047Y-37333333D02*
X26214285Y-37285714D01*
X26404761Y-37285714D01*
X26500000Y-37333333D01*
X26547619Y-37380952D01*
X26595238Y-37476190D01*
X26595238Y-37761904D01*
X26547619Y-37857142D01*
X26500000Y-37904761D01*
X26404761Y-37952380D01*
X26214285Y-37952380D01*
X26119047Y-37904761D01*
X27404761Y-37904761D02*
X27309523Y-37952380D01*
X27119047Y-37952380D01*
X27023809Y-37904761D01*
X26976190Y-37809523D01*
X26976190Y-37428571D01*
X27023809Y-37333333D01*
X27119047Y-37285714D01*
X27309523Y-37285714D01*
X27404761Y-37333333D01*
X27452380Y-37428571D01*
X27452380Y-37523809D01*
X26976190Y-37619047D01*
X29214285Y-37857142D02*
X29166666Y-37904761D01*
X29023809Y-37952380D01*
X28928571Y-37952380D01*
X28785714Y-37904761D01*
X28690476Y-37809523D01*
X28642857Y-37714285D01*
X28595238Y-37523809D01*
X28595238Y-37380952D01*
X28642857Y-37190476D01*
X28690476Y-37095238D01*
X28785714Y-37000000D01*
X28928571Y-36952380D01*
X29023809Y-36952380D01*
X29166666Y-37000000D01*
X29214285Y-37047619D01*
X40452380Y-44202380D02*
X40452380Y-43583333D01*
X40833333Y-43916666D01*
X40833333Y-43773809D01*
X40880952Y-43678571D01*
X40928571Y-43630952D01*
X41023809Y-43583333D01*
X41261904Y-43583333D01*
X41357142Y-43630952D01*
X41404761Y-43678571D01*
X41452380Y-43773809D01*
X41452380Y-44059523D01*
X41404761Y-44154761D01*
X41357142Y-44202380D01*
X41357142Y-43154761D02*
X41404761Y-43107142D01*
X41452380Y-43154761D01*
X41404761Y-43202380D01*
X41357142Y-43154761D01*
X41452380Y-43154761D01*
X40452380Y-42202380D02*
X40452380Y-42678571D01*
X40928571Y-42726190D01*
X40880952Y-42678571D01*
X40833333Y-42583333D01*
X40833333Y-42345238D01*
X40880952Y-42250000D01*
X40928571Y-42202380D01*
X41023809Y-42154761D01*
X41261904Y-42154761D01*
X41357142Y-42202380D01*
X41404761Y-42250000D01*
X41452380Y-42345238D01*
X41452380Y-42583333D01*
X41404761Y-42678571D01*
X41357142Y-42726190D01*
X41166666Y-41011904D02*
X41166666Y-40535714D01*
X41452380Y-41107142D02*
X40452380Y-40773809D01*
X41452380Y-40440476D01*
X40785714Y-39678571D02*
X41452380Y-39678571D01*
X40785714Y-40107142D02*
X41309523Y-40107142D01*
X41404761Y-40059523D01*
X41452380Y-39964285D01*
X41452380Y-39821428D01*
X41404761Y-39726190D01*
X41357142Y-39678571D01*
X41452380Y-38773809D02*
X40452380Y-38773809D01*
X41404761Y-38773809D02*
X41452380Y-38869047D01*
X41452380Y-39059523D01*
X41404761Y-39154761D01*
X41357142Y-39202380D01*
X41261904Y-39250000D01*
X40976190Y-39250000D01*
X40880952Y-39202380D01*
X40833333Y-39154761D01*
X40785714Y-39059523D01*
X40785714Y-38869047D01*
X40833333Y-38773809D01*
X41452380Y-38297619D02*
X40785714Y-38297619D01*
X40452380Y-38297619D02*
X40500000Y-38345238D01*
X40547619Y-38297619D01*
X40500000Y-38250000D01*
X40452380Y-38297619D01*
X40547619Y-38297619D01*
X41452380Y-37678571D02*
X41404761Y-37773809D01*
X41357142Y-37821428D01*
X41261904Y-37869047D01*
X40976190Y-37869047D01*
X40880952Y-37821428D01*
X40833333Y-37773809D01*
X40785714Y-37678571D01*
X40785714Y-37535714D01*
X40833333Y-37440476D01*
X40880952Y-37392857D01*
X40976190Y-37345238D01*
X41261904Y-37345238D01*
X41357142Y-37392857D01*
X41404761Y-37440476D01*
X41452380Y-37535714D01*
X41452380Y-37678571D01*
G04 #@! TD*
M02*
