G04 #@! TF.GenerationSoftware,KiCad,Pcbnew,(5.1.5)-3*
G04 #@! TF.CreationDate,2020-04-27T00:01:42+07:00*
G04 #@! TF.ProjectId,adapter,61646170-7465-4722-9e6b-696361645f70,rev?*
G04 #@! TF.SameCoordinates,Original*
G04 #@! TF.FileFunction,Copper,L1,Top*
G04 #@! TF.FilePolarity,Positive*
%FSLAX46Y46*%
G04 Gerber Fmt 4.6, Leading zero omitted, Abs format (unit mm)*
G04 Created by KiCad (PCBNEW (5.1.5)-3) date 2020-04-27 00:01:42*
%MOMM*%
%LPD*%
G04 APERTURE LIST*
%ADD10O,1.350000X1.350000*%
%ADD11R,1.350000X1.350000*%
%ADD12R,2.000000X1.300000*%
%ADD13R,0.400000X1.000000*%
%ADD14O,1.600000X2.000000*%
%ADD15R,0.500000X1.400000*%
%ADD16O,1.300000X3.800000*%
%ADD17O,1.150000X1.800000*%
%ADD18O,1.450000X2.000000*%
%ADD19R,0.450000X1.300000*%
%ADD20R,0.300000X1.150000*%
%ADD21R,0.600000X1.150000*%
%ADD22O,1.000000X1.600000*%
%ADD23O,1.000000X2.100000*%
%ADD24O,1.100000X2.400000*%
%ADD25R,1.750000X1.900000*%
%ADD26R,0.400000X1.400000*%
%ADD27O,1.050000X1.900000*%
%ADD28R,1.150000X1.450000*%
%ADD29R,0.500000X2.000000*%
%ADD30R,2.000000X1.700000*%
%ADD31R,1.100000X1.100000*%
%ADD32C,1.100000*%
%ADD33R,1.500000X1.500000*%
%ADD34C,1.500000*%
%ADD35C,0.650000*%
%ADD36O,0.800000X1.400000*%
%ADD37R,0.300000X0.700000*%
%ADD38C,0.800000*%
%ADD39C,0.310000*%
%ADD40C,0.200000*%
G04 APERTURE END LIST*
D10*
X68000000Y-81500000D03*
X70000000Y-81500000D03*
X72000000Y-81500000D03*
D11*
X74000000Y-81500000D03*
D12*
X75300000Y-72210000D03*
X66700000Y-72210000D03*
D13*
X72500000Y-74910000D03*
X71500000Y-74910000D03*
X70500000Y-74910000D03*
X69500000Y-74910000D03*
X46500000Y-72160000D03*
X47500000Y-72160000D03*
X48500000Y-72160000D03*
X49500000Y-72160000D03*
D12*
X43700000Y-69460000D03*
X52300000Y-69460000D03*
D14*
X50300000Y-74700000D03*
X45700000Y-75800000D03*
X45700000Y-82800000D03*
X45700000Y-79800000D03*
D13*
X92500000Y-74910000D03*
X93500000Y-74910000D03*
X94500000Y-74910000D03*
X95500000Y-74910000D03*
D12*
X89700000Y-72210000D03*
X98300000Y-72210000D03*
X29300000Y-71710000D03*
X20700000Y-71710000D03*
D13*
X26500000Y-74410000D03*
X25500000Y-74410000D03*
X24500000Y-74410000D03*
X23500000Y-74410000D03*
D12*
X89700000Y-63790000D03*
X98300000Y-63790000D03*
D13*
X92500000Y-61090000D03*
X93500000Y-61090000D03*
X94500000Y-61090000D03*
X95500000Y-61090000D03*
X72500000Y-61090000D03*
X71500000Y-61090000D03*
X70500000Y-61090000D03*
X69500000Y-61090000D03*
D12*
X75300000Y-63790000D03*
X66700000Y-63790000D03*
X43700000Y-62790000D03*
X52300000Y-62790000D03*
D13*
X46500000Y-60090000D03*
X47500000Y-60090000D03*
X48500000Y-60090000D03*
X49500000Y-60090000D03*
D12*
X20700000Y-62790000D03*
X29300000Y-62790000D03*
D13*
X23500000Y-60090000D03*
X24500000Y-60090000D03*
X25500000Y-60090000D03*
X26500000Y-60090000D03*
D15*
X26600000Y-57000000D03*
X25800000Y-57000000D03*
X25000000Y-57000000D03*
X24200000Y-57000000D03*
X23400000Y-57000000D03*
D16*
X28650000Y-54600000D03*
X21350000Y-54600000D03*
D17*
X44125000Y-52300000D03*
X51875000Y-52300000D03*
D18*
X44275000Y-56100000D03*
X51725000Y-56100000D03*
D19*
X46700000Y-56150000D03*
X47350000Y-56150000D03*
X48000000Y-56150000D03*
X48650000Y-56150000D03*
X49300000Y-56150000D03*
D20*
X23250000Y-78055000D03*
X23750000Y-78055000D03*
X24250000Y-78055000D03*
X26750000Y-78055000D03*
X26250000Y-78055000D03*
X25750000Y-78055000D03*
X25250000Y-78055000D03*
D21*
X21800000Y-78055000D03*
D22*
X29320000Y-82900000D03*
X20680000Y-82900000D03*
D23*
X29320000Y-78720000D03*
X20680000Y-78720000D03*
D21*
X22600000Y-78055000D03*
X27400000Y-78055000D03*
X28200000Y-78055000D03*
D20*
X24750000Y-78055000D03*
D24*
X97650000Y-52625000D03*
X90350000Y-52625000D03*
D25*
X95125000Y-82700000D03*
D26*
X93350000Y-80050000D03*
X92700000Y-80050000D03*
X95300000Y-80050000D03*
X94650000Y-80050000D03*
X94000000Y-80050000D03*
D25*
X92875000Y-82700000D03*
D27*
X90425000Y-82700000D03*
X97575000Y-82700000D03*
D28*
X96320000Y-80470000D03*
X91680000Y-80470000D03*
D29*
X72600000Y-58700000D03*
X71800000Y-58700000D03*
X71000000Y-58700000D03*
X70200000Y-58700000D03*
X69400000Y-58700000D03*
D30*
X75450000Y-58600000D03*
X75450000Y-53150000D03*
X66550000Y-58600000D03*
X66550000Y-53150000D03*
D31*
X92400000Y-58500000D03*
D32*
X93200000Y-56750000D03*
X94000000Y-58500000D03*
X94800000Y-56750000D03*
X95600000Y-58500000D03*
D24*
X90350000Y-57625000D03*
X97650000Y-57625000D03*
D28*
X91680000Y-44470000D03*
X96320000Y-44470000D03*
D27*
X97575000Y-46700000D03*
X90425000Y-46700000D03*
D25*
X92875000Y-46700000D03*
D26*
X94000000Y-44050000D03*
X94650000Y-44050000D03*
X95300000Y-44050000D03*
X92700000Y-44050000D03*
X93350000Y-44050000D03*
D25*
X95125000Y-46700000D03*
D33*
X88920000Y-34500000D03*
D34*
X92095000Y-34500000D03*
X95905000Y-34500000D03*
X99080000Y-34500000D03*
D35*
X68600000Y-40990000D03*
X69400000Y-40990000D03*
X70200000Y-40990000D03*
X71800000Y-40990000D03*
X72600000Y-40990000D03*
X73400000Y-40990000D03*
X68200000Y-40290000D03*
X69800000Y-40290000D03*
X70600000Y-40290000D03*
X71400000Y-40290000D03*
X72200000Y-40290000D03*
X73800000Y-40290000D03*
D36*
X66510000Y-46840000D03*
X75490000Y-46840000D03*
X75130000Y-40890000D03*
D37*
X73250000Y-38980000D03*
X71750000Y-38980000D03*
X72250000Y-38980000D03*
X72750000Y-38980000D03*
X73750000Y-38980000D03*
X71250000Y-38980000D03*
X70750000Y-38980000D03*
X70250000Y-38980000D03*
X69750000Y-38980000D03*
X69250000Y-38980000D03*
X68750000Y-38980000D03*
X68250000Y-38980000D03*
D36*
X66870000Y-40890000D03*
D24*
X90350000Y-17125000D03*
X97650000Y-17125000D03*
D33*
X65920000Y-34500000D03*
D34*
X69095000Y-34500000D03*
X72905000Y-34500000D03*
X76080000Y-34500000D03*
D24*
X97650000Y-22125000D03*
X90350000Y-22125000D03*
D32*
X95600000Y-23000000D03*
X94800000Y-21250000D03*
X94000000Y-23000000D03*
X93200000Y-21250000D03*
D31*
X92400000Y-23000000D03*
D34*
X88825000Y-28500000D03*
X92000000Y-28500000D03*
X95810000Y-28500000D03*
D33*
X98985000Y-28500000D03*
D30*
X66550000Y-17150000D03*
X66550000Y-22600000D03*
X75450000Y-17150000D03*
X75450000Y-22600000D03*
D29*
X69400000Y-22700000D03*
X70200000Y-22700000D03*
X71000000Y-22700000D03*
X71800000Y-22700000D03*
X72600000Y-22700000D03*
D33*
X75985000Y-28500000D03*
D34*
X72810000Y-28500000D03*
X69000000Y-28500000D03*
X65825000Y-28500000D03*
X19825000Y-28500000D03*
X23000000Y-28500000D03*
X26810000Y-28500000D03*
D33*
X29985000Y-28500000D03*
D34*
X42920000Y-28500000D03*
X46095000Y-28500000D03*
X49905000Y-28500000D03*
D33*
X53080000Y-28500000D03*
D34*
X30080000Y-34500000D03*
X26905000Y-34500000D03*
X23095000Y-34500000D03*
D33*
X19920000Y-34500000D03*
D19*
X49300000Y-20150000D03*
X48650000Y-20150000D03*
X48000000Y-20150000D03*
X47350000Y-20150000D03*
X46700000Y-20150000D03*
D18*
X51725000Y-20100000D03*
X44275000Y-20100000D03*
D17*
X51875000Y-16300000D03*
X44125000Y-16300000D03*
D16*
X21350000Y-18600000D03*
X28650000Y-18600000D03*
D15*
X23400000Y-21000000D03*
X24200000Y-21000000D03*
X25000000Y-21000000D03*
X25800000Y-21000000D03*
X26600000Y-21000000D03*
D20*
X24750000Y-42055000D03*
D21*
X28200000Y-42055000D03*
X27400000Y-42055000D03*
X22600000Y-42055000D03*
D23*
X20680000Y-42720000D03*
X29320000Y-42720000D03*
D22*
X20680000Y-46900000D03*
X29320000Y-46900000D03*
D21*
X21800000Y-42055000D03*
D20*
X25250000Y-42055000D03*
X25750000Y-42055000D03*
X26250000Y-42055000D03*
X26750000Y-42055000D03*
X24250000Y-42055000D03*
X23750000Y-42055000D03*
X23250000Y-42055000D03*
D14*
X45700000Y-41800000D03*
X45700000Y-44800000D03*
X45700000Y-37800000D03*
X50300000Y-36700000D03*
D33*
X42920000Y-34500000D03*
D34*
X46095000Y-34500000D03*
X49905000Y-34500000D03*
X53080000Y-34500000D03*
D38*
X22750000Y-38200000D03*
X27400000Y-38200000D03*
X28400000Y-39800000D03*
X92000000Y-25500000D03*
X21400000Y-39800000D03*
X71400000Y-36900000D03*
X72700000Y-36450000D03*
X91250000Y-61000000D03*
X93500000Y-62750000D03*
X29000000Y-76500000D03*
X20750000Y-76500000D03*
X27500000Y-75750000D03*
X22500000Y-75750000D03*
D39*
X46700000Y-20650000D02*
X46700000Y-22300000D01*
X42920000Y-26080000D02*
X42920000Y-28500000D01*
X46700000Y-22300000D02*
X42920000Y-26080000D01*
X49300000Y-22300000D02*
X49300000Y-20650000D01*
X53080000Y-26080000D02*
X49300000Y-22300000D01*
X53080000Y-28500000D02*
X53080000Y-26080000D01*
X19825000Y-25025000D02*
X19825000Y-28500000D01*
X23400000Y-21000000D02*
X23400000Y-21450000D01*
X23400000Y-21450000D02*
X19825000Y-25025000D01*
X26600000Y-21450000D02*
X30000000Y-24850000D01*
X26600000Y-21000000D02*
X26600000Y-21450000D01*
X30000000Y-27424340D02*
X30000000Y-24850000D01*
X29985000Y-27439340D02*
X30000000Y-27424340D01*
X29985000Y-28500000D02*
X29985000Y-27439340D01*
X24750000Y-42055000D02*
X24750000Y-43000000D01*
X24750000Y-43000000D02*
X25000000Y-43250000D01*
X25000000Y-43250000D02*
X25500000Y-43250000D01*
X25500000Y-43250000D02*
X25750000Y-43000000D01*
X25750000Y-43000000D02*
X25750000Y-42055000D01*
X25250000Y-41250000D02*
X25250000Y-42055000D01*
X25250000Y-40750000D02*
X25250000Y-41250000D01*
X25000000Y-40500000D02*
X25250000Y-40750000D01*
X24500000Y-40500000D02*
X24250000Y-40750000D01*
X24250000Y-40750000D02*
X24250000Y-40500000D01*
X24250000Y-42055000D02*
X24250000Y-40750000D01*
X24500000Y-40500000D02*
X25000000Y-40500000D01*
X24250000Y-40500000D02*
X24500000Y-40500000D01*
X53080000Y-35560000D02*
X53080000Y-34500000D01*
X53080000Y-38530000D02*
X53080000Y-35560000D01*
X46810000Y-44800000D02*
X53080000Y-38530000D01*
X45700000Y-44800000D02*
X46810000Y-44800000D01*
X50300000Y-34895000D02*
X49905000Y-34500000D01*
X50300000Y-36700000D02*
X50300000Y-34895000D01*
X45700000Y-34895000D02*
X46095000Y-34500000D01*
X45700000Y-37800000D02*
X45700000Y-34895000D01*
X44590000Y-41800000D02*
X45700000Y-41800000D01*
X42920000Y-40130000D02*
X44590000Y-41800000D01*
X42920000Y-34500000D02*
X42920000Y-40130000D01*
X22600000Y-42055000D02*
X22600000Y-38600000D01*
X22600000Y-38600000D02*
X23000000Y-38200000D01*
X27400000Y-38765685D02*
X27400000Y-42055000D01*
X27400000Y-38200000D02*
X27400000Y-38765685D01*
X28200000Y-42055000D02*
X28200000Y-40000000D01*
X28200000Y-40000000D02*
X28400000Y-39800000D01*
X75985000Y-28500000D02*
X75985000Y-27439340D01*
X75985000Y-27439340D02*
X76000000Y-27424340D01*
X65825000Y-26175000D02*
X65825000Y-28500000D01*
X69300000Y-22700000D02*
X65825000Y-26175000D01*
X69400000Y-22700000D02*
X69300000Y-22700000D01*
X75985000Y-25985000D02*
X75985000Y-28500000D01*
X72700000Y-22700000D02*
X75985000Y-25985000D01*
X72600000Y-22700000D02*
X72700000Y-22700000D01*
X95600000Y-22700000D02*
X95700000Y-22700000D01*
X92400000Y-22700000D02*
X92300000Y-22700000D01*
X25800000Y-27490000D02*
X26810000Y-28500000D01*
X25800000Y-21000000D02*
X25800000Y-27490000D01*
X25000000Y-26500000D02*
X23000000Y-28500000D01*
X25000000Y-21000000D02*
X25000000Y-26500000D01*
X48650000Y-27245000D02*
X49905000Y-28500000D01*
X48650000Y-20150000D02*
X48650000Y-27245000D01*
X48000000Y-26595000D02*
X46095000Y-28500000D01*
X48000000Y-20150000D02*
X48000000Y-26595000D01*
X71800000Y-27490000D02*
X72810000Y-28500000D01*
X71800000Y-22700000D02*
X71800000Y-27490000D01*
X71000000Y-26500000D02*
X69000000Y-28500000D01*
X71000000Y-22700000D02*
X71000000Y-26500000D01*
X95810000Y-27190000D02*
X95810000Y-28500000D01*
X99500000Y-23500000D02*
X95810000Y-27190000D01*
X99500000Y-20500000D02*
X99500000Y-23500000D01*
X94000000Y-19500000D02*
X98500000Y-19500000D01*
X93200000Y-20300000D02*
X94000000Y-19500000D01*
X98500000Y-19500000D02*
X99500000Y-20500000D01*
X93200000Y-21250000D02*
X93200000Y-20300000D01*
X88825000Y-27439340D02*
X89764340Y-26500000D01*
X88825000Y-28500000D02*
X88825000Y-27439340D01*
X89764340Y-26500000D02*
X94500000Y-26500000D01*
X95600000Y-25400000D02*
X95600000Y-23000000D01*
X94500000Y-26500000D02*
X95600000Y-25400000D01*
X94000000Y-23500000D02*
X94000000Y-23000000D01*
X92000000Y-25500000D02*
X94000000Y-23500000D01*
X25750000Y-35655000D02*
X26905000Y-34500000D01*
X25750000Y-42055000D02*
X25750000Y-35655000D01*
X24250000Y-35655000D02*
X23095000Y-34500000D01*
X24250000Y-40500000D02*
X24250000Y-35655000D01*
X30080000Y-35560000D02*
X30080000Y-34500000D01*
X21800000Y-40200000D02*
X21400000Y-39800000D01*
X21800000Y-42055000D02*
X21800000Y-40200000D01*
X30080000Y-38120000D02*
X28400000Y-39800000D01*
X30080000Y-34500000D02*
X30080000Y-38120000D01*
X22750000Y-38200000D02*
X20000000Y-35450000D01*
X20000000Y-35450000D02*
X20000000Y-35250000D01*
X19920000Y-34500000D02*
X20000000Y-35250000D01*
D40*
X70600000Y-40290000D02*
X70600000Y-40100000D01*
X70600000Y-40100000D02*
X71200000Y-39500000D01*
X71200000Y-39030000D02*
X71250000Y-38980000D01*
X71200000Y-39500000D02*
X71200000Y-39030000D01*
X73800000Y-39030000D02*
X73750000Y-38980000D01*
X73800000Y-40290000D02*
X73800000Y-39030000D01*
X73750000Y-36830000D02*
X76080000Y-34500000D01*
X73750000Y-38980000D02*
X73750000Y-36830000D01*
X68250000Y-40240000D02*
X68200000Y-40290000D01*
X68250000Y-38980000D02*
X68250000Y-40240000D01*
X74124999Y-40614999D02*
X74124999Y-41475001D01*
X73800000Y-40290000D02*
X74124999Y-40614999D01*
X74124999Y-41475001D02*
X73500000Y-42100000D01*
X73500000Y-42100000D02*
X68400000Y-42100000D01*
X68400000Y-42100000D02*
X67800000Y-41500000D01*
X67875001Y-40614999D02*
X67875001Y-40624999D01*
X68200000Y-40290000D02*
X67875001Y-40614999D01*
X67800000Y-40700000D02*
X67800000Y-41500000D01*
X67875001Y-40624999D02*
X67800000Y-40700000D01*
X70750000Y-37550000D02*
X71400000Y-36900000D01*
X70750000Y-38980000D02*
X70750000Y-37550000D01*
X65920000Y-35450000D02*
X65920000Y-34500000D01*
X66470000Y-36000000D02*
X65920000Y-35450000D01*
X72250000Y-36000000D02*
X66470000Y-36000000D01*
X72700000Y-36450000D02*
X72250000Y-36000000D01*
X67320000Y-36000000D02*
X66470000Y-36000000D01*
X69750000Y-38430000D02*
X67320000Y-36000000D01*
X69750000Y-38980000D02*
X69750000Y-38430000D01*
D39*
X94000000Y-36405000D02*
X95905000Y-34500000D01*
X93350000Y-42850000D02*
X93350000Y-35755000D01*
X93350000Y-35755000D02*
X92095000Y-34500000D01*
X99080000Y-36920000D02*
X99080000Y-34500000D01*
X95300000Y-42350000D02*
X95300000Y-40700000D01*
X88920000Y-34500000D02*
X88920000Y-36920000D01*
X88920000Y-36920000D02*
X92700000Y-40700000D01*
X95300000Y-40700000D02*
X99080000Y-36920000D01*
X92700000Y-40700000D02*
X92700000Y-42350000D01*
X92700000Y-43040000D02*
X92700000Y-40700000D01*
X92700000Y-44050000D02*
X92700000Y-43040000D01*
X95300000Y-43040000D02*
X95300000Y-40700000D01*
X95300000Y-44050000D02*
X95300000Y-43040000D01*
X94000000Y-42500000D02*
X94000000Y-36405000D01*
X94000000Y-44050000D02*
X94000000Y-42500000D01*
X94000000Y-42850000D02*
X94000000Y-42500000D01*
X93350000Y-43040000D02*
X93350000Y-35755000D01*
X93350000Y-44050000D02*
X93350000Y-43040000D01*
X46700000Y-56650000D02*
X46700000Y-58300000D01*
X49300000Y-58300000D02*
X49300000Y-56650000D01*
X23400000Y-57000000D02*
X23400000Y-57450000D01*
X26600000Y-57000000D02*
X26600000Y-57450000D01*
X25000000Y-79250000D02*
X25500000Y-79250000D01*
X24750000Y-78055000D02*
X24750000Y-79000000D01*
X24750000Y-79000000D02*
X25000000Y-79250000D01*
X25500000Y-79250000D02*
X25750000Y-79000000D01*
X25750000Y-79000000D02*
X25750000Y-78055000D01*
X24500000Y-76500000D02*
X24250000Y-76750000D01*
X92400000Y-58700000D02*
X92300000Y-58700000D01*
X95600000Y-58700000D02*
X95700000Y-58700000D01*
X72600000Y-58700000D02*
X72700000Y-58700000D01*
X69400000Y-58700000D02*
X69300000Y-58700000D01*
X26600000Y-59990000D02*
X26500000Y-60090000D01*
X26600000Y-57000000D02*
X26600000Y-59990000D01*
X25800000Y-57000000D02*
X25800000Y-58700000D01*
X25500000Y-59000000D02*
X25500000Y-60090000D01*
X25800000Y-58700000D02*
X25500000Y-59000000D01*
X25000000Y-57000000D02*
X25000000Y-58010000D01*
X24500000Y-58510000D02*
X24500000Y-60090000D01*
X25000000Y-58010000D02*
X24500000Y-58510000D01*
X23400000Y-59990000D02*
X23500000Y-60090000D01*
X23400000Y-57000000D02*
X23400000Y-59990000D01*
X49300000Y-56150000D02*
X49300000Y-58300000D01*
X49500000Y-58500000D02*
X49500000Y-60090000D01*
X49300000Y-58300000D02*
X49500000Y-58500000D01*
X46500000Y-58500000D02*
X46700000Y-58300000D01*
X46500000Y-60090000D02*
X46500000Y-58500000D01*
X48650000Y-56150000D02*
X48650000Y-58850000D01*
X48500000Y-59000000D02*
X48500000Y-60090000D01*
X48650000Y-58850000D02*
X48500000Y-59000000D01*
X48000000Y-56150000D02*
X48000000Y-58500000D01*
X47500000Y-59000000D02*
X47500000Y-60090000D01*
X48000000Y-58500000D02*
X47500000Y-59000000D01*
D40*
X72600000Y-60490000D02*
X72500000Y-60590000D01*
X72600000Y-58700000D02*
X72600000Y-60490000D01*
X71800000Y-59900000D02*
X71500000Y-60200000D01*
X71500000Y-60200000D02*
X71500000Y-60590000D01*
X71800000Y-58700000D02*
X71800000Y-59900000D01*
X70500000Y-60590000D02*
X70500000Y-60250000D01*
X70500000Y-60250000D02*
X71000000Y-59750000D01*
X71000000Y-59750000D02*
X71000000Y-58700000D01*
X69400000Y-60490000D02*
X69500000Y-60590000D01*
X69400000Y-58700000D02*
X69400000Y-60490000D01*
D39*
X92250000Y-58500000D02*
X90000000Y-60750000D01*
X92400000Y-58500000D02*
X92250000Y-58500000D01*
X90000000Y-60750000D02*
X90000000Y-61500000D01*
X92500000Y-61090000D02*
X91340000Y-61090000D01*
X91340000Y-61090000D02*
X91250000Y-61000000D01*
X95500000Y-61090000D02*
X95500000Y-62750000D01*
X95500000Y-62750000D02*
X94250000Y-64000000D01*
X92500000Y-64000000D02*
X90000000Y-61500000D01*
X94250000Y-64000000D02*
X92500000Y-64000000D01*
X93500000Y-59000000D02*
X94000000Y-58500000D01*
X93500000Y-61090000D02*
X93500000Y-59000000D01*
X94500000Y-61090000D02*
X94500000Y-61750000D01*
X94500000Y-61750000D02*
X93500000Y-62750000D01*
X95300000Y-80050000D02*
X95300000Y-76450000D01*
X95500000Y-76250000D02*
X95500000Y-74910000D01*
X95300000Y-76450000D02*
X95500000Y-76250000D01*
X92700000Y-80050000D02*
X92700000Y-76700000D01*
X92500000Y-76500000D02*
X92500000Y-74910000D01*
X92700000Y-76700000D02*
X92500000Y-76500000D01*
X93350000Y-75060000D02*
X93500000Y-74910000D01*
X93350000Y-80050000D02*
X93350000Y-75060000D01*
X94000000Y-80050000D02*
X94000000Y-76250000D01*
X94500000Y-75750000D02*
X94500000Y-74910000D01*
X94000000Y-76250000D02*
X94500000Y-75750000D01*
X28200000Y-78055000D02*
X28200000Y-77300000D01*
X28200000Y-77300000D02*
X29000000Y-76500000D01*
X20750000Y-76500000D02*
X21250000Y-76500000D01*
X21800000Y-77050000D02*
X21800000Y-78055000D01*
X21250000Y-76500000D02*
X21800000Y-77050000D01*
X27400000Y-75850000D02*
X27500000Y-75750000D01*
X27400000Y-78055000D02*
X27400000Y-75850000D01*
X22600000Y-75850000D02*
X22500000Y-75750000D01*
X22600000Y-78055000D02*
X22600000Y-75850000D01*
X28160000Y-74410000D02*
X26500000Y-74410000D01*
X29000000Y-76500000D02*
X29000000Y-75250000D01*
X29000000Y-75250000D02*
X28160000Y-74410000D01*
X22500000Y-75410000D02*
X23500000Y-74410000D01*
X22500000Y-75750000D02*
X22500000Y-75410000D01*
X24500000Y-76750000D02*
X24500000Y-74410000D01*
X24250000Y-77000000D02*
X24500000Y-76750000D01*
X24250000Y-77000000D02*
X24250000Y-76750000D01*
X24250000Y-78055000D02*
X24250000Y-77000000D01*
X24580000Y-76500000D02*
X24500000Y-76500000D01*
X25250000Y-77170000D02*
X24580000Y-76500000D01*
X25250000Y-78055000D02*
X25250000Y-77170000D01*
X25500000Y-74410000D02*
X25500000Y-75220000D01*
X25750000Y-75470000D02*
X25750000Y-75750000D01*
X25500000Y-75220000D02*
X25750000Y-75470000D01*
X25750000Y-78055000D02*
X25750000Y-75750000D01*
X48500000Y-72970000D02*
X48500000Y-72160000D01*
X48500000Y-74010000D02*
X48500000Y-72970000D01*
X49190000Y-74700000D02*
X48500000Y-74010000D01*
X50300000Y-74700000D02*
X49190000Y-74700000D01*
X49500000Y-72160000D02*
X51410000Y-72160000D01*
X51410000Y-72160000D02*
X52500000Y-73250000D01*
X52500000Y-73250000D02*
X52500000Y-77750000D01*
X47450000Y-82800000D02*
X45700000Y-82800000D01*
X52500000Y-77750000D02*
X47450000Y-82800000D01*
X47500000Y-72970000D02*
X47500000Y-72160000D01*
X47500000Y-75110000D02*
X47500000Y-72970000D01*
X46810000Y-75800000D02*
X47500000Y-75110000D01*
X45700000Y-75800000D02*
X46810000Y-75800000D01*
X44590000Y-79800000D02*
X43500000Y-78710000D01*
X45700000Y-79800000D02*
X44590000Y-79800000D01*
X43500000Y-78710000D02*
X43500000Y-74000000D01*
X45340000Y-72160000D02*
X46500000Y-72160000D01*
X43500000Y-74000000D02*
X45340000Y-72160000D01*
X73010000Y-74910000D02*
X72500000Y-74910000D01*
X74000000Y-75900000D02*
X73010000Y-74910000D01*
X74000000Y-81500000D02*
X74000000Y-75900000D01*
X72000000Y-81500000D02*
X72000000Y-77000000D01*
X71500000Y-76500000D02*
X71500000Y-74910000D01*
X72000000Y-77000000D02*
X71500000Y-76500000D01*
X70000000Y-81500000D02*
X70000000Y-77000000D01*
X70500000Y-76500000D02*
X70500000Y-74910000D01*
X70000000Y-77000000D02*
X70500000Y-76500000D01*
X68990000Y-74910000D02*
X69500000Y-74910000D01*
X68000000Y-75900000D02*
X68990000Y-74910000D01*
X68000000Y-81500000D02*
X68000000Y-75900000D01*
M02*
