G04 #@! TF.GenerationSoftware,KiCad,Pcbnew,(5.1.5)-3*
G04 #@! TF.CreationDate,2020-04-27T00:01:42+07:00*
G04 #@! TF.ProjectId,adapter,61646170-7465-4722-9e6b-696361645f70,rev?*
G04 #@! TF.SameCoordinates,Original*
G04 #@! TF.FileFunction,Soldermask,Bot*
G04 #@! TF.FilePolarity,Negative*
%FSLAX46Y46*%
G04 Gerber Fmt 4.6, Leading zero omitted, Abs format (unit mm)*
G04 Created by KiCad (PCBNEW (5.1.5)-3) date 2020-04-27 00:01:42*
%MOMM*%
%LPD*%
G04 APERTURE LIST*
%ADD10C,0.100000*%
G04 APERTURE END LIST*
D10*
G36*
X48131552Y-83966331D02*
G01*
X48213627Y-84000328D01*
X48213629Y-84000329D01*
X48250813Y-84025175D01*
X48287495Y-84049685D01*
X48350315Y-84112505D01*
X48399672Y-84186373D01*
X48433669Y-84268448D01*
X48451000Y-84355579D01*
X48451000Y-84444421D01*
X48433669Y-84531552D01*
X48399672Y-84613627D01*
X48399671Y-84613629D01*
X48350314Y-84687496D01*
X48287496Y-84750314D01*
X48213629Y-84799671D01*
X48213628Y-84799672D01*
X48213627Y-84799672D01*
X48131552Y-84833669D01*
X48044421Y-84851000D01*
X47955579Y-84851000D01*
X47868448Y-84833669D01*
X47786373Y-84799672D01*
X47786372Y-84799672D01*
X47786371Y-84799671D01*
X47712504Y-84750314D01*
X47649686Y-84687496D01*
X47600329Y-84613629D01*
X47600328Y-84613627D01*
X47566331Y-84531552D01*
X47549000Y-84444421D01*
X47549000Y-84355579D01*
X47566331Y-84268448D01*
X47600328Y-84186373D01*
X47649685Y-84112505D01*
X47712505Y-84049685D01*
X47749187Y-84025175D01*
X47786371Y-84000329D01*
X47786373Y-84000328D01*
X47868448Y-83966331D01*
X47955579Y-83949000D01*
X48044421Y-83949000D01*
X48131552Y-83966331D01*
G37*
G36*
X45866823Y-81761313D02*
G01*
X46027242Y-81809976D01*
X46131563Y-81865737D01*
X46175078Y-81888996D01*
X46304659Y-81995341D01*
X46411004Y-82124922D01*
X46411005Y-82124924D01*
X46490024Y-82272758D01*
X46538687Y-82433178D01*
X46551000Y-82558197D01*
X46551000Y-83041804D01*
X46538687Y-83166823D01*
X46517121Y-83237915D01*
X46495857Y-83308015D01*
X46490024Y-83327242D01*
X46444783Y-83411882D01*
X46411004Y-83475078D01*
X46304659Y-83604659D01*
X46175077Y-83711005D01*
X46027241Y-83790024D01*
X45866822Y-83838687D01*
X45700000Y-83855117D01*
X45533177Y-83838687D01*
X45372758Y-83790024D01*
X45224924Y-83711005D01*
X45224922Y-83711004D01*
X45095341Y-83604659D01*
X44988995Y-83475077D01*
X44909976Y-83327241D01*
X44861313Y-83166822D01*
X44849000Y-83041803D01*
X44849000Y-82558196D01*
X44861313Y-82433177D01*
X44909976Y-82272758D01*
X44988995Y-82124924D01*
X44988996Y-82124922D01*
X45095342Y-81995341D01*
X45224923Y-81888996D01*
X45268438Y-81865737D01*
X45372759Y-81809976D01*
X45533178Y-81761313D01*
X45700000Y-81744883D01*
X45866823Y-81761313D01*
G37*
G36*
X20788014Y-82056973D02*
G01*
X20891878Y-82088479D01*
X20935907Y-82112013D01*
X20987599Y-82139643D01*
X20987601Y-82139644D01*
X20987600Y-82139644D01*
X21071501Y-82208499D01*
X21140356Y-82292400D01*
X21191521Y-82388121D01*
X21223027Y-82491985D01*
X21231000Y-82572933D01*
X21231000Y-83227067D01*
X21223027Y-83308015D01*
X21191521Y-83411879D01*
X21191519Y-83411882D01*
X21140357Y-83507600D01*
X21071501Y-83591501D01*
X20987600Y-83660357D01*
X20919055Y-83696995D01*
X20891879Y-83711521D01*
X20788015Y-83743027D01*
X20680000Y-83753666D01*
X20571986Y-83743027D01*
X20468122Y-83711521D01*
X20440946Y-83696995D01*
X20372401Y-83660357D01*
X20288500Y-83591501D01*
X20219645Y-83507601D01*
X20168480Y-83411879D01*
X20148645Y-83346491D01*
X20136973Y-83308015D01*
X20129000Y-83227067D01*
X20129000Y-82572934D01*
X20136973Y-82491986D01*
X20168479Y-82388122D01*
X20219644Y-82292400D01*
X20288499Y-82208499D01*
X20372400Y-82139644D01*
X20372399Y-82139644D01*
X20372401Y-82139643D01*
X20424093Y-82112013D01*
X20468121Y-82088479D01*
X20571985Y-82056973D01*
X20680000Y-82046334D01*
X20788014Y-82056973D01*
G37*
G36*
X29428014Y-82056973D02*
G01*
X29531878Y-82088479D01*
X29575907Y-82112013D01*
X29627599Y-82139643D01*
X29627601Y-82139644D01*
X29627600Y-82139644D01*
X29711501Y-82208499D01*
X29780356Y-82292400D01*
X29831521Y-82388121D01*
X29863027Y-82491985D01*
X29871000Y-82572933D01*
X29871000Y-83227067D01*
X29863027Y-83308015D01*
X29831521Y-83411879D01*
X29831519Y-83411882D01*
X29780357Y-83507600D01*
X29711501Y-83591501D01*
X29627600Y-83660357D01*
X29559055Y-83696995D01*
X29531879Y-83711521D01*
X29428015Y-83743027D01*
X29320000Y-83753666D01*
X29211986Y-83743027D01*
X29108122Y-83711521D01*
X29080946Y-83696995D01*
X29012401Y-83660357D01*
X28928500Y-83591501D01*
X28859645Y-83507601D01*
X28808480Y-83411879D01*
X28788645Y-83346491D01*
X28776973Y-83308015D01*
X28769000Y-83227067D01*
X28769000Y-82572934D01*
X28776973Y-82491986D01*
X28808479Y-82388122D01*
X28859644Y-82292400D01*
X28928499Y-82208499D01*
X29012400Y-82139644D01*
X29012399Y-82139644D01*
X29012401Y-82139643D01*
X29064093Y-82112013D01*
X29108121Y-82088479D01*
X29211985Y-82056973D01*
X29320000Y-82046334D01*
X29428014Y-82056973D01*
G37*
G36*
X97687915Y-81707334D02*
G01*
X97796491Y-81740271D01*
X97796494Y-81740272D01*
X97805120Y-81744883D01*
X97896556Y-81793756D01*
X97984264Y-81865736D01*
X98056244Y-81953443D01*
X98090429Y-82017399D01*
X98109728Y-82053505D01*
X98109728Y-82053506D01*
X98109729Y-82053508D01*
X98142666Y-82162084D01*
X98151000Y-82246702D01*
X98151000Y-83153298D01*
X98142666Y-83237916D01*
X98109729Y-83346491D01*
X98109728Y-83346495D01*
X98090429Y-83382601D01*
X98056244Y-83446557D01*
X97984264Y-83534264D01*
X97896557Y-83606244D01*
X97832601Y-83640429D01*
X97796495Y-83659728D01*
X97796492Y-83659729D01*
X97687916Y-83692666D01*
X97575000Y-83703787D01*
X97462085Y-83692666D01*
X97353509Y-83659729D01*
X97353506Y-83659728D01*
X97317400Y-83640429D01*
X97253444Y-83606244D01*
X97165737Y-83534264D01*
X97093757Y-83446557D01*
X97059572Y-83382601D01*
X97040273Y-83346495D01*
X97040272Y-83346491D01*
X97007335Y-83237916D01*
X96999000Y-83153298D01*
X96999000Y-82246703D01*
X97007334Y-82162085D01*
X97040271Y-82053509D01*
X97040272Y-82053506D01*
X97071362Y-81995341D01*
X97093756Y-81953444D01*
X97165736Y-81865736D01*
X97253443Y-81793756D01*
X97344879Y-81744883D01*
X97353505Y-81740272D01*
X97353508Y-81740271D01*
X97462084Y-81707334D01*
X97575000Y-81696213D01*
X97687915Y-81707334D01*
G37*
G36*
X90537916Y-81707334D02*
G01*
X90646492Y-81740271D01*
X90646495Y-81740272D01*
X90655121Y-81744883D01*
X90746557Y-81793756D01*
X90834264Y-81865736D01*
X90906244Y-81953443D01*
X90940429Y-82017399D01*
X90959728Y-82053505D01*
X90959728Y-82053506D01*
X90959729Y-82053508D01*
X90992666Y-82162084D01*
X91001000Y-82246702D01*
X91001000Y-83153298D01*
X90992666Y-83237916D01*
X90959729Y-83346491D01*
X90959728Y-83346495D01*
X90940429Y-83382601D01*
X90906244Y-83446557D01*
X90834264Y-83534264D01*
X90746556Y-83606244D01*
X90682600Y-83640429D01*
X90646494Y-83659728D01*
X90646491Y-83659729D01*
X90537915Y-83692666D01*
X90425000Y-83703787D01*
X90312084Y-83692666D01*
X90203508Y-83659729D01*
X90203505Y-83659728D01*
X90167399Y-83640429D01*
X90103443Y-83606244D01*
X90015736Y-83534264D01*
X89943756Y-83446556D01*
X89890273Y-83346495D01*
X89890272Y-83346494D01*
X89884432Y-83327242D01*
X89857334Y-83237915D01*
X89849000Y-83153297D01*
X89849000Y-82246702D01*
X89857335Y-82162084D01*
X89890272Y-82053508D01*
X89890273Y-82053506D01*
X89890273Y-82053505D01*
X89909572Y-82017399D01*
X89943757Y-81953443D01*
X90015737Y-81865736D01*
X90103444Y-81793756D01*
X90194880Y-81744883D01*
X90203506Y-81740272D01*
X90203509Y-81740271D01*
X90312085Y-81707334D01*
X90425000Y-81696213D01*
X90537916Y-81707334D01*
G37*
G36*
X70211766Y-80801899D02*
G01*
X70340245Y-80855117D01*
X70343890Y-80856627D01*
X70462798Y-80936079D01*
X70563921Y-81037202D01*
X70563922Y-81037204D01*
X70643374Y-81156112D01*
X70698101Y-81288234D01*
X70726000Y-81428494D01*
X70726000Y-81571506D01*
X70698101Y-81711766D01*
X70643374Y-81843888D01*
X70643373Y-81843890D01*
X70563921Y-81962798D01*
X70462798Y-82063921D01*
X70343890Y-82143373D01*
X70343889Y-82143374D01*
X70343888Y-82143374D01*
X70211766Y-82198101D01*
X70071506Y-82226000D01*
X69928494Y-82226000D01*
X69788234Y-82198101D01*
X69656112Y-82143374D01*
X69656111Y-82143374D01*
X69656110Y-82143373D01*
X69537202Y-82063921D01*
X69436079Y-81962798D01*
X69356627Y-81843890D01*
X69356626Y-81843888D01*
X69301899Y-81711766D01*
X69274000Y-81571506D01*
X69274000Y-81428494D01*
X69301899Y-81288234D01*
X69356626Y-81156112D01*
X69436078Y-81037204D01*
X69436079Y-81037202D01*
X69537202Y-80936079D01*
X69656110Y-80856627D01*
X69659755Y-80855117D01*
X69788234Y-80801899D01*
X69928494Y-80774000D01*
X70071506Y-80774000D01*
X70211766Y-80801899D01*
G37*
G36*
X72211766Y-80801899D02*
G01*
X72340245Y-80855117D01*
X72343890Y-80856627D01*
X72462798Y-80936079D01*
X72563921Y-81037202D01*
X72563922Y-81037204D01*
X72643374Y-81156112D01*
X72698101Y-81288234D01*
X72726000Y-81428494D01*
X72726000Y-81571506D01*
X72698101Y-81711766D01*
X72643374Y-81843888D01*
X72643373Y-81843890D01*
X72563921Y-81962798D01*
X72462798Y-82063921D01*
X72343890Y-82143373D01*
X72343889Y-82143374D01*
X72343888Y-82143374D01*
X72211766Y-82198101D01*
X72071506Y-82226000D01*
X71928494Y-82226000D01*
X71788234Y-82198101D01*
X71656112Y-82143374D01*
X71656111Y-82143374D01*
X71656110Y-82143373D01*
X71537202Y-82063921D01*
X71436079Y-81962798D01*
X71356627Y-81843890D01*
X71356626Y-81843888D01*
X71301899Y-81711766D01*
X71274000Y-81571506D01*
X71274000Y-81428494D01*
X71301899Y-81288234D01*
X71356626Y-81156112D01*
X71436078Y-81037204D01*
X71436079Y-81037202D01*
X71537202Y-80936079D01*
X71656110Y-80856627D01*
X71659755Y-80855117D01*
X71788234Y-80801899D01*
X71928494Y-80774000D01*
X72071506Y-80774000D01*
X72211766Y-80801899D01*
G37*
G36*
X74726000Y-82226000D02*
G01*
X73274000Y-82226000D01*
X73274000Y-80774000D01*
X74726000Y-80774000D01*
X74726000Y-82226000D01*
G37*
G36*
X68211766Y-80801899D02*
G01*
X68340245Y-80855117D01*
X68343890Y-80856627D01*
X68462798Y-80936079D01*
X68563921Y-81037202D01*
X68563922Y-81037204D01*
X68643374Y-81156112D01*
X68698101Y-81288234D01*
X68726000Y-81428494D01*
X68726000Y-81571506D01*
X68698101Y-81711766D01*
X68643374Y-81843888D01*
X68643373Y-81843890D01*
X68563921Y-81962798D01*
X68462798Y-82063921D01*
X68343890Y-82143373D01*
X68343889Y-82143374D01*
X68343888Y-82143374D01*
X68211766Y-82198101D01*
X68071506Y-82226000D01*
X67928494Y-82226000D01*
X67788234Y-82198101D01*
X67656112Y-82143374D01*
X67656111Y-82143374D01*
X67656110Y-82143373D01*
X67537202Y-82063921D01*
X67436079Y-81962798D01*
X67356627Y-81843890D01*
X67356626Y-81843888D01*
X67301899Y-81711766D01*
X67274000Y-81571506D01*
X67274000Y-81428494D01*
X67301899Y-81288234D01*
X67356626Y-81156112D01*
X67436078Y-81037204D01*
X67436079Y-81037202D01*
X67537202Y-80936079D01*
X67656110Y-80856627D01*
X67659755Y-80855117D01*
X67788234Y-80801899D01*
X67928494Y-80774000D01*
X68071506Y-80774000D01*
X68211766Y-80801899D01*
G37*
G36*
X45866823Y-78761313D02*
G01*
X46027242Y-78809976D01*
X46117930Y-78858450D01*
X46175078Y-78888996D01*
X46304659Y-78995341D01*
X46411004Y-79124922D01*
X46411005Y-79124924D01*
X46490024Y-79272758D01*
X46538687Y-79433178D01*
X46551000Y-79558197D01*
X46551000Y-80041804D01*
X46538687Y-80166823D01*
X46490024Y-80327242D01*
X46419114Y-80459906D01*
X46411004Y-80475078D01*
X46304659Y-80604659D01*
X46175077Y-80711005D01*
X46027241Y-80790024D01*
X45866822Y-80838687D01*
X45700000Y-80855117D01*
X45533177Y-80838687D01*
X45372758Y-80790024D01*
X45224924Y-80711005D01*
X45224922Y-80711004D01*
X45095341Y-80604659D01*
X44988995Y-80475077D01*
X44909976Y-80327241D01*
X44861313Y-80166822D01*
X44849000Y-80041803D01*
X44849000Y-79558196D01*
X44861313Y-79433177D01*
X44909976Y-79272758D01*
X44988995Y-79124924D01*
X44988996Y-79124922D01*
X45095342Y-78995341D01*
X45224923Y-78888996D01*
X45282071Y-78858450D01*
X45372759Y-78809976D01*
X45533178Y-78761313D01*
X45700000Y-78744883D01*
X45866823Y-78761313D01*
G37*
G36*
X29428014Y-77626973D02*
G01*
X29531878Y-77658479D01*
X29575907Y-77682013D01*
X29627599Y-77709643D01*
X29627601Y-77709644D01*
X29627600Y-77709644D01*
X29711501Y-77778499D01*
X29780356Y-77862400D01*
X29831521Y-77958121D01*
X29863027Y-78061985D01*
X29871000Y-78142933D01*
X29871000Y-79297067D01*
X29863027Y-79378015D01*
X29831521Y-79481879D01*
X29831519Y-79481882D01*
X29780357Y-79577600D01*
X29711501Y-79661501D01*
X29627600Y-79730357D01*
X29559055Y-79766995D01*
X29531879Y-79781521D01*
X29428015Y-79813027D01*
X29320000Y-79823666D01*
X29211986Y-79813027D01*
X29108122Y-79781521D01*
X29080946Y-79766995D01*
X29012401Y-79730357D01*
X28928500Y-79661501D01*
X28859644Y-79577600D01*
X28808482Y-79481882D01*
X28808480Y-79481879D01*
X28776974Y-79378015D01*
X28769001Y-79297067D01*
X28769000Y-78142934D01*
X28776973Y-78061986D01*
X28808479Y-77958122D01*
X28859644Y-77862400D01*
X28928499Y-77778499D01*
X29012400Y-77709644D01*
X29012399Y-77709644D01*
X29012401Y-77709643D01*
X29064093Y-77682013D01*
X29108121Y-77658479D01*
X29211985Y-77626973D01*
X29320000Y-77616334D01*
X29428014Y-77626973D01*
G37*
G36*
X20788014Y-77626973D02*
G01*
X20891878Y-77658479D01*
X20935907Y-77682013D01*
X20987599Y-77709643D01*
X20987601Y-77709644D01*
X20987600Y-77709644D01*
X21071501Y-77778499D01*
X21140356Y-77862400D01*
X21191521Y-77958121D01*
X21223027Y-78061985D01*
X21231000Y-78142933D01*
X21231000Y-79297067D01*
X21223027Y-79378015D01*
X21191521Y-79481879D01*
X21191519Y-79481882D01*
X21140357Y-79577600D01*
X21071501Y-79661501D01*
X20987600Y-79730357D01*
X20919055Y-79766995D01*
X20891879Y-79781521D01*
X20788015Y-79813027D01*
X20680000Y-79823666D01*
X20571986Y-79813027D01*
X20468122Y-79781521D01*
X20440946Y-79766995D01*
X20372401Y-79730357D01*
X20288500Y-79661501D01*
X20219644Y-79577600D01*
X20168482Y-79481882D01*
X20168480Y-79481879D01*
X20136974Y-79378015D01*
X20129001Y-79297067D01*
X20129000Y-78142934D01*
X20136973Y-78061986D01*
X20168479Y-77958122D01*
X20219644Y-77862400D01*
X20288499Y-77778499D01*
X20372400Y-77709644D01*
X20372399Y-77709644D01*
X20372401Y-77709643D01*
X20424093Y-77682013D01*
X20468121Y-77658479D01*
X20571985Y-77626973D01*
X20680000Y-77616334D01*
X20788014Y-77626973D01*
G37*
G36*
X27999672Y-78858449D02*
G01*
X27999674Y-78858450D01*
X27999675Y-78858450D01*
X28068103Y-78886793D01*
X28129686Y-78927942D01*
X28182058Y-78980314D01*
X28223207Y-79041897D01*
X28251550Y-79110325D01*
X28251551Y-79110328D01*
X28266000Y-79182966D01*
X28266000Y-79257034D01*
X28258037Y-79297067D01*
X28251550Y-79329675D01*
X28223207Y-79398103D01*
X28182058Y-79459686D01*
X28129686Y-79512058D01*
X28068103Y-79553207D01*
X27999675Y-79581550D01*
X27999674Y-79581550D01*
X27999672Y-79581551D01*
X27927034Y-79596000D01*
X27852966Y-79596000D01*
X27780328Y-79581551D01*
X27780326Y-79581550D01*
X27780325Y-79581550D01*
X27711897Y-79553207D01*
X27650314Y-79512058D01*
X27597942Y-79459686D01*
X27556793Y-79398103D01*
X27528450Y-79329675D01*
X27521964Y-79297067D01*
X27514000Y-79257034D01*
X27514000Y-79182966D01*
X27528449Y-79110328D01*
X27528450Y-79110325D01*
X27556793Y-79041897D01*
X27597942Y-78980314D01*
X27650314Y-78927942D01*
X27711897Y-78886793D01*
X27780325Y-78858450D01*
X27780326Y-78858450D01*
X27780328Y-78858449D01*
X27852966Y-78844000D01*
X27927034Y-78844000D01*
X27999672Y-78858449D01*
G37*
G36*
X22219672Y-78858449D02*
G01*
X22219674Y-78858450D01*
X22219675Y-78858450D01*
X22288103Y-78886793D01*
X22349686Y-78927942D01*
X22402058Y-78980314D01*
X22443207Y-79041897D01*
X22471550Y-79110325D01*
X22471551Y-79110328D01*
X22486000Y-79182966D01*
X22486000Y-79257034D01*
X22478037Y-79297067D01*
X22471550Y-79329675D01*
X22443207Y-79398103D01*
X22402058Y-79459686D01*
X22349686Y-79512058D01*
X22288103Y-79553207D01*
X22219675Y-79581550D01*
X22219674Y-79581550D01*
X22219672Y-79581551D01*
X22147034Y-79596000D01*
X22072966Y-79596000D01*
X22000328Y-79581551D01*
X22000326Y-79581550D01*
X22000325Y-79581550D01*
X21931897Y-79553207D01*
X21870314Y-79512058D01*
X21817942Y-79459686D01*
X21776793Y-79398103D01*
X21748450Y-79329675D01*
X21741964Y-79297067D01*
X21734000Y-79257034D01*
X21734000Y-79182966D01*
X21748449Y-79110328D01*
X21748450Y-79110325D01*
X21776793Y-79041897D01*
X21817942Y-78980314D01*
X21870314Y-78927942D01*
X21931897Y-78886793D01*
X22000325Y-78858450D01*
X22000326Y-78858450D01*
X22000328Y-78858449D01*
X22072966Y-78844000D01*
X22147034Y-78844000D01*
X22219672Y-78858449D01*
G37*
G36*
X48131552Y-76966331D02*
G01*
X48213627Y-77000328D01*
X48213629Y-77000329D01*
X48250813Y-77025175D01*
X48287495Y-77049685D01*
X48350315Y-77112505D01*
X48399672Y-77186373D01*
X48433669Y-77268448D01*
X48451000Y-77355579D01*
X48451000Y-77444421D01*
X48433669Y-77531552D01*
X48399672Y-77613627D01*
X48399671Y-77613629D01*
X48374825Y-77650813D01*
X48369702Y-77658481D01*
X48350314Y-77687496D01*
X48287496Y-77750314D01*
X48213629Y-77799671D01*
X48213628Y-77799672D01*
X48213627Y-77799672D01*
X48131552Y-77833669D01*
X48044421Y-77851000D01*
X47955579Y-77851000D01*
X47868448Y-77833669D01*
X47786373Y-77799672D01*
X47786372Y-77799672D01*
X47786371Y-77799671D01*
X47712504Y-77750314D01*
X47649686Y-77687496D01*
X47630299Y-77658481D01*
X47625175Y-77650813D01*
X47600329Y-77613629D01*
X47600328Y-77613627D01*
X47566331Y-77531552D01*
X47549000Y-77444421D01*
X47549000Y-77355579D01*
X47566331Y-77268448D01*
X47600328Y-77186373D01*
X47649685Y-77112505D01*
X47712505Y-77049685D01*
X47749187Y-77025175D01*
X47786371Y-77000329D01*
X47786373Y-77000328D01*
X47868448Y-76966331D01*
X47955579Y-76949000D01*
X48044421Y-76949000D01*
X48131552Y-76966331D01*
G37*
G36*
X45866823Y-74761313D02*
G01*
X46027242Y-74809976D01*
X46159906Y-74880886D01*
X46175078Y-74888996D01*
X46304659Y-74995341D01*
X46411004Y-75124922D01*
X46411005Y-75124924D01*
X46490024Y-75272758D01*
X46538687Y-75433178D01*
X46551000Y-75558197D01*
X46551000Y-76041804D01*
X46538687Y-76166823D01*
X46490024Y-76327242D01*
X46419114Y-76459906D01*
X46411004Y-76475078D01*
X46304659Y-76604659D01*
X46175077Y-76711005D01*
X46027241Y-76790024D01*
X45866822Y-76838687D01*
X45700000Y-76855117D01*
X45533177Y-76838687D01*
X45372758Y-76790024D01*
X45224924Y-76711005D01*
X45224922Y-76711004D01*
X45095341Y-76604659D01*
X44988995Y-76475077D01*
X44909976Y-76327241D01*
X44861313Y-76166822D01*
X44849000Y-76041803D01*
X44849000Y-75558196D01*
X44861313Y-75433177D01*
X44909976Y-75272758D01*
X44988995Y-75124924D01*
X44988996Y-75124922D01*
X45095342Y-74995341D01*
X45224923Y-74888996D01*
X45240095Y-74880886D01*
X45372759Y-74809976D01*
X45533178Y-74761313D01*
X45700000Y-74744883D01*
X45866823Y-74761313D01*
G37*
G36*
X50466823Y-73661313D02*
G01*
X50627242Y-73709976D01*
X50759906Y-73780886D01*
X50775078Y-73788996D01*
X50904659Y-73895341D01*
X51011004Y-74024922D01*
X51011005Y-74024924D01*
X51090024Y-74172758D01*
X51138687Y-74333178D01*
X51151000Y-74458197D01*
X51151000Y-74941804D01*
X51138687Y-75066823D01*
X51090024Y-75227242D01*
X51019114Y-75359906D01*
X51011004Y-75375078D01*
X50963323Y-75433177D01*
X50904659Y-75504659D01*
X50775077Y-75611005D01*
X50627241Y-75690024D01*
X50466822Y-75738687D01*
X50300000Y-75755117D01*
X50133177Y-75738687D01*
X49972758Y-75690024D01*
X49824924Y-75611005D01*
X49824922Y-75611004D01*
X49695341Y-75504659D01*
X49636677Y-75433177D01*
X49588995Y-75375077D01*
X49509976Y-75227241D01*
X49461313Y-75066822D01*
X49449000Y-74941803D01*
X49449000Y-74458196D01*
X49461313Y-74333177D01*
X49509976Y-74172758D01*
X49588995Y-74024924D01*
X49588996Y-74024922D01*
X49695342Y-73895341D01*
X49824923Y-73788996D01*
X49840095Y-73780886D01*
X49972759Y-73709976D01*
X50133178Y-73661313D01*
X50300000Y-73644883D01*
X50466823Y-73661313D01*
G37*
G36*
X95736601Y-57914397D02*
G01*
X95775305Y-57922096D01*
X95807340Y-57935365D01*
X95884680Y-57967400D01*
X95983115Y-58033173D01*
X96066827Y-58116885D01*
X96132600Y-58215320D01*
X96177904Y-58324696D01*
X96201000Y-58440805D01*
X96201000Y-58559195D01*
X96177904Y-58675304D01*
X96132600Y-58784680D01*
X96066827Y-58883115D01*
X95983115Y-58966827D01*
X95884680Y-59032600D01*
X95807340Y-59064635D01*
X95775305Y-59077904D01*
X95736601Y-59085603D01*
X95659195Y-59101000D01*
X95540805Y-59101000D01*
X95463399Y-59085603D01*
X95424695Y-59077904D01*
X95392660Y-59064635D01*
X95315320Y-59032600D01*
X95216885Y-58966827D01*
X95133173Y-58883115D01*
X95067400Y-58784680D01*
X95022096Y-58675304D01*
X94999000Y-58559195D01*
X94999000Y-58440805D01*
X95022096Y-58324696D01*
X95067400Y-58215320D01*
X95133173Y-58116885D01*
X95216885Y-58033173D01*
X95315320Y-57967400D01*
X95392660Y-57935365D01*
X95424695Y-57922096D01*
X95463399Y-57914397D01*
X95540805Y-57899000D01*
X95659195Y-57899000D01*
X95736601Y-57914397D01*
G37*
G36*
X94136601Y-57914397D02*
G01*
X94175305Y-57922096D01*
X94207340Y-57935365D01*
X94284680Y-57967400D01*
X94383115Y-58033173D01*
X94466827Y-58116885D01*
X94532600Y-58215320D01*
X94577904Y-58324696D01*
X94601000Y-58440805D01*
X94601000Y-58559195D01*
X94577904Y-58675304D01*
X94532600Y-58784680D01*
X94466827Y-58883115D01*
X94383115Y-58966827D01*
X94284680Y-59032600D01*
X94207340Y-59064635D01*
X94175305Y-59077904D01*
X94136601Y-59085603D01*
X94059195Y-59101000D01*
X93940805Y-59101000D01*
X93863399Y-59085603D01*
X93824695Y-59077904D01*
X93792660Y-59064635D01*
X93715320Y-59032600D01*
X93616885Y-58966827D01*
X93533173Y-58883115D01*
X93467400Y-58784680D01*
X93422096Y-58675304D01*
X93399000Y-58559195D01*
X93399000Y-58440805D01*
X93422096Y-58324696D01*
X93467400Y-58215320D01*
X93533173Y-58116885D01*
X93616885Y-58033173D01*
X93715320Y-57967400D01*
X93792660Y-57935365D01*
X93824695Y-57922096D01*
X93863399Y-57914397D01*
X93940805Y-57899000D01*
X94059195Y-57899000D01*
X94136601Y-57914397D01*
G37*
G36*
X93001000Y-59101000D02*
G01*
X91799000Y-59101000D01*
X91799000Y-57899000D01*
X93001000Y-57899000D01*
X93001000Y-59101000D01*
G37*
G36*
X97767817Y-56382696D02*
G01*
X97881104Y-56417062D01*
X97985511Y-56472869D01*
X97985513Y-56472870D01*
X97985512Y-56472870D01*
X98077027Y-56547973D01*
X98140711Y-56625572D01*
X98152131Y-56639488D01*
X98207938Y-56743895D01*
X98242304Y-56857182D01*
X98251000Y-56945481D01*
X98251000Y-58304519D01*
X98242304Y-58392818D01*
X98207938Y-58506105D01*
X98152131Y-58610512D01*
X98077027Y-58702027D01*
X97985512Y-58777131D01*
X97881105Y-58832938D01*
X97767818Y-58867304D01*
X97650000Y-58878907D01*
X97532183Y-58867304D01*
X97418896Y-58832938D01*
X97314489Y-58777131D01*
X97222974Y-58702027D01*
X97147870Y-58610512D01*
X97092063Y-58506105D01*
X97057697Y-58392818D01*
X97049001Y-58304519D01*
X97049000Y-56945482D01*
X97057696Y-56857183D01*
X97092062Y-56743896D01*
X97147869Y-56639489D01*
X97161338Y-56623077D01*
X97222973Y-56547973D01*
X97314487Y-56472870D01*
X97314486Y-56472870D01*
X97314488Y-56472869D01*
X97418895Y-56417062D01*
X97532182Y-56382696D01*
X97650000Y-56371093D01*
X97767817Y-56382696D01*
G37*
G36*
X90467817Y-56382696D02*
G01*
X90581104Y-56417062D01*
X90685511Y-56472869D01*
X90685513Y-56472870D01*
X90685512Y-56472870D01*
X90777027Y-56547973D01*
X90840711Y-56625572D01*
X90852131Y-56639488D01*
X90907938Y-56743895D01*
X90942304Y-56857182D01*
X90951000Y-56945481D01*
X90951000Y-58304519D01*
X90942304Y-58392818D01*
X90907938Y-58506105D01*
X90852131Y-58610512D01*
X90777027Y-58702027D01*
X90685512Y-58777131D01*
X90581105Y-58832938D01*
X90467818Y-58867304D01*
X90350000Y-58878907D01*
X90232183Y-58867304D01*
X90118896Y-58832938D01*
X90014489Y-58777131D01*
X89922974Y-58702027D01*
X89847870Y-58610512D01*
X89792063Y-58506105D01*
X89757697Y-58392818D01*
X89749001Y-58304519D01*
X89749000Y-56945482D01*
X89757696Y-56857183D01*
X89792062Y-56743896D01*
X89847869Y-56639489D01*
X89861338Y-56623077D01*
X89922973Y-56547973D01*
X90014487Y-56472870D01*
X90014486Y-56472870D01*
X90014488Y-56472869D01*
X90118895Y-56417062D01*
X90232182Y-56382696D01*
X90350000Y-56371093D01*
X90467817Y-56382696D01*
G37*
G36*
X94918119Y-56160721D02*
G01*
X94975305Y-56172096D01*
X95007340Y-56185365D01*
X95084680Y-56217400D01*
X95183115Y-56283173D01*
X95266827Y-56366885D01*
X95332600Y-56465320D01*
X95377904Y-56574696D01*
X95401000Y-56690805D01*
X95401000Y-56809195D01*
X95377904Y-56925304D01*
X95332600Y-57034680D01*
X95266827Y-57133115D01*
X95183115Y-57216827D01*
X95084680Y-57282600D01*
X95007340Y-57314635D01*
X94975305Y-57327904D01*
X94936601Y-57335603D01*
X94859195Y-57351000D01*
X94740805Y-57351000D01*
X94663399Y-57335603D01*
X94624695Y-57327904D01*
X94592660Y-57314635D01*
X94515320Y-57282600D01*
X94416885Y-57216827D01*
X94333173Y-57133115D01*
X94267400Y-57034680D01*
X94222096Y-56925304D01*
X94199000Y-56809195D01*
X94199000Y-56690805D01*
X94222096Y-56574696D01*
X94267400Y-56465320D01*
X94333173Y-56366885D01*
X94416885Y-56283173D01*
X94515320Y-56217400D01*
X94592660Y-56185365D01*
X94624695Y-56172096D01*
X94681881Y-56160721D01*
X94740805Y-56149000D01*
X94859195Y-56149000D01*
X94918119Y-56160721D01*
G37*
G36*
X93318119Y-56160721D02*
G01*
X93375305Y-56172096D01*
X93407340Y-56185365D01*
X93484680Y-56217400D01*
X93583115Y-56283173D01*
X93666827Y-56366885D01*
X93732600Y-56465320D01*
X93777904Y-56574696D01*
X93801000Y-56690805D01*
X93801000Y-56809195D01*
X93777904Y-56925304D01*
X93732600Y-57034680D01*
X93666827Y-57133115D01*
X93583115Y-57216827D01*
X93484680Y-57282600D01*
X93407340Y-57314635D01*
X93375305Y-57327904D01*
X93336601Y-57335603D01*
X93259195Y-57351000D01*
X93140805Y-57351000D01*
X93063399Y-57335603D01*
X93024695Y-57327904D01*
X92992660Y-57314635D01*
X92915320Y-57282600D01*
X92816885Y-57216827D01*
X92733173Y-57133115D01*
X92667400Y-57034680D01*
X92622096Y-56925304D01*
X92599000Y-56809195D01*
X92599000Y-56690805D01*
X92622096Y-56574696D01*
X92667400Y-56465320D01*
X92733173Y-56366885D01*
X92816885Y-56283173D01*
X92915320Y-56217400D01*
X92992660Y-56185365D01*
X93024695Y-56172096D01*
X93081881Y-56160721D01*
X93140805Y-56149000D01*
X93259195Y-56149000D01*
X93318119Y-56160721D01*
G37*
G36*
X50631552Y-54616331D02*
G01*
X50713627Y-54650328D01*
X50713629Y-54650329D01*
X50750813Y-54675175D01*
X50787495Y-54699685D01*
X50850315Y-54762505D01*
X50899672Y-54836373D01*
X50933669Y-54918448D01*
X50951000Y-55005579D01*
X50951000Y-55094421D01*
X50933193Y-55183946D01*
X50927490Y-55202743D01*
X50925087Y-55227129D01*
X50927488Y-55251515D01*
X50934600Y-55274964D01*
X50946151Y-55296575D01*
X50961695Y-55315518D01*
X50980637Y-55331063D01*
X51002247Y-55342615D01*
X51025696Y-55349729D01*
X51050082Y-55352132D01*
X51074468Y-55349731D01*
X51097917Y-55342619D01*
X51119528Y-55331068D01*
X51138471Y-55315524D01*
X51146711Y-55306432D01*
X51173628Y-55273634D01*
X51291797Y-55176655D01*
X51426599Y-55104602D01*
X51572880Y-55060228D01*
X51725000Y-55045246D01*
X51877121Y-55060228D01*
X52023402Y-55104602D01*
X52158204Y-55176655D01*
X52158207Y-55176657D01*
X52158208Y-55176658D01*
X52276369Y-55273631D01*
X52367573Y-55384762D01*
X52373345Y-55391796D01*
X52445398Y-55526598D01*
X52489772Y-55672879D01*
X52501000Y-55786882D01*
X52501000Y-56413118D01*
X52489772Y-56527121D01*
X52445398Y-56673402D01*
X52373345Y-56808204D01*
X52373343Y-56808206D01*
X52373342Y-56808208D01*
X52372532Y-56809195D01*
X52276367Y-56926372D01*
X52158206Y-57023343D01*
X52023401Y-57095398D01*
X51877120Y-57139772D01*
X51725000Y-57154754D01*
X51572879Y-57139772D01*
X51426598Y-57095398D01*
X51291796Y-57023345D01*
X51173628Y-56926367D01*
X51076657Y-56808206D01*
X51004602Y-56673401D01*
X50960228Y-56527120D01*
X50949000Y-56413117D01*
X50949000Y-55786882D01*
X50960228Y-55672879D01*
X51006402Y-55520664D01*
X51011052Y-55509439D01*
X51015833Y-55485405D01*
X51015833Y-55460901D01*
X51011054Y-55436868D01*
X51001677Y-55414229D01*
X50988064Y-55393854D01*
X50970737Y-55376527D01*
X50950363Y-55362912D01*
X50927725Y-55353534D01*
X50903691Y-55348753D01*
X50879187Y-55348753D01*
X50855154Y-55353532D01*
X50832515Y-55362909D01*
X50812140Y-55376522D01*
X50803048Y-55384762D01*
X50787496Y-55400314D01*
X50713629Y-55449671D01*
X50713628Y-55449672D01*
X50713627Y-55449672D01*
X50631552Y-55483669D01*
X50544421Y-55501000D01*
X50455579Y-55501000D01*
X50368448Y-55483669D01*
X50286373Y-55449672D01*
X50286372Y-55449672D01*
X50286371Y-55449671D01*
X50212504Y-55400314D01*
X50149686Y-55337496D01*
X50149602Y-55337370D01*
X50100328Y-55263627D01*
X50066331Y-55181552D01*
X50049000Y-55094421D01*
X50049000Y-55005579D01*
X50066331Y-54918448D01*
X50100328Y-54836373D01*
X50149685Y-54762505D01*
X50212505Y-54699685D01*
X50249187Y-54675175D01*
X50286371Y-54650329D01*
X50286373Y-54650328D01*
X50368448Y-54616331D01*
X50455579Y-54599000D01*
X50544421Y-54599000D01*
X50631552Y-54616331D01*
G37*
G36*
X45631552Y-54616331D02*
G01*
X45713627Y-54650328D01*
X45713629Y-54650329D01*
X45750813Y-54675175D01*
X45787495Y-54699685D01*
X45850315Y-54762505D01*
X45899672Y-54836373D01*
X45933669Y-54918448D01*
X45951000Y-55005579D01*
X45951000Y-55094421D01*
X45933669Y-55181552D01*
X45899672Y-55263627D01*
X45850399Y-55337370D01*
X45850314Y-55337496D01*
X45787496Y-55400314D01*
X45713629Y-55449671D01*
X45713628Y-55449672D01*
X45713627Y-55449672D01*
X45631552Y-55483669D01*
X45544421Y-55501000D01*
X45455579Y-55501000D01*
X45368448Y-55483669D01*
X45286373Y-55449672D01*
X45286372Y-55449672D01*
X45286371Y-55449671D01*
X45212504Y-55400314D01*
X45196952Y-55384762D01*
X45178010Y-55369217D01*
X45156399Y-55357666D01*
X45132950Y-55350553D01*
X45108564Y-55348151D01*
X45084178Y-55350553D01*
X45060729Y-55357666D01*
X45039118Y-55369217D01*
X45020176Y-55384762D01*
X45004631Y-55403704D01*
X44993080Y-55425315D01*
X44985967Y-55448764D01*
X44983565Y-55473150D01*
X44985967Y-55497536D01*
X44993080Y-55520985D01*
X44994796Y-55524614D01*
X45039772Y-55672879D01*
X45051000Y-55786882D01*
X45051000Y-56413118D01*
X45039772Y-56527121D01*
X44995398Y-56673402D01*
X44923345Y-56808204D01*
X44923343Y-56808206D01*
X44923342Y-56808208D01*
X44922532Y-56809195D01*
X44826367Y-56926372D01*
X44708206Y-57023343D01*
X44573401Y-57095398D01*
X44427120Y-57139772D01*
X44275000Y-57154754D01*
X44122879Y-57139772D01*
X43976598Y-57095398D01*
X43841796Y-57023345D01*
X43723628Y-56926367D01*
X43626657Y-56808206D01*
X43554602Y-56673401D01*
X43510228Y-56527120D01*
X43499000Y-56413117D01*
X43499000Y-55786882D01*
X43510228Y-55672879D01*
X43554601Y-55526600D01*
X43626657Y-55391794D01*
X43723632Y-55273631D01*
X43765363Y-55239383D01*
X43841793Y-55176658D01*
X43841794Y-55176657D01*
X43841797Y-55176655D01*
X43976599Y-55104602D01*
X44122880Y-55060228D01*
X44275000Y-55045246D01*
X44427121Y-55060228D01*
X44573402Y-55104602D01*
X44708204Y-55176655D01*
X44826372Y-55273633D01*
X44853288Y-55306430D01*
X44870615Y-55323757D01*
X44890989Y-55337370D01*
X44913628Y-55346748D01*
X44937661Y-55351528D01*
X44962165Y-55351528D01*
X44986199Y-55346748D01*
X45008837Y-55337370D01*
X45029212Y-55323756D01*
X45046539Y-55306429D01*
X45060152Y-55286055D01*
X45069530Y-55263416D01*
X45074310Y-55239383D01*
X45074310Y-55214879D01*
X45069530Y-55190845D01*
X45066490Y-55182351D01*
X45049000Y-55094421D01*
X45049000Y-55005579D01*
X45066331Y-54918448D01*
X45100328Y-54836373D01*
X45149685Y-54762505D01*
X45212505Y-54699685D01*
X45249187Y-54675175D01*
X45286371Y-54650329D01*
X45286373Y-54650328D01*
X45368448Y-54616331D01*
X45455579Y-54599000D01*
X45544421Y-54599000D01*
X45631552Y-54616331D01*
G37*
G36*
X21487421Y-52659143D02*
G01*
X21619557Y-52699227D01*
X21619559Y-52699228D01*
X21741339Y-52764320D01*
X21741341Y-52764321D01*
X21741340Y-52764321D01*
X21848080Y-52851920D01*
X21935679Y-52958660D01*
X22000773Y-53080443D01*
X22040857Y-53212579D01*
X22051000Y-53315568D01*
X22051000Y-55884432D01*
X22040857Y-55987421D01*
X22000773Y-56119556D01*
X22000772Y-56119559D01*
X21935681Y-56241338D01*
X21935679Y-56241340D01*
X21848080Y-56348080D01*
X21768836Y-56413113D01*
X21741338Y-56435680D01*
X21619558Y-56500772D01*
X21619556Y-56500773D01*
X21487420Y-56540857D01*
X21350000Y-56554391D01*
X21212579Y-56540857D01*
X21080443Y-56500773D01*
X21080441Y-56500772D01*
X20958661Y-56435680D01*
X20931168Y-56413117D01*
X20851920Y-56348080D01*
X20764321Y-56241339D01*
X20699227Y-56119556D01*
X20659143Y-55987420D01*
X20649000Y-55884431D01*
X20649001Y-53315568D01*
X20659144Y-53212579D01*
X20699228Y-53080443D01*
X20764322Y-52958660D01*
X20851921Y-52851920D01*
X20958661Y-52764321D01*
X20958660Y-52764321D01*
X20958662Y-52764320D01*
X21080442Y-52699228D01*
X21080444Y-52699227D01*
X21212580Y-52659143D01*
X21350000Y-52645609D01*
X21487421Y-52659143D01*
G37*
G36*
X28787421Y-52659143D02*
G01*
X28919557Y-52699227D01*
X28919559Y-52699228D01*
X29041339Y-52764320D01*
X29041341Y-52764321D01*
X29041340Y-52764321D01*
X29148080Y-52851920D01*
X29235679Y-52958660D01*
X29300773Y-53080443D01*
X29340857Y-53212579D01*
X29351000Y-53315568D01*
X29351000Y-55884432D01*
X29340857Y-55987421D01*
X29300773Y-56119556D01*
X29300772Y-56119559D01*
X29235681Y-56241338D01*
X29235679Y-56241340D01*
X29148080Y-56348080D01*
X29068836Y-56413113D01*
X29041338Y-56435680D01*
X28919558Y-56500772D01*
X28919556Y-56500773D01*
X28787420Y-56540857D01*
X28650000Y-56554391D01*
X28512579Y-56540857D01*
X28380443Y-56500773D01*
X28380441Y-56500772D01*
X28258661Y-56435680D01*
X28231168Y-56413117D01*
X28151920Y-56348080D01*
X28064321Y-56241339D01*
X27999227Y-56119556D01*
X27959143Y-55987420D01*
X27949000Y-55884431D01*
X27949001Y-53315568D01*
X27959144Y-53212579D01*
X27999228Y-53080443D01*
X28064322Y-52958660D01*
X28151921Y-52851920D01*
X28258661Y-52764321D01*
X28258660Y-52764321D01*
X28258662Y-52764320D01*
X28380442Y-52699228D01*
X28380444Y-52699227D01*
X28512580Y-52659143D01*
X28650000Y-52645609D01*
X28787421Y-52659143D01*
G37*
G36*
X73360721Y-55470174D02*
G01*
X73460995Y-55511709D01*
X73483278Y-55526598D01*
X73551242Y-55572010D01*
X73627990Y-55648758D01*
X73627991Y-55648760D01*
X73688291Y-55739005D01*
X73729826Y-55839279D01*
X73751000Y-55945730D01*
X73751000Y-56054270D01*
X73729826Y-56160721D01*
X73688291Y-56260995D01*
X73688290Y-56260996D01*
X73627990Y-56351242D01*
X73551242Y-56427990D01*
X73539733Y-56435680D01*
X73460995Y-56488291D01*
X73360721Y-56529826D01*
X73254270Y-56551000D01*
X73145730Y-56551000D01*
X73039279Y-56529826D01*
X72939005Y-56488291D01*
X72860267Y-56435680D01*
X72848758Y-56427990D01*
X72772010Y-56351242D01*
X72711710Y-56260996D01*
X72711709Y-56260995D01*
X72670174Y-56160721D01*
X72649000Y-56054270D01*
X72649000Y-55945730D01*
X72670174Y-55839279D01*
X72711709Y-55739005D01*
X72772009Y-55648760D01*
X72772010Y-55648758D01*
X72848758Y-55572010D01*
X72916722Y-55526598D01*
X72939005Y-55511709D01*
X73039279Y-55470174D01*
X73145730Y-55449000D01*
X73254270Y-55449000D01*
X73360721Y-55470174D01*
G37*
G36*
X68960721Y-55470174D02*
G01*
X69060995Y-55511709D01*
X69083278Y-55526598D01*
X69151242Y-55572010D01*
X69227990Y-55648758D01*
X69227991Y-55648760D01*
X69288291Y-55739005D01*
X69329826Y-55839279D01*
X69351000Y-55945730D01*
X69351000Y-56054270D01*
X69329826Y-56160721D01*
X69288291Y-56260995D01*
X69288290Y-56260996D01*
X69227990Y-56351242D01*
X69151242Y-56427990D01*
X69139733Y-56435680D01*
X69060995Y-56488291D01*
X68960721Y-56529826D01*
X68854270Y-56551000D01*
X68745730Y-56551000D01*
X68639279Y-56529826D01*
X68539005Y-56488291D01*
X68460267Y-56435680D01*
X68448758Y-56427990D01*
X68372010Y-56351242D01*
X68311710Y-56260996D01*
X68311709Y-56260995D01*
X68270174Y-56160721D01*
X68249000Y-56054270D01*
X68249000Y-55945730D01*
X68270174Y-55839279D01*
X68311709Y-55739005D01*
X68372009Y-55648760D01*
X68372010Y-55648758D01*
X68448758Y-55572010D01*
X68516722Y-55526598D01*
X68539005Y-55511709D01*
X68639279Y-55470174D01*
X68745730Y-55449000D01*
X68854270Y-55449000D01*
X68960721Y-55470174D01*
G37*
G36*
X90467817Y-51382696D02*
G01*
X90581104Y-51417062D01*
X90685511Y-51472869D01*
X90685513Y-51472870D01*
X90685512Y-51472870D01*
X90777027Y-51547973D01*
X90840677Y-51625531D01*
X90852131Y-51639488D01*
X90907938Y-51743895D01*
X90942304Y-51857182D01*
X90951000Y-51945481D01*
X90951000Y-53304519D01*
X90942304Y-53392818D01*
X90907938Y-53506105D01*
X90852131Y-53610512D01*
X90777027Y-53702027D01*
X90685512Y-53777131D01*
X90581105Y-53832938D01*
X90467818Y-53867304D01*
X90350000Y-53878907D01*
X90232183Y-53867304D01*
X90118896Y-53832938D01*
X90014489Y-53777131D01*
X89922974Y-53702027D01*
X89847870Y-53610512D01*
X89792063Y-53506105D01*
X89757697Y-53392818D01*
X89749001Y-53304519D01*
X89749000Y-51945482D01*
X89757696Y-51857183D01*
X89792062Y-51743896D01*
X89847869Y-51639489D01*
X89861338Y-51623077D01*
X89922973Y-51547973D01*
X90014487Y-51472870D01*
X90014486Y-51472870D01*
X90014488Y-51472869D01*
X90118895Y-51417062D01*
X90232182Y-51382696D01*
X90350000Y-51371093D01*
X90467817Y-51382696D01*
G37*
G36*
X97767817Y-51382696D02*
G01*
X97881104Y-51417062D01*
X97985511Y-51472869D01*
X97985513Y-51472870D01*
X97985512Y-51472870D01*
X98077027Y-51547973D01*
X98140677Y-51625531D01*
X98152131Y-51639488D01*
X98207938Y-51743895D01*
X98242304Y-51857182D01*
X98251000Y-51945481D01*
X98251000Y-53304519D01*
X98242304Y-53392818D01*
X98207938Y-53506105D01*
X98152131Y-53610512D01*
X98077027Y-53702027D01*
X97985512Y-53777131D01*
X97881105Y-53832938D01*
X97767818Y-53867304D01*
X97650000Y-53878907D01*
X97532183Y-53867304D01*
X97418896Y-53832938D01*
X97314489Y-53777131D01*
X97222974Y-53702027D01*
X97147870Y-53610512D01*
X97092063Y-53506105D01*
X97057697Y-53392818D01*
X97049001Y-53304519D01*
X97049000Y-51945482D01*
X97057696Y-51857183D01*
X97092062Y-51743896D01*
X97147869Y-51639489D01*
X97161338Y-51623077D01*
X97222973Y-51547973D01*
X97314487Y-51472870D01*
X97314486Y-51472870D01*
X97314488Y-51472869D01*
X97418895Y-51417062D01*
X97532182Y-51382696D01*
X97650000Y-51371093D01*
X97767817Y-51382696D01*
G37*
G36*
X44247715Y-51358058D02*
G01*
X44365722Y-51393855D01*
X44474468Y-51451981D01*
X44569790Y-51530210D01*
X44648019Y-51625532D01*
X44706145Y-51734278D01*
X44741942Y-51852285D01*
X44751000Y-51944254D01*
X44751000Y-52655746D01*
X44741942Y-52747715D01*
X44706145Y-52865722D01*
X44648019Y-52974468D01*
X44569790Y-53069790D01*
X44474468Y-53148019D01*
X44365721Y-53206145D01*
X44247714Y-53241942D01*
X44125000Y-53254028D01*
X44002285Y-53241942D01*
X43884278Y-53206145D01*
X43775532Y-53148019D01*
X43680210Y-53069790D01*
X43601981Y-52974468D01*
X43543855Y-52865721D01*
X43539669Y-52851920D01*
X43513096Y-52764321D01*
X43508058Y-52747714D01*
X43499000Y-52655745D01*
X43499000Y-51944254D01*
X43508058Y-51852285D01*
X43525956Y-51793282D01*
X43543854Y-51734281D01*
X43594522Y-51639489D01*
X43601982Y-51625532D01*
X43680211Y-51530210D01*
X43775533Y-51451981D01*
X43884279Y-51393855D01*
X44002286Y-51358058D01*
X44125000Y-51345972D01*
X44247715Y-51358058D01*
G37*
G36*
X51997715Y-51358058D02*
G01*
X52115722Y-51393855D01*
X52224468Y-51451981D01*
X52319790Y-51530210D01*
X52398019Y-51625532D01*
X52456145Y-51734278D01*
X52491942Y-51852285D01*
X52501000Y-51944254D01*
X52501000Y-52655746D01*
X52491942Y-52747715D01*
X52456145Y-52865722D01*
X52398019Y-52974468D01*
X52319790Y-53069790D01*
X52224468Y-53148019D01*
X52115721Y-53206145D01*
X51997714Y-53241942D01*
X51875000Y-53254028D01*
X51752285Y-53241942D01*
X51634278Y-53206145D01*
X51525532Y-53148019D01*
X51430210Y-53069790D01*
X51351981Y-52974468D01*
X51293855Y-52865721D01*
X51289669Y-52851920D01*
X51263096Y-52764321D01*
X51258058Y-52747714D01*
X51249000Y-52655745D01*
X51249000Y-51944254D01*
X51258058Y-51852285D01*
X51275956Y-51793282D01*
X51293854Y-51734281D01*
X51344522Y-51639489D01*
X51351982Y-51625532D01*
X51430211Y-51530210D01*
X51525533Y-51451981D01*
X51634279Y-51393855D01*
X51752286Y-51358058D01*
X51875000Y-51345972D01*
X51997715Y-51358058D01*
G37*
G36*
X20788014Y-46056973D02*
G01*
X20891878Y-46088479D01*
X20935907Y-46112013D01*
X20987599Y-46139643D01*
X20987601Y-46139644D01*
X20987600Y-46139644D01*
X21071501Y-46208499D01*
X21140356Y-46292400D01*
X21191521Y-46388121D01*
X21223027Y-46491985D01*
X21231000Y-46572933D01*
X21231000Y-47227067D01*
X21223027Y-47308015D01*
X21191521Y-47411879D01*
X21191519Y-47411882D01*
X21140357Y-47507600D01*
X21071501Y-47591501D01*
X20987600Y-47660357D01*
X20919055Y-47696995D01*
X20891879Y-47711521D01*
X20788015Y-47743027D01*
X20680000Y-47753666D01*
X20571986Y-47743027D01*
X20468122Y-47711521D01*
X20440946Y-47696995D01*
X20372401Y-47660357D01*
X20288500Y-47591501D01*
X20219645Y-47507601D01*
X20168480Y-47411879D01*
X20162382Y-47391776D01*
X20136973Y-47308015D01*
X20129000Y-47227067D01*
X20129000Y-46572934D01*
X20136973Y-46491986D01*
X20168479Y-46388122D01*
X20219644Y-46292400D01*
X20288499Y-46208499D01*
X20372400Y-46139644D01*
X20372399Y-46139644D01*
X20372401Y-46139643D01*
X20424093Y-46112013D01*
X20468121Y-46088479D01*
X20571985Y-46056973D01*
X20680000Y-46046334D01*
X20788014Y-46056973D01*
G37*
G36*
X29428014Y-46056973D02*
G01*
X29531878Y-46088479D01*
X29575907Y-46112013D01*
X29627599Y-46139643D01*
X29627601Y-46139644D01*
X29627600Y-46139644D01*
X29711501Y-46208499D01*
X29780356Y-46292400D01*
X29831521Y-46388121D01*
X29863027Y-46491985D01*
X29871000Y-46572933D01*
X29871000Y-47227067D01*
X29863027Y-47308015D01*
X29831521Y-47411879D01*
X29831519Y-47411882D01*
X29780357Y-47507600D01*
X29711501Y-47591501D01*
X29627600Y-47660357D01*
X29559055Y-47696995D01*
X29531879Y-47711521D01*
X29428015Y-47743027D01*
X29320000Y-47753666D01*
X29211986Y-47743027D01*
X29108122Y-47711521D01*
X29080946Y-47696995D01*
X29012401Y-47660357D01*
X28928500Y-47591501D01*
X28859645Y-47507601D01*
X28808480Y-47411879D01*
X28802382Y-47391776D01*
X28776973Y-47308015D01*
X28769000Y-47227067D01*
X28769000Y-46572934D01*
X28776973Y-46491986D01*
X28808479Y-46388122D01*
X28859644Y-46292400D01*
X28928499Y-46208499D01*
X29012400Y-46139644D01*
X29012399Y-46139644D01*
X29012401Y-46139643D01*
X29064093Y-46112013D01*
X29108121Y-46088479D01*
X29211985Y-46056973D01*
X29320000Y-46046334D01*
X29428014Y-46056973D01*
G37*
G36*
X97687915Y-45707334D02*
G01*
X97796491Y-45740271D01*
X97796494Y-45740272D01*
X97832600Y-45759571D01*
X97896556Y-45793756D01*
X97984264Y-45865736D01*
X98056244Y-45953443D01*
X98090429Y-46017399D01*
X98109728Y-46053505D01*
X98109728Y-46053506D01*
X98109729Y-46053508D01*
X98142666Y-46162084D01*
X98151000Y-46246702D01*
X98151000Y-47153298D01*
X98142666Y-47237916D01*
X98109729Y-47346491D01*
X98109728Y-47346495D01*
X98090429Y-47382601D01*
X98056244Y-47446557D01*
X97984264Y-47534264D01*
X97896557Y-47606244D01*
X97832601Y-47640429D01*
X97796495Y-47659728D01*
X97796492Y-47659729D01*
X97687916Y-47692666D01*
X97575000Y-47703787D01*
X97462085Y-47692666D01*
X97353509Y-47659729D01*
X97353506Y-47659728D01*
X97317400Y-47640429D01*
X97253444Y-47606244D01*
X97165737Y-47534264D01*
X97093757Y-47446557D01*
X97059572Y-47382601D01*
X97040273Y-47346495D01*
X97040272Y-47346491D01*
X97007335Y-47237916D01*
X96999000Y-47153298D01*
X96999000Y-46246703D01*
X97007334Y-46162085D01*
X97040271Y-46053509D01*
X97040272Y-46053506D01*
X97068696Y-46000329D01*
X97093756Y-45953444D01*
X97165736Y-45865736D01*
X97253443Y-45793756D01*
X97317399Y-45759571D01*
X97353505Y-45740272D01*
X97353508Y-45740271D01*
X97462084Y-45707334D01*
X97575000Y-45696213D01*
X97687915Y-45707334D01*
G37*
G36*
X90537916Y-45707334D02*
G01*
X90646492Y-45740271D01*
X90646495Y-45740272D01*
X90682601Y-45759571D01*
X90746557Y-45793756D01*
X90834264Y-45865736D01*
X90906244Y-45953443D01*
X90940429Y-46017399D01*
X90959728Y-46053505D01*
X90959728Y-46053506D01*
X90959729Y-46053508D01*
X90992666Y-46162084D01*
X91001000Y-46246702D01*
X91001000Y-47153298D01*
X90992666Y-47237916D01*
X90959729Y-47346491D01*
X90959728Y-47346495D01*
X90940429Y-47382601D01*
X90906244Y-47446557D01*
X90834264Y-47534264D01*
X90746556Y-47606244D01*
X90682600Y-47640429D01*
X90646494Y-47659728D01*
X90646491Y-47659729D01*
X90537915Y-47692666D01*
X90425000Y-47703787D01*
X90312084Y-47692666D01*
X90203508Y-47659729D01*
X90203505Y-47659728D01*
X90167399Y-47640429D01*
X90103443Y-47606244D01*
X90015736Y-47534264D01*
X89943756Y-47446556D01*
X89890273Y-47346495D01*
X89890272Y-47346494D01*
X89880241Y-47313426D01*
X89857334Y-47237915D01*
X89849000Y-47153297D01*
X89849000Y-46246702D01*
X89857335Y-46162084D01*
X89890272Y-46053508D01*
X89890273Y-46053506D01*
X89890273Y-46053505D01*
X89909572Y-46017399D01*
X89943757Y-45953443D01*
X90015737Y-45865736D01*
X90103444Y-45793756D01*
X90167400Y-45759571D01*
X90203506Y-45740272D01*
X90203509Y-45740271D01*
X90312085Y-45707334D01*
X90425000Y-45696213D01*
X90537916Y-45707334D01*
G37*
G36*
X66598409Y-46095525D02*
G01*
X66683425Y-46121314D01*
X66761774Y-46163193D01*
X66830449Y-46219552D01*
X66886807Y-46288225D01*
X66928686Y-46366574D01*
X66954475Y-46451590D01*
X66961000Y-46517842D01*
X66961000Y-47162158D01*
X66954475Y-47228410D01*
X66928686Y-47313426D01*
X66886807Y-47391775D01*
X66830449Y-47460449D01*
X66761775Y-47516807D01*
X66683426Y-47558686D01*
X66598410Y-47584475D01*
X66510000Y-47593182D01*
X66421591Y-47584475D01*
X66336575Y-47558686D01*
X66258226Y-47516807D01*
X66189552Y-47460449D01*
X66133195Y-47391776D01*
X66091313Y-47313423D01*
X66065525Y-47228410D01*
X66059000Y-47162158D01*
X66059000Y-46517843D01*
X66065525Y-46451591D01*
X66091314Y-46366575D01*
X66133193Y-46288226D01*
X66189552Y-46219551D01*
X66258225Y-46163193D01*
X66336574Y-46121314D01*
X66421590Y-46095525D01*
X66510000Y-46086818D01*
X66598409Y-46095525D01*
G37*
G36*
X75578409Y-46095525D02*
G01*
X75663425Y-46121314D01*
X75741774Y-46163193D01*
X75810449Y-46219552D01*
X75866807Y-46288225D01*
X75908686Y-46366574D01*
X75934475Y-46451590D01*
X75941000Y-46517842D01*
X75941000Y-47162158D01*
X75934475Y-47228410D01*
X75908686Y-47313426D01*
X75866807Y-47391775D01*
X75810449Y-47460449D01*
X75741775Y-47516807D01*
X75663426Y-47558686D01*
X75578410Y-47584475D01*
X75490000Y-47593182D01*
X75401591Y-47584475D01*
X75316575Y-47558686D01*
X75238226Y-47516807D01*
X75169552Y-47460449D01*
X75113195Y-47391776D01*
X75071313Y-47313423D01*
X75045525Y-47228410D01*
X75039000Y-47162158D01*
X75039000Y-46517843D01*
X75045525Y-46451591D01*
X75071314Y-46366575D01*
X75113193Y-46288226D01*
X75169552Y-46219551D01*
X75238225Y-46163193D01*
X75316574Y-46121314D01*
X75401590Y-46095525D01*
X75490000Y-46086818D01*
X75578409Y-46095525D01*
G37*
G36*
X48131552Y-45966331D02*
G01*
X48213627Y-46000328D01*
X48213629Y-46000329D01*
X48250813Y-46025175D01*
X48287495Y-46049685D01*
X48350315Y-46112505D01*
X48399672Y-46186373D01*
X48433669Y-46268448D01*
X48451000Y-46355579D01*
X48451000Y-46444421D01*
X48433669Y-46531552D01*
X48416525Y-46572940D01*
X48399671Y-46613629D01*
X48350314Y-46687496D01*
X48287496Y-46750314D01*
X48213629Y-46799671D01*
X48213628Y-46799672D01*
X48213627Y-46799672D01*
X48131552Y-46833669D01*
X48044421Y-46851000D01*
X47955579Y-46851000D01*
X47868448Y-46833669D01*
X47786373Y-46799672D01*
X47786372Y-46799672D01*
X47786371Y-46799671D01*
X47712504Y-46750314D01*
X47649686Y-46687496D01*
X47600329Y-46613629D01*
X47583475Y-46572940D01*
X47566331Y-46531552D01*
X47549000Y-46444421D01*
X47549000Y-46355579D01*
X47566331Y-46268448D01*
X47600328Y-46186373D01*
X47649685Y-46112505D01*
X47712505Y-46049685D01*
X47749187Y-46025175D01*
X47786371Y-46000329D01*
X47786373Y-46000328D01*
X47868448Y-45966331D01*
X47955579Y-45949000D01*
X48044421Y-45949000D01*
X48131552Y-45966331D01*
G37*
G36*
X45866823Y-43761313D02*
G01*
X46027242Y-43809976D01*
X46159906Y-43880886D01*
X46175078Y-43888996D01*
X46304659Y-43995341D01*
X46411004Y-44124922D01*
X46411005Y-44124924D01*
X46490024Y-44272758D01*
X46538687Y-44433178D01*
X46551000Y-44558197D01*
X46551000Y-45041804D01*
X46538687Y-45166823D01*
X46490024Y-45327242D01*
X46419114Y-45459906D01*
X46411004Y-45475078D01*
X46304659Y-45604659D01*
X46175077Y-45711005D01*
X46027241Y-45790024D01*
X46027238Y-45790025D01*
X45997379Y-45799083D01*
X45866822Y-45838687D01*
X45700000Y-45855117D01*
X45533177Y-45838687D01*
X45402620Y-45799083D01*
X45372761Y-45790025D01*
X45372758Y-45790024D01*
X45224924Y-45711005D01*
X45224922Y-45711004D01*
X45095341Y-45604659D01*
X44988995Y-45475077D01*
X44909976Y-45327241D01*
X44861313Y-45166822D01*
X44849000Y-45041803D01*
X44849000Y-44558196D01*
X44861313Y-44433177D01*
X44909976Y-44272758D01*
X44988995Y-44124924D01*
X44988996Y-44124922D01*
X45095342Y-43995341D01*
X45224923Y-43888996D01*
X45240095Y-43880886D01*
X45372759Y-43809976D01*
X45533178Y-43761313D01*
X45700000Y-43744883D01*
X45866823Y-43761313D01*
G37*
G36*
X20788014Y-41626973D02*
G01*
X20891878Y-41658479D01*
X20935907Y-41682013D01*
X20987599Y-41709643D01*
X20987601Y-41709644D01*
X20987600Y-41709644D01*
X21071501Y-41778499D01*
X21140356Y-41862400D01*
X21191521Y-41958121D01*
X21223027Y-42061985D01*
X21231000Y-42142933D01*
X21231000Y-43297067D01*
X21223027Y-43378015D01*
X21191521Y-43481879D01*
X21191519Y-43481882D01*
X21140357Y-43577600D01*
X21071501Y-43661501D01*
X20987600Y-43730357D01*
X20929685Y-43761313D01*
X20891879Y-43781521D01*
X20788015Y-43813027D01*
X20680000Y-43823666D01*
X20571986Y-43813027D01*
X20468122Y-43781521D01*
X20430316Y-43761313D01*
X20372401Y-43730357D01*
X20288500Y-43661501D01*
X20219644Y-43577600D01*
X20168482Y-43481882D01*
X20168480Y-43481879D01*
X20136974Y-43378015D01*
X20129001Y-43297067D01*
X20129000Y-42142934D01*
X20136973Y-42061986D01*
X20168479Y-41958122D01*
X20219644Y-41862400D01*
X20288499Y-41778499D01*
X20372400Y-41709644D01*
X20372399Y-41709644D01*
X20372401Y-41709643D01*
X20424093Y-41682013D01*
X20468121Y-41658479D01*
X20571985Y-41626973D01*
X20680000Y-41616334D01*
X20788014Y-41626973D01*
G37*
G36*
X29428014Y-41626973D02*
G01*
X29531878Y-41658479D01*
X29575907Y-41682013D01*
X29627599Y-41709643D01*
X29627601Y-41709644D01*
X29627600Y-41709644D01*
X29711501Y-41778499D01*
X29780356Y-41862400D01*
X29831521Y-41958121D01*
X29863027Y-42061985D01*
X29871000Y-42142933D01*
X29871000Y-43297067D01*
X29863027Y-43378015D01*
X29831521Y-43481879D01*
X29831519Y-43481882D01*
X29780357Y-43577600D01*
X29711501Y-43661501D01*
X29627600Y-43730357D01*
X29569685Y-43761313D01*
X29531879Y-43781521D01*
X29428015Y-43813027D01*
X29320000Y-43823666D01*
X29211986Y-43813027D01*
X29108122Y-43781521D01*
X29070316Y-43761313D01*
X29012401Y-43730357D01*
X28928500Y-43661501D01*
X28859644Y-43577600D01*
X28808482Y-43481882D01*
X28808480Y-43481879D01*
X28776974Y-43378015D01*
X28769001Y-43297067D01*
X28769000Y-42142934D01*
X28776973Y-42061986D01*
X28808479Y-41958122D01*
X28859644Y-41862400D01*
X28928499Y-41778499D01*
X29012400Y-41709644D01*
X29012399Y-41709644D01*
X29012401Y-41709643D01*
X29064093Y-41682013D01*
X29108121Y-41658479D01*
X29211985Y-41626973D01*
X29320000Y-41616334D01*
X29428014Y-41626973D01*
G37*
G36*
X22219672Y-42858449D02*
G01*
X22219674Y-42858450D01*
X22219675Y-42858450D01*
X22288103Y-42886793D01*
X22349686Y-42927942D01*
X22402058Y-42980314D01*
X22443207Y-43041897D01*
X22471550Y-43110325D01*
X22471551Y-43110328D01*
X22486000Y-43182966D01*
X22486000Y-43257034D01*
X22478037Y-43297067D01*
X22471550Y-43329675D01*
X22443207Y-43398103D01*
X22402058Y-43459686D01*
X22349686Y-43512058D01*
X22288103Y-43553207D01*
X22219675Y-43581550D01*
X22219674Y-43581550D01*
X22219672Y-43581551D01*
X22147034Y-43596000D01*
X22072966Y-43596000D01*
X22000328Y-43581551D01*
X22000326Y-43581550D01*
X22000325Y-43581550D01*
X21931897Y-43553207D01*
X21870314Y-43512058D01*
X21817942Y-43459686D01*
X21776793Y-43398103D01*
X21748450Y-43329675D01*
X21741964Y-43297067D01*
X21734000Y-43257034D01*
X21734000Y-43182966D01*
X21748449Y-43110328D01*
X21748450Y-43110325D01*
X21776793Y-43041897D01*
X21817942Y-42980314D01*
X21870314Y-42927942D01*
X21931897Y-42886793D01*
X22000325Y-42858450D01*
X22000326Y-42858450D01*
X22000328Y-42858449D01*
X22072966Y-42844000D01*
X22147034Y-42844000D01*
X22219672Y-42858449D01*
G37*
G36*
X27999672Y-42858449D02*
G01*
X27999674Y-42858450D01*
X27999675Y-42858450D01*
X28068103Y-42886793D01*
X28129686Y-42927942D01*
X28182058Y-42980314D01*
X28223207Y-43041897D01*
X28251550Y-43110325D01*
X28251551Y-43110328D01*
X28266000Y-43182966D01*
X28266000Y-43257034D01*
X28258037Y-43297067D01*
X28251550Y-43329675D01*
X28223207Y-43398103D01*
X28182058Y-43459686D01*
X28129686Y-43512058D01*
X28068103Y-43553207D01*
X27999675Y-43581550D01*
X27999674Y-43581550D01*
X27999672Y-43581551D01*
X27927034Y-43596000D01*
X27852966Y-43596000D01*
X27780328Y-43581551D01*
X27780326Y-43581550D01*
X27780325Y-43581550D01*
X27711897Y-43553207D01*
X27650314Y-43512058D01*
X27597942Y-43459686D01*
X27556793Y-43398103D01*
X27528450Y-43329675D01*
X27521964Y-43297067D01*
X27514000Y-43257034D01*
X27514000Y-43182966D01*
X27528449Y-43110328D01*
X27528450Y-43110325D01*
X27556793Y-43041897D01*
X27597942Y-42980314D01*
X27650314Y-42927942D01*
X27711897Y-42886793D01*
X27780325Y-42858450D01*
X27780326Y-42858450D01*
X27780328Y-42858449D01*
X27852966Y-42844000D01*
X27927034Y-42844000D01*
X27999672Y-42858449D01*
G37*
G36*
X45866823Y-40761313D02*
G01*
X46027242Y-40809976D01*
X46158856Y-40880325D01*
X46175078Y-40888996D01*
X46304659Y-40995341D01*
X46411004Y-41124922D01*
X46411005Y-41124924D01*
X46490024Y-41272758D01*
X46538687Y-41433178D01*
X46551000Y-41558197D01*
X46551000Y-42041804D01*
X46538687Y-42166823D01*
X46490024Y-42327242D01*
X46419114Y-42459906D01*
X46411004Y-42475078D01*
X46304659Y-42604659D01*
X46175077Y-42711005D01*
X46027241Y-42790024D01*
X45866822Y-42838687D01*
X45700000Y-42855117D01*
X45533177Y-42838687D01*
X45372758Y-42790024D01*
X45224924Y-42711005D01*
X45224922Y-42711004D01*
X45095341Y-42604659D01*
X44988995Y-42475077D01*
X44909976Y-42327241D01*
X44861313Y-42166822D01*
X44849000Y-42041803D01*
X44849000Y-41558196D01*
X44861313Y-41433177D01*
X44909976Y-41272758D01*
X44988995Y-41124924D01*
X44988996Y-41124922D01*
X45095342Y-40995341D01*
X45224923Y-40888996D01*
X45241145Y-40880325D01*
X45372759Y-40809976D01*
X45533178Y-40761313D01*
X45700000Y-40744883D01*
X45866823Y-40761313D01*
G37*
G36*
X66958409Y-40145525D02*
G01*
X67043425Y-40171314D01*
X67121774Y-40213193D01*
X67190449Y-40269552D01*
X67246807Y-40338225D01*
X67288686Y-40416574D01*
X67314475Y-40501590D01*
X67321000Y-40567842D01*
X67321000Y-41212158D01*
X67314475Y-41278410D01*
X67288686Y-41363426D01*
X67246807Y-41441775D01*
X67190449Y-41510449D01*
X67121775Y-41566807D01*
X67043426Y-41608686D01*
X66958410Y-41634475D01*
X66870000Y-41643182D01*
X66781591Y-41634475D01*
X66696575Y-41608686D01*
X66618226Y-41566807D01*
X66549552Y-41510449D01*
X66493195Y-41441776D01*
X66451313Y-41363423D01*
X66425525Y-41278410D01*
X66419000Y-41212158D01*
X66419000Y-40567843D01*
X66425525Y-40501591D01*
X66451314Y-40416575D01*
X66493193Y-40338226D01*
X66549552Y-40269551D01*
X66618225Y-40213193D01*
X66696574Y-40171314D01*
X66781590Y-40145525D01*
X66870000Y-40136818D01*
X66958409Y-40145525D01*
G37*
G36*
X74823710Y-39269440D02*
G01*
X74894585Y-39290940D01*
X74959904Y-39325854D01*
X75017159Y-39372841D01*
X75064146Y-39430096D01*
X75099060Y-39495415D01*
X75120560Y-39566290D01*
X75127819Y-39640000D01*
X75120560Y-39713710D01*
X75099060Y-39784585D01*
X75064146Y-39849904D01*
X75017159Y-39907158D01*
X75002297Y-39919355D01*
X74984970Y-39936682D01*
X74971356Y-39957056D01*
X74961979Y-39979695D01*
X74957198Y-40003728D01*
X74957198Y-40028232D01*
X74961978Y-40052265D01*
X74971355Y-40074904D01*
X74984969Y-40095279D01*
X75002296Y-40112606D01*
X75022670Y-40126220D01*
X75045309Y-40135597D01*
X75069342Y-40140378D01*
X75093846Y-40140378D01*
X75129999Y-40136818D01*
X75130000Y-40136818D01*
X75138707Y-40137676D01*
X75218409Y-40145525D01*
X75303425Y-40171314D01*
X75381774Y-40213193D01*
X75450449Y-40269552D01*
X75506807Y-40338225D01*
X75548686Y-40416574D01*
X75574475Y-40501590D01*
X75581000Y-40567842D01*
X75581000Y-41212158D01*
X75574475Y-41278410D01*
X75548686Y-41363426D01*
X75506807Y-41441775D01*
X75450449Y-41510449D01*
X75381775Y-41566807D01*
X75303426Y-41608686D01*
X75218410Y-41634475D01*
X75130000Y-41643182D01*
X75041591Y-41634475D01*
X74956575Y-41608686D01*
X74878226Y-41566807D01*
X74809552Y-41510449D01*
X74753195Y-41441776D01*
X74711313Y-41363423D01*
X74685525Y-41278410D01*
X74679000Y-41212158D01*
X74679000Y-40567843D01*
X74685525Y-40501591D01*
X74711314Y-40416575D01*
X74753193Y-40338226D01*
X74809552Y-40269551D01*
X74848454Y-40237625D01*
X74865781Y-40220298D01*
X74879395Y-40199923D01*
X74888772Y-40177285D01*
X74893553Y-40153251D01*
X74893553Y-40128747D01*
X74888773Y-40104714D01*
X74879395Y-40082075D01*
X74865782Y-40061701D01*
X74848455Y-40044374D01*
X74828080Y-40030760D01*
X74805442Y-40021383D01*
X74781408Y-40016602D01*
X74769156Y-40016000D01*
X74431528Y-40016000D01*
X74376290Y-40010560D01*
X74303175Y-39988380D01*
X74279142Y-39983599D01*
X74254638Y-39983599D01*
X74230604Y-39988379D01*
X74207965Y-39997756D01*
X74187591Y-40011370D01*
X74170264Y-40028697D01*
X74156650Y-40049071D01*
X74147273Y-40071710D01*
X74142492Y-40095743D01*
X74142492Y-40120247D01*
X74147272Y-40144281D01*
X74151405Y-40155831D01*
X74161551Y-40180326D01*
X74176000Y-40252966D01*
X74176000Y-40327034D01*
X74173774Y-40338227D01*
X74161550Y-40399675D01*
X74133207Y-40468103D01*
X74092058Y-40529686D01*
X74039686Y-40582058D01*
X73978103Y-40623207D01*
X73919696Y-40647399D01*
X73909673Y-40651551D01*
X73834662Y-40666472D01*
X73811214Y-40673585D01*
X73789603Y-40685136D01*
X73770661Y-40700682D01*
X73755116Y-40719624D01*
X73743565Y-40741234D01*
X73736452Y-40764683D01*
X73734050Y-40789069D01*
X73736452Y-40813456D01*
X73743565Y-40836904D01*
X73761551Y-40880326D01*
X73776000Y-40952966D01*
X73776000Y-41027033D01*
X73761550Y-41099675D01*
X73733207Y-41168103D01*
X73692058Y-41229686D01*
X73639686Y-41282058D01*
X73578103Y-41323207D01*
X73509675Y-41351550D01*
X73509674Y-41351550D01*
X73509672Y-41351551D01*
X73437034Y-41366000D01*
X73362966Y-41366000D01*
X73290328Y-41351551D01*
X73290326Y-41351550D01*
X73290325Y-41351550D01*
X73221897Y-41323207D01*
X73160314Y-41282058D01*
X73107942Y-41229686D01*
X73103928Y-41223679D01*
X73088388Y-41204744D01*
X73069447Y-41189199D01*
X73047836Y-41177647D01*
X73024387Y-41170534D01*
X73000001Y-41168132D01*
X72975615Y-41170534D01*
X72952166Y-41177647D01*
X72930555Y-41189197D01*
X72911613Y-41204743D01*
X72896072Y-41223679D01*
X72892058Y-41229686D01*
X72839686Y-41282058D01*
X72778103Y-41323207D01*
X72709675Y-41351550D01*
X72709674Y-41351550D01*
X72709672Y-41351551D01*
X72637034Y-41366000D01*
X72562966Y-41366000D01*
X72490328Y-41351551D01*
X72490326Y-41351550D01*
X72490325Y-41351550D01*
X72421897Y-41323207D01*
X72360314Y-41282058D01*
X72307942Y-41229686D01*
X72303928Y-41223679D01*
X72288388Y-41204744D01*
X72269447Y-41189199D01*
X72247836Y-41177647D01*
X72224387Y-41170534D01*
X72200001Y-41168132D01*
X72175615Y-41170534D01*
X72152166Y-41177647D01*
X72130555Y-41189197D01*
X72111613Y-41204743D01*
X72096072Y-41223679D01*
X72092058Y-41229686D01*
X72039686Y-41282058D01*
X71978103Y-41323207D01*
X71909675Y-41351550D01*
X71909674Y-41351550D01*
X71909672Y-41351551D01*
X71837034Y-41366000D01*
X71762966Y-41366000D01*
X71690328Y-41351551D01*
X71690326Y-41351550D01*
X71690325Y-41351550D01*
X71621897Y-41323207D01*
X71560314Y-41282058D01*
X71507942Y-41229686D01*
X71466793Y-41168103D01*
X71438450Y-41099675D01*
X71424000Y-41027033D01*
X71424000Y-40952966D01*
X71438449Y-40880326D01*
X71456435Y-40836904D01*
X71463548Y-40813455D01*
X71465950Y-40789069D01*
X71463548Y-40764683D01*
X71456435Y-40741234D01*
X71444884Y-40719624D01*
X71429339Y-40700682D01*
X71410397Y-40685136D01*
X71388786Y-40673585D01*
X71365338Y-40666472D01*
X71290327Y-40651551D01*
X71280304Y-40647399D01*
X71221897Y-40623207D01*
X71160314Y-40582058D01*
X71107942Y-40529686D01*
X71103928Y-40523679D01*
X71088388Y-40504744D01*
X71069447Y-40489199D01*
X71047836Y-40477647D01*
X71024387Y-40470534D01*
X71000001Y-40468132D01*
X70975615Y-40470534D01*
X70952166Y-40477647D01*
X70930555Y-40489197D01*
X70911613Y-40504743D01*
X70896072Y-40523679D01*
X70892058Y-40529686D01*
X70839686Y-40582058D01*
X70778103Y-40623207D01*
X70719696Y-40647399D01*
X70709673Y-40651551D01*
X70634662Y-40666472D01*
X70611214Y-40673585D01*
X70589603Y-40685136D01*
X70570661Y-40700682D01*
X70555116Y-40719624D01*
X70543565Y-40741234D01*
X70536452Y-40764683D01*
X70534050Y-40789069D01*
X70536452Y-40813456D01*
X70543565Y-40836904D01*
X70561551Y-40880326D01*
X70576000Y-40952966D01*
X70576000Y-41027033D01*
X70561550Y-41099675D01*
X70533207Y-41168103D01*
X70492058Y-41229686D01*
X70439686Y-41282058D01*
X70378103Y-41323207D01*
X70309675Y-41351550D01*
X70309674Y-41351550D01*
X70309672Y-41351551D01*
X70237034Y-41366000D01*
X70162966Y-41366000D01*
X70090328Y-41351551D01*
X70090326Y-41351550D01*
X70090325Y-41351550D01*
X70021897Y-41323207D01*
X69960314Y-41282058D01*
X69907942Y-41229686D01*
X69903928Y-41223679D01*
X69888388Y-41204744D01*
X69869447Y-41189199D01*
X69847836Y-41177647D01*
X69824387Y-41170534D01*
X69800001Y-41168132D01*
X69775615Y-41170534D01*
X69752166Y-41177647D01*
X69730555Y-41189197D01*
X69711613Y-41204743D01*
X69696072Y-41223679D01*
X69692058Y-41229686D01*
X69639686Y-41282058D01*
X69578103Y-41323207D01*
X69509675Y-41351550D01*
X69509674Y-41351550D01*
X69509672Y-41351551D01*
X69437034Y-41366000D01*
X69362966Y-41366000D01*
X69290328Y-41351551D01*
X69290326Y-41351550D01*
X69290325Y-41351550D01*
X69221897Y-41323207D01*
X69160314Y-41282058D01*
X69107942Y-41229686D01*
X69103928Y-41223679D01*
X69088388Y-41204744D01*
X69069447Y-41189199D01*
X69047836Y-41177647D01*
X69024387Y-41170534D01*
X69000001Y-41168132D01*
X68975615Y-41170534D01*
X68952166Y-41177647D01*
X68930555Y-41189197D01*
X68911613Y-41204743D01*
X68896072Y-41223679D01*
X68892058Y-41229686D01*
X68839686Y-41282058D01*
X68778103Y-41323207D01*
X68709675Y-41351550D01*
X68709674Y-41351550D01*
X68709672Y-41351551D01*
X68637034Y-41366000D01*
X68562966Y-41366000D01*
X68490328Y-41351551D01*
X68490326Y-41351550D01*
X68490325Y-41351550D01*
X68421897Y-41323207D01*
X68360314Y-41282058D01*
X68307942Y-41229686D01*
X68266793Y-41168103D01*
X68238450Y-41099675D01*
X68224000Y-41027033D01*
X68224000Y-40952966D01*
X68238449Y-40880326D01*
X68256435Y-40836904D01*
X68263548Y-40813455D01*
X68265950Y-40789069D01*
X68263548Y-40764683D01*
X68256435Y-40741234D01*
X68244884Y-40719624D01*
X68229339Y-40700682D01*
X68210397Y-40685136D01*
X68188786Y-40673585D01*
X68165338Y-40666472D01*
X68090327Y-40651551D01*
X68080304Y-40647399D01*
X68021897Y-40623207D01*
X67960314Y-40582058D01*
X67907942Y-40529686D01*
X67866793Y-40468103D01*
X67838450Y-40399675D01*
X67826227Y-40338227D01*
X67824000Y-40327034D01*
X67824000Y-40252966D01*
X67838449Y-40180328D01*
X67839709Y-40177285D01*
X67866793Y-40111897D01*
X67907942Y-40050314D01*
X67960314Y-39997942D01*
X68021897Y-39956793D01*
X68090325Y-39928450D01*
X68090326Y-39928450D01*
X68090328Y-39928449D01*
X68162966Y-39914000D01*
X68237034Y-39914000D01*
X68309672Y-39928449D01*
X68309674Y-39928450D01*
X68309675Y-39928450D01*
X68378103Y-39956793D01*
X68439686Y-39997942D01*
X68492058Y-40050314D01*
X68533207Y-40111897D01*
X68560291Y-40177285D01*
X68561551Y-40180328D01*
X68576000Y-40252966D01*
X68576000Y-40327034D01*
X68561551Y-40399674D01*
X68543565Y-40443096D01*
X68536452Y-40466545D01*
X68534050Y-40490931D01*
X68536452Y-40515317D01*
X68543565Y-40538766D01*
X68555116Y-40560376D01*
X68570661Y-40579318D01*
X68589603Y-40594864D01*
X68611214Y-40606415D01*
X68634662Y-40613528D01*
X68709673Y-40628449D01*
X68709676Y-40628450D01*
X68709675Y-40628450D01*
X68778103Y-40656793D01*
X68839686Y-40697942D01*
X68892058Y-40750314D01*
X68896072Y-40756321D01*
X68911612Y-40775256D01*
X68930553Y-40790801D01*
X68952164Y-40802353D01*
X68975613Y-40809466D01*
X68999999Y-40811868D01*
X69024385Y-40809466D01*
X69047834Y-40802353D01*
X69069445Y-40790803D01*
X69088387Y-40775257D01*
X69103928Y-40756321D01*
X69107942Y-40750314D01*
X69160314Y-40697942D01*
X69221897Y-40656793D01*
X69290325Y-40628450D01*
X69290324Y-40628450D01*
X69290327Y-40628449D01*
X69365338Y-40613528D01*
X69388786Y-40606415D01*
X69410397Y-40594864D01*
X69429339Y-40579318D01*
X69444884Y-40560376D01*
X69456435Y-40538766D01*
X69463548Y-40515317D01*
X69465950Y-40490931D01*
X69463548Y-40466544D01*
X69456435Y-40443096D01*
X69438449Y-40399674D01*
X69424000Y-40327034D01*
X69424000Y-40252966D01*
X69438449Y-40180328D01*
X69439709Y-40177285D01*
X69466793Y-40111897D01*
X69507942Y-40050314D01*
X69560314Y-39997942D01*
X69621897Y-39956793D01*
X69690325Y-39928450D01*
X69690326Y-39928450D01*
X69690328Y-39928449D01*
X69762966Y-39914000D01*
X69837034Y-39914000D01*
X69909672Y-39928449D01*
X69909674Y-39928450D01*
X69909675Y-39928450D01*
X69978103Y-39956793D01*
X70039686Y-39997942D01*
X70092058Y-40050314D01*
X70096072Y-40056321D01*
X70111612Y-40075256D01*
X70130553Y-40090801D01*
X70152164Y-40102353D01*
X70175613Y-40109466D01*
X70199999Y-40111868D01*
X70224385Y-40109466D01*
X70247834Y-40102353D01*
X70269445Y-40090803D01*
X70288387Y-40075257D01*
X70303928Y-40056321D01*
X70307942Y-40050314D01*
X70360314Y-39997942D01*
X70421897Y-39956793D01*
X70490325Y-39928450D01*
X70490326Y-39928450D01*
X70490328Y-39928449D01*
X70562966Y-39914000D01*
X70637034Y-39914000D01*
X70709672Y-39928449D01*
X70709674Y-39928450D01*
X70709675Y-39928450D01*
X70778103Y-39956793D01*
X70839686Y-39997942D01*
X70892058Y-40050314D01*
X70896072Y-40056321D01*
X70911612Y-40075256D01*
X70930553Y-40090801D01*
X70952164Y-40102353D01*
X70975613Y-40109466D01*
X70999999Y-40111868D01*
X71024385Y-40109466D01*
X71047834Y-40102353D01*
X71069445Y-40090803D01*
X71088387Y-40075257D01*
X71103928Y-40056321D01*
X71107942Y-40050314D01*
X71160314Y-39997942D01*
X71221897Y-39956793D01*
X71290325Y-39928450D01*
X71290326Y-39928450D01*
X71290328Y-39928449D01*
X71362966Y-39914000D01*
X71437034Y-39914000D01*
X71509672Y-39928449D01*
X71509674Y-39928450D01*
X71509675Y-39928450D01*
X71578103Y-39956793D01*
X71639686Y-39997942D01*
X71692058Y-40050314D01*
X71696072Y-40056321D01*
X71711612Y-40075256D01*
X71730553Y-40090801D01*
X71752164Y-40102353D01*
X71775613Y-40109466D01*
X71799999Y-40111868D01*
X71824385Y-40109466D01*
X71847834Y-40102353D01*
X71869445Y-40090803D01*
X71888387Y-40075257D01*
X71903928Y-40056321D01*
X71907942Y-40050314D01*
X71960314Y-39997942D01*
X72021897Y-39956793D01*
X72090325Y-39928450D01*
X72090326Y-39928450D01*
X72090328Y-39928449D01*
X72162966Y-39914000D01*
X72237034Y-39914000D01*
X72309672Y-39928449D01*
X72309674Y-39928450D01*
X72309675Y-39928450D01*
X72378103Y-39956793D01*
X72439686Y-39997942D01*
X72492058Y-40050314D01*
X72533207Y-40111897D01*
X72560291Y-40177285D01*
X72561551Y-40180328D01*
X72576000Y-40252966D01*
X72576000Y-40327034D01*
X72561551Y-40399674D01*
X72543565Y-40443096D01*
X72536452Y-40466545D01*
X72534050Y-40490931D01*
X72536452Y-40515317D01*
X72543565Y-40538766D01*
X72555116Y-40560376D01*
X72570661Y-40579318D01*
X72589603Y-40594864D01*
X72611214Y-40606415D01*
X72634662Y-40613528D01*
X72709673Y-40628449D01*
X72709676Y-40628450D01*
X72709675Y-40628450D01*
X72778103Y-40656793D01*
X72839686Y-40697942D01*
X72892058Y-40750314D01*
X72896072Y-40756321D01*
X72911612Y-40775256D01*
X72930553Y-40790801D01*
X72952164Y-40802353D01*
X72975613Y-40809466D01*
X72999999Y-40811868D01*
X73024385Y-40809466D01*
X73047834Y-40802353D01*
X73069445Y-40790803D01*
X73088387Y-40775257D01*
X73103928Y-40756321D01*
X73107942Y-40750314D01*
X73160314Y-40697942D01*
X73221897Y-40656793D01*
X73290325Y-40628450D01*
X73290324Y-40628450D01*
X73290327Y-40628449D01*
X73365338Y-40613528D01*
X73388786Y-40606415D01*
X73410397Y-40594864D01*
X73429339Y-40579318D01*
X73444884Y-40560376D01*
X73456435Y-40538766D01*
X73463548Y-40515317D01*
X73465950Y-40490931D01*
X73463548Y-40466544D01*
X73456435Y-40443096D01*
X73438449Y-40399674D01*
X73424000Y-40327034D01*
X73424000Y-40252966D01*
X73438449Y-40180328D01*
X73439709Y-40177285D01*
X73466793Y-40111897D01*
X73507942Y-40050314D01*
X73560314Y-39997942D01*
X73621897Y-39956793D01*
X73690325Y-39928450D01*
X73690326Y-39928450D01*
X73690328Y-39928449D01*
X73762966Y-39914000D01*
X73837034Y-39914000D01*
X73909674Y-39928449D01*
X73934169Y-39938595D01*
X73957618Y-39945708D01*
X73982004Y-39948110D01*
X74006390Y-39945708D01*
X74029839Y-39938595D01*
X74051450Y-39927044D01*
X74070392Y-39911499D01*
X74085937Y-39892557D01*
X74097488Y-39870946D01*
X74104601Y-39847497D01*
X74107003Y-39823111D01*
X74104601Y-39798725D01*
X74101620Y-39786825D01*
X74079440Y-39713710D01*
X74072181Y-39640000D01*
X74079440Y-39566290D01*
X74100940Y-39495415D01*
X74135854Y-39430096D01*
X74182841Y-39372841D01*
X74240096Y-39325854D01*
X74305415Y-39290940D01*
X74376290Y-39269440D01*
X74431528Y-39264000D01*
X74768472Y-39264000D01*
X74823710Y-39269440D01*
G37*
G36*
X67509672Y-39278449D02*
G01*
X67509674Y-39278450D01*
X67509675Y-39278450D01*
X67578103Y-39306793D01*
X67639686Y-39347942D01*
X67692058Y-39400314D01*
X67733207Y-39461897D01*
X67747090Y-39495415D01*
X67761551Y-39530328D01*
X67776000Y-39602966D01*
X67776000Y-39677034D01*
X67768705Y-39713709D01*
X67761550Y-39749675D01*
X67733207Y-39818103D01*
X67692058Y-39879686D01*
X67639686Y-39932058D01*
X67578103Y-39973207D01*
X67509675Y-40001550D01*
X67509674Y-40001550D01*
X67509672Y-40001551D01*
X67437034Y-40016000D01*
X67362966Y-40016000D01*
X67290328Y-40001551D01*
X67290326Y-40001550D01*
X67290325Y-40001550D01*
X67221897Y-39973207D01*
X67160314Y-39932058D01*
X67107942Y-39879686D01*
X67066793Y-39818103D01*
X67038450Y-39749675D01*
X67031296Y-39713709D01*
X67024000Y-39677034D01*
X67024000Y-39602966D01*
X67038449Y-39530328D01*
X67052910Y-39495415D01*
X67066793Y-39461897D01*
X67107942Y-39400314D01*
X67160314Y-39347942D01*
X67221897Y-39306793D01*
X67290325Y-39278450D01*
X67290326Y-39278450D01*
X67290328Y-39278449D01*
X67362966Y-39264000D01*
X67437034Y-39264000D01*
X67509672Y-39278449D01*
G37*
G36*
X48131552Y-38966331D02*
G01*
X48213627Y-39000328D01*
X48213629Y-39000329D01*
X48250813Y-39025175D01*
X48287495Y-39049685D01*
X48350315Y-39112505D01*
X48399672Y-39186373D01*
X48433669Y-39268448D01*
X48451000Y-39355579D01*
X48451000Y-39444421D01*
X48433669Y-39531552D01*
X48399672Y-39613627D01*
X48399671Y-39613629D01*
X48350314Y-39687496D01*
X48287496Y-39750314D01*
X48213629Y-39799671D01*
X48213628Y-39799672D01*
X48213627Y-39799672D01*
X48131552Y-39833669D01*
X48044421Y-39851000D01*
X47955579Y-39851000D01*
X47868448Y-39833669D01*
X47786373Y-39799672D01*
X47786372Y-39799672D01*
X47786371Y-39799671D01*
X47712504Y-39750314D01*
X47649686Y-39687496D01*
X47600329Y-39613629D01*
X47600328Y-39613627D01*
X47566331Y-39531552D01*
X47549000Y-39444421D01*
X47549000Y-39355579D01*
X47566331Y-39268448D01*
X47600328Y-39186373D01*
X47649685Y-39112505D01*
X47712505Y-39049685D01*
X47749187Y-39025175D01*
X47786371Y-39000329D01*
X47786373Y-39000328D01*
X47868448Y-38966331D01*
X47955579Y-38949000D01*
X48044421Y-38949000D01*
X48131552Y-38966331D01*
G37*
G36*
X45866823Y-36761313D02*
G01*
X46027242Y-36809976D01*
X46159906Y-36880886D01*
X46175078Y-36888996D01*
X46304659Y-36995341D01*
X46411004Y-37124922D01*
X46411005Y-37124924D01*
X46490024Y-37272758D01*
X46538687Y-37433178D01*
X46551000Y-37558197D01*
X46551000Y-38041804D01*
X46538687Y-38166823D01*
X46490024Y-38327242D01*
X46419114Y-38459906D01*
X46411004Y-38475078D01*
X46304659Y-38604659D01*
X46175077Y-38711005D01*
X46027241Y-38790024D01*
X45866822Y-38838687D01*
X45700000Y-38855117D01*
X45533177Y-38838687D01*
X45372758Y-38790024D01*
X45224924Y-38711005D01*
X45224922Y-38711004D01*
X45095341Y-38604659D01*
X44988995Y-38475077D01*
X44909976Y-38327241D01*
X44861313Y-38166822D01*
X44849000Y-38041803D01*
X44849000Y-37558196D01*
X44861313Y-37433177D01*
X44909976Y-37272758D01*
X44988995Y-37124924D01*
X44988996Y-37124922D01*
X45095342Y-36995341D01*
X45224923Y-36888996D01*
X45240095Y-36880886D01*
X45372759Y-36809976D01*
X45533178Y-36761313D01*
X45700000Y-36744883D01*
X45866823Y-36761313D01*
G37*
G36*
X50466823Y-35661313D02*
G01*
X50627242Y-35709976D01*
X50759906Y-35780886D01*
X50775078Y-35788996D01*
X50904659Y-35895341D01*
X51011004Y-36024922D01*
X51011005Y-36024924D01*
X51090024Y-36172758D01*
X51138687Y-36333178D01*
X51151000Y-36458197D01*
X51151000Y-36941804D01*
X51138687Y-37066823D01*
X51090024Y-37227242D01*
X51019114Y-37359906D01*
X51011004Y-37375078D01*
X50963323Y-37433177D01*
X50904659Y-37504659D01*
X50775077Y-37611005D01*
X50627241Y-37690024D01*
X50466822Y-37738687D01*
X50300000Y-37755117D01*
X50133177Y-37738687D01*
X49972758Y-37690024D01*
X49824924Y-37611005D01*
X49824922Y-37611004D01*
X49695341Y-37504659D01*
X49636677Y-37433177D01*
X49588995Y-37375077D01*
X49509976Y-37227241D01*
X49461313Y-37066822D01*
X49449000Y-36941803D01*
X49449000Y-36458196D01*
X49461313Y-36333177D01*
X49509976Y-36172758D01*
X49588995Y-36024924D01*
X49588996Y-36024922D01*
X49695342Y-35895341D01*
X49824923Y-35788996D01*
X49840095Y-35780886D01*
X49972759Y-35709976D01*
X50133178Y-35661313D01*
X50300000Y-35644883D01*
X50466823Y-35661313D01*
G37*
G36*
X73138642Y-33729781D02*
G01*
X73284414Y-33790162D01*
X73284416Y-33790163D01*
X73415608Y-33877822D01*
X73527178Y-33989392D01*
X73614837Y-34120584D01*
X73614838Y-34120586D01*
X73675219Y-34266358D01*
X73706000Y-34421107D01*
X73706000Y-34578893D01*
X73675219Y-34733642D01*
X73614838Y-34879414D01*
X73614837Y-34879416D01*
X73527178Y-35010608D01*
X73415608Y-35122178D01*
X73284416Y-35209837D01*
X73284415Y-35209838D01*
X73284414Y-35209838D01*
X73138642Y-35270219D01*
X72983893Y-35301000D01*
X72826107Y-35301000D01*
X72671358Y-35270219D01*
X72525586Y-35209838D01*
X72525585Y-35209838D01*
X72525584Y-35209837D01*
X72394392Y-35122178D01*
X72282822Y-35010608D01*
X72195163Y-34879416D01*
X72195162Y-34879414D01*
X72134781Y-34733642D01*
X72104000Y-34578893D01*
X72104000Y-34421107D01*
X72134781Y-34266358D01*
X72195162Y-34120586D01*
X72195163Y-34120584D01*
X72282822Y-33989392D01*
X72394392Y-33877822D01*
X72525584Y-33790163D01*
X72525586Y-33790162D01*
X72671358Y-33729781D01*
X72826107Y-33699000D01*
X72983893Y-33699000D01*
X73138642Y-33729781D01*
G37*
G36*
X92328642Y-33729781D02*
G01*
X92474414Y-33790162D01*
X92474416Y-33790163D01*
X92605608Y-33877822D01*
X92717178Y-33989392D01*
X92804837Y-34120584D01*
X92804838Y-34120586D01*
X92865219Y-34266358D01*
X92896000Y-34421107D01*
X92896000Y-34578893D01*
X92865219Y-34733642D01*
X92804838Y-34879414D01*
X92804837Y-34879416D01*
X92717178Y-35010608D01*
X92605608Y-35122178D01*
X92474416Y-35209837D01*
X92474415Y-35209838D01*
X92474414Y-35209838D01*
X92328642Y-35270219D01*
X92173893Y-35301000D01*
X92016107Y-35301000D01*
X91861358Y-35270219D01*
X91715586Y-35209838D01*
X91715585Y-35209838D01*
X91715584Y-35209837D01*
X91584392Y-35122178D01*
X91472822Y-35010608D01*
X91385163Y-34879416D01*
X91385162Y-34879414D01*
X91324781Y-34733642D01*
X91294000Y-34578893D01*
X91294000Y-34421107D01*
X91324781Y-34266358D01*
X91385162Y-34120586D01*
X91385163Y-34120584D01*
X91472822Y-33989392D01*
X91584392Y-33877822D01*
X91715584Y-33790163D01*
X91715586Y-33790162D01*
X91861358Y-33729781D01*
X92016107Y-33699000D01*
X92173893Y-33699000D01*
X92328642Y-33729781D01*
G37*
G36*
X96138642Y-33729781D02*
G01*
X96284414Y-33790162D01*
X96284416Y-33790163D01*
X96415608Y-33877822D01*
X96527178Y-33989392D01*
X96614837Y-34120584D01*
X96614838Y-34120586D01*
X96675219Y-34266358D01*
X96706000Y-34421107D01*
X96706000Y-34578893D01*
X96675219Y-34733642D01*
X96614838Y-34879414D01*
X96614837Y-34879416D01*
X96527178Y-35010608D01*
X96415608Y-35122178D01*
X96284416Y-35209837D01*
X96284415Y-35209838D01*
X96284414Y-35209838D01*
X96138642Y-35270219D01*
X95983893Y-35301000D01*
X95826107Y-35301000D01*
X95671358Y-35270219D01*
X95525586Y-35209838D01*
X95525585Y-35209838D01*
X95525584Y-35209837D01*
X95394392Y-35122178D01*
X95282822Y-35010608D01*
X95195163Y-34879416D01*
X95195162Y-34879414D01*
X95134781Y-34733642D01*
X95104000Y-34578893D01*
X95104000Y-34421107D01*
X95134781Y-34266358D01*
X95195162Y-34120586D01*
X95195163Y-34120584D01*
X95282822Y-33989392D01*
X95394392Y-33877822D01*
X95525584Y-33790163D01*
X95525586Y-33790162D01*
X95671358Y-33729781D01*
X95826107Y-33699000D01*
X95983893Y-33699000D01*
X96138642Y-33729781D01*
G37*
G36*
X99313642Y-33729781D02*
G01*
X99459414Y-33790162D01*
X99459416Y-33790163D01*
X99590608Y-33877822D01*
X99702178Y-33989392D01*
X99789837Y-34120584D01*
X99789838Y-34120586D01*
X99850219Y-34266358D01*
X99881000Y-34421107D01*
X99881000Y-34578893D01*
X99850219Y-34733642D01*
X99789838Y-34879414D01*
X99789837Y-34879416D01*
X99702178Y-35010608D01*
X99590608Y-35122178D01*
X99459416Y-35209837D01*
X99459415Y-35209838D01*
X99459414Y-35209838D01*
X99313642Y-35270219D01*
X99158893Y-35301000D01*
X99001107Y-35301000D01*
X98846358Y-35270219D01*
X98700586Y-35209838D01*
X98700585Y-35209838D01*
X98700584Y-35209837D01*
X98569392Y-35122178D01*
X98457822Y-35010608D01*
X98370163Y-34879416D01*
X98370162Y-34879414D01*
X98309781Y-34733642D01*
X98279000Y-34578893D01*
X98279000Y-34421107D01*
X98309781Y-34266358D01*
X98370162Y-34120586D01*
X98370163Y-34120584D01*
X98457822Y-33989392D01*
X98569392Y-33877822D01*
X98700584Y-33790163D01*
X98700586Y-33790162D01*
X98846358Y-33729781D01*
X99001107Y-33699000D01*
X99158893Y-33699000D01*
X99313642Y-33729781D01*
G37*
G36*
X66721000Y-35301000D02*
G01*
X65119000Y-35301000D01*
X65119000Y-33699000D01*
X66721000Y-33699000D01*
X66721000Y-35301000D01*
G37*
G36*
X69328642Y-33729781D02*
G01*
X69474414Y-33790162D01*
X69474416Y-33790163D01*
X69605608Y-33877822D01*
X69717178Y-33989392D01*
X69804837Y-34120584D01*
X69804838Y-34120586D01*
X69865219Y-34266358D01*
X69896000Y-34421107D01*
X69896000Y-34578893D01*
X69865219Y-34733642D01*
X69804838Y-34879414D01*
X69804837Y-34879416D01*
X69717178Y-35010608D01*
X69605608Y-35122178D01*
X69474416Y-35209837D01*
X69474415Y-35209838D01*
X69474414Y-35209838D01*
X69328642Y-35270219D01*
X69173893Y-35301000D01*
X69016107Y-35301000D01*
X68861358Y-35270219D01*
X68715586Y-35209838D01*
X68715585Y-35209838D01*
X68715584Y-35209837D01*
X68584392Y-35122178D01*
X68472822Y-35010608D01*
X68385163Y-34879416D01*
X68385162Y-34879414D01*
X68324781Y-34733642D01*
X68294000Y-34578893D01*
X68294000Y-34421107D01*
X68324781Y-34266358D01*
X68385162Y-34120586D01*
X68385163Y-34120584D01*
X68472822Y-33989392D01*
X68584392Y-33877822D01*
X68715584Y-33790163D01*
X68715586Y-33790162D01*
X68861358Y-33729781D01*
X69016107Y-33699000D01*
X69173893Y-33699000D01*
X69328642Y-33729781D01*
G37*
G36*
X76313642Y-33729781D02*
G01*
X76459414Y-33790162D01*
X76459416Y-33790163D01*
X76590608Y-33877822D01*
X76702178Y-33989392D01*
X76789837Y-34120584D01*
X76789838Y-34120586D01*
X76850219Y-34266358D01*
X76881000Y-34421107D01*
X76881000Y-34578893D01*
X76850219Y-34733642D01*
X76789838Y-34879414D01*
X76789837Y-34879416D01*
X76702178Y-35010608D01*
X76590608Y-35122178D01*
X76459416Y-35209837D01*
X76459415Y-35209838D01*
X76459414Y-35209838D01*
X76313642Y-35270219D01*
X76158893Y-35301000D01*
X76001107Y-35301000D01*
X75846358Y-35270219D01*
X75700586Y-35209838D01*
X75700585Y-35209838D01*
X75700584Y-35209837D01*
X75569392Y-35122178D01*
X75457822Y-35010608D01*
X75370163Y-34879416D01*
X75370162Y-34879414D01*
X75309781Y-34733642D01*
X75279000Y-34578893D01*
X75279000Y-34421107D01*
X75309781Y-34266358D01*
X75370162Y-34120586D01*
X75370163Y-34120584D01*
X75457822Y-33989392D01*
X75569392Y-33877822D01*
X75700584Y-33790163D01*
X75700586Y-33790162D01*
X75846358Y-33729781D01*
X76001107Y-33699000D01*
X76158893Y-33699000D01*
X76313642Y-33729781D01*
G37*
G36*
X30313642Y-33729781D02*
G01*
X30459414Y-33790162D01*
X30459416Y-33790163D01*
X30590608Y-33877822D01*
X30702178Y-33989392D01*
X30789837Y-34120584D01*
X30789838Y-34120586D01*
X30850219Y-34266358D01*
X30881000Y-34421107D01*
X30881000Y-34578893D01*
X30850219Y-34733642D01*
X30789838Y-34879414D01*
X30789837Y-34879416D01*
X30702178Y-35010608D01*
X30590608Y-35122178D01*
X30459416Y-35209837D01*
X30459415Y-35209838D01*
X30459414Y-35209838D01*
X30313642Y-35270219D01*
X30158893Y-35301000D01*
X30001107Y-35301000D01*
X29846358Y-35270219D01*
X29700586Y-35209838D01*
X29700585Y-35209838D01*
X29700584Y-35209837D01*
X29569392Y-35122178D01*
X29457822Y-35010608D01*
X29370163Y-34879416D01*
X29370162Y-34879414D01*
X29309781Y-34733642D01*
X29279000Y-34578893D01*
X29279000Y-34421107D01*
X29309781Y-34266358D01*
X29370162Y-34120586D01*
X29370163Y-34120584D01*
X29457822Y-33989392D01*
X29569392Y-33877822D01*
X29700584Y-33790163D01*
X29700586Y-33790162D01*
X29846358Y-33729781D01*
X30001107Y-33699000D01*
X30158893Y-33699000D01*
X30313642Y-33729781D01*
G37*
G36*
X27138642Y-33729781D02*
G01*
X27284414Y-33790162D01*
X27284416Y-33790163D01*
X27415608Y-33877822D01*
X27527178Y-33989392D01*
X27614837Y-34120584D01*
X27614838Y-34120586D01*
X27675219Y-34266358D01*
X27706000Y-34421107D01*
X27706000Y-34578893D01*
X27675219Y-34733642D01*
X27614838Y-34879414D01*
X27614837Y-34879416D01*
X27527178Y-35010608D01*
X27415608Y-35122178D01*
X27284416Y-35209837D01*
X27284415Y-35209838D01*
X27284414Y-35209838D01*
X27138642Y-35270219D01*
X26983893Y-35301000D01*
X26826107Y-35301000D01*
X26671358Y-35270219D01*
X26525586Y-35209838D01*
X26525585Y-35209838D01*
X26525584Y-35209837D01*
X26394392Y-35122178D01*
X26282822Y-35010608D01*
X26195163Y-34879416D01*
X26195162Y-34879414D01*
X26134781Y-34733642D01*
X26104000Y-34578893D01*
X26104000Y-34421107D01*
X26134781Y-34266358D01*
X26195162Y-34120586D01*
X26195163Y-34120584D01*
X26282822Y-33989392D01*
X26394392Y-33877822D01*
X26525584Y-33790163D01*
X26525586Y-33790162D01*
X26671358Y-33729781D01*
X26826107Y-33699000D01*
X26983893Y-33699000D01*
X27138642Y-33729781D01*
G37*
G36*
X89721000Y-35301000D02*
G01*
X88119000Y-35301000D01*
X88119000Y-33699000D01*
X89721000Y-33699000D01*
X89721000Y-35301000D01*
G37*
G36*
X20721000Y-35301000D02*
G01*
X19119000Y-35301000D01*
X19119000Y-33699000D01*
X20721000Y-33699000D01*
X20721000Y-35301000D01*
G37*
G36*
X43721000Y-35301000D02*
G01*
X42119000Y-35301000D01*
X42119000Y-33699000D01*
X43721000Y-33699000D01*
X43721000Y-35301000D01*
G37*
G36*
X53313642Y-33729781D02*
G01*
X53459414Y-33790162D01*
X53459416Y-33790163D01*
X53590608Y-33877822D01*
X53702178Y-33989392D01*
X53789837Y-34120584D01*
X53789838Y-34120586D01*
X53850219Y-34266358D01*
X53881000Y-34421107D01*
X53881000Y-34578893D01*
X53850219Y-34733642D01*
X53789838Y-34879414D01*
X53789837Y-34879416D01*
X53702178Y-35010608D01*
X53590608Y-35122178D01*
X53459416Y-35209837D01*
X53459415Y-35209838D01*
X53459414Y-35209838D01*
X53313642Y-35270219D01*
X53158893Y-35301000D01*
X53001107Y-35301000D01*
X52846358Y-35270219D01*
X52700586Y-35209838D01*
X52700585Y-35209838D01*
X52700584Y-35209837D01*
X52569392Y-35122178D01*
X52457822Y-35010608D01*
X52370163Y-34879416D01*
X52370162Y-34879414D01*
X52309781Y-34733642D01*
X52279000Y-34578893D01*
X52279000Y-34421107D01*
X52309781Y-34266358D01*
X52370162Y-34120586D01*
X52370163Y-34120584D01*
X52457822Y-33989392D01*
X52569392Y-33877822D01*
X52700584Y-33790163D01*
X52700586Y-33790162D01*
X52846358Y-33729781D01*
X53001107Y-33699000D01*
X53158893Y-33699000D01*
X53313642Y-33729781D01*
G37*
G36*
X50138642Y-33729781D02*
G01*
X50284414Y-33790162D01*
X50284416Y-33790163D01*
X50415608Y-33877822D01*
X50527178Y-33989392D01*
X50614837Y-34120584D01*
X50614838Y-34120586D01*
X50675219Y-34266358D01*
X50706000Y-34421107D01*
X50706000Y-34578893D01*
X50675219Y-34733642D01*
X50614838Y-34879414D01*
X50614837Y-34879416D01*
X50527178Y-35010608D01*
X50415608Y-35122178D01*
X50284416Y-35209837D01*
X50284415Y-35209838D01*
X50284414Y-35209838D01*
X50138642Y-35270219D01*
X49983893Y-35301000D01*
X49826107Y-35301000D01*
X49671358Y-35270219D01*
X49525586Y-35209838D01*
X49525585Y-35209838D01*
X49525584Y-35209837D01*
X49394392Y-35122178D01*
X49282822Y-35010608D01*
X49195163Y-34879416D01*
X49195162Y-34879414D01*
X49134781Y-34733642D01*
X49104000Y-34578893D01*
X49104000Y-34421107D01*
X49134781Y-34266358D01*
X49195162Y-34120586D01*
X49195163Y-34120584D01*
X49282822Y-33989392D01*
X49394392Y-33877822D01*
X49525584Y-33790163D01*
X49525586Y-33790162D01*
X49671358Y-33729781D01*
X49826107Y-33699000D01*
X49983893Y-33699000D01*
X50138642Y-33729781D01*
G37*
G36*
X46328642Y-33729781D02*
G01*
X46474414Y-33790162D01*
X46474416Y-33790163D01*
X46605608Y-33877822D01*
X46717178Y-33989392D01*
X46804837Y-34120584D01*
X46804838Y-34120586D01*
X46865219Y-34266358D01*
X46896000Y-34421107D01*
X46896000Y-34578893D01*
X46865219Y-34733642D01*
X46804838Y-34879414D01*
X46804837Y-34879416D01*
X46717178Y-35010608D01*
X46605608Y-35122178D01*
X46474416Y-35209837D01*
X46474415Y-35209838D01*
X46474414Y-35209838D01*
X46328642Y-35270219D01*
X46173893Y-35301000D01*
X46016107Y-35301000D01*
X45861358Y-35270219D01*
X45715586Y-35209838D01*
X45715585Y-35209838D01*
X45715584Y-35209837D01*
X45584392Y-35122178D01*
X45472822Y-35010608D01*
X45385163Y-34879416D01*
X45385162Y-34879414D01*
X45324781Y-34733642D01*
X45294000Y-34578893D01*
X45294000Y-34421107D01*
X45324781Y-34266358D01*
X45385162Y-34120586D01*
X45385163Y-34120584D01*
X45472822Y-33989392D01*
X45584392Y-33877822D01*
X45715584Y-33790163D01*
X45715586Y-33790162D01*
X45861358Y-33729781D01*
X46016107Y-33699000D01*
X46173893Y-33699000D01*
X46328642Y-33729781D01*
G37*
G36*
X23328642Y-33729781D02*
G01*
X23474414Y-33790162D01*
X23474416Y-33790163D01*
X23605608Y-33877822D01*
X23717178Y-33989392D01*
X23804837Y-34120584D01*
X23804838Y-34120586D01*
X23865219Y-34266358D01*
X23896000Y-34421107D01*
X23896000Y-34578893D01*
X23865219Y-34733642D01*
X23804838Y-34879414D01*
X23804837Y-34879416D01*
X23717178Y-35010608D01*
X23605608Y-35122178D01*
X23474416Y-35209837D01*
X23474415Y-35209838D01*
X23474414Y-35209838D01*
X23328642Y-35270219D01*
X23173893Y-35301000D01*
X23016107Y-35301000D01*
X22861358Y-35270219D01*
X22715586Y-35209838D01*
X22715585Y-35209838D01*
X22715584Y-35209837D01*
X22584392Y-35122178D01*
X22472822Y-35010608D01*
X22385163Y-34879416D01*
X22385162Y-34879414D01*
X22324781Y-34733642D01*
X22294000Y-34578893D01*
X22294000Y-34421107D01*
X22324781Y-34266358D01*
X22385162Y-34120586D01*
X22385163Y-34120584D01*
X22472822Y-33989392D01*
X22584392Y-33877822D01*
X22715584Y-33790163D01*
X22715586Y-33790162D01*
X22861358Y-33729781D01*
X23016107Y-33699000D01*
X23173893Y-33699000D01*
X23328642Y-33729781D01*
G37*
G36*
X53881000Y-29301000D02*
G01*
X52279000Y-29301000D01*
X52279000Y-27699000D01*
X53881000Y-27699000D01*
X53881000Y-29301000D01*
G37*
G36*
X50138642Y-27729781D02*
G01*
X50284414Y-27790162D01*
X50284416Y-27790163D01*
X50415608Y-27877822D01*
X50527178Y-27989392D01*
X50614837Y-28120584D01*
X50614838Y-28120586D01*
X50675219Y-28266358D01*
X50706000Y-28421107D01*
X50706000Y-28578893D01*
X50675219Y-28733642D01*
X50614838Y-28879414D01*
X50614837Y-28879416D01*
X50527178Y-29010608D01*
X50415608Y-29122178D01*
X50284416Y-29209837D01*
X50284415Y-29209838D01*
X50284414Y-29209838D01*
X50138642Y-29270219D01*
X49983893Y-29301000D01*
X49826107Y-29301000D01*
X49671358Y-29270219D01*
X49525586Y-29209838D01*
X49525585Y-29209838D01*
X49525584Y-29209837D01*
X49394392Y-29122178D01*
X49282822Y-29010608D01*
X49195163Y-28879416D01*
X49195162Y-28879414D01*
X49134781Y-28733642D01*
X49104000Y-28578893D01*
X49104000Y-28421107D01*
X49134781Y-28266358D01*
X49195162Y-28120586D01*
X49195163Y-28120584D01*
X49282822Y-27989392D01*
X49394392Y-27877822D01*
X49525584Y-27790163D01*
X49525586Y-27790162D01*
X49671358Y-27729781D01*
X49826107Y-27699000D01*
X49983893Y-27699000D01*
X50138642Y-27729781D01*
G37*
G36*
X46328642Y-27729781D02*
G01*
X46474414Y-27790162D01*
X46474416Y-27790163D01*
X46605608Y-27877822D01*
X46717178Y-27989392D01*
X46804837Y-28120584D01*
X46804838Y-28120586D01*
X46865219Y-28266358D01*
X46896000Y-28421107D01*
X46896000Y-28578893D01*
X46865219Y-28733642D01*
X46804838Y-28879414D01*
X46804837Y-28879416D01*
X46717178Y-29010608D01*
X46605608Y-29122178D01*
X46474416Y-29209837D01*
X46474415Y-29209838D01*
X46474414Y-29209838D01*
X46328642Y-29270219D01*
X46173893Y-29301000D01*
X46016107Y-29301000D01*
X45861358Y-29270219D01*
X45715586Y-29209838D01*
X45715585Y-29209838D01*
X45715584Y-29209837D01*
X45584392Y-29122178D01*
X45472822Y-29010608D01*
X45385163Y-28879416D01*
X45385162Y-28879414D01*
X45324781Y-28733642D01*
X45294000Y-28578893D01*
X45294000Y-28421107D01*
X45324781Y-28266358D01*
X45385162Y-28120586D01*
X45385163Y-28120584D01*
X45472822Y-27989392D01*
X45584392Y-27877822D01*
X45715584Y-27790163D01*
X45715586Y-27790162D01*
X45861358Y-27729781D01*
X46016107Y-27699000D01*
X46173893Y-27699000D01*
X46328642Y-27729781D01*
G37*
G36*
X43153642Y-27729781D02*
G01*
X43299414Y-27790162D01*
X43299416Y-27790163D01*
X43430608Y-27877822D01*
X43542178Y-27989392D01*
X43629837Y-28120584D01*
X43629838Y-28120586D01*
X43690219Y-28266358D01*
X43721000Y-28421107D01*
X43721000Y-28578893D01*
X43690219Y-28733642D01*
X43629838Y-28879414D01*
X43629837Y-28879416D01*
X43542178Y-29010608D01*
X43430608Y-29122178D01*
X43299416Y-29209837D01*
X43299415Y-29209838D01*
X43299414Y-29209838D01*
X43153642Y-29270219D01*
X42998893Y-29301000D01*
X42841107Y-29301000D01*
X42686358Y-29270219D01*
X42540586Y-29209838D01*
X42540585Y-29209838D01*
X42540584Y-29209837D01*
X42409392Y-29122178D01*
X42297822Y-29010608D01*
X42210163Y-28879416D01*
X42210162Y-28879414D01*
X42149781Y-28733642D01*
X42119000Y-28578893D01*
X42119000Y-28421107D01*
X42149781Y-28266358D01*
X42210162Y-28120586D01*
X42210163Y-28120584D01*
X42297822Y-27989392D01*
X42409392Y-27877822D01*
X42540584Y-27790163D01*
X42540586Y-27790162D01*
X42686358Y-27729781D01*
X42841107Y-27699000D01*
X42998893Y-27699000D01*
X43153642Y-27729781D01*
G37*
G36*
X30786000Y-29301000D02*
G01*
X29184000Y-29301000D01*
X29184000Y-27699000D01*
X30786000Y-27699000D01*
X30786000Y-29301000D01*
G37*
G36*
X27043642Y-27729781D02*
G01*
X27189414Y-27790162D01*
X27189416Y-27790163D01*
X27320608Y-27877822D01*
X27432178Y-27989392D01*
X27519837Y-28120584D01*
X27519838Y-28120586D01*
X27580219Y-28266358D01*
X27611000Y-28421107D01*
X27611000Y-28578893D01*
X27580219Y-28733642D01*
X27519838Y-28879414D01*
X27519837Y-28879416D01*
X27432178Y-29010608D01*
X27320608Y-29122178D01*
X27189416Y-29209837D01*
X27189415Y-29209838D01*
X27189414Y-29209838D01*
X27043642Y-29270219D01*
X26888893Y-29301000D01*
X26731107Y-29301000D01*
X26576358Y-29270219D01*
X26430586Y-29209838D01*
X26430585Y-29209838D01*
X26430584Y-29209837D01*
X26299392Y-29122178D01*
X26187822Y-29010608D01*
X26100163Y-28879416D01*
X26100162Y-28879414D01*
X26039781Y-28733642D01*
X26009000Y-28578893D01*
X26009000Y-28421107D01*
X26039781Y-28266358D01*
X26100162Y-28120586D01*
X26100163Y-28120584D01*
X26187822Y-27989392D01*
X26299392Y-27877822D01*
X26430584Y-27790163D01*
X26430586Y-27790162D01*
X26576358Y-27729781D01*
X26731107Y-27699000D01*
X26888893Y-27699000D01*
X27043642Y-27729781D01*
G37*
G36*
X89058642Y-27729781D02*
G01*
X89204414Y-27790162D01*
X89204416Y-27790163D01*
X89335608Y-27877822D01*
X89447178Y-27989392D01*
X89534837Y-28120584D01*
X89534838Y-28120586D01*
X89595219Y-28266358D01*
X89626000Y-28421107D01*
X89626000Y-28578893D01*
X89595219Y-28733642D01*
X89534838Y-28879414D01*
X89534837Y-28879416D01*
X89447178Y-29010608D01*
X89335608Y-29122178D01*
X89204416Y-29209837D01*
X89204415Y-29209838D01*
X89204414Y-29209838D01*
X89058642Y-29270219D01*
X88903893Y-29301000D01*
X88746107Y-29301000D01*
X88591358Y-29270219D01*
X88445586Y-29209838D01*
X88445585Y-29209838D01*
X88445584Y-29209837D01*
X88314392Y-29122178D01*
X88202822Y-29010608D01*
X88115163Y-28879416D01*
X88115162Y-28879414D01*
X88054781Y-28733642D01*
X88024000Y-28578893D01*
X88024000Y-28421107D01*
X88054781Y-28266358D01*
X88115162Y-28120586D01*
X88115163Y-28120584D01*
X88202822Y-27989392D01*
X88314392Y-27877822D01*
X88445584Y-27790163D01*
X88445586Y-27790162D01*
X88591358Y-27729781D01*
X88746107Y-27699000D01*
X88903893Y-27699000D01*
X89058642Y-27729781D01*
G37*
G36*
X92233642Y-27729781D02*
G01*
X92379414Y-27790162D01*
X92379416Y-27790163D01*
X92510608Y-27877822D01*
X92622178Y-27989392D01*
X92709837Y-28120584D01*
X92709838Y-28120586D01*
X92770219Y-28266358D01*
X92801000Y-28421107D01*
X92801000Y-28578893D01*
X92770219Y-28733642D01*
X92709838Y-28879414D01*
X92709837Y-28879416D01*
X92622178Y-29010608D01*
X92510608Y-29122178D01*
X92379416Y-29209837D01*
X92379415Y-29209838D01*
X92379414Y-29209838D01*
X92233642Y-29270219D01*
X92078893Y-29301000D01*
X91921107Y-29301000D01*
X91766358Y-29270219D01*
X91620586Y-29209838D01*
X91620585Y-29209838D01*
X91620584Y-29209837D01*
X91489392Y-29122178D01*
X91377822Y-29010608D01*
X91290163Y-28879416D01*
X91290162Y-28879414D01*
X91229781Y-28733642D01*
X91199000Y-28578893D01*
X91199000Y-28421107D01*
X91229781Y-28266358D01*
X91290162Y-28120586D01*
X91290163Y-28120584D01*
X91377822Y-27989392D01*
X91489392Y-27877822D01*
X91620584Y-27790163D01*
X91620586Y-27790162D01*
X91766358Y-27729781D01*
X91921107Y-27699000D01*
X92078893Y-27699000D01*
X92233642Y-27729781D01*
G37*
G36*
X99786000Y-29301000D02*
G01*
X98184000Y-29301000D01*
X98184000Y-27699000D01*
X99786000Y-27699000D01*
X99786000Y-29301000D01*
G37*
G36*
X76786000Y-29301000D02*
G01*
X75184000Y-29301000D01*
X75184000Y-27699000D01*
X76786000Y-27699000D01*
X76786000Y-29301000D01*
G37*
G36*
X73043642Y-27729781D02*
G01*
X73189414Y-27790162D01*
X73189416Y-27790163D01*
X73320608Y-27877822D01*
X73432178Y-27989392D01*
X73519837Y-28120584D01*
X73519838Y-28120586D01*
X73580219Y-28266358D01*
X73611000Y-28421107D01*
X73611000Y-28578893D01*
X73580219Y-28733642D01*
X73519838Y-28879414D01*
X73519837Y-28879416D01*
X73432178Y-29010608D01*
X73320608Y-29122178D01*
X73189416Y-29209837D01*
X73189415Y-29209838D01*
X73189414Y-29209838D01*
X73043642Y-29270219D01*
X72888893Y-29301000D01*
X72731107Y-29301000D01*
X72576358Y-29270219D01*
X72430586Y-29209838D01*
X72430585Y-29209838D01*
X72430584Y-29209837D01*
X72299392Y-29122178D01*
X72187822Y-29010608D01*
X72100163Y-28879416D01*
X72100162Y-28879414D01*
X72039781Y-28733642D01*
X72009000Y-28578893D01*
X72009000Y-28421107D01*
X72039781Y-28266358D01*
X72100162Y-28120586D01*
X72100163Y-28120584D01*
X72187822Y-27989392D01*
X72299392Y-27877822D01*
X72430584Y-27790163D01*
X72430586Y-27790162D01*
X72576358Y-27729781D01*
X72731107Y-27699000D01*
X72888893Y-27699000D01*
X73043642Y-27729781D01*
G37*
G36*
X69233642Y-27729781D02*
G01*
X69379414Y-27790162D01*
X69379416Y-27790163D01*
X69510608Y-27877822D01*
X69622178Y-27989392D01*
X69709837Y-28120584D01*
X69709838Y-28120586D01*
X69770219Y-28266358D01*
X69801000Y-28421107D01*
X69801000Y-28578893D01*
X69770219Y-28733642D01*
X69709838Y-28879414D01*
X69709837Y-28879416D01*
X69622178Y-29010608D01*
X69510608Y-29122178D01*
X69379416Y-29209837D01*
X69379415Y-29209838D01*
X69379414Y-29209838D01*
X69233642Y-29270219D01*
X69078893Y-29301000D01*
X68921107Y-29301000D01*
X68766358Y-29270219D01*
X68620586Y-29209838D01*
X68620585Y-29209838D01*
X68620584Y-29209837D01*
X68489392Y-29122178D01*
X68377822Y-29010608D01*
X68290163Y-28879416D01*
X68290162Y-28879414D01*
X68229781Y-28733642D01*
X68199000Y-28578893D01*
X68199000Y-28421107D01*
X68229781Y-28266358D01*
X68290162Y-28120586D01*
X68290163Y-28120584D01*
X68377822Y-27989392D01*
X68489392Y-27877822D01*
X68620584Y-27790163D01*
X68620586Y-27790162D01*
X68766358Y-27729781D01*
X68921107Y-27699000D01*
X69078893Y-27699000D01*
X69233642Y-27729781D01*
G37*
G36*
X66058642Y-27729781D02*
G01*
X66204414Y-27790162D01*
X66204416Y-27790163D01*
X66335608Y-27877822D01*
X66447178Y-27989392D01*
X66534837Y-28120584D01*
X66534838Y-28120586D01*
X66595219Y-28266358D01*
X66626000Y-28421107D01*
X66626000Y-28578893D01*
X66595219Y-28733642D01*
X66534838Y-28879414D01*
X66534837Y-28879416D01*
X66447178Y-29010608D01*
X66335608Y-29122178D01*
X66204416Y-29209837D01*
X66204415Y-29209838D01*
X66204414Y-29209838D01*
X66058642Y-29270219D01*
X65903893Y-29301000D01*
X65746107Y-29301000D01*
X65591358Y-29270219D01*
X65445586Y-29209838D01*
X65445585Y-29209838D01*
X65445584Y-29209837D01*
X65314392Y-29122178D01*
X65202822Y-29010608D01*
X65115163Y-28879416D01*
X65115162Y-28879414D01*
X65054781Y-28733642D01*
X65024000Y-28578893D01*
X65024000Y-28421107D01*
X65054781Y-28266358D01*
X65115162Y-28120586D01*
X65115163Y-28120584D01*
X65202822Y-27989392D01*
X65314392Y-27877822D01*
X65445584Y-27790163D01*
X65445586Y-27790162D01*
X65591358Y-27729781D01*
X65746107Y-27699000D01*
X65903893Y-27699000D01*
X66058642Y-27729781D01*
G37*
G36*
X20058642Y-27729781D02*
G01*
X20204414Y-27790162D01*
X20204416Y-27790163D01*
X20335608Y-27877822D01*
X20447178Y-27989392D01*
X20534837Y-28120584D01*
X20534838Y-28120586D01*
X20595219Y-28266358D01*
X20626000Y-28421107D01*
X20626000Y-28578893D01*
X20595219Y-28733642D01*
X20534838Y-28879414D01*
X20534837Y-28879416D01*
X20447178Y-29010608D01*
X20335608Y-29122178D01*
X20204416Y-29209837D01*
X20204415Y-29209838D01*
X20204414Y-29209838D01*
X20058642Y-29270219D01*
X19903893Y-29301000D01*
X19746107Y-29301000D01*
X19591358Y-29270219D01*
X19445586Y-29209838D01*
X19445585Y-29209838D01*
X19445584Y-29209837D01*
X19314392Y-29122178D01*
X19202822Y-29010608D01*
X19115163Y-28879416D01*
X19115162Y-28879414D01*
X19054781Y-28733642D01*
X19024000Y-28578893D01*
X19024000Y-28421107D01*
X19054781Y-28266358D01*
X19115162Y-28120586D01*
X19115163Y-28120584D01*
X19202822Y-27989392D01*
X19314392Y-27877822D01*
X19445584Y-27790163D01*
X19445586Y-27790162D01*
X19591358Y-27729781D01*
X19746107Y-27699000D01*
X19903893Y-27699000D01*
X20058642Y-27729781D01*
G37*
G36*
X23233642Y-27729781D02*
G01*
X23379414Y-27790162D01*
X23379416Y-27790163D01*
X23510608Y-27877822D01*
X23622178Y-27989392D01*
X23709837Y-28120584D01*
X23709838Y-28120586D01*
X23770219Y-28266358D01*
X23801000Y-28421107D01*
X23801000Y-28578893D01*
X23770219Y-28733642D01*
X23709838Y-28879414D01*
X23709837Y-28879416D01*
X23622178Y-29010608D01*
X23510608Y-29122178D01*
X23379416Y-29209837D01*
X23379415Y-29209838D01*
X23379414Y-29209838D01*
X23233642Y-29270219D01*
X23078893Y-29301000D01*
X22921107Y-29301000D01*
X22766358Y-29270219D01*
X22620586Y-29209838D01*
X22620585Y-29209838D01*
X22620584Y-29209837D01*
X22489392Y-29122178D01*
X22377822Y-29010608D01*
X22290163Y-28879416D01*
X22290162Y-28879414D01*
X22229781Y-28733642D01*
X22199000Y-28578893D01*
X22199000Y-28421107D01*
X22229781Y-28266358D01*
X22290162Y-28120586D01*
X22290163Y-28120584D01*
X22377822Y-27989392D01*
X22489392Y-27877822D01*
X22620584Y-27790163D01*
X22620586Y-27790162D01*
X22766358Y-27729781D01*
X22921107Y-27699000D01*
X23078893Y-27699000D01*
X23233642Y-27729781D01*
G37*
G36*
X96043642Y-27729781D02*
G01*
X96189414Y-27790162D01*
X96189416Y-27790163D01*
X96320608Y-27877822D01*
X96432178Y-27989392D01*
X96519837Y-28120584D01*
X96519838Y-28120586D01*
X96580219Y-28266358D01*
X96611000Y-28421107D01*
X96611000Y-28578893D01*
X96580219Y-28733642D01*
X96519838Y-28879414D01*
X96519837Y-28879416D01*
X96432178Y-29010608D01*
X96320608Y-29122178D01*
X96189416Y-29209837D01*
X96189415Y-29209838D01*
X96189414Y-29209838D01*
X96043642Y-29270219D01*
X95888893Y-29301000D01*
X95731107Y-29301000D01*
X95576358Y-29270219D01*
X95430586Y-29209838D01*
X95430585Y-29209838D01*
X95430584Y-29209837D01*
X95299392Y-29122178D01*
X95187822Y-29010608D01*
X95100163Y-28879416D01*
X95100162Y-28879414D01*
X95039781Y-28733642D01*
X95009000Y-28578893D01*
X95009000Y-28421107D01*
X95039781Y-28266358D01*
X95100162Y-28120586D01*
X95100163Y-28120584D01*
X95187822Y-27989392D01*
X95299392Y-27877822D01*
X95430584Y-27790163D01*
X95430586Y-27790162D01*
X95576358Y-27729781D01*
X95731107Y-27699000D01*
X95888893Y-27699000D01*
X96043642Y-27729781D01*
G37*
G36*
X95736601Y-22414397D02*
G01*
X95775305Y-22422096D01*
X95807340Y-22435365D01*
X95884680Y-22467400D01*
X95983115Y-22533173D01*
X96066827Y-22616885D01*
X96132600Y-22715320D01*
X96177904Y-22824696D01*
X96201000Y-22940805D01*
X96201000Y-23059195D01*
X96177904Y-23175304D01*
X96132600Y-23284680D01*
X96066827Y-23383115D01*
X95983115Y-23466827D01*
X95884680Y-23532600D01*
X95807340Y-23564635D01*
X95775305Y-23577904D01*
X95736601Y-23585603D01*
X95659195Y-23601000D01*
X95540805Y-23601000D01*
X95463399Y-23585603D01*
X95424695Y-23577904D01*
X95392660Y-23564635D01*
X95315320Y-23532600D01*
X95216885Y-23466827D01*
X95133173Y-23383115D01*
X95067400Y-23284680D01*
X95022096Y-23175304D01*
X94999000Y-23059195D01*
X94999000Y-22940805D01*
X95022096Y-22824696D01*
X95067400Y-22715320D01*
X95133173Y-22616885D01*
X95216885Y-22533173D01*
X95315320Y-22467400D01*
X95392660Y-22435365D01*
X95424695Y-22422096D01*
X95463399Y-22414397D01*
X95540805Y-22399000D01*
X95659195Y-22399000D01*
X95736601Y-22414397D01*
G37*
G36*
X93001000Y-23601000D02*
G01*
X91799000Y-23601000D01*
X91799000Y-22399000D01*
X93001000Y-22399000D01*
X93001000Y-23601000D01*
G37*
G36*
X94136601Y-22414397D02*
G01*
X94175305Y-22422096D01*
X94207340Y-22435365D01*
X94284680Y-22467400D01*
X94383115Y-22533173D01*
X94466827Y-22616885D01*
X94532600Y-22715320D01*
X94577904Y-22824696D01*
X94601000Y-22940805D01*
X94601000Y-23059195D01*
X94577904Y-23175304D01*
X94532600Y-23284680D01*
X94466827Y-23383115D01*
X94383115Y-23466827D01*
X94284680Y-23532600D01*
X94207340Y-23564635D01*
X94175305Y-23577904D01*
X94136601Y-23585603D01*
X94059195Y-23601000D01*
X93940805Y-23601000D01*
X93863399Y-23585603D01*
X93824695Y-23577904D01*
X93792660Y-23564635D01*
X93715320Y-23532600D01*
X93616885Y-23466827D01*
X93533173Y-23383115D01*
X93467400Y-23284680D01*
X93422096Y-23175304D01*
X93399000Y-23059195D01*
X93399000Y-22940805D01*
X93422096Y-22824696D01*
X93467400Y-22715320D01*
X93533173Y-22616885D01*
X93616885Y-22533173D01*
X93715320Y-22467400D01*
X93792660Y-22435365D01*
X93824695Y-22422096D01*
X93863399Y-22414397D01*
X93940805Y-22399000D01*
X94059195Y-22399000D01*
X94136601Y-22414397D01*
G37*
G36*
X97767817Y-20882696D02*
G01*
X97881104Y-20917062D01*
X97985511Y-20972869D01*
X97985513Y-20972870D01*
X97985512Y-20972870D01*
X98077027Y-21047973D01*
X98115947Y-21095398D01*
X98152131Y-21139488D01*
X98207938Y-21243895D01*
X98242304Y-21357182D01*
X98251000Y-21445481D01*
X98251000Y-22804519D01*
X98242304Y-22892818D01*
X98207938Y-23006105D01*
X98152131Y-23110512D01*
X98077027Y-23202027D01*
X97985512Y-23277131D01*
X97881105Y-23332938D01*
X97767818Y-23367304D01*
X97650000Y-23378907D01*
X97532183Y-23367304D01*
X97418896Y-23332938D01*
X97314489Y-23277131D01*
X97222974Y-23202027D01*
X97147870Y-23110512D01*
X97092063Y-23006105D01*
X97057697Y-22892818D01*
X97049001Y-22804519D01*
X97049000Y-21445482D01*
X97057696Y-21357183D01*
X97092062Y-21243896D01*
X97147869Y-21139489D01*
X97161338Y-21123077D01*
X97222973Y-21047973D01*
X97314487Y-20972870D01*
X97314486Y-20972870D01*
X97314488Y-20972869D01*
X97418895Y-20917062D01*
X97532182Y-20882696D01*
X97650000Y-20871093D01*
X97767817Y-20882696D01*
G37*
G36*
X90467817Y-20882696D02*
G01*
X90581104Y-20917062D01*
X90685511Y-20972869D01*
X90685513Y-20972870D01*
X90685512Y-20972870D01*
X90777027Y-21047973D01*
X90815947Y-21095398D01*
X90852131Y-21139488D01*
X90907938Y-21243895D01*
X90942304Y-21357182D01*
X90951000Y-21445481D01*
X90951000Y-22804519D01*
X90942304Y-22892818D01*
X90907938Y-23006105D01*
X90852131Y-23110512D01*
X90777027Y-23202027D01*
X90685512Y-23277131D01*
X90581105Y-23332938D01*
X90467818Y-23367304D01*
X90350000Y-23378907D01*
X90232183Y-23367304D01*
X90118896Y-23332938D01*
X90014489Y-23277131D01*
X89922974Y-23202027D01*
X89847870Y-23110512D01*
X89792063Y-23006105D01*
X89757697Y-22892818D01*
X89749001Y-22804519D01*
X89749000Y-21445482D01*
X89757696Y-21357183D01*
X89792062Y-21243896D01*
X89847869Y-21139489D01*
X89861338Y-21123077D01*
X89922973Y-21047973D01*
X90014487Y-20972870D01*
X90014486Y-20972870D01*
X90014488Y-20972869D01*
X90118895Y-20917062D01*
X90232182Y-20882696D01*
X90350000Y-20871093D01*
X90467817Y-20882696D01*
G37*
G36*
X94936601Y-20664397D02*
G01*
X94975305Y-20672096D01*
X95007340Y-20685365D01*
X95084680Y-20717400D01*
X95183115Y-20783173D01*
X95266827Y-20866885D01*
X95332600Y-20965320D01*
X95377904Y-21074696D01*
X95401000Y-21190805D01*
X95401000Y-21309195D01*
X95377904Y-21425304D01*
X95332600Y-21534680D01*
X95266827Y-21633115D01*
X95183115Y-21716827D01*
X95084680Y-21782600D01*
X95007340Y-21814635D01*
X94975305Y-21827904D01*
X94936601Y-21835603D01*
X94859195Y-21851000D01*
X94740805Y-21851000D01*
X94663399Y-21835603D01*
X94624695Y-21827904D01*
X94592660Y-21814635D01*
X94515320Y-21782600D01*
X94416885Y-21716827D01*
X94333173Y-21633115D01*
X94267400Y-21534680D01*
X94222096Y-21425304D01*
X94199000Y-21309195D01*
X94199000Y-21190805D01*
X94222096Y-21074696D01*
X94267400Y-20965320D01*
X94333173Y-20866885D01*
X94416885Y-20783173D01*
X94515320Y-20717400D01*
X94592660Y-20685365D01*
X94624695Y-20672096D01*
X94663399Y-20664397D01*
X94740805Y-20649000D01*
X94859195Y-20649000D01*
X94936601Y-20664397D01*
G37*
G36*
X93336601Y-20664397D02*
G01*
X93375305Y-20672096D01*
X93407340Y-20685365D01*
X93484680Y-20717400D01*
X93583115Y-20783173D01*
X93666827Y-20866885D01*
X93732600Y-20965320D01*
X93777904Y-21074696D01*
X93801000Y-21190805D01*
X93801000Y-21309195D01*
X93777904Y-21425304D01*
X93732600Y-21534680D01*
X93666827Y-21633115D01*
X93583115Y-21716827D01*
X93484680Y-21782600D01*
X93407340Y-21814635D01*
X93375305Y-21827904D01*
X93336601Y-21835603D01*
X93259195Y-21851000D01*
X93140805Y-21851000D01*
X93063399Y-21835603D01*
X93024695Y-21827904D01*
X92992660Y-21814635D01*
X92915320Y-21782600D01*
X92816885Y-21716827D01*
X92733173Y-21633115D01*
X92667400Y-21534680D01*
X92622096Y-21425304D01*
X92599000Y-21309195D01*
X92599000Y-21190805D01*
X92622096Y-21074696D01*
X92667400Y-20965320D01*
X92733173Y-20866885D01*
X92816885Y-20783173D01*
X92915320Y-20717400D01*
X92992660Y-20685365D01*
X93024695Y-20672096D01*
X93063399Y-20664397D01*
X93140805Y-20649000D01*
X93259195Y-20649000D01*
X93336601Y-20664397D01*
G37*
G36*
X50631552Y-18616331D02*
G01*
X50713627Y-18650328D01*
X50713629Y-18650329D01*
X50750813Y-18675175D01*
X50787495Y-18699685D01*
X50850315Y-18762505D01*
X50899672Y-18836373D01*
X50933669Y-18918448D01*
X50951000Y-19005579D01*
X50951000Y-19094421D01*
X50933193Y-19183946D01*
X50927490Y-19202743D01*
X50925087Y-19227129D01*
X50927488Y-19251515D01*
X50934600Y-19274964D01*
X50946151Y-19296575D01*
X50961695Y-19315518D01*
X50980637Y-19331063D01*
X51002247Y-19342615D01*
X51025696Y-19349729D01*
X51050082Y-19352132D01*
X51074468Y-19349731D01*
X51097917Y-19342619D01*
X51119528Y-19331068D01*
X51138471Y-19315524D01*
X51146711Y-19306432D01*
X51173628Y-19273634D01*
X51291797Y-19176655D01*
X51426599Y-19104602D01*
X51572880Y-19060228D01*
X51725000Y-19045246D01*
X51877121Y-19060228D01*
X52023402Y-19104602D01*
X52158204Y-19176655D01*
X52158207Y-19176657D01*
X52158208Y-19176658D01*
X52276369Y-19273631D01*
X52367573Y-19384762D01*
X52373345Y-19391796D01*
X52445398Y-19526598D01*
X52489772Y-19672879D01*
X52501000Y-19786882D01*
X52501000Y-20413118D01*
X52489772Y-20527121D01*
X52445398Y-20673402D01*
X52373345Y-20808204D01*
X52276367Y-20926372D01*
X52158206Y-21023343D01*
X52023401Y-21095398D01*
X51877120Y-21139772D01*
X51725000Y-21154754D01*
X51572879Y-21139772D01*
X51426598Y-21095398D01*
X51291796Y-21023345D01*
X51173628Y-20926367D01*
X51076657Y-20808206D01*
X51004602Y-20673401D01*
X50960228Y-20527120D01*
X50949000Y-20413117D01*
X50949000Y-19786882D01*
X50960228Y-19672879D01*
X51006402Y-19520664D01*
X51011052Y-19509439D01*
X51015833Y-19485405D01*
X51015833Y-19460901D01*
X51011054Y-19436868D01*
X51001677Y-19414229D01*
X50988064Y-19393854D01*
X50970737Y-19376527D01*
X50950363Y-19362912D01*
X50927725Y-19353534D01*
X50903691Y-19348753D01*
X50879187Y-19348753D01*
X50855154Y-19353532D01*
X50832515Y-19362909D01*
X50812140Y-19376522D01*
X50803048Y-19384762D01*
X50787496Y-19400314D01*
X50713629Y-19449671D01*
X50713628Y-19449672D01*
X50713627Y-19449672D01*
X50631552Y-19483669D01*
X50544421Y-19501000D01*
X50455579Y-19501000D01*
X50368448Y-19483669D01*
X50286373Y-19449672D01*
X50286372Y-19449672D01*
X50286371Y-19449671D01*
X50212504Y-19400314D01*
X50149686Y-19337496D01*
X50149602Y-19337370D01*
X50100328Y-19263627D01*
X50066331Y-19181552D01*
X50049000Y-19094421D01*
X50049000Y-19005579D01*
X50066331Y-18918448D01*
X50100328Y-18836373D01*
X50149685Y-18762505D01*
X50212505Y-18699685D01*
X50249187Y-18675175D01*
X50286371Y-18650329D01*
X50286373Y-18650328D01*
X50368448Y-18616331D01*
X50455579Y-18599000D01*
X50544421Y-18599000D01*
X50631552Y-18616331D01*
G37*
G36*
X45631552Y-18616331D02*
G01*
X45713627Y-18650328D01*
X45713629Y-18650329D01*
X45750813Y-18675175D01*
X45787495Y-18699685D01*
X45850315Y-18762505D01*
X45899672Y-18836373D01*
X45933669Y-18918448D01*
X45951000Y-19005579D01*
X45951000Y-19094421D01*
X45933669Y-19181552D01*
X45899672Y-19263627D01*
X45850399Y-19337370D01*
X45850314Y-19337496D01*
X45787496Y-19400314D01*
X45713629Y-19449671D01*
X45713628Y-19449672D01*
X45713627Y-19449672D01*
X45631552Y-19483669D01*
X45544421Y-19501000D01*
X45455579Y-19501000D01*
X45368448Y-19483669D01*
X45286373Y-19449672D01*
X45286372Y-19449672D01*
X45286371Y-19449671D01*
X45212504Y-19400314D01*
X45196952Y-19384762D01*
X45178010Y-19369217D01*
X45156399Y-19357666D01*
X45132950Y-19350553D01*
X45108564Y-19348151D01*
X45084178Y-19350553D01*
X45060729Y-19357666D01*
X45039118Y-19369217D01*
X45020176Y-19384762D01*
X45004631Y-19403704D01*
X44993080Y-19425315D01*
X44985967Y-19448764D01*
X44983565Y-19473150D01*
X44985967Y-19497536D01*
X44993080Y-19520985D01*
X44994796Y-19524614D01*
X45039772Y-19672879D01*
X45051000Y-19786882D01*
X45051000Y-20413118D01*
X45039772Y-20527121D01*
X44995398Y-20673402D01*
X44923345Y-20808204D01*
X44826367Y-20926372D01*
X44708206Y-21023343D01*
X44573401Y-21095398D01*
X44427120Y-21139772D01*
X44275000Y-21154754D01*
X44122879Y-21139772D01*
X43976598Y-21095398D01*
X43841796Y-21023345D01*
X43723628Y-20926367D01*
X43626657Y-20808206D01*
X43554602Y-20673401D01*
X43510228Y-20527120D01*
X43499000Y-20413117D01*
X43499000Y-19786882D01*
X43510228Y-19672879D01*
X43554601Y-19526600D01*
X43626657Y-19391794D01*
X43723632Y-19273631D01*
X43765363Y-19239383D01*
X43841793Y-19176658D01*
X43841794Y-19176657D01*
X43841797Y-19176655D01*
X43976599Y-19104602D01*
X44122880Y-19060228D01*
X44275000Y-19045246D01*
X44427121Y-19060228D01*
X44573402Y-19104602D01*
X44708204Y-19176655D01*
X44826372Y-19273633D01*
X44853288Y-19306430D01*
X44870615Y-19323757D01*
X44890989Y-19337370D01*
X44913628Y-19346748D01*
X44937661Y-19351528D01*
X44962165Y-19351528D01*
X44986199Y-19346748D01*
X45008837Y-19337370D01*
X45029212Y-19323756D01*
X45046539Y-19306429D01*
X45060152Y-19286055D01*
X45069530Y-19263416D01*
X45074310Y-19239383D01*
X45074310Y-19214879D01*
X45069530Y-19190845D01*
X45066490Y-19182351D01*
X45049000Y-19094421D01*
X45049000Y-19005579D01*
X45066331Y-18918448D01*
X45100328Y-18836373D01*
X45149685Y-18762505D01*
X45212505Y-18699685D01*
X45249187Y-18675175D01*
X45286371Y-18650329D01*
X45286373Y-18650328D01*
X45368448Y-18616331D01*
X45455579Y-18599000D01*
X45544421Y-18599000D01*
X45631552Y-18616331D01*
G37*
G36*
X21487421Y-16659143D02*
G01*
X21619557Y-16699227D01*
X21619559Y-16699228D01*
X21741339Y-16764320D01*
X21741341Y-16764321D01*
X21741340Y-16764321D01*
X21848080Y-16851920D01*
X21935679Y-16958660D01*
X22000773Y-17080443D01*
X22040857Y-17212579D01*
X22051000Y-17315568D01*
X22051000Y-19884432D01*
X22040857Y-19987421D01*
X22000773Y-20119556D01*
X22000772Y-20119559D01*
X21935681Y-20241338D01*
X21935679Y-20241340D01*
X21848080Y-20348080D01*
X21768836Y-20413113D01*
X21741338Y-20435680D01*
X21619558Y-20500772D01*
X21619556Y-20500773D01*
X21487420Y-20540857D01*
X21350000Y-20554391D01*
X21212579Y-20540857D01*
X21080443Y-20500773D01*
X21080441Y-20500772D01*
X20958661Y-20435680D01*
X20931168Y-20413117D01*
X20851920Y-20348080D01*
X20764321Y-20241339D01*
X20699227Y-20119556D01*
X20659143Y-19987420D01*
X20649000Y-19884431D01*
X20649001Y-17315568D01*
X20659144Y-17212579D01*
X20699228Y-17080443D01*
X20764322Y-16958660D01*
X20851921Y-16851920D01*
X20958661Y-16764321D01*
X20958660Y-16764321D01*
X20958662Y-16764320D01*
X21080442Y-16699228D01*
X21080444Y-16699227D01*
X21212580Y-16659143D01*
X21350000Y-16645609D01*
X21487421Y-16659143D01*
G37*
G36*
X28787421Y-16659143D02*
G01*
X28919557Y-16699227D01*
X28919559Y-16699228D01*
X29041339Y-16764320D01*
X29041341Y-16764321D01*
X29041340Y-16764321D01*
X29148080Y-16851920D01*
X29235679Y-16958660D01*
X29300773Y-17080443D01*
X29340857Y-17212579D01*
X29351000Y-17315568D01*
X29351000Y-19884432D01*
X29340857Y-19987421D01*
X29300773Y-20119556D01*
X29300772Y-20119559D01*
X29235681Y-20241338D01*
X29235679Y-20241340D01*
X29148080Y-20348080D01*
X29068836Y-20413113D01*
X29041338Y-20435680D01*
X28919558Y-20500772D01*
X28919556Y-20500773D01*
X28787420Y-20540857D01*
X28650000Y-20554391D01*
X28512579Y-20540857D01*
X28380443Y-20500773D01*
X28380441Y-20500772D01*
X28258661Y-20435680D01*
X28231168Y-20413117D01*
X28151920Y-20348080D01*
X28064321Y-20241339D01*
X27999227Y-20119556D01*
X27959143Y-19987420D01*
X27949000Y-19884431D01*
X27949001Y-17315568D01*
X27959144Y-17212579D01*
X27999228Y-17080443D01*
X28064322Y-16958660D01*
X28151921Y-16851920D01*
X28258661Y-16764321D01*
X28258660Y-16764321D01*
X28258662Y-16764320D01*
X28380442Y-16699228D01*
X28380444Y-16699227D01*
X28512580Y-16659143D01*
X28650000Y-16645609D01*
X28787421Y-16659143D01*
G37*
G36*
X73360721Y-19470174D02*
G01*
X73460995Y-19511709D01*
X73483278Y-19526598D01*
X73551242Y-19572010D01*
X73627990Y-19648758D01*
X73627991Y-19648760D01*
X73688291Y-19739005D01*
X73729826Y-19839279D01*
X73751000Y-19945730D01*
X73751000Y-20054270D01*
X73729826Y-20160721D01*
X73688291Y-20260995D01*
X73688290Y-20260996D01*
X73627990Y-20351242D01*
X73551242Y-20427990D01*
X73539733Y-20435680D01*
X73460995Y-20488291D01*
X73360721Y-20529826D01*
X73254270Y-20551000D01*
X73145730Y-20551000D01*
X73039279Y-20529826D01*
X72939005Y-20488291D01*
X72860267Y-20435680D01*
X72848758Y-20427990D01*
X72772010Y-20351242D01*
X72711710Y-20260996D01*
X72711709Y-20260995D01*
X72670174Y-20160721D01*
X72649000Y-20054270D01*
X72649000Y-19945730D01*
X72670174Y-19839279D01*
X72711709Y-19739005D01*
X72772009Y-19648760D01*
X72772010Y-19648758D01*
X72848758Y-19572010D01*
X72916722Y-19526598D01*
X72939005Y-19511709D01*
X73039279Y-19470174D01*
X73145730Y-19449000D01*
X73254270Y-19449000D01*
X73360721Y-19470174D01*
G37*
G36*
X68960721Y-19470174D02*
G01*
X69060995Y-19511709D01*
X69083278Y-19526598D01*
X69151242Y-19572010D01*
X69227990Y-19648758D01*
X69227991Y-19648760D01*
X69288291Y-19739005D01*
X69329826Y-19839279D01*
X69351000Y-19945730D01*
X69351000Y-20054270D01*
X69329826Y-20160721D01*
X69288291Y-20260995D01*
X69288290Y-20260996D01*
X69227990Y-20351242D01*
X69151242Y-20427990D01*
X69139733Y-20435680D01*
X69060995Y-20488291D01*
X68960721Y-20529826D01*
X68854270Y-20551000D01*
X68745730Y-20551000D01*
X68639279Y-20529826D01*
X68539005Y-20488291D01*
X68460267Y-20435680D01*
X68448758Y-20427990D01*
X68372010Y-20351242D01*
X68311710Y-20260996D01*
X68311709Y-20260995D01*
X68270174Y-20160721D01*
X68249000Y-20054270D01*
X68249000Y-19945730D01*
X68270174Y-19839279D01*
X68311709Y-19739005D01*
X68372009Y-19648760D01*
X68372010Y-19648758D01*
X68448758Y-19572010D01*
X68516722Y-19526598D01*
X68539005Y-19511709D01*
X68639279Y-19470174D01*
X68745730Y-19449000D01*
X68854270Y-19449000D01*
X68960721Y-19470174D01*
G37*
G36*
X97767817Y-15882696D02*
G01*
X97881104Y-15917062D01*
X97985511Y-15972869D01*
X97985513Y-15972870D01*
X97985512Y-15972870D01*
X98077027Y-16047973D01*
X98140711Y-16125572D01*
X98152131Y-16139488D01*
X98207938Y-16243895D01*
X98242304Y-16357182D01*
X98251000Y-16445481D01*
X98251000Y-17804519D01*
X98242304Y-17892818D01*
X98207938Y-18006105D01*
X98152131Y-18110512D01*
X98077027Y-18202027D01*
X97985512Y-18277131D01*
X97881105Y-18332938D01*
X97767818Y-18367304D01*
X97650000Y-18378907D01*
X97532183Y-18367304D01*
X97418896Y-18332938D01*
X97314489Y-18277131D01*
X97222974Y-18202027D01*
X97147870Y-18110512D01*
X97092063Y-18006105D01*
X97057697Y-17892818D01*
X97049001Y-17804519D01*
X97049000Y-16445482D01*
X97057696Y-16357183D01*
X97092062Y-16243896D01*
X97147869Y-16139489D01*
X97161338Y-16123077D01*
X97222973Y-16047973D01*
X97314487Y-15972870D01*
X97314486Y-15972870D01*
X97314488Y-15972869D01*
X97418895Y-15917062D01*
X97532182Y-15882696D01*
X97650000Y-15871093D01*
X97767817Y-15882696D01*
G37*
G36*
X90467817Y-15882696D02*
G01*
X90581104Y-15917062D01*
X90685511Y-15972869D01*
X90685513Y-15972870D01*
X90685512Y-15972870D01*
X90777027Y-16047973D01*
X90840711Y-16125572D01*
X90852131Y-16139488D01*
X90907938Y-16243895D01*
X90942304Y-16357182D01*
X90951000Y-16445481D01*
X90951000Y-17804519D01*
X90942304Y-17892818D01*
X90907938Y-18006105D01*
X90852131Y-18110512D01*
X90777027Y-18202027D01*
X90685512Y-18277131D01*
X90581105Y-18332938D01*
X90467818Y-18367304D01*
X90350000Y-18378907D01*
X90232183Y-18367304D01*
X90118896Y-18332938D01*
X90014489Y-18277131D01*
X89922974Y-18202027D01*
X89847870Y-18110512D01*
X89792063Y-18006105D01*
X89757697Y-17892818D01*
X89749001Y-17804519D01*
X89749000Y-16445482D01*
X89757696Y-16357183D01*
X89792062Y-16243896D01*
X89847869Y-16139489D01*
X89861338Y-16123077D01*
X89922973Y-16047973D01*
X90014487Y-15972870D01*
X90014486Y-15972870D01*
X90014488Y-15972869D01*
X90118895Y-15917062D01*
X90232182Y-15882696D01*
X90350000Y-15871093D01*
X90467817Y-15882696D01*
G37*
G36*
X44247715Y-15358058D02*
G01*
X44365722Y-15393855D01*
X44474468Y-15451981D01*
X44569790Y-15530210D01*
X44648019Y-15625532D01*
X44706145Y-15734278D01*
X44741942Y-15852285D01*
X44751000Y-15944254D01*
X44751000Y-16655746D01*
X44741942Y-16747715D01*
X44706145Y-16865722D01*
X44648019Y-16974468D01*
X44569790Y-17069790D01*
X44474468Y-17148019D01*
X44365721Y-17206145D01*
X44247714Y-17241942D01*
X44125000Y-17254028D01*
X44002285Y-17241942D01*
X43884278Y-17206145D01*
X43775532Y-17148019D01*
X43680210Y-17069790D01*
X43601981Y-16974468D01*
X43543855Y-16865721D01*
X43539669Y-16851920D01*
X43513096Y-16764321D01*
X43508058Y-16747714D01*
X43499000Y-16655745D01*
X43499000Y-15944254D01*
X43508058Y-15852285D01*
X43543855Y-15734279D01*
X43601982Y-15625532D01*
X43680211Y-15530210D01*
X43775533Y-15451981D01*
X43884279Y-15393855D01*
X44002286Y-15358058D01*
X44125000Y-15345972D01*
X44247715Y-15358058D01*
G37*
G36*
X51997715Y-15358058D02*
G01*
X52115722Y-15393855D01*
X52224468Y-15451981D01*
X52319790Y-15530210D01*
X52398019Y-15625532D01*
X52456145Y-15734278D01*
X52491942Y-15852285D01*
X52501000Y-15944254D01*
X52501000Y-16655746D01*
X52491942Y-16747715D01*
X52456145Y-16865722D01*
X52398019Y-16974468D01*
X52319790Y-17069790D01*
X52224468Y-17148019D01*
X52115721Y-17206145D01*
X51997714Y-17241942D01*
X51875000Y-17254028D01*
X51752285Y-17241942D01*
X51634278Y-17206145D01*
X51525532Y-17148019D01*
X51430210Y-17069790D01*
X51351981Y-16974468D01*
X51293855Y-16865721D01*
X51289669Y-16851920D01*
X51263096Y-16764321D01*
X51258058Y-16747714D01*
X51249000Y-16655745D01*
X51249000Y-15944254D01*
X51258058Y-15852285D01*
X51293855Y-15734279D01*
X51351982Y-15625532D01*
X51430211Y-15530210D01*
X51525533Y-15451981D01*
X51634279Y-15393855D01*
X51752286Y-15358058D01*
X51875000Y-15345972D01*
X51997715Y-15358058D01*
G37*
M02*
