M48
; DRILL file {KiCad (5.1.5)-3} date 27/04/2020 12:01:46 SA
; FORMAT={-:-/ absolute / inch / decimal}
; #@! TF.CreationDate,2020-04-27T00:01:46+07:00
; #@! TF.GenerationSoftware,Kicad,Pcbnew,(5.1.5)-3
; #@! TF.FileFunction,Plated,1,2,PTH
FMAT,2
INCH
T1C0.0157
T2C0.0177
T3C0.0197
T4C0.0217
T5C0.0236
T6C0.0276
T7C0.0315
T8C0.0335
T9C0.0354
T10C0.0394
%
G90
G05
T1
X0.8169Y-3.0118
X0.8425Y-1.5669
X0.8858Y-2.9823
X0.8957Y-1.5039
X1.0787Y-1.5039
X1.0827Y-2.9823
X1.1181Y-1.5669
X1.1417Y-3.0118
X2.811Y-1.4528
X2.8622Y-1.435
X3.5925Y-2.4016
X3.622Y-1.0039
X3.6811Y-2.4705
X2.685Y-1.5862
X2.7008Y-1.6138
X2.7323Y-1.6138
X2.748Y-1.5862
X2.7638Y-1.6138
X2.7795Y-1.5862
X2.811Y-1.5862
X2.8268Y-1.6138
X2.8425Y-1.5862
X2.8583Y-1.6138
X2.8898Y-1.6138
X2.9055Y-1.5862
T6
X3.6378Y-0.9055
X3.6693Y-0.8366
X3.7008Y-0.9055
X3.7323Y-0.8366
X3.7638Y-0.9055
X3.6378Y-2.3031
X3.6693Y-2.2343
X3.7008Y-2.3031
X3.7323Y-2.2343
X3.7638Y-2.3031
T7
X2.6772Y-3.2087
X2.7559Y-3.2087
X2.8346Y-3.2087
X2.9134Y-3.2087
T10
X2.5915Y-1.122
X2.7165Y-1.122
X2.8665Y-1.122
X2.9915Y-1.122
X3.497Y-1.122
X3.622Y-1.122
X3.772Y-1.122
X3.897Y-1.122
X2.5953Y-1.3583
X2.7203Y-1.3583
X2.8703Y-1.3583
X2.9953Y-1.3583
X1.6898Y-1.3583
X1.8148Y-1.3583
X1.9648Y-1.3583
X2.0898Y-1.3583
X1.6898Y-1.122
X1.8148Y-1.122
X1.9648Y-1.122
X2.0898Y-1.122
X0.7843Y-1.3583
X0.9093Y-1.3583
X1.0593Y-1.3583
X1.1843Y-1.3583
X3.5008Y-1.3583
X3.6258Y-1.3583
X3.7758Y-1.3583
X3.9008Y-1.3583
X0.7805Y-1.122
X0.9055Y-1.122
X1.0555Y-1.122
X1.1805Y-1.122
T2
G00X3.56Y-3.2717
M15
G01X3.56Y-3.2402
M16
G05
G00X3.8415Y-3.2402
M15
G01X3.8415Y-3.2717
M16
G05
G00X3.56Y-1.8543
M15
G01X3.56Y-1.8228
M16
G05
G00X3.8415Y-1.8228
M15
G01X3.8415Y-1.8543
M16
G05
T3
G00X2.6185Y-1.8323
M15
G01X2.6185Y-1.8559
M16
G05
G00X2.6327Y-1.598
M15
G01X2.6327Y-1.6217
M16
G05
G00X2.9579Y-1.598
M15
G01X2.9579Y-1.6217
M16
G05
G00X2.972Y-1.8323
M15
G01X2.972Y-1.8559
M16
G05
T4
G00X1.7372Y-0.6545
M15
G01X1.7372Y-0.6289
M16
G05
G00X2.0423Y-0.6545
M15
G01X2.0423Y-0.6289
M16
G05
G00X1.7372Y-2.0719
M15
G01X1.7372Y-2.0463
M16
G05
G00X2.0423Y-2.0719
M15
G01X2.0423Y-2.0463
M16
G05
T5
G00X0.8142Y-1.6602
M15
G01X0.8142Y-1.7035
M16
G05
G00X0.8142Y-1.8346
M15
G01X0.8142Y-1.8583
M16
G05
G00X1.1543Y-1.6602
M15
G01X1.1543Y-1.7035
M16
G05
G00X1.1543Y-1.8346
M15
G01X1.1543Y-1.8583
M16
G05
G00X0.8142Y-3.0776
M15
G01X0.8142Y-3.1209
M16
G05
G00X0.8142Y-3.252
M15
G01X0.8142Y-3.2756
M16
G05
G00X1.1543Y-3.0776
M15
G01X1.1543Y-3.1209
M16
G05
G00X1.1543Y-3.252
M15
G01X1.1543Y-3.2756
M16
G05
T6
G00X3.5571Y-2.0463
M15
G01X3.5571Y-2.0974
M16
G05
G00X3.8445Y-2.0463
M15
G01X3.8445Y-2.0974
M16
G05
G00X3.5571Y-0.6486
M15
G01X3.5571Y-0.6998
M16
G05
G00X3.8445Y-0.6486
M15
G01X3.8445Y-0.6998
M16
G05
G00X0.8406Y-2.1988
M15
G01X0.8406Y-2.1004
M16
G05
G00X1.128Y-2.1988
M15
G01X1.128Y-2.1004
M16
G05
G00X3.5571Y-0.8455
M15
G01X3.5571Y-0.8967
M16
G05
G00X3.8445Y-0.8455
M15
G01X3.8445Y-0.8967
M16
G05
G00X0.8406Y-0.7815
M15
G01X0.8406Y-0.6831
M16
G05
G00X1.128Y-0.7815
M15
G01X1.128Y-0.6831
M16
G05
G00X3.5571Y-2.2431
M15
G01X3.5571Y-2.2943
M16
G05
G00X3.8445Y-2.2431
M15
G01X3.8445Y-2.2943
M16
G05
T8
G00X1.7431Y-0.8022
M15
G01X1.7431Y-0.7805
M16
G05
G00X2.0364Y-0.8022
M15
G01X2.0364Y-0.7805
M16
G05
G00X1.7431Y-2.2195
M15
G01X1.7431Y-2.1978
M16
G05
G00X2.0364Y-2.2195
M15
G01X2.0364Y-2.1978
M16
G05
T9
G00X1.7992Y-2.9921
M15
G01X1.7992Y-2.9764
M16
G05
G00X1.7992Y-3.1496
M15
G01X1.7992Y-3.1339
M16
G05
G00X1.7992Y-3.2677
M15
G01X1.7992Y-3.252
M16
G05
G00X1.9803Y-2.9488
M15
G01X1.9803Y-2.9331
M16
G05
G00X1.7992Y-1.4961
M15
G01X1.7992Y-1.4803
M16
G05
G00X1.7992Y-1.6535
M15
G01X1.7992Y-1.6378
M16
G05
G00X1.7992Y-1.7717
M15
G01X1.7992Y-1.7559
M16
G05
G00X1.9803Y-1.4528
M15
G01X1.9803Y-1.437
M16
G05
T0
M30
