G04 #@! TF.GenerationSoftware,KiCad,Pcbnew,(5.1.5)-3*
G04 #@! TF.CreationDate,2020-04-27T00:01:42+07:00*
G04 #@! TF.ProjectId,adapter,61646170-7465-4722-9e6b-696361645f70,rev?*
G04 #@! TF.SameCoordinates,Original*
G04 #@! TF.FileFunction,Paste,Top*
G04 #@! TF.FilePolarity,Positive*
%FSLAX46Y46*%
G04 Gerber Fmt 4.6, Leading zero omitted, Abs format (unit mm)*
G04 Created by KiCad (PCBNEW (5.1.5)-3) date 2020-04-27 00:01:42*
%MOMM*%
%LPD*%
G04 APERTURE LIST*
%ADD10R,2.000000X1.300000*%
%ADD11R,0.400000X1.000000*%
%ADD12R,0.500000X1.400000*%
%ADD13O,1.300000X3.800000*%
%ADD14R,0.450000X1.300000*%
%ADD15R,0.300000X1.150000*%
%ADD16R,0.600000X1.150000*%
%ADD17R,1.750000X1.900000*%
%ADD18R,0.400000X1.400000*%
%ADD19R,1.150000X1.450000*%
%ADD20R,0.500000X2.000000*%
%ADD21R,2.000000X1.700000*%
%ADD22R,0.300000X0.700000*%
G04 APERTURE END LIST*
D10*
X75300000Y-72210000D03*
X66700000Y-72210000D03*
D11*
X72500000Y-74910000D03*
X71500000Y-74910000D03*
X70500000Y-74910000D03*
X69500000Y-74910000D03*
X46500000Y-72160000D03*
X47500000Y-72160000D03*
X48500000Y-72160000D03*
X49500000Y-72160000D03*
D10*
X43700000Y-69460000D03*
X52300000Y-69460000D03*
D11*
X92500000Y-74910000D03*
X93500000Y-74910000D03*
X94500000Y-74910000D03*
X95500000Y-74910000D03*
D10*
X89700000Y-72210000D03*
X98300000Y-72210000D03*
X29300000Y-71710000D03*
X20700000Y-71710000D03*
D11*
X26500000Y-74410000D03*
X25500000Y-74410000D03*
X24500000Y-74410000D03*
X23500000Y-74410000D03*
D10*
X89700000Y-63790000D03*
X98300000Y-63790000D03*
D11*
X92500000Y-61090000D03*
X93500000Y-61090000D03*
X94500000Y-61090000D03*
X95500000Y-61090000D03*
X72500000Y-61090000D03*
X71500000Y-61090000D03*
X70500000Y-61090000D03*
X69500000Y-61090000D03*
D10*
X75300000Y-63790000D03*
X66700000Y-63790000D03*
X43700000Y-62790000D03*
X52300000Y-62790000D03*
D11*
X46500000Y-60090000D03*
X47500000Y-60090000D03*
X48500000Y-60090000D03*
X49500000Y-60090000D03*
D10*
X20700000Y-62790000D03*
X29300000Y-62790000D03*
D11*
X23500000Y-60090000D03*
X24500000Y-60090000D03*
X25500000Y-60090000D03*
X26500000Y-60090000D03*
D12*
X26600000Y-57000000D03*
X25800000Y-57000000D03*
X25000000Y-57000000D03*
X24200000Y-57000000D03*
X23400000Y-57000000D03*
D13*
X28650000Y-54600000D03*
X21350000Y-54600000D03*
D14*
X46700000Y-56150000D03*
X47350000Y-56150000D03*
X48000000Y-56150000D03*
X48650000Y-56150000D03*
X49300000Y-56150000D03*
D15*
X23250000Y-78055000D03*
X23750000Y-78055000D03*
X24250000Y-78055000D03*
X26750000Y-78055000D03*
X26250000Y-78055000D03*
X25750000Y-78055000D03*
X25250000Y-78055000D03*
D16*
X21800000Y-78055000D03*
X22600000Y-78055000D03*
X27400000Y-78055000D03*
X28200000Y-78055000D03*
D15*
X24750000Y-78055000D03*
D17*
X95125000Y-82700000D03*
D18*
X93350000Y-80050000D03*
X92700000Y-80050000D03*
X95300000Y-80050000D03*
X94650000Y-80050000D03*
X94000000Y-80050000D03*
D17*
X92875000Y-82700000D03*
D19*
X96320000Y-80470000D03*
X91680000Y-80470000D03*
D20*
X72600000Y-58700000D03*
X71800000Y-58700000D03*
X71000000Y-58700000D03*
X70200000Y-58700000D03*
X69400000Y-58700000D03*
D21*
X75450000Y-58600000D03*
X75450000Y-53150000D03*
X66550000Y-58600000D03*
X66550000Y-53150000D03*
D19*
X91680000Y-44470000D03*
X96320000Y-44470000D03*
D17*
X92875000Y-46700000D03*
D18*
X94000000Y-44050000D03*
X94650000Y-44050000D03*
X95300000Y-44050000D03*
X92700000Y-44050000D03*
X93350000Y-44050000D03*
D17*
X95125000Y-46700000D03*
D22*
X73250000Y-38980000D03*
X71750000Y-38980000D03*
X72250000Y-38980000D03*
X72750000Y-38980000D03*
X73750000Y-38980000D03*
X71250000Y-38980000D03*
X70750000Y-38980000D03*
X70250000Y-38980000D03*
X69750000Y-38980000D03*
X69250000Y-38980000D03*
X68750000Y-38980000D03*
X68250000Y-38980000D03*
D21*
X66550000Y-17150000D03*
X66550000Y-22600000D03*
X75450000Y-17150000D03*
X75450000Y-22600000D03*
D20*
X69400000Y-22700000D03*
X70200000Y-22700000D03*
X71000000Y-22700000D03*
X71800000Y-22700000D03*
X72600000Y-22700000D03*
D14*
X49300000Y-20150000D03*
X48650000Y-20150000D03*
X48000000Y-20150000D03*
X47350000Y-20150000D03*
X46700000Y-20150000D03*
D13*
X21350000Y-18600000D03*
X28650000Y-18600000D03*
D12*
X23400000Y-21000000D03*
X24200000Y-21000000D03*
X25000000Y-21000000D03*
X25800000Y-21000000D03*
X26600000Y-21000000D03*
D15*
X24750000Y-42055000D03*
D16*
X28200000Y-42055000D03*
X27400000Y-42055000D03*
X22600000Y-42055000D03*
X21800000Y-42055000D03*
D15*
X25250000Y-42055000D03*
X25750000Y-42055000D03*
X26250000Y-42055000D03*
X26750000Y-42055000D03*
X24250000Y-42055000D03*
X23750000Y-42055000D03*
X23250000Y-42055000D03*
M02*
