G04 #@! TF.GenerationSoftware,KiCad,Pcbnew,(5.0.2)-1*
G04 #@! TF.CreationDate,2019-03-04T21:41:52+07:00*
G04 #@! TF.ProjectId,adapter,61646170-7465-4722-9e6b-696361645f70,rev?*
G04 #@! TF.SameCoordinates,Original*
G04 #@! TF.FileFunction,Copper,L1,Top*
G04 #@! TF.FilePolarity,Positive*
%FSLAX46Y46*%
G04 Gerber Fmt 4.6, Leading zero omitted, Abs format (unit mm)*
G04 Created by KiCad (PCBNEW (5.0.2)-1) date 3/4/2019 9:41:52 PM*
%MOMM*%
%LPD*%
G01*
G04 APERTURE LIST*
G04 #@! TA.AperFunction,ComponentPad*
%ADD10C,1.500000*%
G04 #@! TD*
G04 #@! TA.AperFunction,ComponentPad*
%ADD11R,1.500000X1.500000*%
G04 #@! TD*
G04 #@! TA.AperFunction,SMDPad,CuDef*
%ADD12R,0.450000X1.300000*%
G04 #@! TD*
G04 #@! TA.AperFunction,ComponentPad*
%ADD13O,1.450000X2.000000*%
G04 #@! TD*
G04 #@! TA.AperFunction,ComponentPad*
%ADD14O,1.150000X1.800000*%
G04 #@! TD*
G04 #@! TA.AperFunction,ComponentPad*
%ADD15O,1.300000X3.800000*%
G04 #@! TD*
G04 #@! TA.AperFunction,SMDPad,CuDef*
%ADD16R,0.500000X1.400000*%
G04 #@! TD*
G04 #@! TA.AperFunction,SMDPad,CuDef*
%ADD17R,0.300000X1.150000*%
G04 #@! TD*
G04 #@! TA.AperFunction,SMDPad,CuDef*
%ADD18R,0.600000X1.150000*%
G04 #@! TD*
G04 #@! TA.AperFunction,ComponentPad*
%ADD19O,1.000000X1.600000*%
G04 #@! TD*
G04 #@! TA.AperFunction,ComponentPad*
%ADD20O,1.000000X2.100000*%
G04 #@! TD*
G04 #@! TA.AperFunction,ComponentPad*
%ADD21O,1.600000X2.000000*%
G04 #@! TD*
G04 #@! TA.AperFunction,ViaPad*
%ADD22C,0.800000*%
G04 #@! TD*
G04 #@! TA.AperFunction,Conductor*
%ADD23C,0.310000*%
G04 #@! TD*
G04 APERTURE END LIST*
D10*
G04 #@! TO.P,,1*
G04 #@! TO.N,N/C*
X29985000Y-28500000D03*
X26810000Y-28500000D03*
X23000000Y-28500000D03*
D11*
X19825000Y-28500000D03*
G04 #@! TD*
D10*
G04 #@! TO.P,,1*
G04 #@! TO.N,N/C*
X51080000Y-28500000D03*
X47905000Y-28500000D03*
X44095000Y-28500000D03*
D11*
X40920000Y-28500000D03*
G04 #@! TD*
D10*
G04 #@! TO.P,,1*
G04 #@! TO.N,N/C*
X19920000Y-32500000D03*
X23095000Y-32500000D03*
X26905000Y-32500000D03*
D11*
X30080000Y-32500000D03*
G04 #@! TD*
D12*
G04 #@! TO.P,Micro USB,1*
G04 #@! TO.N,N/C*
X47300000Y-20150000D03*
G04 #@! TO.P,Micro USB,2*
X46650000Y-20150000D03*
G04 #@! TO.P,Micro USB,3*
X46000000Y-20150000D03*
G04 #@! TO.P,Micro USB,4*
X45350000Y-20150000D03*
G04 #@! TO.P,Micro USB,5*
X44700000Y-20150000D03*
D13*
G04 #@! TO.P,Micro USB,6*
X49725000Y-20100000D03*
X42275000Y-20100000D03*
D14*
X49875000Y-16300000D03*
X42125000Y-16300000D03*
G04 #@! TD*
D15*
G04 #@! TO.P,Mini USB,6*
G04 #@! TO.N,N/C*
X21350000Y-18600000D03*
X28650000Y-18600000D03*
D16*
G04 #@! TO.P,Mini USB,5*
X23400000Y-21000000D03*
G04 #@! TO.P,Mini USB,4*
X24200000Y-21000000D03*
G04 #@! TO.P,Mini USB,3*
X25000000Y-21000000D03*
G04 #@! TO.P,Mini USB,2*
X25800000Y-21000000D03*
G04 #@! TO.P,Mini USB,1*
X26600000Y-21000000D03*
G04 #@! TD*
D17*
G04 #@! TO.P,,B8*
G04 #@! TO.N,N/C*
X23250000Y-40055000D03*
G04 #@! TO.P,,A5*
X23750000Y-40055000D03*
G04 #@! TO.P,,B7*
X24250000Y-40055000D03*
G04 #@! TO.P,,B5*
X26750000Y-40055000D03*
G04 #@! TO.P,,A8*
X26250000Y-40055000D03*
G04 #@! TO.P,,B6*
X25750000Y-40055000D03*
G04 #@! TO.P,,A7*
X25250000Y-40055000D03*
D18*
G04 #@! TO.P,,A1*
X21800000Y-40055000D03*
D19*
G04 #@! TO.P,,S1*
X29320000Y-44900000D03*
X20680000Y-44900000D03*
D20*
X29320000Y-40720000D03*
X20680000Y-40720000D03*
D18*
G04 #@! TO.P,,A4*
X22600000Y-40055000D03*
G04 #@! TO.P,,B4*
X27400000Y-40055000D03*
G04 #@! TO.P,,B1*
X28200000Y-40055000D03*
D17*
G04 #@! TO.P,,A6*
X24750000Y-40055000D03*
G04 #@! TD*
D21*
G04 #@! TO.P,,3*
G04 #@! TO.N,N/C*
X43700000Y-39800000D03*
G04 #@! TO.P,,4*
X43700000Y-42800000D03*
G04 #@! TO.P,,2*
X43700000Y-35800000D03*
G04 #@! TO.P,,1*
X48300000Y-34700000D03*
G04 #@! TD*
D11*
G04 #@! TO.P,,1*
G04 #@! TO.N,N/C*
X51080000Y-32500000D03*
D10*
X47905000Y-32500000D03*
X44095000Y-32500000D03*
X40920000Y-32500000D03*
G04 #@! TD*
D22*
G04 #@! TO.N,*
X25750000Y-36000000D03*
G04 #@! TD*
D23*
G04 #@! TO.N,*
X44700000Y-20650000D02*
X44700000Y-22300000D01*
X40920000Y-26080000D02*
X40920000Y-28500000D01*
X44700000Y-22300000D02*
X40920000Y-26080000D01*
X47300000Y-22300000D02*
X47300000Y-20650000D01*
X51080000Y-26080000D02*
X47300000Y-22300000D01*
X51080000Y-28500000D02*
X51080000Y-26080000D01*
X45350000Y-27245000D02*
X45350000Y-20650000D01*
X44095000Y-28500000D02*
X45350000Y-27245000D01*
X46000000Y-26595000D02*
X46000000Y-20650000D01*
X47905000Y-28500000D02*
X46000000Y-26595000D01*
X19825000Y-25025000D02*
X19825000Y-28500000D01*
X23400000Y-21000000D02*
X23400000Y-21450000D01*
X23400000Y-21450000D02*
X19825000Y-25025000D01*
X26600000Y-21450000D02*
X30000000Y-24850000D01*
X26600000Y-21000000D02*
X26600000Y-21450000D01*
X30000000Y-27424340D02*
X30000000Y-24850000D01*
X29985000Y-27439340D02*
X30000000Y-27424340D01*
X29985000Y-28500000D02*
X29985000Y-27439340D01*
X24200000Y-27300000D02*
X23000000Y-28500000D01*
X24200000Y-21000000D02*
X24200000Y-27300000D01*
X25000000Y-26690000D02*
X26810000Y-28500000D01*
X25000000Y-21000000D02*
X25000000Y-26690000D01*
X21800000Y-34380000D02*
X19920000Y-32500000D01*
X21800000Y-40055000D02*
X21800000Y-34380000D01*
X27400000Y-40055000D02*
X27400000Y-37100000D01*
X30080000Y-34420000D02*
X30080000Y-32500000D01*
X27400000Y-37100000D02*
X30080000Y-34420000D01*
X24750000Y-40055000D02*
X24750000Y-41000000D01*
X24750000Y-41000000D02*
X25000000Y-41250000D01*
X25000000Y-41250000D02*
X25500000Y-41250000D01*
X25500000Y-41250000D02*
X25750000Y-41000000D01*
X25750000Y-41000000D02*
X25750000Y-40055000D01*
X24250000Y-35155000D02*
X26905000Y-32500000D01*
X24250000Y-38250000D02*
X24250000Y-35155000D01*
X24250000Y-38500000D02*
X24250000Y-38250000D01*
X25250000Y-39250000D02*
X25250000Y-40055000D01*
X25250000Y-38750000D02*
X25250000Y-39250000D01*
X25000000Y-38500000D02*
X25250000Y-38750000D01*
X24500000Y-38500000D02*
X24250000Y-38750000D01*
X24250000Y-38750000D02*
X24250000Y-38500000D01*
X24250000Y-40055000D02*
X24250000Y-38750000D01*
X24500000Y-38500000D02*
X25000000Y-38500000D01*
X24250000Y-38500000D02*
X24500000Y-38500000D01*
X25750000Y-40055000D02*
X25750000Y-39170000D01*
X25750000Y-39170000D02*
X25750000Y-36000000D01*
X51080000Y-33560000D02*
X51080000Y-32500000D01*
X51080000Y-36530000D02*
X51080000Y-33560000D01*
X44810000Y-42800000D02*
X51080000Y-36530000D01*
X43700000Y-42800000D02*
X44810000Y-42800000D01*
X48300000Y-32895000D02*
X47905000Y-32500000D01*
X48300000Y-34700000D02*
X48300000Y-32895000D01*
X43700000Y-32895000D02*
X44095000Y-32500000D01*
X43700000Y-35800000D02*
X43700000Y-32895000D01*
X42590000Y-39800000D02*
X43700000Y-39800000D01*
X40920000Y-38130000D02*
X42590000Y-39800000D01*
X40920000Y-32500000D02*
X40920000Y-38130000D01*
G04 #@! TD*
M02*
