M48
;DRILL file {KiCad (5.0.2)-1} date 12/03/2019 7:40:35 SA
;FORMAT={-:-/ absolute / inch / decimal}
FMAT,2
INCH,TZ
T1C0.0157
T2C0.0217
T3C0.0236
T4C0.0276
T5C0.0335
T6C0.0354
T7C0.0394
%
G90
G05
T1
X0.8346Y-1.4803
X0.9055Y-1.4252
X1.0138Y-1.3858
X1.0787Y-1.4252
X1.1181Y-1.4882
T7
X0.7843Y-1.2795
X0.9093Y-1.2795
X1.0593Y-1.2795
X1.1843Y-1.2795
X0.7805Y-1.122
X0.9055Y-1.122
X1.0555Y-1.122
X1.1805Y-1.122
X1.611Y-1.122
X1.736Y-1.122
X1.886Y-1.122
X2.011Y-1.122
X1.611Y-1.2795
X1.736Y-1.2795
X1.886Y-1.2795
X2.011Y-1.2795
T2
X1.6585Y-0.6545G85X1.6585Y-0.6289
G05
X1.9636Y-0.6545G85X1.9636Y-0.6289
G05
T3
X0.8142Y-1.5815G85X0.8142Y-1.6248
G05
X0.8142Y-1.7559G85X0.8142Y-1.7795
G05
X1.1543Y-1.5815G85X1.1543Y-1.6248
G05
X1.1543Y-1.7559G85X1.1543Y-1.7795
G05
T4
X0.8406Y-0.7815G85X0.8406Y-0.6831
G05
X1.128Y-0.7815G85X1.128Y-0.6831
G05
T5
X1.6644Y-0.8022G85X1.6644Y-0.7805
G05
X1.9577Y-0.8022G85X1.9577Y-0.7805
G05
T6
X1.7205Y-1.4173G85X1.7205Y-1.4016
G05
X1.7205Y-1.5748G85X1.7205Y-1.5591
G05
X1.7205Y-1.6929G85X1.7205Y-1.6772
G05
X1.9016Y-1.374G85X1.9016Y-1.3583
G05
T0
M30
